<svg enable-background="new 0 0 600 862" viewBox="0 0 600 862" xmlns="http://www.w3.org/2000/svg" xmlns:xlink="http://www.w3.org/1999/xlink"><image height="862" overflow="visible" width="600" xlink:href="../../../../Library/CloudStorage/OneDrive-DelftUniversityofTechnology/01 tud/year1/12 VCD/vcd-images/21.jpeg"/><path d="m-143.1-78.9h838.6v1026.6h-838.6z" fill="#fff" opacity=".5"/><circle cx="259" cy="461" fill="#fff" opacity=".1" r="50"/><circle cx="258" cy="429" fill="#00429d" opacity=".5" r="50"/><circle cx="237" cy="401" fill="#fff" opacity=".1" r="50"/><circle cx="229" cy="390" fill="#fff" opacity=".1" r="50"/><circle cx="157" cy="340" fill="#fff" opacity=".1" r="50"/><circle cx="151" cy="332" fill="#fff" opacity=".1" r="50"/><circle cx="106" cy="312" fill="#fff" opacity=".1" r="50"/><circle cx="111" cy="273" fill="#fff" opacity=".1" r="50"/><circle cx="152" cy="232" fill="#fff" opacity=".1" r="50"/><circle cx="217" cy="212" fill="#fff" opacity=".1" r="50"/><circle cx="278" cy="209" fill="#fff" opacity=".1" r="50"/><circle cx="320" cy="240" fill="#fff" opacity=".1" r="50"/><circle cx="360" cy="277" fill="#fff" opacity=".1" r="50"/><circle cx="376" cy="301" fill="#fff" opacity=".1" r="50"/><circle cx="435" cy="349" fill="#fff" opacity=".1" r="50"/><circle cx="457" cy="351" fill="#fff" opacity=".1" r="50"/><circle cx="493" cy="333" fill="#fff" opacity=".1" r="50"/><circle cx="513" cy="364" fill="#fff" opacity=".1" r="50"/><circle cx="464" cy="411" fill="#fff" opacity=".1" r="50"/><circle cx="372" cy="424" fill="#fff" opacity=".1" r="50"/><circle cx="312" cy="436" fill="#fff" opacity=".1" r="50"/><circle cx="294" cy="450" fill="#fff" opacity=".1" r="50"/><circle cx="311" cy="463" fill="#fff" opacity=".1" r="50"/><circle cx="281" cy="491" fill="#fff" opacity=".1" r="50"/><circle cx="236" cy="502" fill="#fff" opacity=".1" r="50"/><circle cx="229" cy="522" fill="#fff" opacity=".1" r="50"/><circle cx="212" cy="530" fill="#fff" opacity=".1" r="50"/><circle cx="193" cy="573" fill="#fff" opacity=".1" r="50"/><circle cx="201" cy="605" fill="#fff" opacity=".1" r="50"/><circle cx="193" cy="634" fill="#fff" opacity=".1" r="50"/><circle cx="180" cy="644" fill="#fff" opacity=".1" r="50"/><circle cx="235" cy="662" fill="#fff" opacity=".1" r="50"/><circle cx="295" cy="657" fill="#fff" opacity=".1" r="50"/><circle cx="341" cy="661" fill="#fff" opacity=".1" r="50"/><circle cx="341" cy="664" fill="#fff" opacity=".1" r="50"/><circle cx="439" cy="659" fill="#fff" opacity=".1" r="50"/><circle cx="443" cy="598" fill="#fff" opacity=".1" r="50"/><circle cx="381" cy="602" fill="#fff" opacity=".1" r="50"/><circle cx="344" cy="559" fill="#fff" opacity=".1" r="50"/><circle cx="347" cy="527" fill="#fff" opacity=".1" r="50"/><circle cx="351" cy="477" fill="#fff" opacity=".1" r="50"/><circle cx="357" cy="419" fill="#f9423a" opacity=".1" r="50"/><circle cx="358" cy="344" fill="#fff" opacity=".1" r="50"/><circle cx="334" cy="303" fill="#fff" opacity=".1" r="50"/><circle cx="277" cy="261" fill="#fff" opacity=".1" r="50"/><circle cx="315" cy="231" fill="#fff" opacity=".1" r="50"/><circle cx="309" cy="188" fill="#fff" opacity=".1" r="50"/><circle cx="233" cy="133" fill="#fff" opacity=".1" r="50"/><circle cx="213" cy="105" fill="#fff" opacity=".1" r="50"/><circle cx="187" cy="89" fill="#fff" opacity=".1" r="50"/><circle cx="156" cy="79" fill="#fff" opacity=".1" r="50"/><circle cx="107" cy="159" fill="#fff" opacity=".1" r="50"/><circle cx="102" cy="184" fill="#fff" opacity=".1" r="50"/><circle cx="85" cy="218" fill="#fff" opacity=".1" r="50"/><circle cx="99" cy="273" fill="#fff" opacity=".1" r="50"/><circle cx="96" cy="308" fill="#fff" opacity=".1" r="50"/><circle cx="181" cy="355" fill="#fff" opacity=".1" r="50"/><circle cx="175" cy="364" fill="#fff" opacity=".1" r="50"/><circle cx="126" cy="400" fill="#fff" opacity=".1" r="50"/><circle cx="52" cy="482" fill="#fff" opacity=".1" r="50"/><circle cx="94" cy="481" fill="#fff" opacity=".1" r="50"/><circle cx="168" cy="493" fill="#fff" opacity=".1" r="50"/><circle cx="237" cy="496" fill="#fff" opacity=".1" r="50"/><circle cx="342" cy="695" fill="#fff" opacity=".1" r="50"/><circle cx="243" cy="525" fill="#fff" opacity=".1" r="50"/><circle cx="236" cy="547" fill="#fff" opacity=".1" r="50"/><circle cx="165" cy="519" fill="#fff" opacity=".1" r="50"/><circle cx="154" cy="568" fill="#fff" opacity=".1" r="50"/><circle cx="144" cy="590" fill="#fff" opacity=".1" r="50"/><circle cx="116" cy="633" fill="#fff" opacity=".1" r="50"/><circle cx="110" cy="655" fill="#fff" opacity=".1" r="50"/><circle cx="157" cy="671" fill="#fff" opacity=".1" r="50"/><circle cx="148" cy="710" fill="#fff" opacity=".1" r="50"/><circle cx="112" cy="752" fill="#fff" opacity=".1" r="50"/><circle cx="92" cy="786" fill="#fff" opacity=".1" r="50"/><circle cx="12" cy="791" fill="#fff" opacity=".1" r="50"/><circle cx="44" cy="802" fill="#fff" opacity=".1" r="50"/><circle cx="160" cy="799" fill="#fff" opacity=".1" r="50"/><circle cx="209" cy="782" fill="#fff" opacity=".1" r="50"/><circle cx="283" cy="766" fill="#fff" opacity=".1" r="50"/><circle cx="332" cy="743" fill="#fff" opacity=".1" r="50"/><circle cx="340" cy="735" fill="#fff" opacity=".1" r="50"/><circle cx="368" cy="730" fill="#fff" opacity=".1" r="50"/><circle cx="388" cy="708" fill="#fff" opacity=".1" r="50"/><circle cx="388" cy="673" fill="#fff" opacity=".1" r="50"/><circle cx="408" cy="653" fill="#fff" opacity=".1" r="50"/><circle cx="366" cy="633" fill="#fff" opacity=".1" r="50"/><circle cx="318" cy="610" fill="#fff" opacity=".1" r="50"/><circle cx="285" cy="603" fill="#fff" opacity=".1" r="50"/><circle cx="283" cy="549" fill="#fff" opacity=".1" r="50"/><circle cx="291" cy="531" fill="#fff" opacity=".1" r="50"/><circle cx="293" cy="509" fill="#fff" opacity=".1" r="50"/><circle cx="277" cy="460" fill="#fff" opacity=".1" r="50"/><circle cx="273" cy="425" fill="#fff" opacity=".1" r="50"/><circle cx="358" cy="407" fill="#fff" opacity=".1" r="50"/><circle cx="430" cy="409" fill="#fff" opacity=".1" r="50"/><circle cx="479" cy="408" fill="#fff" opacity=".1" r="50"/><circle cx="491" cy="417" fill="#fff" opacity=".1" r="50"/><circle cx="509" cy="445" fill="#fff" opacity=".1" r="50"/><circle cx="520" cy="362" fill="#fff" opacity=".1" r="50"/><circle cx="485" cy="447" fill="#fff" opacity=".1" r="50"/><circle cx="480" cy="627" fill="#fff" opacity=".1" r="50"/><circle cx="464" cy="671" fill="#fff" opacity=".1" r="50"/><circle cx="434" cy="727" fill="#93003a" opacity=".5" r="50"/><g fill="none" stroke="#f9423a" stroke-width="1.25"><path d="m259 461-1-32-21-28-8-11-72-50-6-8-45-20 5-39 41-41 65-20 61-3 42 31 40 37 16 24 59 48 22 2 36-18 20 31-49 47-92 13-60 12-18 14 17 13-30 28-45 11-7 20-17 8-19 43 8 32-8 29-13 10 55 18 60-5 46 4v3l98-5 4-61-62 4-37-43 3-32 4-50 6-58 1-75-24-41-57-42 38-30-6-43-76-55-20-28-26-16-31-10-49 80-5 25-17 34 14 55-3 35 85 47-6 9-49 36-74 82 42-1 74 12 69 3 105 199-99-170-7 22-71-28-11 49-10 22-28 43-6 22 47 16-9 39-36 42-20 34-80 5 32 11 116-3 49-17 74-16 49-23 8-8 28-5 20-22v-35l20-20-42-20-48-23-33-7-2-54 8-18 2-22-16-49-4-35 85-18 72 2 49-1 12 9 18 28 11-83-35 85-5 180-16 44-30 56"/><path d="m259 461-1-32-21-28-8-11-72-50-6-8-45-20 5-39 41-41 65-20 61-3 42 31 40 37 16 24 59 48 22 2 36-18 20 31-49 47-92 13-60 12-18 14 17 13-30 28-45 11-7 20-17 8-19 43 8 32-8 29-13 10 55 18 60-5 46 4v3l98-5 4-61-62 4-37-43 3-32 4-50 6-58 1-75-24-41-57-42 38-30-6-43-76-55-20-28-26-16-31-10-49 80-5 25-17 34 14 55-3 35 85 47-6 9-49 36-74 82 42-1 74 12 69 3 105 199-99-170-7 22-71-28-11 49-10 22-28 43-6 22 47 16-9 39-36 42-20 34-80 5 32 11 116-3 49-17 74-16 49-23 8-8 28-5 20-22v-35l20-20-42-20-48-23-33-7-2-54 8-18 2-22-16-49-4-35 85-18 72 2 49-1 12 9 18 28 11-83-35 85-5 180-16 44-30 56"/><path d="m259 461-1-32-21-28-8-11-72-50-6-8-45-20 5-39 41-41 65-20 61-3 42 31 40 37 16 24 59 48 22 2 36-18 20 31-49 47-92 13-60 12-18 14 17 13-30 28-45 11-7 20-17 8-19 43 8 32-8 29-13 10 55 18 60-5 46 4v3l98-5 4-61-62 4-37-43 3-32 4-50 6-58 1-75-24-41-57-42 38-30-6-43-76-55-20-28-26-16-31-10-49 80-5 25-17 34 14 55-3 35 85 47-6 9-49 36-74 82 42-1 74 12 69 3 105 199-99-170-7 22-71-28-11 49-10 22-28 43-6 22 47 16-9 39-36 42-20 34-80 5 32 11 116-3 49-17 74-16 49-23 8-8 28-5 20-22v-35l20-20-42-20-48-23-33-7-2-54 8-18 2-22-16-49-4-35 85-18 72 2 49-1 12 9 18 28 11-83-35 85-5 180-16 44-30 56"/><path d="m259 461-1-32-21-28-8-11-72-50-6-8-45-20 5-39 41-41 65-20 61-3 42 31 40 37 16 24 59 48 22 2 36-18 20 31-49 47-92 13-60 12-18 14 17 13-30 28-45 11-7 20-17 8-19 43 8 32-8 29-13 10 55 18 60-5 46 4v3l98-5 4-61-62 4-37-43 3-32 4-50 6-58 1-75-24-41-57-42 38-30-6-43-76-55-20-28-26-16-31-10-49 80-5 25-17 34 14 55-3 35 85 47-6 9-49 36-74 82 42-1 74 12 69 3 105 199-99-170-7 22-71-28-11 49-10 22-28 43-6 22 47 16-9 39-36 42-20 34-80 5 32 11 116-3 49-17 74-16 49-23 8-8 28-5 20-22v-35l20-20-42-20-48-23-33-7-2-54 8-18 2-22-16-49-4-35 85-18 72 2 49-1 12 9 18 28 11-83-35 85-5 180-16 44-30 56"/><path d="m259 461-1-32-21-28-8-11-72-50-6-8-45-20 5-39 41-41 65-20 61-3 42 31 40 37 16 24 59 48 22 2 36-18 20 31-49 47-92 13-60 12-18 14 17 13-30 28-45 11-7 20-17 8-19 43 8 32-8 29-13 10 55 18 60-5 46 4v3l98-5 4-61-62 4-37-43 3-32 4-50 6-58 1-75-24-41-57-42 38-30-6-43-76-55-20-28-26-16-31-10-49 80-5 25-17 34 14 55-3 35 85 47-6 9-49 36-74 82 42-1 74 12 69 3 105 199-99-170-7 22-71-28-11 49-10 22-28 43-6 22 47 16-9 39-36 42-20 34-80 5 32 11 116-3 49-17 74-16 49-23 8-8 28-5 20-22v-35l20-20-42-20-48-23-33-7-2-54 8-18 2-22-16-49-4-35 85-18 72 2 49-1 12 9 18 28 11-83-35 85-5 180-16 44-30 56"/><path d="m259 461-1-32-21-28-8-11-72-50-6-8-45-20 5-39 41-41 65-20 61-3 42 31 40 37 16 24 59 48 22 2 36-18 20 31-49 47-92 13-60 12-18 14 17 13-30 28-45 11-7 20-17 8-19 43 8 32-8 29-13 10 55 18 60-5 46 4v3l98-5 4-61-62 4-37-43 3-32 4-50 6-58 1-75-24-41-57-42 38-30-6-43-76-55-20-28-26-16-31-10-49 80-5 25-17 34 14 55-3 35 85 47-6 9-49 36-74 82 42-1 74 12 69 3 105 199-99-170-7 22-71-28-11 49-10 22-28 43-6 22 47 16-9 39-36 42-20 34-80 5 32 11 116-3 49-17 74-16 49-23 8-8 28-5 20-22v-35l20-20-42-20-48-23-33-7-2-54 8-18 2-22-16-49-4-35 85-18 72 2 49-1 12 9 18 28 11-83-35 85-5 180-16 44-30 56"/><path d="m259 461-1-32-21-28-8-11-72-50-6-8-45-20 5-39 41-41 65-20 61-3 42 31 40 37 16 24 59 48 22 2 36-18 20 31-49 47-92 13-60 12-18 14 17 13-30 28-45 11-7 20-17 8-19 43 8 32-8 29-13 10 55 18 60-5 46 4v3l98-5 4-61-62 4-37-43 3-32 4-50 6-58 1-75-24-41-57-42 38-30-6-43-76-55-20-28-26-16-31-10-49 80-5 25-17 34 14 55-3 35 85 47-6 9-49 36-74 82 42-1 74 12 69 3 105 199-99-170-7 22-71-28-11 49-10 22-28 43-6 22 47 16-9 39-36 42-20 34-80 5 32 11 116-3 49-17 74-16 49-23 8-8 28-5 20-22v-35l20-20-42-20-48-23-33-7-2-54 8-18 2-22-16-49-4-35 85-18 72 2 49-1 12 9 18 28 11-83-35 85-5 180-16 44-30 56"/><path d="m259 461-1-32-21-28-8-11-72-50-6-8-45-20 5-39 41-41 65-20 61-3 42 31 40 37 16 24 59 48 22 2 36-18 20 31-49 47-92 13-60 12-18 14 17 13-30 28-45 11-7 20-17 8-19 43 8 32-8 29-13 10 55 18 60-5 46 4v3l98-5 4-61-62 4-37-43 3-32 4-50 6-58 1-75-24-41-57-42 38-30-6-43-76-55-20-28-26-16-31-10-49 80-5 25-17 34 14 55-3 35 85 47-6 9-49 36-74 82 42-1 74 12 69 3 105 199-99-170-7 22-71-28-11 49-10 22-28 43-6 22 47 16-9 39-36 42-20 34-80 5 32 11 116-3 49-17 74-16 49-23 8-8 28-5 20-22v-35l20-20-42-20-48-23-33-7-2-54 8-18 2-22-16-49-4-35 85-18 72 2 49-1 12 9 18 28 11-83-35 85-5 180-16 44-30 56"/><path d="m259 461-1-32-21-28-8-11-72-50-6-8-45-20 5-39 41-41 65-20 61-3 42 31 40 37 16 24 59 48 22 2 36-18 20 31-49 47-92 13-60 12-18 14 17 13-30 28-45 11-7 20-17 8-19 43 8 32-8 29-13 10 55 18 60-5 46 4v3l98-5 4-61-62 4-37-43 3-32 4-50 6-58 1-75-24-41-57-42 38-30-6-43-76-55-20-28-26-16-31-10-49 80-5 25-17 34 14 55-3 35 85 47-6 9-49 36-74 82 42-1 74 12 69 3 105 199-99-170-7 22-71-28-11 49-10 22-28 43-6 22 47 16-9 39-36 42-20 34-80 5 32 11 116-3 49-17 74-16 49-23 8-8 28-5 20-22v-35l20-20-42-20-48-23-33-7-2-54 8-18 2-22-16-49-4-35 85-18 72 2 49-1 12 9 18 28 11-83-35 85-5 180-16 44-30 56"/><path d="m259 461-1-32-21-28-8-11-72-50-6-8-45-20 5-39 41-41 65-20 61-3 42 31 40 37 16 24 59 48 22 2 36-18 20 31-49 47-92 13-60 12-18 14 17 13-30 28-45 11-7 20-17 8-19 43 8 32-8 29-13 10 55 18 60-5 46 4v3l98-5 4-61-62 4-37-43 3-32 4-50 6-58 1-75-24-41-57-42 38-30-6-43-76-55-20-28-26-16-31-10-49 80-5 25-17 34 14 55-3 35 85 47-6 9-49 36-74 82 42-1 74 12 69 3 105 199-99-170-7 22-71-28-11 49-10 22-28 43-6 22 47 16-9 39-36 42-20 34-80 5 32 11 116-3 49-17 74-16 49-23 8-8 28-5 20-22v-35l20-20-42-20-48-23-33-7-2-54 8-18 2-22-16-49-4-35 85-18 72 2 49-1 12 9 18 28 11-83-35 85-5 180-16 44-30 56"/><path d="m259 461-1-32-21-28-8-11-72-50-6-8-45-20 5-39 41-41 65-20 61-3 42 31 40 37 16 24 59 48 22 2 36-18 20 31-49 47-92 13-60 12-18 14 17 13-30 28-45 11-7 20-17 8-19 43 8 32-8 29-13 10 55 18 60-5 46 4v3l98-5 4-61-62 4-37-43 3-32 4-50 6-58 1-75-24-41-57-42 38-30-6-43-76-55-20-28-26-16-31-10-49 80-5 25-17 34 14 55-3 35 85 47-6 9-49 36-74 82 42-1 74 12 69 3 105 199-99-170-7 22-71-28-11 49-10 22-28 43-6 22 47 16-9 39-36 42-20 34-80 5 32 11 116-3 49-17 74-16 49-23 8-8 28-5 20-22v-35l20-20-42-20-48-23-33-7-2-54 8-18 2-22-16-49-4-35 85-18 72 2 49-1 12 9 18 28 11-83-35 85-5 180-16 44-30 56"/><path d="m259 461-1-32-21-28-8-11-72-50-6-8-45-20 5-39 41-41 65-20 61-3 42 31 40 37 16 24 59 48 22 2 36-18 20 31-49 47-92 13-60 12-18 14 17 13-30 28-45 11-7 20-17 8-19 43 8 32-8 29-13 10 55 18 60-5 46 4v3l98-5 4-61-62 4-37-43 3-32 4-50 6-58 1-75-24-41-57-42 38-30-6-43-76-55-20-28-26-16-31-10-49 80-5 25-17 34 14 55-3 35 85 47-6 9-49 36-74 82 42-1 74 12 69 3 105 199-99-170-7 22-71-28-11 49-10 22-28 43-6 22 47 16-9 39-36 42-20 34-80 5 32 11 116-3 49-17 74-16 49-23 8-8 28-5 20-22v-35l20-20-42-20-48-23-33-7-2-54 8-18 2-22-16-49-4-35 85-18 72 2 49-1 12 9 18 28 11-83-35 85-5 180-16 44-30 56"/><path d="m259 461-1-32-21-28-8-11-72-50-6-8-45-20 5-39 41-41 65-20 61-3 42 31 40 37 16 24 59 48 22 2 36-18 20 31-49 47-92 13-60 12-18 14 17 13-30 28-45 11-7 20-17 8-19 43 8 32-8 29-13 10 55 18 60-5 46 4v3l98-5 4-61-62 4-37-43 3-32 4-50 6-58 1-75-24-41-57-42 38-30-6-43-76-55-20-28-26-16-31-10-49 80-5 25-17 34 14 55-3 35 85 47-6 9-49 36-74 82 42-1 74 12 69 3 105 199-99-170-7 22-71-28-11 49-10 22-28 43-6 22 47 16-9 39-36 42-20 34-80 5 32 11 116-3 49-17 74-16 49-23 8-8 28-5 20-22v-35l20-20-42-20-48-23-33-7-2-54 8-18 2-22-16-49-4-35 85-18 72 2 49-1 12 9 18 28 11-83-35 85-5 180-16 44-30 56"/><path d="m259 461-1-32-21-28-8-11-72-50-6-8-45-20 5-39 41-41 65-20 61-3 42 31 40 37 16 24 59 48 22 2 36-18 20 31-49 47-92 13-60 12-18 14 17 13-30 28-45 11-7 20-17 8-19 43 8 32-8 29-13 10 55 18 60-5 46 4v3l98-5 4-61-62 4-37-43 3-32 4-50 6-58 1-75-24-41-57-42 38-30-6-43-76-55-20-28-26-16-31-10-49 80-5 25-17 34 14 55-3 35 85 47-6 9-49 36-74 82 42-1 74 12 69 3 105 199-99-170-7 22-71-28-11 49-10 22-28 43-6 22 47 16-9 39-36 42-20 34-80 5 32 11 116-3 49-17 74-16 49-23 8-8 28-5 20-22v-35l20-20-42-20-48-23-33-7-2-54 8-18 2-22-16-49-4-35 85-18 72 2 49-1 12 9 18 28 11-83-35 85-5 180-16 44-30 56"/><path d="m259 461-1-32-21-28-8-11-72-50-6-8-45-20 5-39 41-41 65-20 61-3 42 31 40 37 16 24 59 48 22 2 36-18 20 31-49 47-92 13-60 12-18 14 17 13-30 28-45 11-7 20-17 8-19 43 8 32-8 29-13 10 55 18 60-5 46 4v3l98-5 4-61-62 4-37-43 3-32 4-50 6-58 1-75-24-41-57-42 38-30-6-43-76-55-20-28-26-16-31-10-49 80-5 25-17 34 14 55-3 35 85 47-6 9-49 36-74 82 42-1 74 12 69 3 105 199-99-170-7 22-71-28-11 49-10 22-28 43-6 22 47 16-9 39-36 42-20 34-80 5 32 11 116-3 49-17 74-16 49-23 8-8 28-5 20-22v-35l20-20-42-20-48-23-33-7-2-54 8-18 2-22-16-49-4-35 85-18 72 2 49-1 12 9 18 28 11-83-35 85-5 180-16 44-30 56"/><path d="m259 461-1-32-21-28-8-11-72-50-6-8-45-20 5-39 41-41 65-20 61-3 42 31 40 37 16 24 59 48 22 2 36-18 20 31-49 47-92 13-60 12-18 14 17 13-30 28-45 11-7 20-17 8-19 43 8 32-8 29-13 10 55 18 60-5 46 4v3l98-5 4-61-62 4-37-43 3-32 4-50 6-58 1-75-24-41-57-42 38-30-6-43-76-55-20-28-26-16-31-10-49 80-5 25-17 34 14 55-3 35 85 47-6 9-49 36-74 82 42-1 74 12 69 3 105 199-99-170-7 22-71-28-11 49-10 22-28 43-6 22 47 16-9 39-36 42-20 34-80 5 32 11 116-3 49-17 74-16 49-23 8-8 28-5 20-22v-35l20-20-42-20-48-23-33-7-2-54 8-18 2-22-16-49-4-35 85-18 72 2 49-1 12 9 18 28 11-83-35 85-5 180-16 44-30 56"/><path d="m259 461-1-32-21-28-8-11-72-50-6-8-45-20 5-39 41-41 65-20 61-3 42 31 40 37 16 24 59 48 22 2 36-18 20 31-49 47-92 13-60 12-18 14 17 13-30 28-45 11-7 20-17 8-19 43 8 32-8 29-13 10 55 18 60-5 46 4v3l98-5 4-61-62 4-37-43 3-32 4-50 6-58 1-75-24-41-57-42 38-30-6-43-76-55-20-28-26-16-31-10-49 80-5 25-17 34 14 55-3 35 85 47-6 9-49 36-74 82 42-1 74 12 69 3 105 199-99-170-7 22-71-28-11 49-10 22-28 43-6 22 47 16-9 39-36 42-20 34-80 5 32 11 116-3 49-17 74-16 49-23 8-8 28-5 20-22v-35l20-20-42-20-48-23-33-7-2-54 8-18 2-22-16-49-4-35 85-18 72 2 49-1 12 9 18 28 11-83-35 85-5 180-16 44-30 56"/><path d="m259 461-1-32-21-28-8-11-72-50-6-8-45-20 5-39 41-41 65-20 61-3 42 31 40 37 16 24 59 48 22 2 36-18 20 31-49 47-92 13-60 12-18 14 17 13-30 28-45 11-7 20-17 8-19 43 8 32-8 29-13 10 55 18 60-5 46 4v3l98-5 4-61-62 4-37-43 3-32 4-50 6-58 1-75-24-41-57-42 38-30-6-43-76-55-20-28-26-16-31-10-49 80-5 25-17 34 14 55-3 35 85 47-6 9-49 36-74 82 42-1 74 12 69 3 105 199-99-170-7 22-71-28-11 49-10 22-28 43-6 22 47 16-9 39-36 42-20 34-80 5 32 11 116-3 49-17 74-16 49-23 8-8 28-5 20-22v-35l20-20-42-20-48-23-33-7-2-54 8-18 2-22-16-49-4-35 85-18 72 2 49-1 12 9 18 28 11-83-35 85-5 180-16 44-30 56"/><path d="m259 461-1-32-21-28-8-11-72-50-6-8-45-20 5-39 41-41 65-20 61-3 42 31 40 37 16 24 59 48 22 2 36-18 20 31-49 47-92 13-60 12-18 14 17 13-30 28-45 11-7 20-17 8-19 43 8 32-8 29-13 10 55 18 60-5 46 4v3l98-5 4-61-62 4-37-43 3-32 4-50 6-58 1-75-24-41-57-42 38-30-6-43-76-55-20-28-26-16-31-10-49 80-5 25-17 34 14 55-3 35 85 47-6 9-49 36-74 82 42-1 74 12 69 3 105 199-99-170-7 22-71-28-11 49-10 22-28 43-6 22 47 16-9 39-36 42-20 34-80 5 32 11 116-3 49-17 74-16 49-23 8-8 28-5 20-22v-35l20-20-42-20-48-23-33-7-2-54 8-18 2-22-16-49-4-35 85-18 72 2 49-1 12 9 18 28 11-83-35 85-5 180-16 44-30 56"/><path d="m259 461-1-32-21-28-8-11-72-50-6-8-45-20 5-39 41-41 65-20 61-3 42 31 40 37 16 24 59 48 22 2 36-18 20 31-49 47-92 13-60 12-18 14 17 13-30 28-45 11-7 20-17 8-19 43 8 32-8 29-13 10 55 18 60-5 46 4v3l98-5 4-61-62 4-37-43 3-32 4-50 6-58 1-75-24-41-57-42 38-30-6-43-76-55-20-28-26-16-31-10-49 80-5 25-17 34 14 55-3 35 85 47-6 9-49 36-74 82 42-1 74 12 69 3 105 199-99-170-7 22-71-28-11 49-10 22-28 43-6 22 47 16-9 39-36 42-20 34-80 5 32 11 116-3 49-17 74-16 49-23 8-8 28-5 20-22v-35l20-20-42-20-48-23-33-7-2-54 8-18 2-22-16-49-4-35 85-18 72 2 49-1 12 9 18 28 11-83-35 85-5 180-16 44-30 56"/><path d="m259 461-1-32-21-28-8-11-72-50-6-8-45-20 5-39 41-41 65-20 61-3 42 31 40 37 16 24 59 48 22 2 36-18 20 31-49 47-92 13-60 12-18 14 17 13-30 28-45 11-7 20-17 8-19 43 8 32-8 29-13 10 55 18 60-5 46 4v3l98-5 4-61-62 4-37-43 3-32 4-50 6-58 1-75-24-41-57-42 38-30-6-43-76-55-20-28-26-16-31-10-49 80-5 25-17 34 14 55-3 35 85 47-6 9-49 36-74 82 42-1 74 12 69 3 105 199-99-170-7 22-71-28-11 49-10 22-28 43-6 22 47 16-9 39-36 42-20 34-80 5 32 11 116-3 49-17 74-16 49-23 8-8 28-5 20-22v-35l20-20-42-20-48-23-33-7-2-54 8-18 2-22-16-49-4-35 85-18 72 2 49-1 12 9 18 28 11-83-35 85-5 180-16 44-30 56"/><path d="m259 461-1-32-21-28-8-11-72-50-6-8-45-20 5-39 41-41 65-20 61-3 42 31 40 37 16 24 59 48 22 2 36-18 20 31-49 47-92 13-60 12-18 14 17 13-30 28-45 11-7 20-17 8-19 43 8 32-8 29-13 10 55 18 60-5 46 4v3l98-5 4-61-62 4-37-43 3-32 4-50 6-58 1-75-24-41-57-42 38-30-6-43-76-55-20-28-26-16-31-10-49 80-5 25-17 34 14 55-3 35 85 47-6 9-49 36-74 82 42-1 74 12 69 3 105 199-99-170-7 22-71-28-11 49-10 22-28 43-6 22 47 16-9 39-36 42-20 34-80 5 32 11 116-3 49-17 74-16 49-23 8-8 28-5 20-22v-35l20-20-42-20-48-23-33-7-2-54 8-18 2-22-16-49-4-35 85-18 72 2 49-1 12 9 18 28 11-83-35 85-5 180-16 44-30 56"/><path d="m259 461-1-32-21-28-8-11-72-50-6-8-45-20 5-39 41-41 65-20 61-3 42 31 40 37 16 24 59 48 22 2 36-18 20 31-49 47-92 13-60 12-18 14 17 13-30 28-45 11-7 20-17 8-19 43 8 32-8 29-13 10 55 18 60-5 46 4v3l98-5 4-61-62 4-37-43 3-32 4-50 6-58 1-75-24-41-57-42 38-30-6-43-76-55-20-28-26-16-31-10-49 80-5 25-17 34 14 55-3 35 85 47-6 9-49 36-74 82 42-1 74 12 69 3 105 199-99-170-7 22-71-28-11 49-10 22-28 43-6 22 47 16-9 39-36 42-20 34-80 5 32 11 116-3 49-17 74-16 49-23 8-8 28-5 20-22v-35l20-20-42-20-48-23-33-7-2-54 8-18 2-22-16-49-4-35 85-18 72 2 49-1 12 9 18 28 11-83-35 85-5 180-16 44-30 56"/><path d="m259 461-1-32-21-28-8-11-72-50-6-8-45-20 5-39 41-41 65-20 61-3 42 31 40 37 16 24 59 48 22 2 36-18 20 31-49 47-92 13-60 12-18 14 17 13-30 28-45 11-7 20-17 8-19 43 8 32-8 29-13 10 55 18 60-5 46 4v3l98-5 4-61-62 4-37-43 3-32 4-50 6-58 1-75-24-41-57-42 38-30-6-43-76-55-20-28-26-16-31-10-49 80-5 25-17 34 14 55-3 35 85 47-6 9-49 36-74 82 42-1 74 12 69 3 105 199-99-170-7 22-71-28-11 49-10 22-28 43-6 22 47 16-9 39-36 42-20 34-80 5 32 11 116-3 49-17 74-16 49-23 8-8 28-5 20-22v-35l20-20-42-20-48-23-33-7-2-54 8-18 2-22-16-49-4-35 85-18 72 2 49-1 12 9 18 28 11-83-35 85-5 180-16 44-30 56"/><path d="m259 461-1-32-21-28-8-11-72-50-6-8-45-20 5-39 41-41 65-20 61-3 42 31 40 37 16 24 59 48 22 2 36-18 20 31-49 47-92 13-60 12-18 14 17 13-30 28-45 11-7 20-17 8-19 43 8 32-8 29-13 10 55 18 60-5 46 4v3l98-5 4-61-62 4-37-43 3-32 4-50 6-58 1-75-24-41-57-42 38-30-6-43-76-55-20-28-26-16-31-10-49 80-5 25-17 34 14 55-3 35 85 47-6 9-49 36-74 82 42-1 74 12 69 3 105 199-99-170-7 22-71-28-11 49-10 22-28 43-6 22 47 16-9 39-36 42-20 34-80 5 32 11 116-3 49-17 74-16 49-23 8-8 28-5 20-22v-35l20-20-42-20-48-23-33-7-2-54 8-18 2-22-16-49-4-35 85-18 72 2 49-1 12 9 18 28 11-83-35 85-5 180-16 44-30 56"/><path d="m259 461-1-32-21-28-8-11-72-50-6-8-45-20 5-39 41-41 65-20 61-3 42 31 40 37 16 24 59 48 22 2 36-18 20 31-49 47-92 13-60 12-18 14 17 13-30 28-45 11-7 20-17 8-19 43 8 32-8 29-13 10 55 18 60-5 46 4v3l98-5 4-61-62 4-37-43 3-32 4-50 6-58 1-75-24-41-57-42 38-30-6-43-76-55-20-28-26-16-31-10-49 80-5 25-17 34 14 55-3 35 85 47-6 9-49 36-74 82 42-1 74 12 69 3 105 199-99-170-7 22-71-28-11 49-10 22-28 43-6 22 47 16-9 39-36 42-20 34-80 5 32 11 116-3 49-17 74-16 49-23 8-8 28-5 20-22v-35l20-20-42-20-48-23-33-7-2-54 8-18 2-22-16-49-4-35 85-18 72 2 49-1 12 9 18 28 11-83-35 85-5 180-16 44-30 56"/><path d="m259 461-1-32-21-28-8-11-72-50-6-8-45-20 5-39 41-41 65-20 61-3 42 31 40 37 16 24 59 48 22 2 36-18 20 31-49 47-92 13-60 12-18 14 17 13-30 28-45 11-7 20-17 8-19 43 8 32-8 29-13 10 55 18 60-5 46 4v3l98-5 4-61-62 4-37-43 3-32 4-50 6-58 1-75-24-41-57-42 38-30-6-43-76-55-20-28-26-16-31-10-49 80-5 25-17 34 14 55-3 35 85 47-6 9-49 36-74 82 42-1 74 12 69 3 105 199-99-170-7 22-71-28-11 49-10 22-28 43-6 22 47 16-9 39-36 42-20 34-80 5 32 11 116-3 49-17 74-16 49-23 8-8 28-5 20-22v-35l20-20-42-20-48-23-33-7-2-54 8-18 2-22-16-49-4-35 85-18 72 2 49-1 12 9 18 28 11-83-35 85-5 180-16 44-30 56"/><path d="m259 461-1-32-21-28-8-11-72-50-6-8-45-20 5-39 41-41 65-20 61-3 42 31 40 37 16 24 59 48 22 2 36-18 20 31-49 47-92 13-60 12-18 14 17 13-30 28-45 11-7 20-17 8-19 43 8 32-8 29-13 10 55 18 60-5 46 4v3l98-5 4-61-62 4-37-43 3-32 4-50 6-58 1-75-24-41-57-42 38-30-6-43-76-55-20-28-26-16-31-10-49 80-5 25-17 34 14 55-3 35 85 47-6 9-49 36-74 82 42-1 74 12 69 3 105 199-99-170-7 22-71-28-11 49-10 22-28 43-6 22 47 16-9 39-36 42-20 34-80 5 32 11 116-3 49-17 74-16 49-23 8-8 28-5 20-22v-35l20-20-42-20-48-23-33-7-2-54 8-18 2-22-16-49-4-35 85-18 72 2 49-1 12 9 18 28 11-83-35 85-5 180-16 44-30 56"/><path d="m259 461-1-32-21-28-8-11-72-50-6-8-45-20 5-39 41-41 65-20 61-3 42 31 40 37 16 24 59 48 22 2 36-18 20 31-49 47-92 13-60 12-18 14 17 13-30 28-45 11-7 20-17 8-19 43 8 32-8 29-13 10 55 18 60-5 46 4v3l98-5 4-61-62 4-37-43 3-32 4-50 6-58 1-75-24-41-57-42 38-30-6-43-76-55-20-28-26-16-31-10-49 80-5 25-17 34 14 55-3 35 85 47-6 9-49 36-74 82 42-1 74 12 69 3 105 199-99-170-7 22-71-28-11 49-10 22-28 43-6 22 47 16-9 39-36 42-20 34-80 5 32 11 116-3 49-17 74-16 49-23 8-8 28-5 20-22v-35l20-20-42-20-48-23-33-7-2-54 8-18 2-22-16-49-4-35 85-18 72 2 49-1 12 9 18 28 11-83-35 85-5 180-16 44-30 56"/><path d="m259 461-1-32-21-28-8-11-72-50-6-8-45-20 5-39 41-41 65-20 61-3 42 31 40 37 16 24 59 48 22 2 36-18 20 31-49 47-92 13-60 12-18 14 17 13-30 28-45 11-7 20-17 8-19 43 8 32-8 29-13 10 55 18 60-5 46 4v3l98-5 4-61-62 4-37-43 3-32 4-50 6-58 1-75-24-41-57-42 38-30-6-43-76-55-20-28-26-16-31-10-49 80-5 25-17 34 14 55-3 35 85 47-6 9-49 36-74 82 42-1 74 12 69 3 105 199-99-170-7 22-71-28-11 49-10 22-28 43-6 22 47 16-9 39-36 42-20 34-80 5 32 11 116-3 49-17 74-16 49-23 8-8 28-5 20-22v-35l20-20-42-20-48-23-33-7-2-54 8-18 2-22-16-49-4-35 85-18 72 2 49-1 12 9 18 28 11-83-35 85-5 180-16 44-30 56"/><path d="m259 461-1-32-21-28-8-11-72-50-6-8-45-20 5-39 41-41 65-20 61-3 42 31 40 37 16 24 59 48 22 2 36-18 20 31-49 47-92 13-60 12-18 14 17 13-30 28-45 11-7 20-17 8-19 43 8 32-8 29-13 10 55 18 60-5 46 4v3l98-5 4-61-62 4-37-43 3-32 4-50 6-58 1-75-24-41-57-42 38-30-6-43-76-55-20-28-26-16-31-10-49 80-5 25-17 34 14 55-3 35 85 47-6 9-49 36-74 82 42-1 74 12 69 3 105 199-99-170-7 22-71-28-11 49-10 22-28 43-6 22 47 16-9 39-36 42-20 34-80 5 32 11 116-3 49-17 74-16 49-23 8-8 28-5 20-22v-35l20-20-42-20-48-23-33-7-2-54 8-18 2-22-16-49-4-35 85-18 72 2 49-1 12 9 18 28 11-83-35 85-5 180-16 44-30 56"/><path d="m259 461-1-32-21-28-8-11-72-50-6-8-45-20 5-39 41-41 65-20 61-3 42 31 40 37 16 24 59 48 22 2 36-18 20 31-49 47-92 13-60 12-18 14 17 13-30 28-45 11-7 20-17 8-19 43 8 32-8 29-13 10 55 18 60-5 46 4v3l98-5 4-61-62 4-37-43 3-32 4-50 6-58 1-75-24-41-57-42 38-30-6-43-76-55-20-28-26-16-31-10-49 80-5 25-17 34 14 55-3 35 85 47-6 9-49 36-74 82 42-1 74 12 69 3 105 199-99-170-7 22-71-28-11 49-10 22-28 43-6 22 47 16-9 39-36 42-20 34-80 5 32 11 116-3 49-17 74-16 49-23 8-8 28-5 20-22v-35l20-20-42-20-48-23-33-7-2-54 8-18 2-22-16-49-4-35 85-18 72 2 49-1 12 9 18 28 11-83-35 85-5 180-16 44-30 56"/><path d="m259 461-1-32-21-28-8-11-72-50-6-8-45-20 5-39 41-41 65-20 61-3 42 31 40 37 16 24 59 48 22 2 36-18 20 31-49 47-92 13-60 12-18 14 17 13-30 28-45 11-7 20-17 8-19 43 8 32-8 29-13 10 55 18 60-5 46 4v3l98-5 4-61-62 4-37-43 3-32 4-50 6-58 1-75-24-41-57-42 38-30-6-43-76-55-20-28-26-16-31-10-49 80-5 25-17 34 14 55-3 35 85 47-6 9-49 36-74 82 42-1 74 12 69 3 105 199-99-170-7 22-71-28-11 49-10 22-28 43-6 22 47 16-9 39-36 42-20 34-80 5 32 11 116-3 49-17 74-16 49-23 8-8 28-5 20-22v-35l20-20-42-20-48-23-33-7-2-54 8-18 2-22-16-49-4-35 85-18 72 2 49-1 12 9 18 28 11-83-35 85-5 180-16 44-30 56"/><path d="m259 461-1-32-21-28-8-11-72-50-6-8-45-20 5-39 41-41 65-20 61-3 42 31 40 37 16 24 59 48 22 2 36-18 20 31-49 47-92 13-60 12-18 14 17 13-30 28-45 11-7 20-17 8-19 43 8 32-8 29-13 10 55 18 60-5 46 4v3l98-5 4-61-62 4-37-43 3-32 4-50 6-58 1-75-24-41-57-42 38-30-6-43-76-55-20-28-26-16-31-10-49 80-5 25-17 34 14 55-3 35 85 47-6 9-49 36-74 82 42-1 74 12 69 3 105 199-99-170-7 22-71-28-11 49-10 22-28 43-6 22 47 16-9 39-36 42-20 34-80 5 32 11 116-3 49-17 74-16 49-23 8-8 28-5 20-22v-35l20-20-42-20-48-23-33-7-2-54 8-18 2-22-16-49-4-35 85-18 72 2 49-1 12 9 18 28 11-83-35 85-5 180-16 44-30 56"/><path d="m259 461-1-32-21-28-8-11-72-50-6-8-45-20 5-39 41-41 65-20 61-3 42 31 40 37 16 24 59 48 22 2 36-18 20 31-49 47-92 13-60 12-18 14 17 13-30 28-45 11-7 20-17 8-19 43 8 32-8 29-13 10 55 18 60-5 46 4v3l98-5 4-61-62 4-37-43 3-32 4-50 6-58 1-75-24-41-57-42 38-30-6-43-76-55-20-28-26-16-31-10-49 80-5 25-17 34 14 55-3 35 85 47-6 9-49 36-74 82 42-1 74 12 69 3 105 199-99-170-7 22-71-28-11 49-10 22-28 43-6 22 47 16-9 39-36 42-20 34-80 5 32 11 116-3 49-17 74-16 49-23 8-8 28-5 20-22v-35l20-20-42-20-48-23-33-7-2-54 8-18 2-22-16-49-4-35 85-18 72 2 49-1 12 9 18 28 11-83-35 85-5 180-16 44-30 56"/><path d="m259 461-1-32-21-28-8-11-72-50-6-8-45-20 5-39 41-41 65-20 61-3 42 31 40 37 16 24 59 48 22 2 36-18 20 31-49 47-92 13-60 12-18 14 17 13-30 28-45 11-7 20-17 8-19 43 8 32-8 29-13 10 55 18 60-5 46 4v3l98-5 4-61-62 4-37-43 3-32 4-50 6-58 1-75-24-41-57-42 38-30-6-43-76-55-20-28-26-16-31-10-49 80-5 25-17 34 14 55-3 35 85 47-6 9-49 36-74 82 42-1 74 12 69 3 105 199-99-170-7 22-71-28-11 49-10 22-28 43-6 22 47 16-9 39-36 42-20 34-80 5 32 11 116-3 49-17 74-16 49-23 8-8 28-5 20-22v-35l20-20-42-20-48-23-33-7-2-54 8-18 2-22-16-49-4-35 85-18 72 2 49-1 12 9 18 28 11-83-35 85-5 180-16 44-30 56"/><path d="m259 461-1-32-21-28-8-11-72-50-6-8-45-20 5-39 41-41 65-20 61-3 42 31 40 37 16 24 59 48 22 2 36-18 20 31-49 47-92 13-60 12-18 14 17 13-30 28-45 11-7 20-17 8-19 43 8 32-8 29-13 10 55 18 60-5 46 4v3l98-5 4-61-62 4-37-43 3-32 4-50 6-58 1-75-24-41-57-42 38-30-6-43-76-55-20-28-26-16-31-10-49 80-5 25-17 34 14 55-3 35 85 47-6 9-49 36-74 82 42-1 74 12 69 3 105 199-99-170-7 22-71-28-11 49-10 22-28 43-6 22 47 16-9 39-36 42-20 34-80 5 32 11 116-3 49-17 74-16 49-23 8-8 28-5 20-22v-35l20-20-42-20-48-23-33-7-2-54 8-18 2-22-16-49-4-35 85-18 72 2 49-1 12 9 18 28 11-83-35 85-5 180-16 44-30 56"/><path d="m259 461-1-32-21-28-8-11-72-50-6-8-45-20 5-39 41-41 65-20 61-3 42 31 40 37 16 24 59 48 22 2 36-18 20 31-49 47-92 13-60 12-18 14 17 13-30 28-45 11-7 20-17 8-19 43 8 32-8 29-13 10 55 18 60-5 46 4v3l98-5 4-61-62 4-37-43 3-32 4-50 6-58 1-75-24-41-57-42 38-30-6-43-76-55-20-28-26-16-31-10-49 80-5 25-17 34 14 55-3 35 85 47-6 9-49 36-74 82 42-1 74 12 69 3 105 199-99-170-7 22-71-28-11 49-10 22-28 43-6 22 47 16-9 39-36 42-20 34-80 5 32 11 116-3 49-17 74-16 49-23 8-8 28-5 20-22v-35l20-20-42-20-48-23-33-7-2-54 8-18 2-22-16-49-4-35 85-18 72 2 49-1 12 9 18 28 11-83-35 85-5 180-16 44-30 56"/><path d="m259 461-1-32-21-28-8-11-72-50-6-8-45-20 5-39 41-41 65-20 61-3 42 31 40 37 16 24 59 48 22 2 36-18 20 31-49 47-92 13-60 12-18 14 17 13-30 28-45 11-7 20-17 8-19 43 8 32-8 29-13 10 55 18 60-5 46 4v3l98-5 4-61-62 4-37-43 3-32 4-50 6-58 1-75-24-41-57-42 38-30-6-43-76-55-20-28-26-16-31-10-49 80-5 25-17 34 14 55-3 35 85 47-6 9-49 36-74 82 42-1 74 12 69 3 105 199-99-170-7 22-71-28-11 49-10 22-28 43-6 22 47 16-9 39-36 42-20 34-80 5 32 11 116-3 49-17 74-16 49-23 8-8 28-5 20-22v-35l20-20-42-20-48-23-33-7-2-54 8-18 2-22-16-49-4-35 85-18 72 2 49-1 12 9 18 28 11-83-35 85-5 180-16 44-30 56"/><path d="m259 461-1-32-21-28-8-11-72-50-6-8-45-20 5-39 41-41 65-20 61-3 42 31 40 37 16 24 59 48 22 2 36-18 20 31-49 47-92 13-60 12-18 14 17 13-30 28-45 11-7 20-17 8-19 43 8 32-8 29-13 10 55 18 60-5 46 4v3l98-5 4-61-62 4-37-43 3-32 4-50 6-58 1-75-24-41-57-42 38-30-6-43-76-55-20-28-26-16-31-10-49 80-5 25-17 34 14 55-3 35 85 47-6 9-49 36-74 82 42-1 74 12 69 3 105 199-99-170-7 22-71-28-11 49-10 22-28 43-6 22 47 16-9 39-36 42-20 34-80 5 32 11 116-3 49-17 74-16 49-23 8-8 28-5 20-22v-35l20-20-42-20-48-23-33-7-2-54 8-18 2-22-16-49-4-35 85-18 72 2 49-1 12 9 18 28 11-83-35 85-5 180-16 44-30 56"/><path d="m259 461-1-32-21-28-8-11-72-50-6-8-45-20 5-39 41-41 65-20 61-3 42 31 40 37 16 24 59 48 22 2 36-18 20 31-49 47-92 13-60 12-18 14 17 13-30 28-45 11-7 20-17 8-19 43 8 32-8 29-13 10 55 18 60-5 46 4v3l98-5 4-61-62 4-37-43 3-32 4-50 6-58 1-75-24-41-57-42 38-30-6-43-76-55-20-28-26-16-31-10-49 80-5 25-17 34 14 55-3 35 85 47-6 9-49 36-74 82 42-1 74 12 69 3 105 199-99-170-7 22-71-28-11 49-10 22-28 43-6 22 47 16-9 39-36 42-20 34-80 5 32 11 116-3 49-17 74-16 49-23 8-8 28-5 20-22v-35l20-20-42-20-48-23-33-7-2-54 8-18 2-22-16-49-4-35 85-18 72 2 49-1 12 9 18 28 11-83-35 85-5 180-16 44-30 56"/><path d="m259 461-1-32-21-28-8-11-72-50-6-8-45-20 5-39 41-41 65-20 61-3 42 31 40 37 16 24 59 48 22 2 36-18 20 31-49 47-92 13-60 12-18 14 17 13-30 28-45 11-7 20-17 8-19 43 8 32-8 29-13 10 55 18 60-5 46 4v3l98-5 4-61-62 4-37-43 3-32 4-50 6-58 1-75-24-41-57-42 38-30-6-43-76-55-20-28-26-16-31-10-49 80-5 25-17 34 14 55-3 35 85 47-6 9-49 36-74 82 42-1 74 12 69 3 105 199-99-170-7 22-71-28-11 49-10 22-28 43-6 22 47 16-9 39-36 42-20 34-80 5 32 11 116-3 49-17 74-16 49-23 8-8 28-5 20-22v-35l20-20-42-20-48-23-33-7-2-54 8-18 2-22-16-49-4-35 85-18 72 2 49-1 12 9 18 28 11-83-35 85-5 180-16 44-30 56"/><path d="m259 461-1-32-21-28-8-11-72-50-6-8-45-20 5-39 41-41 65-20 61-3 42 31 40 37 16 24 59 48 22 2 36-18 20 31-49 47-92 13-60 12-18 14 17 13-30 28-45 11-7 20-17 8-19 43 8 32-8 29-13 10 55 18 60-5 46 4v3l98-5 4-61-62 4-37-43 3-32 4-50 6-58 1-75-24-41-57-42 38-30-6-43-76-55-20-28-26-16-31-10-49 80-5 25-17 34 14 55-3 35 85 47-6 9-49 36-74 82 42-1 74 12 69 3 105 199-99-170-7 22-71-28-11 49-10 22-28 43-6 22 47 16-9 39-36 42-20 34-80 5 32 11 116-3 49-17 74-16 49-23 8-8 28-5 20-22v-35l20-20-42-20-48-23-33-7-2-54 8-18 2-22-16-49-4-35 85-18 72 2 49-1 12 9 18 28 11-83-35 85-5 180-16 44-30 56"/><path d="m259 461-1-32-21-28-8-11-72-50-6-8-45-20 5-39 41-41 65-20 61-3 42 31 40 37 16 24 59 48 22 2 36-18 20 31-49 47-92 13-60 12-18 14 17 13-30 28-45 11-7 20-17 8-19 43 8 32-8 29-13 10 55 18 60-5 46 4v3l98-5 4-61-62 4-37-43 3-32 4-50 6-58 1-75-24-41-57-42 38-30-6-43-76-55-20-28-26-16-31-10-49 80-5 25-17 34 14 55-3 35 85 47-6 9-49 36-74 82 42-1 74 12 69 3 105 199-99-170-7 22-71-28-11 49-10 22-28 43-6 22 47 16-9 39-36 42-20 34-80 5 32 11 116-3 49-17 74-16 49-23 8-8 28-5 20-22v-35l20-20-42-20-48-23-33-7-2-54 8-18 2-22-16-49-4-35 85-18 72 2 49-1 12 9 18 28 11-83-35 85-5 180-16 44-30 56"/><path d="m259 461-1-32-21-28-8-11-72-50-6-8-45-20 5-39 41-41 65-20 61-3 42 31 40 37 16 24 59 48 22 2 36-18 20 31-49 47-92 13-60 12-18 14 17 13-30 28-45 11-7 20-17 8-19 43 8 32-8 29-13 10 55 18 60-5 46 4v3l98-5 4-61-62 4-37-43 3-32 4-50 6-58 1-75-24-41-57-42 38-30-6-43-76-55-20-28-26-16-31-10-49 80-5 25-17 34 14 55-3 35 85 47-6 9-49 36-74 82 42-1 74 12 69 3 105 199-99-170-7 22-71-28-11 49-10 22-28 43-6 22 47 16-9 39-36 42-20 34-80 5 32 11 116-3 49-17 74-16 49-23 8-8 28-5 20-22v-35l20-20-42-20-48-23-33-7-2-54 8-18 2-22-16-49-4-35 85-18 72 2 49-1 12 9 18 28 11-83-35 85-5 180-16 44-30 56"/><path d="m259 461-1-32-21-28-8-11-72-50-6-8-45-20 5-39 41-41 65-20 61-3 42 31 40 37 16 24 59 48 22 2 36-18 20 31-49 47-92 13-60 12-18 14 17 13-30 28-45 11-7 20-17 8-19 43 8 32-8 29-13 10 55 18 60-5 46 4v3l98-5 4-61-62 4-37-43 3-32 4-50 6-58 1-75-24-41-57-42 38-30-6-43-76-55-20-28-26-16-31-10-49 80-5 25-17 34 14 55-3 35 85 47-6 9-49 36-74 82 42-1 74 12 69 3 105 199-99-170-7 22-71-28-11 49-10 22-28 43-6 22 47 16-9 39-36 42-20 34-80 5 32 11 116-3 49-17 74-16 49-23 8-8 28-5 20-22v-35l20-20-42-20-48-23-33-7-2-54 8-18 2-22-16-49-4-35 85-18 72 2 49-1 12 9 18 28 11-83-35 85-5 180-16 44-30 56"/><path d="m259 461-1-32-21-28-8-11-72-50-6-8-45-20 5-39 41-41 65-20 61-3 42 31 40 37 16 24 59 48 22 2 36-18 20 31-49 47-92 13-60 12-18 14 17 13-30 28-45 11-7 20-17 8-19 43 8 32-8 29-13 10 55 18 60-5 46 4v3l98-5 4-61-62 4-37-43 3-32 4-50 6-58 1-75-24-41-57-42 38-30-6-43-76-55-20-28-26-16-31-10-49 80-5 25-17 34 14 55-3 35 85 47-6 9-49 36-74 82 42-1 74 12 69 3 105 199-99-170-7 22-71-28-11 49-10 22-28 43-6 22 47 16-9 39-36 42-20 34-80 5 32 11 116-3 49-17 74-16 49-23 8-8 28-5 20-22v-35l20-20-42-20-48-23-33-7-2-54 8-18 2-22-16-49-4-35 85-18 72 2 49-1 12 9 18 28 11-83-35 85-5 180-16 44-30 56"/><path d="m259 461-1-32-21-28-8-11-72-50-6-8-45-20 5-39 41-41 65-20 61-3 42 31 40 37 16 24 59 48 22 2 36-18 20 31-49 47-92 13-60 12-18 14 17 13-30 28-45 11-7 20-17 8-19 43 8 32-8 29-13 10 55 18 60-5 46 4v3l98-5 4-61-62 4-37-43 3-32 4-50 6-58 1-75-24-41-57-42 38-30-6-43-76-55-20-28-26-16-31-10-49 80-5 25-17 34 14 55-3 35 85 47-6 9-49 36-74 82 42-1 74 12 69 3 105 199-99-170-7 22-71-28-11 49-10 22-28 43-6 22 47 16-9 39-36 42-20 34-80 5 32 11 116-3 49-17 74-16 49-23 8-8 28-5 20-22v-35l20-20-42-20-48-23-33-7-2-54 8-18 2-22-16-49-4-35 85-18 72 2 49-1 12 9 18 28 11-83-35 85-5 180-16 44-30 56"/><path d="m259 461-1-32-21-28-8-11-72-50-6-8-45-20 5-39 41-41 65-20 61-3 42 31 40 37 16 24 59 48 22 2 36-18 20 31-49 47-92 13-60 12-18 14 17 13-30 28-45 11-7 20-17 8-19 43 8 32-8 29-13 10 55 18 60-5 46 4v3l98-5 4-61-62 4-37-43 3-32 4-50 6-58 1-75-24-41-57-42 38-30-6-43-76-55-20-28-26-16-31-10-49 80-5 25-17 34 14 55-3 35 85 47-6 9-49 36-74 82 42-1 74 12 69 3 105 199-99-170-7 22-71-28-11 49-10 22-28 43-6 22 47 16-9 39-36 42-20 34-80 5 32 11 116-3 49-17 74-16 49-23 8-8 28-5 20-22v-35l20-20-42-20-48-23-33-7-2-54 8-18 2-22-16-49-4-35 85-18 72 2 49-1 12 9 18 28 11-83-35 85-5 180-16 44-30 56"/><path d="m259 461-1-32-21-28-8-11-72-50-6-8-45-20 5-39 41-41 65-20 61-3 42 31 40 37 16 24 59 48 22 2 36-18 20 31-49 47-92 13-60 12-18 14 17 13-30 28-45 11-7 20-17 8-19 43 8 32-8 29-13 10 55 18 60-5 46 4v3l98-5 4-61-62 4-37-43 3-32 4-50 6-58 1-75-24-41-57-42 38-30-6-43-76-55-20-28-26-16-31-10-49 80-5 25-17 34 14 55-3 35 85 47-6 9-49 36-74 82 42-1 74 12 69 3 105 199-99-170-7 22-71-28-11 49-10 22-28 43-6 22 47 16-9 39-36 42-20 34-80 5 32 11 116-3 49-17 74-16 49-23 8-8 28-5 20-22v-35l20-20-42-20-48-23-33-7-2-54 8-18 2-22-16-49-4-35 85-18 72 2 49-1 12 9 18 28 11-83-35 85-5 180-16 44-30 56"/><path d="m259 461-1-32-21-28-8-11-72-50-6-8-45-20 5-39 41-41 65-20 61-3 42 31 40 37 16 24 59 48 22 2 36-18 20 31-49 47-92 13-60 12-18 14 17 13-30 28-45 11-7 20-17 8-19 43 8 32-8 29-13 10 55 18 60-5 46 4v3l98-5 4-61-62 4-37-43 3-32 4-50 6-58 1-75-24-41-57-42 38-30-6-43-76-55-20-28-26-16-31-10-49 80-5 25-17 34 14 55-3 35 85 47-6 9-49 36-74 82 42-1 74 12 69 3 105 199-99-170-7 22-71-28-11 49-10 22-28 43-6 22 47 16-9 39-36 42-20 34-80 5 32 11 116-3 49-17 74-16 49-23 8-8 28-5 20-22v-35l20-20-42-20-48-23-33-7-2-54 8-18 2-22-16-49-4-35 85-18 72 2 49-1 12 9 18 28 11-83-35 85-5 180-16 44-30 56"/><path d="m259 461-1-32-21-28-8-11-72-50-6-8-45-20 5-39 41-41 65-20 61-3 42 31 40 37 16 24 59 48 22 2 36-18 20 31-49 47-92 13-60 12-18 14 17 13-30 28-45 11-7 20-17 8-19 43 8 32-8 29-13 10 55 18 60-5 46 4v3l98-5 4-61-62 4-37-43 3-32 4-50 6-58 1-75-24-41-57-42 38-30-6-43-76-55-20-28-26-16-31-10-49 80-5 25-17 34 14 55-3 35 85 47-6 9-49 36-74 82 42-1 74 12 69 3 105 199-99-170-7 22-71-28-11 49-10 22-28 43-6 22 47 16-9 39-36 42-20 34-80 5 32 11 116-3 49-17 74-16 49-23 8-8 28-5 20-22v-35l20-20-42-20-48-23-33-7-2-54 8-18 2-22-16-49-4-35 85-18 72 2 49-1 12 9 18 28 11-83-35 85-5 180-16 44-30 56"/><path d="m259 461-1-32-21-28-8-11-72-50-6-8-45-20 5-39 41-41 65-20 61-3 42 31 40 37 16 24 59 48 22 2 36-18 20 31-49 47-92 13-60 12-18 14 17 13-30 28-45 11-7 20-17 8-19 43 8 32-8 29-13 10 55 18 60-5 46 4v3l98-5 4-61-62 4-37-43 3-32 4-50 6-58 1-75-24-41-57-42 38-30-6-43-76-55-20-28-26-16-31-10-49 80-5 25-17 34 14 55-3 35 85 47-6 9-49 36-74 82 42-1 74 12 69 3 105 199-99-170-7 22-71-28-11 49-10 22-28 43-6 22 47 16-9 39-36 42-20 34-80 5 32 11 116-3 49-17 74-16 49-23 8-8 28-5 20-22v-35l20-20-42-20-48-23-33-7-2-54 8-18 2-22-16-49-4-35 85-18 72 2 49-1 12 9 18 28 11-83-35 85-5 180-16 44-30 56"/><path d="m259 461-1-32-21-28-8-11-72-50-6-8-45-20 5-39 41-41 65-20 61-3 42 31 40 37 16 24 59 48 22 2 36-18 20 31-49 47-92 13-60 12-18 14 17 13-30 28-45 11-7 20-17 8-19 43 8 32-8 29-13 10 55 18 60-5 46 4v3l98-5 4-61-62 4-37-43 3-32 4-50 6-58 1-75-24-41-57-42 38-30-6-43-76-55-20-28-26-16-31-10-49 80-5 25-17 34 14 55-3 35 85 47-6 9-49 36-74 82 42-1 74 12 69 3 105 199-99-170-7 22-71-28-11 49-10 22-28 43-6 22 47 16-9 39-36 42-20 34-80 5 32 11 116-3 49-17 74-16 49-23 8-8 28-5 20-22v-35l20-20-42-20-48-23-33-7-2-54 8-18 2-22-16-49-4-35 85-18 72 2 49-1 12 9 18 28 11-83-35 85-5 180-16 44-30 56"/><path d="m259 461-1-32-21-28-8-11-72-50-6-8-45-20 5-39 41-41 65-20 61-3 42 31 40 37 16 24 59 48 22 2 36-18 20 31-49 47-92 13-60 12-18 14 17 13-30 28-45 11-7 20-17 8-19 43 8 32-8 29-13 10 55 18 60-5 46 4v3l98-5 4-61-62 4-37-43 3-32 4-50 6-58 1-75-24-41-57-42 38-30-6-43-76-55-20-28-26-16-31-10-49 80-5 25-17 34 14 55-3 35 85 47-6 9-49 36-74 82 42-1 74 12 69 3 105 199-99-170-7 22-71-28-11 49-10 22-28 43-6 22 47 16-9 39-36 42-20 34-80 5 32 11 116-3 49-17 74-16 49-23 8-8 28-5 20-22v-35l20-20-42-20-48-23-33-7-2-54 8-18 2-22-16-49-4-35 85-18 72 2 49-1 12 9 18 28 11-83-35 85-5 180-16 44-30 56"/><path d="m259 461-1-32-21-28-8-11-72-50-6-8-45-20 5-39 41-41 65-20 61-3 42 31 40 37 16 24 59 48 22 2 36-18 20 31-49 47-92 13-60 12-18 14 17 13-30 28-45 11-7 20-17 8-19 43 8 32-8 29-13 10 55 18 60-5 46 4v3l98-5 4-61-62 4-37-43 3-32 4-50 6-58 1-75-24-41-57-42 38-30-6-43-76-55-20-28-26-16-31-10-49 80-5 25-17 34 14 55-3 35 85 47-6 9-49 36-74 82 42-1 74 12 69 3 105 199-99-170-7 22-71-28-11 49-10 22-28 43-6 22 47 16-9 39-36 42-20 34-80 5 32 11 116-3 49-17 74-16 49-23 8-8 28-5 20-22v-35l20-20-42-20-48-23-33-7-2-54 8-18 2-22-16-49-4-35 85-18 72 2 49-1 12 9 18 28 11-83-35 85-5 180-16 44-30 56"/><path d="m259 461-1-32-21-28-8-11-72-50-6-8-45-20 5-39 41-41 65-20 61-3 42 31 40 37 16 24 59 48 22 2 36-18 20 31-49 47-92 13-60 12-18 14 17 13-30 28-45 11-7 20-17 8-19 43 8 32-8 29-13 10 55 18 60-5 46 4v3l98-5 4-61-62 4-37-43 3-32 4-50 6-58 1-75-24-41-57-42 38-30-6-43-76-55-20-28-26-16-31-10-49 80-5 25-17 34 14 55-3 35 85 47-6 9-49 36-74 82 42-1 74 12 69 3 105 199-99-170-7 22-71-28-11 49-10 22-28 43-6 22 47 16-9 39-36 42-20 34-80 5 32 11 116-3 49-17 74-16 49-23 8-8 28-5 20-22v-35l20-20-42-20-48-23-33-7-2-54 8-18 2-22-16-49-4-35 85-18 72 2 49-1 12 9 18 28 11-83-35 85-5 180-16 44-30 56"/><path d="m259 461-1-32-21-28-8-11-72-50-6-8-45-20 5-39 41-41 65-20 61-3 42 31 40 37 16 24 59 48 22 2 36-18 20 31-49 47-92 13-60 12-18 14 17 13-30 28-45 11-7 20-17 8-19 43 8 32-8 29-13 10 55 18 60-5 46 4v3l98-5 4-61-62 4-37-43 3-32 4-50 6-58 1-75-24-41-57-42 38-30-6-43-76-55-20-28-26-16-31-10-49 80-5 25-17 34 14 55-3 35 85 47-6 9-49 36-74 82 42-1 74 12 69 3 105 199-99-170-7 22-71-28-11 49-10 22-28 43-6 22 47 16-9 39-36 42-20 34-80 5 32 11 116-3 49-17 74-16 49-23 8-8 28-5 20-22v-35l20-20-42-20-48-23-33-7-2-54 8-18 2-22-16-49-4-35 85-18 72 2 49-1 12 9 18 28 11-83-35 85-5 180-16 44-30 56"/><path d="m259 461-1-32-21-28-8-11-72-50-6-8-45-20 5-39 41-41 65-20 61-3 42 31 40 37 16 24 59 48 22 2 36-18 20 31-49 47-92 13-60 12-18 14 17 13-30 28-45 11-7 20-17 8-19 43 8 32-8 29-13 10 55 18 60-5 46 4v3l98-5 4-61-62 4-37-43 3-32 4-50 6-58 1-75-24-41-57-42 38-30-6-43-76-55-20-28-26-16-31-10-49 80-5 25-17 34 14 55-3 35 85 47-6 9-49 36-74 82 42-1 74 12 69 3 105 199-99-170-7 22-71-28-11 49-10 22-28 43-6 22 47 16-9 39-36 42-20 34-80 5 32 11 116-3 49-17 74-16 49-23 8-8 28-5 20-22v-35l20-20-42-20-48-23-33-7-2-54 8-18 2-22-16-49-4-35 85-18 72 2 49-1 12 9 18 28 11-83-35 85-5 180-16 44-30 56"/><path d="m259 461-1-32-21-28-8-11-72-50-6-8-45-20 5-39 41-41 65-20 61-3 42 31 40 37 16 24 59 48 22 2 36-18 20 31-49 47-92 13-60 12-18 14 17 13-30 28-45 11-7 20-17 8-19 43 8 32-8 29-13 10 55 18 60-5 46 4v3l98-5 4-61-62 4-37-43 3-32 4-50 6-58 1-75-24-41-57-42 38-30-6-43-76-55-20-28-26-16-31-10-49 80-5 25-17 34 14 55-3 35 85 47-6 9-49 36-74 82 42-1 74 12 69 3 105 199-99-170-7 22-71-28-11 49-10 22-28 43-6 22 47 16-9 39-36 42-20 34-80 5 32 11 116-3 49-17 74-16 49-23 8-8 28-5 20-22v-35l20-20-42-20-48-23-33-7-2-54 8-18 2-22-16-49-4-35 85-18 72 2 49-1 12 9 18 28 11-83-35 85-5 180-16 44-30 56"/><path d="m259 461-1-32-21-28-8-11-72-50-6-8-45-20 5-39 41-41 65-20 61-3 42 31 40 37 16 24 59 48 22 2 36-18 20 31-49 47-92 13-60 12-18 14 17 13-30 28-45 11-7 20-17 8-19 43 8 32-8 29-13 10 55 18 60-5 46 4v3l98-5 4-61-62 4-37-43 3-32 4-50 6-58 1-75-24-41-57-42 38-30-6-43-76-55-20-28-26-16-31-10-49 80-5 25-17 34 14 55-3 35 85 47-6 9-49 36-74 82 42-1 74 12 69 3 105 199-99-170-7 22-71-28-11 49-10 22-28 43-6 22 47 16-9 39-36 42-20 34-80 5 32 11 116-3 49-17 74-16 49-23 8-8 28-5 20-22v-35l20-20-42-20-48-23-33-7-2-54 8-18 2-22-16-49-4-35 85-18 72 2 49-1 12 9 18 28 11-83-35 85-5 180-16 44-30 56"/><path d="m259 461-1-32-21-28-8-11-72-50-6-8-45-20 5-39 41-41 65-20 61-3 42 31 40 37 16 24 59 48 22 2 36-18 20 31-49 47-92 13-60 12-18 14 17 13-30 28-45 11-7 20-17 8-19 43 8 32-8 29-13 10 55 18 60-5 46 4v3l98-5 4-61-62 4-37-43 3-32 4-50 6-58 1-75-24-41-57-42 38-30-6-43-76-55-20-28-26-16-31-10-49 80-5 25-17 34 14 55-3 35 85 47-6 9-49 36-74 82 42-1 74 12 69 3 105 199-99-170-7 22-71-28-11 49-10 22-28 43-6 22 47 16-9 39-36 42-20 34-80 5 32 11 116-3 49-17 74-16 49-23 8-8 28-5 20-22v-35l20-20-42-20-48-23-33-7-2-54 8-18 2-22-16-49-4-35 85-18 72 2 49-1 12 9 18 28 11-83-35 85-5 180-16 44-30 56"/><path d="m259 461-1-32-21-28-8-11-72-50-6-8-45-20 5-39 41-41 65-20 61-3 42 31 40 37 16 24 59 48 22 2 36-18 20 31-49 47-92 13-60 12-18 14 17 13-30 28-45 11-7 20-17 8-19 43 8 32-8 29-13 10 55 18 60-5 46 4v3l98-5 4-61-62 4-37-43 3-32 4-50 6-58 1-75-24-41-57-42 38-30-6-43-76-55-20-28-26-16-31-10-49 80-5 25-17 34 14 55-3 35 85 47-6 9-49 36-74 82 42-1 74 12 69 3 105 199-99-170-7 22-71-28-11 49-10 22-28 43-6 22 47 16-9 39-36 42-20 34-80 5 32 11 116-3 49-17 74-16 49-23 8-8 28-5 20-22v-35l20-20-42-20-48-23-33-7-2-54 8-18 2-22-16-49-4-35 85-18 72 2 49-1 12 9 18 28 11-83-35 85-5 180-16 44-30 56"/><path d="m259 461-1-32-21-28-8-11-72-50-6-8-45-20 5-39 41-41 65-20 61-3 42 31 40 37 16 24 59 48 22 2 36-18 20 31-49 47-92 13-60 12-18 14 17 13-30 28-45 11-7 20-17 8-19 43 8 32-8 29-13 10 55 18 60-5 46 4v3l98-5 4-61-62 4-37-43 3-32 4-50 6-58 1-75-24-41-57-42 38-30-6-43-76-55-20-28-26-16-31-10-49 80-5 25-17 34 14 55-3 35 85 47-6 9-49 36-74 82 42-1 74 12 69 3 105 199-99-170-7 22-71-28-11 49-10 22-28 43-6 22 47 16-9 39-36 42-20 34-80 5 32 11 116-3 49-17 74-16 49-23 8-8 28-5 20-22v-35l20-20-42-20-48-23-33-7-2-54 8-18 2-22-16-49-4-35 85-18 72 2 49-1 12 9 18 28 11-83-35 85-5 180-16 44-30 56"/><path d="m259 461-1-32-21-28-8-11-72-50-6-8-45-20 5-39 41-41 65-20 61-3 42 31 40 37 16 24 59 48 22 2 36-18 20 31-49 47-92 13-60 12-18 14 17 13-30 28-45 11-7 20-17 8-19 43 8 32-8 29-13 10 55 18 60-5 46 4v3l98-5 4-61-62 4-37-43 3-32 4-50 6-58 1-75-24-41-57-42 38-30-6-43-76-55-20-28-26-16-31-10-49 80-5 25-17 34 14 55-3 35 85 47-6 9-49 36-74 82 42-1 74 12 69 3 105 199-99-170-7 22-71-28-11 49-10 22-28 43-6 22 47 16-9 39-36 42-20 34-80 5 32 11 116-3 49-17 74-16 49-23 8-8 28-5 20-22v-35l20-20-42-20-48-23-33-7-2-54 8-18 2-22-16-49-4-35 85-18 72 2 49-1 12 9 18 28 11-83-35 85-5 180-16 44-30 56"/><path d="m259 461-1-32-21-28-8-11-72-50-6-8-45-20 5-39 41-41 65-20 61-3 42 31 40 37 16 24 59 48 22 2 36-18 20 31-49 47-92 13-60 12-18 14 17 13-30 28-45 11-7 20-17 8-19 43 8 32-8 29-13 10 55 18 60-5 46 4v3l98-5 4-61-62 4-37-43 3-32 4-50 6-58 1-75-24-41-57-42 38-30-6-43-76-55-20-28-26-16-31-10-49 80-5 25-17 34 14 55-3 35 85 47-6 9-49 36-74 82 42-1 74 12 69 3 105 199-99-170-7 22-71-28-11 49-10 22-28 43-6 22 47 16-9 39-36 42-20 34-80 5 32 11 116-3 49-17 74-16 49-23 8-8 28-5 20-22v-35l20-20-42-20-48-23-33-7-2-54 8-18 2-22-16-49-4-35 85-18 72 2 49-1 12 9 18 28 11-83-35 85-5 180-16 44-30 56"/><path d="m259 461-1-32-21-28-8-11-72-50-6-8-45-20 5-39 41-41 65-20 61-3 42 31 40 37 16 24 59 48 22 2 36-18 20 31-49 47-92 13-60 12-18 14 17 13-30 28-45 11-7 20-17 8-19 43 8 32-8 29-13 10 55 18 60-5 46 4v3l98-5 4-61-62 4-37-43 3-32 4-50 6-58 1-75-24-41-57-42 38-30-6-43-76-55-20-28-26-16-31-10-49 80-5 25-17 34 14 55-3 35 85 47-6 9-49 36-74 82 42-1 74 12 69 3 105 199-99-170-7 22-71-28-11 49-10 22-28 43-6 22 47 16-9 39-36 42-20 34-80 5 32 11 116-3 49-17 74-16 49-23 8-8 28-5 20-22v-35l20-20-42-20-48-23-33-7-2-54 8-18 2-22-16-49-4-35 85-18 72 2 49-1 12 9 18 28 11-83-35 85-5 180-16 44-30 56"/><path d="m259 461-1-32-21-28-8-11-72-50-6-8-45-20 5-39 41-41 65-20 61-3 42 31 40 37 16 24 59 48 22 2 36-18 20 31-49 47-92 13-60 12-18 14 17 13-30 28-45 11-7 20-17 8-19 43 8 32-8 29-13 10 55 18 60-5 46 4v3l98-5 4-61-62 4-37-43 3-32 4-50 6-58 1-75-24-41-57-42 38-30-6-43-76-55-20-28-26-16-31-10-49 80-5 25-17 34 14 55-3 35 85 47-6 9-49 36-74 82 42-1 74 12 69 3 105 199-99-170-7 22-71-28-11 49-10 22-28 43-6 22 47 16-9 39-36 42-20 34-80 5 32 11 116-3 49-17 74-16 49-23 8-8 28-5 20-22v-35l20-20-42-20-48-23-33-7-2-54 8-18 2-22-16-49-4-35 85-18 72 2 49-1 12 9 18 28 11-83-35 85-5 180-16 44-30 56"/><path d="m259 461-1-32-21-28-8-11-72-50-6-8-45-20 5-39 41-41 65-20 61-3 42 31 40 37 16 24 59 48 22 2 36-18 20 31-49 47-92 13-60 12-18 14 17 13-30 28-45 11-7 20-17 8-19 43 8 32-8 29-13 10 55 18 60-5 46 4v3l98-5 4-61-62 4-37-43 3-32 4-50 6-58 1-75-24-41-57-42 38-30-6-43-76-55-20-28-26-16-31-10-49 80-5 25-17 34 14 55-3 35 85 47-6 9-49 36-74 82 42-1 74 12 69 3 105 199-99-170-7 22-71-28-11 49-10 22-28 43-6 22 47 16-9 39-36 42-20 34-80 5 32 11 116-3 49-17 74-16 49-23 8-8 28-5 20-22v-35l20-20-42-20-48-23-33-7-2-54 8-18 2-22-16-49-4-35 85-18 72 2 49-1 12 9 18 28 11-83-35 85-5 180-16 44-30 56"/><path d="m259 461-1-32-21-28-8-11-72-50-6-8-45-20 5-39 41-41 65-20 61-3 42 31 40 37 16 24 59 48 22 2 36-18 20 31-49 47-92 13-60 12-18 14 17 13-30 28-45 11-7 20-17 8-19 43 8 32-8 29-13 10 55 18 60-5 46 4v3l98-5 4-61-62 4-37-43 3-32 4-50 6-58 1-75-24-41-57-42 38-30-6-43-76-55-20-28-26-16-31-10-49 80-5 25-17 34 14 55-3 35 85 47-6 9-49 36-74 82 42-1 74 12 69 3 105 199-99-170-7 22-71-28-11 49-10 22-28 43-6 22 47 16-9 39-36 42-20 34-80 5 32 11 116-3 49-17 74-16 49-23 8-8 28-5 20-22v-35l20-20-42-20-48-23-33-7-2-54 8-18 2-22-16-49-4-35 85-18 72 2 49-1 12 9 18 28 11-83-35 85-5 180-16 44-30 56"/><path d="m259 461-1-32-21-28-8-11-72-50-6-8-45-20 5-39 41-41 65-20 61-3 42 31 40 37 16 24 59 48 22 2 36-18 20 31-49 47-92 13-60 12-18 14 17 13-30 28-45 11-7 20-17 8-19 43 8 32-8 29-13 10 55 18 60-5 46 4v3l98-5 4-61-62 4-37-43 3-32 4-50 6-58 1-75-24-41-57-42 38-30-6-43-76-55-20-28-26-16-31-10-49 80-5 25-17 34 14 55-3 35 85 47-6 9-49 36-74 82 42-1 74 12 69 3 105 199-99-170-7 22-71-28-11 49-10 22-28 43-6 22 47 16-9 39-36 42-20 34-80 5 32 11 116-3 49-17 74-16 49-23 8-8 28-5 20-22v-35l20-20-42-20-48-23-33-7-2-54 8-18 2-22-16-49-4-35 85-18 72 2 49-1 12 9 18 28 11-83-35 85-5 180-16 44-30 56"/><path d="m259 461-1-32-21-28-8-11-72-50-6-8-45-20 5-39 41-41 65-20 61-3 42 31 40 37 16 24 59 48 22 2 36-18 20 31-49 47-92 13-60 12-18 14 17 13-30 28-45 11-7 20-17 8-19 43 8 32-8 29-13 10 55 18 60-5 46 4v3l98-5 4-61-62 4-37-43 3-32 4-50 6-58 1-75-24-41-57-42 38-30-6-43-76-55-20-28-26-16-31-10-49 80-5 25-17 34 14 55-3 35 85 47-6 9-49 36-74 82 42-1 74 12 69 3 105 199-99-170-7 22-71-28-11 49-10 22-28 43-6 22 47 16-9 39-36 42-20 34-80 5 32 11 116-3 49-17 74-16 49-23 8-8 28-5 20-22v-35l20-20-42-20-48-23-33-7-2-54 8-18 2-22-16-49-4-35 85-18 72 2 49-1 12 9 18 28 11-83-35 85-5 180-16 44-30 56"/><path d="m259 461-1-32-21-28-8-11-72-50-6-8-45-20 5-39 41-41 65-20 61-3 42 31 40 37 16 24 59 48 22 2 36-18 20 31-49 47-92 13-60 12-18 14 17 13-30 28-45 11-7 20-17 8-19 43 8 32-8 29-13 10 55 18 60-5 46 4v3l98-5 4-61-62 4-37-43 3-32 4-50 6-58 1-75-24-41-57-42 38-30-6-43-76-55-20-28-26-16-31-10-49 80-5 25-17 34 14 55-3 35 85 47-6 9-49 36-74 82 42-1 74 12 69 3 105 199-99-170-7 22-71-28-11 49-10 22-28 43-6 22 47 16-9 39-36 42-20 34-80 5 32 11 116-3 49-17 74-16 49-23 8-8 28-5 20-22v-35l20-20-42-20-48-23-33-7-2-54 8-18 2-22-16-49-4-35 85-18 72 2 49-1 12 9 18 28 11-83-35 85-5 180-16 44-30 56"/><path d="m259 461-1-32-21-28-8-11-72-50-6-8-45-20 5-39 41-41 65-20 61-3 42 31 40 37 16 24 59 48 22 2 36-18 20 31-49 47-92 13-60 12-18 14 17 13-30 28-45 11-7 20-17 8-19 43 8 32-8 29-13 10 55 18 60-5 46 4v3l98-5 4-61-62 4-37-43 3-32 4-50 6-58 1-75-24-41-57-42 38-30-6-43-76-55-20-28-26-16-31-10-49 80-5 25-17 34 14 55-3 35 85 47-6 9-49 36-74 82 42-1 74 12 69 3 105 199-99-170-7 22-71-28-11 49-10 22-28 43-6 22 47 16-9 39-36 42-20 34-80 5 32 11 116-3 49-17 74-16 49-23 8-8 28-5 20-22v-35l20-20-42-20-48-23-33-7-2-54 8-18 2-22-16-49-4-35 85-18 72 2 49-1 12 9 18 28 11-83-35 85-5 180-16 44-30 56"/><path d="m259 461-1-32-21-28-8-11-72-50-6-8-45-20 5-39 41-41 65-20 61-3 42 31 40 37 16 24 59 48 22 2 36-18 20 31-49 47-92 13-60 12-18 14 17 13-30 28-45 11-7 20-17 8-19 43 8 32-8 29-13 10 55 18 60-5 46 4v3l98-5 4-61-62 4-37-43 3-32 4-50 6-58 1-75-24-41-57-42 38-30-6-43-76-55-20-28-26-16-31-10-49 80-5 25-17 34 14 55-3 35 85 47-6 9-49 36-74 82 42-1 74 12 69 3 105 199-99-170-7 22-71-28-11 49-10 22-28 43-6 22 47 16-9 39-36 42-20 34-80 5 32 11 116-3 49-17 74-16 49-23 8-8 28-5 20-22v-35l20-20-42-20-48-23-33-7-2-54 8-18 2-22-16-49-4-35 85-18 72 2 49-1 12 9 18 28 11-83-35 85-5 180-16 44-30 56"/><path d="m259 461-1-32-21-28-8-11-72-50-6-8-45-20 5-39 41-41 65-20 61-3 42 31 40 37 16 24 59 48 22 2 36-18 20 31-49 47-92 13-60 12-18 14 17 13-30 28-45 11-7 20-17 8-19 43 8 32-8 29-13 10 55 18 60-5 46 4v3l98-5 4-61-62 4-37-43 3-32 4-50 6-58 1-75-24-41-57-42 38-30-6-43-76-55-20-28-26-16-31-10-49 80-5 25-17 34 14 55-3 35 85 47-6 9-49 36-74 82 42-1 74 12 69 3 105 199-99-170-7 22-71-28-11 49-10 22-28 43-6 22 47 16-9 39-36 42-20 34-80 5 32 11 116-3 49-17 74-16 49-23 8-8 28-5 20-22v-35l20-20-42-20-48-23-33-7-2-54 8-18 2-22-16-49-4-35 85-18 72 2 49-1 12 9 18 28 11-83-35 85-5 180-16 44-30 56"/><path d="m259 461-1-32-21-28-8-11-72-50-6-8-45-20 5-39 41-41 65-20 61-3 42 31 40 37 16 24 59 48 22 2 36-18 20 31-49 47-92 13-60 12-18 14 17 13-30 28-45 11-7 20-17 8-19 43 8 32-8 29-13 10 55 18 60-5 46 4v3l98-5 4-61-62 4-37-43 3-32 4-50 6-58 1-75-24-41-57-42 38-30-6-43-76-55-20-28-26-16-31-10-49 80-5 25-17 34 14 55-3 35 85 47-6 9-49 36-74 82 42-1 74 12 69 3 105 199-99-170-7 22-71-28-11 49-10 22-28 43-6 22 47 16-9 39-36 42-20 34-80 5 32 11 116-3 49-17 74-16 49-23 8-8 28-5 20-22v-35l20-20-42-20-48-23-33-7-2-54 8-18 2-22-16-49-4-35 85-18 72 2 49-1 12 9 18 28 11-83-35 85-5 180-16 44-30 56"/><path d="m259 461-1-32-21-28-8-11-72-50-6-8-45-20 5-39 41-41 65-20 61-3 42 31 40 37 16 24 59 48 22 2 36-18 20 31-49 47-92 13-60 12-18 14 17 13-30 28-45 11-7 20-17 8-19 43 8 32-8 29-13 10 55 18 60-5 46 4v3l98-5 4-61-62 4-37-43 3-32 4-50 6-58 1-75-24-41-57-42 38-30-6-43-76-55-20-28-26-16-31-10-49 80-5 25-17 34 14 55-3 35 85 47-6 9-49 36-74 82 42-1 74 12 69 3 105 199-99-170-7 22-71-28-11 49-10 22-28 43-6 22 47 16-9 39-36 42-20 34-80 5 32 11 116-3 49-17 74-16 49-23 8-8 28-5 20-22v-35l20-20-42-20-48-23-33-7-2-54 8-18 2-22-16-49-4-35 85-18 72 2 49-1 12 9 18 28 11-83-35 85-5 180-16 44-30 56"/><path d="m259 461-1-32-21-28-8-11-72-50-6-8-45-20 5-39 41-41 65-20 61-3 42 31 40 37 16 24 59 48 22 2 36-18 20 31-49 47-92 13-60 12-18 14 17 13-30 28-45 11-7 20-17 8-19 43 8 32-8 29-13 10 55 18 60-5 46 4v3l98-5 4-61-62 4-37-43 3-32 4-50 6-58 1-75-24-41-57-42 38-30-6-43-76-55-20-28-26-16-31-10-49 80-5 25-17 34 14 55-3 35 85 47-6 9-49 36-74 82 42-1 74 12 69 3 105 199-99-170-7 22-71-28-11 49-10 22-28 43-6 22 47 16-9 39-36 42-20 34-80 5 32 11 116-3 49-17 74-16 49-23 8-8 28-5 20-22v-35l20-20-42-20-48-23-33-7-2-54 8-18 2-22-16-49-4-35 85-18 72 2 49-1 12 9 18 28 11-83-35 85-5 180-16 44-30 56"/><path d="m259 461-1-32-21-28-8-11-72-50-6-8-45-20 5-39 41-41 65-20 61-3 42 31 40 37 16 24 59 48 22 2 36-18 20 31-49 47-92 13-60 12-18 14 17 13-30 28-45 11-7 20-17 8-19 43 8 32-8 29-13 10 55 18 60-5 46 4v3l98-5 4-61-62 4-37-43 3-32 4-50 6-58 1-75-24-41-57-42 38-30-6-43-76-55-20-28-26-16-31-10-49 80-5 25-17 34 14 55-3 35 85 47-6 9-49 36-74 82 42-1 74 12 69 3 105 199-99-170-7 22-71-28-11 49-10 22-28 43-6 22 47 16-9 39-36 42-20 34-80 5 32 11 116-3 49-17 74-16 49-23 8-8 28-5 20-22v-35l20-20-42-20-48-23-33-7-2-54 8-18 2-22-16-49-4-35 85-18 72 2 49-1 12 9 18 28 11-83-35 85-5 180-16 44-30 56"/><path d="m259 461-1-32-21-28-8-11-72-50-6-8-45-20 5-39 41-41 65-20 61-3 42 31 40 37 16 24 59 48 22 2 36-18 20 31-49 47-92 13-60 12-18 14 17 13-30 28-45 11-7 20-17 8-19 43 8 32-8 29-13 10 55 18 60-5 46 4v3l98-5 4-61-62 4-37-43 3-32 4-50 6-58 1-75-24-41-57-42 38-30-6-43-76-55-20-28-26-16-31-10-49 80-5 25-17 34 14 55-3 35 85 47-6 9-49 36-74 82 42-1 74 12 69 3 105 199-99-170-7 22-71-28-11 49-10 22-28 43-6 22 47 16-9 39-36 42-20 34-80 5 32 11 116-3 49-17 74-16 49-23 8-8 28-5 20-22v-35l20-20-42-20-48-23-33-7-2-54 8-18 2-22-16-49-4-35 85-18 72 2 49-1 12 9 18 28 11-83-35 85-5 180-16 44-30 56"/><path d="m259 461-1-32-21-28-8-11-72-50-6-8-45-20 5-39 41-41 65-20 61-3 42 31 40 37 16 24 59 48 22 2 36-18 20 31-49 47-92 13-60 12-18 14 17 13-30 28-45 11-7 20-17 8-19 43 8 32-8 29-13 10 55 18 60-5 46 4v3l98-5 4-61-62 4-37-43 3-32 4-50 6-58 1-75-24-41-57-42 38-30-6-43-76-55-20-28-26-16-31-10-49 80-5 25-17 34 14 55-3 35 85 47-6 9-49 36-74 82 42-1 74 12 69 3 105 199-99-170-7 22-71-28-11 49-10 22-28 43-6 22 47 16-9 39-36 42-20 34-80 5 32 11 116-3 49-17 74-16 49-23 8-8 28-5 20-22v-35l20-20-42-20-48-23-33-7-2-54 8-18 2-22-16-49-4-35 85-18 72 2 49-1 12 9 18 28 11-83-35 85-5 180-16 44-30 56"/><path d="m259 461-1-32-21-28-8-11-72-50-6-8-45-20 5-39 41-41 65-20 61-3 42 31 40 37 16 24 59 48 22 2 36-18 20 31-49 47-92 13-60 12-18 14 17 13-30 28-45 11-7 20-17 8-19 43 8 32-8 29-13 10 55 18 60-5 46 4v3l98-5 4-61-62 4-37-43 3-32 4-50 6-58 1-75-24-41-57-42 38-30-6-43-76-55-20-28-26-16-31-10-49 80-5 25-17 34 14 55-3 35 85 47-6 9-49 36-74 82 42-1 74 12 69 3 105 199-99-170-7 22-71-28-11 49-10 22-28 43-6 22 47 16-9 39-36 42-20 34-80 5 32 11 116-3 49-17 74-16 49-23 8-8 28-5 20-22v-35l20-20-42-20-48-23-33-7-2-54 8-18 2-22-16-49-4-35 85-18 72 2 49-1 12 9 18 28 11-83-35 85-5 180-16 44-30 56"/><path d="m259 461-1-32-21-28-8-11-72-50-6-8-45-20 5-39 41-41 65-20 61-3 42 31 40 37 16 24 59 48 22 2 36-18 20 31-49 47-92 13-60 12-18 14 17 13-30 28-45 11-7 20-17 8-19 43 8 32-8 29-13 10 55 18 60-5 46 4v3l98-5 4-61-62 4-37-43 3-32 4-50 6-58 1-75-24-41-57-42 38-30-6-43-76-55-20-28-26-16-31-10-49 80-5 25-17 34 14 55-3 35 85 47-6 9-49 36-74 82 42-1 74 12 69 3 105 199-99-170-7 22-71-28-11 49-10 22-28 43-6 22 47 16-9 39-36 42-20 34-80 5 32 11 116-3 49-17 74-16 49-23 8-8 28-5 20-22v-35l20-20-42-20-48-23-33-7-2-54 8-18 2-22-16-49-4-35 85-18 72 2 49-1 12 9 18 28 11-83-35 85-5 180-16 44-30 56"/><path d="m259 461-1-32-21-28-8-11-72-50-6-8-45-20 5-39 41-41 65-20 61-3 42 31 40 37 16 24 59 48 22 2 36-18 20 31-49 47-92 13-60 12-18 14 17 13-30 28-45 11-7 20-17 8-19 43 8 32-8 29-13 10 55 18 60-5 46 4v3l98-5 4-61-62 4-37-43 3-32 4-50 6-58 1-75-24-41-57-42 38-30-6-43-76-55-20-28-26-16-31-10-49 80-5 25-17 34 14 55-3 35 85 47-6 9-49 36-74 82 42-1 74 12 69 3 105 199-99-170-7 22-71-28-11 49-10 22-28 43-6 22 47 16-9 39-36 42-20 34-80 5 32 11 116-3 49-17 74-16 49-23 8-8 28-5 20-22v-35l20-20-42-20-48-23-33-7-2-54 8-18 2-22-16-49-4-35 85-18 72 2 49-1 12 9 18 28 11-83-35 85-5 180-16 44-30 56"/><path d="m259 461-1-32-21-28-8-11-72-50-6-8-45-20 5-39 41-41 65-20 61-3 42 31 40 37 16 24 59 48 22 2 36-18 20 31-49 47-92 13-60 12-18 14 17 13-30 28-45 11-7 20-17 8-19 43 8 32-8 29-13 10 55 18 60-5 46 4v3l98-5 4-61-62 4-37-43 3-32 4-50 6-58 1-75-24-41-57-42 38-30-6-43-76-55-20-28-26-16-31-10-49 80-5 25-17 34 14 55-3 35 85 47-6 9-49 36-74 82 42-1 74 12 69 3 105 199-99-170-7 22-71-28-11 49-10 22-28 43-6 22 47 16-9 39-36 42-20 34-80 5 32 11 116-3 49-17 74-16 49-23 8-8 28-5 20-22v-35l20-20-42-20-48-23-33-7-2-54 8-18 2-22-16-49-4-35 85-18 72 2 49-1 12 9 18 28 11-83-35 85-5 180-16 44-30 56"/><path d="m259 461-1-32-21-28-8-11-72-50-6-8-45-20 5-39 41-41 65-20 61-3 42 31 40 37 16 24 59 48 22 2 36-18 20 31-49 47-92 13-60 12-18 14 17 13-30 28-45 11-7 20-17 8-19 43 8 32-8 29-13 10 55 18 60-5 46 4v3l98-5 4-61-62 4-37-43 3-32 4-50 6-58 1-75-24-41-57-42 38-30-6-43-76-55-20-28-26-16-31-10-49 80-5 25-17 34 14 55-3 35 85 47-6 9-49 36-74 82 42-1 74 12 69 3 105 199-99-170-7 22-71-28-11 49-10 22-28 43-6 22 47 16-9 39-36 42-20 34-80 5 32 11 116-3 49-17 74-16 49-23 8-8 28-5 20-22v-35l20-20-42-20-48-23-33-7-2-54 8-18 2-22-16-49-4-35 85-18 72 2 49-1 12 9 18 28 11-83-35 85-5 180-16 44-30 56"/><path d="m259 461-1-32-21-28-8-11-72-50-6-8-45-20 5-39 41-41 65-20 61-3 42 31 40 37 16 24 59 48 22 2 36-18 20 31-49 47-92 13-60 12-18 14 17 13-30 28-45 11-7 20-17 8-19 43 8 32-8 29-13 10 55 18 60-5 46 4v3l98-5 4-61-62 4-37-43 3-32 4-50 6-58 1-75-24-41-57-42 38-30-6-43-76-55-20-28-26-16-31-10-49 80-5 25-17 34 14 55-3 35 85 47-6 9-49 36-74 82 42-1 74 12 69 3 105 199-99-170-7 22-71-28-11 49-10 22-28 43-6 22 47 16-9 39-36 42-20 34-80 5 32 11 116-3 49-17 74-16 49-23 8-8 28-5 20-22v-35l20-20-42-20-48-23-33-7-2-54 8-18 2-22-16-49-4-35 85-18 72 2 49-1 12 9 18 28 11-83-35 85-5 180-16 44-30 56"/><path d="m259 461-1-32-21-28-8-11-72-50-6-8-45-20 5-39 41-41 65-20 61-3 42 31 40 37 16 24 59 48 22 2 36-18 20 31-49 47-92 13-60 12-18 14 17 13-30 28-45 11-7 20-17 8-19 43 8 32-8 29-13 10 55 18 60-5 46 4v3l98-5 4-61-62 4-37-43 3-32 4-50 6-58 1-75-24-41-57-42 38-30-6-43-76-55-20-28-26-16-31-10-49 80-5 25-17 34 14 55-3 35 85 47-6 9-49 36-74 82 42-1 74 12 69 3 105 199-99-170-7 22-71-28-11 49-10 22-28 43-6 22 47 16-9 39-36 42-20 34-80 5 32 11 116-3 49-17 74-16 49-23 8-8 28-5 20-22v-35l20-20-42-20-48-23-33-7-2-54 8-18 2-22-16-49-4-35 85-18 72 2 49-1 12 9 18 28 11-83-35 85-5 180-16 44-30 56"/><path d="m259 461-1-32-21-28-8-11-72-50-6-8-45-20 5-39 41-41 65-20 61-3 42 31 40 37 16 24 59 48 22 2 36-18 20 31-49 47-92 13-60 12-18 14 17 13-30 28-45 11-7 20-17 8-19 43 8 32-8 29-13 10 55 18 60-5 46 4v3l98-5 4-61-62 4-37-43 3-32 4-50 6-58 1-75-24-41-57-42 38-30-6-43-76-55-20-28-26-16-31-10-49 80-5 25-17 34 14 55-3 35 85 47-6 9-49 36-74 82 42-1 74 12 69 3 105 199-99-170-7 22-71-28-11 49-10 22-28 43-6 22 47 16-9 39-36 42-20 34-80 5 32 11 116-3 49-17 74-16 49-23 8-8 28-5 20-22v-35l20-20-42-20-48-23-33-7-2-54 8-18 2-22-16-49-4-35 85-18 72 2 49-1 12 9 18 28 11-83-35 85-5 180-16 44-30 56"/><path d="m259 461-1-32-21-28-8-11-72-50-6-8-45-20 5-39 41-41 65-20 61-3 42 31 40 37 16 24 59 48 22 2 36-18 20 31-49 47-92 13-60 12-18 14 17 13-30 28-45 11-7 20-17 8-19 43 8 32-8 29-13 10 55 18 60-5 46 4v3l98-5 4-61-62 4-37-43 3-32 4-50 6-58 1-75-24-41-57-42 38-30-6-43-76-55-20-28-26-16-31-10-49 80-5 25-17 34 14 55-3 35 85 47-6 9-49 36-74 82 42-1 74 12 69 3 105 199-99-170-7 22-71-28-11 49-10 22-28 43-6 22 47 16-9 39-36 42-20 34-80 5 32 11 116-3 49-17 74-16 49-23 8-8 28-5 20-22v-35l20-20-42-20-48-23-33-7-2-54 8-18 2-22-16-49-4-35 85-18 72 2 49-1 12 9 18 28 11-83-35 85-5 180-16 44-30 56"/><path d="m259 461-1-32-21-28-8-11-72-50-6-8-45-20 5-39 41-41 65-20 61-3 42 31 40 37 16 24 59 48 22 2 36-18 20 31-49 47-92 13-60 12-18 14 17 13-30 28-45 11-7 20-17 8-19 43 8 32-8 29-13 10 55 18 60-5 46 4v3l98-5 4-61-62 4-37-43 3-32 4-50 6-58 1-75-24-41-57-42 38-30-6-43-76-55-20-28-26-16-31-10-49 80-5 25-17 34 14 55-3 35 85 47-6 9-49 36-74 82 42-1 74 12 69 3 105 199-99-170-7 22-71-28-11 49-10 22-28 43-6 22 47 16-9 39-36 42-20 34-80 5 32 11 116-3 49-17 74-16 49-23 8-8 28-5 20-22v-35l20-20-42-20-48-23-33-7-2-54 8-18 2-22-16-49-4-35 85-18 72 2 49-1 12 9 18 28 11-83-35 85-5 180-16 44-30 56"/><path d="m259 461-1-32-21-28-8-11-72-50-6-8-45-20 5-39 41-41 65-20 61-3 42 31 40 37 16 24 59 48 22 2 36-18 20 31-49 47-92 13-60 12-18 14 17 13-30 28-45 11-7 20-17 8-19 43 8 32-8 29-13 10 55 18 60-5 46 4v3l98-5 4-61-62 4-37-43 3-32 4-50 6-58 1-75-24-41-57-42 38-30-6-43-76-55-20-28-26-16-31-10-49 80-5 25-17 34 14 55-3 35 85 47-6 9-49 36-74 82 42-1 74 12 69 3 105 199-99-170-7 22-71-28-11 49-10 22-28 43-6 22 47 16-9 39-36 42-20 34-80 5 32 11 116-3 49-17 74-16 49-23 8-8 28-5 20-22v-35l20-20-42-20-48-23-33-7-2-54 8-18 2-22-16-49-4-35 85-18 72 2 49-1 12 9 18 28 11-83-35 85-5 180-16 44-30 56"/><path d="m259 461-1-32-21-28-8-11-72-50-6-8-45-20 5-39 41-41 65-20 61-3 42 31 40 37 16 24 59 48 22 2 36-18 20 31-49 47-92 13-60 12-18 14 17 13-30 28-45 11-7 20-17 8-19 43 8 32-8 29-13 10 55 18 60-5 46 4v3l98-5 4-61-62 4-37-43 3-32 4-50 6-58 1-75-24-41-57-42 38-30-6-43-76-55-20-28-26-16-31-10-49 80-5 25-17 34 14 55-3 35 85 47-6 9-49 36-74 82 42-1 74 12 69 3 105 199-99-170-7 22-71-28-11 49-10 22-28 43-6 22 47 16-9 39-36 42-20 34-80 5 32 11 116-3 49-17 74-16 49-23 8-8 28-5 20-22v-35l20-20-42-20-48-23-33-7-2-54 8-18 2-22-16-49-4-35 85-18 72 2 49-1 12 9 18 28 11-83-35 85-5 180-16 44-30 56"/><path d="m259 461-1-32-21-28-8-11-72-50-6-8-45-20 5-39 41-41 65-20 61-3 42 31 40 37 16 24 59 48 22 2 36-18 20 31-49 47-92 13-60 12-18 14 17 13-30 28-45 11-7 20-17 8-19 43 8 32-8 29-13 10 55 18 60-5 46 4v3l98-5 4-61-62 4-37-43 3-32 4-50 6-58 1-75-24-41-57-42 38-30-6-43-76-55-20-28-26-16-31-10-49 80-5 25-17 34 14 55-3 35 85 47-6 9-49 36-74 82 42-1 74 12 69 3 105 199-99-170-7 22-71-28-11 49-10 22-28 43-6 22 47 16-9 39-36 42-20 34-80 5 32 11 116-3 49-17 74-16 49-23 8-8 28-5 20-22v-35l20-20-42-20-48-23-33-7-2-54 8-18 2-22-16-49-4-35 85-18 72 2 49-1 12 9 18 28 11-83-35 85-5 180-16 44-30 56"/><path d="m259 461-1-32-21-28-8-11-72-50-6-8-45-20 5-39 41-41 65-20 61-3 42 31 40 37 16 24 59 48 22 2 36-18 20 31-49 47-92 13-60 12-18 14 17 13-30 28-45 11-7 20-17 8-19 43 8 32-8 29-13 10 55 18 60-5 46 4v3l98-5 4-61-62 4-37-43 3-32 4-50 6-58 1-75-24-41-57-42 38-30-6-43-76-55-20-28-26-16-31-10-49 80-5 25-17 34 14 55-3 35 85 47-6 9-49 36-74 82 42-1 74 12 69 3 105 199-99-170-7 22-71-28-11 49-10 22-28 43-6 22 47 16-9 39-36 42-20 34-80 5 32 11 116-3 49-17 74-16 49-23 8-8 28-5 20-22v-35l20-20-42-20-48-23-33-7-2-54 8-18 2-22-16-49-4-35 85-18 72 2 49-1 12 9 18 28 11-83-35 85-5 180-16 44-30 56"/><path d="m259 461-1-32-21-28-8-11-72-50-6-8-45-20 5-39 41-41 65-20 61-3 42 31 40 37 16 24 59 48 22 2 36-18 20 31-49 47-92 13-60 12-18 14 17 13-30 28-45 11-7 20-17 8-19 43 8 32-8 29-13 10 55 18 60-5 46 4v3l98-5 4-61-62 4-37-43 3-32 4-50 6-58 1-75-24-41-57-42 38-30-6-43-76-55-20-28-26-16-31-10-49 80-5 25-17 34 14 55-3 35 85 47-6 9-49 36-74 82 42-1 74 12 69 3 105 199-99-170-7 22-71-28-11 49-10 22-28 43-6 22 47 16-9 39-36 42-20 34-80 5 32 11 116-3 49-17 74-16 49-23 8-8 28-5 20-22v-35l20-20-42-20-48-23-33-7-2-54 8-18 2-22-16-49-4-35 85-18 72 2 49-1 12 9 18 28 11-83-35 85-5 180-16 44-30 56"/><path d="m259 461-1-32-21-28-8-11-72-50-6-8-45-20 5-39 41-41 65-20 61-3 42 31 40 37 16 24 59 48 22 2 36-18 20 31-49 47-92 13-60 12-18 14 17 13-30 28-45 11-7 20-17 8-19 43 8 32-8 29-13 10 55 18 60-5 46 4v3l98-5 4-61-62 4-37-43 3-32 4-50 6-58 1-75-24-41-57-42 38-30-6-43-76-55-20-28-26-16-31-10-49 80-5 25-17 34 14 55-3 35 85 47-6 9-49 36-74 82 42-1 74 12 69 3 105 199-99-170-7 22-71-28-11 49-10 22-28 43-6 22 47 16-9 39-36 42-20 34-80 5 32 11 116-3 49-17 74-16 49-23 8-8 28-5 20-22v-35l20-20-42-20-48-23-33-7-2-54 8-18 2-22-16-49-4-35 85-18 72 2 49-1 12 9 18 28 11-83-35 85-5 180-16 44-30 56"/><path d="m259 461-1-32-21-28-8-11-72-50-6-8-45-20 5-39 41-41 65-20 61-3 42 31 40 37 16 24 59 48 22 2 36-18 20 31-49 47-92 13-60 12-18 14 17 13-30 28-45 11-7 20-17 8-19 43 8 32-8 29-13 10 55 18 60-5 46 4v3l98-5 4-61-62 4-37-43 3-32 4-50 6-58 1-75-24-41-57-42 38-30-6-43-76-55-20-28-26-16-31-10-49 80-5 25-17 34 14 55-3 35 85 47-6 9-49 36-74 82 42-1 74 12 69 3 105 199-99-170-7 22-71-28-11 49-10 22-28 43-6 22 47 16-9 39-36 42-20 34-80 5 32 11 116-3 49-17 74-16 49-23 8-8 28-5 20-22v-35l20-20-42-20-48-23-33-7-2-54 8-18 2-22-16-49-4-35 85-18 72 2 49-1 12 9 18 28 11-83-35 85-5 180-16 44-30 56"/><path d="m259 461-1-32-21-28-8-11-72-50-6-8-45-20 5-39 41-41 65-20 61-3 42 31 40 37 16 24 59 48 22 2 36-18 20 31-49 47-92 13-60 12-18 14 17 13-30 28-45 11-7 20-17 8-19 43 8 32-8 29-13 10 55 18 60-5 46 4v3l98-5 4-61-62 4-37-43 3-32 4-50 6-58 1-75-24-41-57-42 38-30-6-43-76-55-20-28-26-16-31-10-49 80-5 25-17 34 14 55-3 35 85 47-6 9-49 36-74 82 42-1 74 12 69 3 105 199-99-170-7 22-71-28-11 49-10 22-28 43-6 22 47 16-9 39-36 42-20 34-80 5 32 11 116-3 49-17 74-16 49-23 8-8 28-5 20-22v-35l20-20-42-20-48-23-33-7-2-54 8-18 2-22-16-49-4-35 85-18 72 2 49-1 12 9 18 28 11-83-35 85-5 180-16 44-30 56"/><path d="m259 461-1-32-21-28-8-11-72-50-6-8-45-20 5-39 41-41 65-20 61-3 42 31 40 37 16 24 59 48 22 2 36-18 20 31-49 47-92 13-60 12-18 14 17 13-30 28-45 11-7 20-17 8-19 43 8 32-8 29-13 10 55 18 60-5 46 4v3l98-5 4-61-62 4-37-43 3-32 4-50 6-58 1-75-24-41-57-42 38-30-6-43-76-55-20-28-26-16-31-10-49 80-5 25-17 34 14 55-3 35 85 47-6 9-49 36-74 82 42-1 74 12 69 3 105 199-99-170-7 22-71-28-11 49-10 22-28 43-6 22 47 16-9 39-36 42-20 34-80 5 32 11 116-3 49-17 74-16 49-23 8-8 28-5 20-22v-35l20-20-42-20-48-23-33-7-2-54 8-18 2-22-16-49-4-35 85-18 72 2 49-1 12 9 18 28 11-83-35 85-5 180-16 44-30 56"/><path d="m259 461-1-32-21-28-8-11-72-50-6-8-45-20 5-39 41-41 65-20 61-3 42 31 40 37 16 24 59 48 22 2 36-18 20 31-49 47-92 13-60 12-18 14 17 13-30 28-45 11-7 20-17 8-19 43 8 32-8 29-13 10 55 18 60-5 46 4v3l98-5 4-61-62 4-37-43 3-32 4-50 6-58 1-75-24-41-57-42 38-30-6-43-76-55-20-28-26-16-31-10-49 80-5 25-17 34 14 55-3 35 85 47-6 9-49 36-74 82 42-1 74 12 69 3 105 199-99-170-7 22-71-28-11 49-10 22-28 43-6 22 47 16-9 39-36 42-20 34-80 5 32 11 116-3 49-17 74-16 49-23 8-8 28-5 20-22v-35l20-20-42-20-48-23-33-7-2-54 8-18 2-22-16-49-4-35 85-18 72 2 49-1 12 9 18 28 11-83-35 85-5 180-16 44-30 56"/><path d="m259 461-1-32-21-28-8-11-72-50-6-8-45-20 5-39 41-41 65-20 61-3 42 31 40 37 16 24 59 48 22 2 36-18 20 31-49 47-92 13-60 12-18 14 17 13-30 28-45 11-7 20-17 8-19 43 8 32-8 29-13 10 55 18 60-5 46 4v3l98-5 4-61-62 4-37-43 3-32 4-50 6-58 1-75-24-41-57-42 38-30-6-43-76-55-20-28-26-16-31-10-49 80-5 25-17 34 14 55-3 35 85 47-6 9-49 36-74 82 42-1 74 12 69 3 105 199-99-170-7 22-71-28-11 49-10 22-28 43-6 22 47 16-9 39-36 42-20 34-80 5 32 11 116-3 49-17 74-16 49-23 8-8 28-5 20-22v-35l20-20-42-20-48-23-33-7-2-54 8-18 2-22-16-49-4-35 85-18 72 2 49-1 12 9 18 28 11-83-35 85-5 180-16 44-30 56"/><path d="m259 461-1-32-21-28-8-11-72-50-6-8-45-20 5-39 41-41 65-20 61-3 42 31 40 37 16 24 59 48 22 2 36-18 20 31-49 47-92 13-60 12-18 14 17 13-30 28-45 11-7 20-17 8-19 43 8 32-8 29-13 10 55 18 60-5 46 4v3l98-5 4-61-62 4-37-43 3-32 4-50 6-58 1-75-24-41-57-42 38-30-6-43-76-55-20-28-26-16-31-10-49 80-5 25-17 34 14 55-3 35 85 47-6 9-49 36-74 82 42-1 74 12 69 3 105 199-99-170-7 22-71-28-11 49-10 22-28 43-6 22 47 16-9 39-36 42-20 34-80 5 32 11 116-3 49-17 74-16 49-23 8-8 28-5 20-22v-35l20-20-42-20-48-23-33-7-2-54 8-18 2-22-16-49-4-35 85-18 72 2 49-1 12 9 18 28 11-83-35 85-5 180-16 44-30 56"/></g></svg>