<svg width="600" height="862"><image xlink:href="./../images/21.jpeg" x="0" y="0" width="600" height="862"></image><rect x="0" y="0" width="600" height="862" fill="#fff" opacity="0.5"></rect><circle cx="259" cy="431" r="10" opacity="0.75" fill="green"></circle><circle cx="219.99999999999997" cy="135" r="10" opacity="0.75" fill="green"></circle><circle cx="380" cy="315" r="10" opacity="0.75" fill="green"></circle><circle cx="334" cy="308" r="10" opacity="0.75" fill="green"></circle><circle cx="219" cy="97" r="10" opacity="0.75" fill="green"></circle><circle cx="255" cy="487.00000000000006" r="10" opacity="0.75" fill="green"></circle><circle cx="259" cy="461.00000000000006" r="10" opacity="0.75" fill="green"></circle><circle cx="169" cy="427" r="10" opacity="0.75" fill="green"></circle><circle cx="71" cy="798" r="10" opacity="0.75" fill="green"></circle><circle cx="189" cy="369" r="10" opacity="0.75" fill="green"></circle><circle cx="279" cy="507" r="10" opacity="0.75" fill="green"></circle><circle cx="59" cy="724" r="10" opacity="0.75" fill="green"></circle><circle cx="237" cy="350" r="10" opacity="0.75" fill="green"></circle><circle cx="256.5" cy="289.75" r="10" opacity="0.75" fill="yellow"></circle><circle cx="11.5" cy="614.75" r="10" opacity="0.75" fill="yellow"></circle><circle cx="89.5" cy="331.75" r="10" opacity="0.75" fill="yellow"></circle><circle cx="332.5" cy="513.75" r="10" opacity="0.75" fill="yellow"></circle><circle cx="229.5" cy="190.75" r="10" opacity="0.75" fill="yellow"></circle><circle cx="221.5" cy="231.75000000000003" r="10" opacity="0.75" fill="yellow"></circle><circle cx="304.49999999999994" cy="515.75" r="10" opacity="0.75" fill="yellow"></circle><circle cx="501.5" cy="365.75" r="10" opacity="0.75" fill="yellow"></circle><circle cx="229.5" cy="221.75" r="10" opacity="0.75" fill="yellow"></circle><circle cx="95.5" cy="191.75" r="10" opacity="0.75" fill="yellow"></circle><circle cx="474.50000000000006" cy="234.75" r="10" opacity="0.75" fill="yellow"></circle><circle cx="323.5" cy="444.74999999999994" r="10" opacity="0.75" fill="yellow"></circle><circle cx="230.5" cy="122.75" r="10" opacity="0.75" fill="yellow"></circle><circle cx="196.5" cy="230.75" r="10" opacity="0.75" fill="yellow"></circle><circle cx="45.5" cy="337.75" r="10" opacity="0.75" fill="yellow"></circle><circle cx="159.5" cy="291.75" r="10" opacity="0.75" fill="yellow"></circle><circle cx="95.5" cy="643.75" r="10" opacity="0.75" fill="yellow"></circle></svg>