<svg width="600" height="753"><image xlink:href="./../images/39.jpeg" x="0" y="0" width="600" height="753"></image><rect x="0" y="0" width="600" height="753" fill="#fff" opacity="0.5"></rect><circle cx="386" cy="192" r="10" opacity="0.75" fill="green"></circle><circle cx="452" cy="346" r="10" opacity="0.75" fill="green"></circle><circle cx="189" cy="200" r="10" opacity="0.75" fill="green"></circle><circle cx="280" cy="368" r="10" opacity="0.75" fill="green"></circle><circle cx="322" cy="156" r="10" opacity="0.75" fill="green"></circle><circle cx="181.00000000000003" cy="180" r="10" opacity="0.75" fill="green"></circle><circle cx="319" cy="262" r="10" opacity="0.75" fill="green"></circle><circle cx="130" cy="603" r="10" opacity="0.75" fill="green"></circle><circle cx="293" cy="172" r="10" opacity="0.75" fill="green"></circle><circle cx="206" cy="170" r="10" opacity="0.75" fill="green"></circle><circle cx="82" cy="619" r="10" opacity="0.75" fill="green"></circle><circle cx="248" cy="24" r="10" opacity="0.75" fill="green"></circle><circle cx="156.49999999999997" cy="269.75" r="10" opacity="0.75" fill="yellow"></circle><circle cx="235.5" cy="156.75" r="10" opacity="0.75" fill="yellow"></circle><circle cx="266.5" cy="301.75" r="10" opacity="0.75" fill="yellow"></circle><circle cx="293.5" cy="372.75" r="10" opacity="0.75" fill="yellow"></circle><circle cx="83.5" cy="124.75" r="10" opacity="0.75" fill="yellow"></circle><circle cx="227.5" cy="288.75" r="10" opacity="0.75" fill="yellow"></circle><circle cx="328.5" cy="330.75" r="10" opacity="0.75" fill="yellow"></circle><circle cx="550.5" cy="291.75" r="10" opacity="0.75" fill="yellow"></circle><circle cx="545.5" cy="126.74999999999999" r="10" opacity="0.75" fill="yellow"></circle><circle cx="154.5" cy="160.75" r="10" opacity="0.75" fill="yellow"></circle><circle cx="266.5" cy="152.75" r="10" opacity="0.75" fill="yellow"></circle><circle cx="367.5" cy="512.75" r="10" opacity="0.75" fill="yellow"></circle><circle cx="233.5" cy="188.75" r="10" opacity="0.75" fill="yellow"></circle><circle cx="394.5" cy="187.75" r="10" opacity="0.75" fill="yellow"></circle><circle cx="189.5" cy="333.75" r="10" opacity="0.75" fill="yellow"></circle><circle cx="199.5" cy="504.74999999999994" r="10" opacity="0.75" fill="yellow"></circle><circle cx="266.5" cy="199.75" r="10" opacity="0.75" fill="yellow"></circle><circle cx="92.5" cy="396.75" r="10" opacity="0.75" fill="yellow"></circle></svg>