<svg width="600" height="776" id="visual_9_f"><image xlink:href="./../images/9.jpeg" x="0" y="0" width="600" height="776"></image><rect x="0" y="0" width="600" height="776" fill="#fff" opacity="0.5"></rect><circle cx="230.00000000000003" cy="215" r="50" opacity="0" fill="#00ffff" id="circle_0"></circle><circle cx="227" cy="343" r="50" opacity="0.5" fill="green" id="circle_1"></circle><circle cx="186" cy="203" r="50" opacity="0" fill="#00ffff" id="circle_2"></circle><circle cx="228" cy="332" r="50" opacity="0" fill="#00ffff" id="circle_3"></circle><circle cx="343" cy="325" r="50" opacity="0" fill="#00ffff" id="circle_4"></circle><circle cx="418" cy="429" r="50" opacity="0" fill="#00ffff" id="circle_5"></circle><circle cx="345" cy="536" r="50" opacity="0" fill="#00ffff" id="circle_6"></circle><circle cx="333.00000000000006" cy="598" r="50" opacity="0" fill="#00ffff" id="circle_7"></circle><circle cx="276" cy="675" r="50" opacity="0" fill="#00ffff" id="circle_8"></circle><circle cx="210" cy="607" r="50" opacity="0" fill="#00ffff" id="circle_9"></circle><circle cx="107" cy="544" r="50" opacity="0" fill="#00ffff" id="circle_10"></circle><circle cx="82" cy="375" r="50" opacity="0.5" fill="purple" id="circle_11"></circle><path id="#path_f" fill="none" stroke-width="5" stroke="#00ffff" stroke-opacity="0.3" d="M230.00000000000003,215L227,343L186,203L228,332L343,325L418,429L345,536L333.00000000000006,598L276,675L210,607L107,544L82,375"></path><path id="#path_f" fill="none" stroke-width="5" stroke="#00ffff" stroke-opacity="0.3" d="M230.00000000000003,215L227,343L186,203L228,332L343,325L418,429L345,536L333.00000000000006,598L276,675L210,607L107,544L82,375"></path><path id="#path_f" fill="none" stroke-width="5" stroke="#00ffff" stroke-opacity="0.3" d="M230.00000000000003,215L227,343L186,203L228,332L343,325L418,429L345,536L333.00000000000006,598L276,675L210,607L107,544L82,375"></path><path id="#path_f" fill="none" stroke-width="5" stroke="#00ffff" stroke-opacity="0.3" d="M230.00000000000003,215L227,343L186,203L228,332L343,325L418,429L345,536L333.00000000000006,598L276,675L210,607L107,544L82,375"></path><path id="#path_f" fill="none" stroke-width="5" stroke="#00ffff" stroke-opacity="0.3" d="M230.00000000000003,215L227,343L186,203L228,332L343,325L418,429L345,536L333.00000000000006,598L276,675L210,607L107,544L82,375"></path><path id="#path_f" fill="none" stroke-width="5" stroke="#00ffff" stroke-opacity="0.3" d="M230.00000000000003,215L227,343L186,203L228,332L343,325L418,429L345,536L333.00000000000006,598L276,675L210,607L107,544L82,375"></path><path id="#path_f" fill="none" stroke-width="5" stroke="#00ffff" stroke-opacity="0.3" d="M230.00000000000003,215L227,343L186,203L228,332L343,325L418,429L345,536L333.00000000000006,598L276,675L210,607L107,544L82,375"></path><path id="#path_f" fill="none" stroke-width="5" stroke="#00ffff" stroke-opacity="0.3" d="M230.00000000000003,215L227,343L186,203L228,332L343,325L418,429L345,536L333.00000000000006,598L276,675L210,607L107,544L82,375"></path><path id="#path_f" fill="none" stroke-width="5" stroke="#00ffff" stroke-opacity="0.3" d="M230.00000000000003,215L227,343L186,203L228,332L343,325L418,429L345,536L333.00000000000006,598L276,675L210,607L107,544L82,375"></path><path id="#path_f" fill="none" stroke-width="5" stroke="#00ffff" stroke-opacity="0.3" d="M230.00000000000003,215L227,343L186,203L228,332L343,325L418,429L345,536L333.00000000000006,598L276,675L210,607L107,544L82,375"></path><path id="#path_f" fill="none" stroke-width="5" stroke="#00ffff" stroke-opacity="0.3" d="M230.00000000000003,215L227,343L186,203L228,332L343,325L418,429L345,536L333.00000000000006,598L276,675L210,607L107,544L82,375"></path><path id="#path_f" fill="none" stroke-width="5" stroke="#00ffff" stroke-opacity="0.3" d="M230.00000000000003,215L227,343L186,203L228,332L343,325L418,429L345,536L333.00000000000006,598L276,675L210,607L107,544L82,375"></path><path id="#path_f" fill="none" stroke-width="5" stroke="#00ffff" stroke-opacity="0.3" d="M230.00000000000003,215L227,343L186,203L228,332L343,325L418,429L345,536L333.00000000000006,598L276,675L210,607L107,544L82,375"></path><path id="#path_f" fill="none" stroke-width="5" stroke="#00ffff" stroke-opacity="0.3" d="M230.00000000000003,215L227,343L186,203L228,332L343,325L418,429L345,536L333.00000000000006,598L276,675L210,607L107,544L82,375"></path><path id="#path_f" fill="none" stroke-width="5" stroke="#00ffff" stroke-opacity="0.3" d="M230.00000000000003,215L227,343L186,203L228,332L343,325L418,429L345,536L333.00000000000006,598L276,675L210,607L107,544L82,375"></path><path id="#path_f" fill="none" stroke-width="5" stroke="#00ffff" stroke-opacity="0.3" d="M230.00000000000003,215L227,343L186,203L228,332L343,325L418,429L345,536L333.00000000000006,598L276,675L210,607L107,544L82,375"></path><path id="#path_f" fill="none" stroke-width="5" stroke="#00ffff" stroke-opacity="0.3" d="M230.00000000000003,215L227,343L186,203L228,332L343,325L418,429L345,536L333.00000000000006,598L276,675L210,607L107,544L82,375"></path><path id="#path_f" fill="none" stroke-width="5" stroke="#00ffff" stroke-opacity="0.3" d="M230.00000000000003,215L227,343L186,203L228,332L343,325L418,429L345,536L333.00000000000006,598L276,675L210,607L107,544L82,375"></path><path id="#path_f" fill="none" stroke-width="5" stroke="#00ffff" stroke-opacity="0.3" d="M230.00000000000003,215L227,343L186,203L228,332L343,325L418,429L345,536L333.00000000000006,598L276,675L210,607L107,544L82,375"></path><path id="#path_f" fill="none" stroke-width="5" stroke="#00ffff" stroke-opacity="0.3" d="M230.00000000000003,215L227,343L186,203L228,332L343,325L418,429L345,536L333.00000000000006,598L276,675L210,607L107,544L82,375"></path><path id="#path_f" fill="none" stroke-width="5" stroke="#00ffff" stroke-opacity="0.3" d="M230.00000000000003,215L227,343L186,203L228,332L343,325L418,429L345,536L333.00000000000006,598L276,675L210,607L107,544L82,375"></path><path id="#path_f" fill="none" stroke-width="5" stroke="#00ffff" stroke-opacity="0.3" d="M230.00000000000003,215L227,343L186,203L228,332L343,325L418,429L345,536L333.00000000000006,598L276,675L210,607L107,544L82,375"></path><path id="#path_f" fill="none" stroke-width="5" stroke="#00ffff" stroke-opacity="0.3" d="M230.00000000000003,215L227,343L186,203L228,332L343,325L418,429L345,536L333.00000000000006,598L276,675L210,607L107,544L82,375"></path><path id="#path_f" fill="none" stroke-width="5" stroke="#00ffff" stroke-opacity="0.3" d="M230.00000000000003,215L227,343L186,203L228,332L343,325L418,429L345,536L333.00000000000006,598L276,675L210,607L107,544L82,375"></path><path id="#path_f" fill="none" stroke-width="5" stroke="#00ffff" stroke-opacity="0.3" d="M230.00000000000003,215L227,343L186,203L228,332L343,325L418,429L345,536L333.00000000000006,598L276,675L210,607L107,544L82,375"></path><path id="#path_f" fill="none" stroke-width="5" stroke="#00ffff" stroke-opacity="0.3" d="M230.00000000000003,215L227,343L186,203L228,332L343,325L418,429L345,536L333.00000000000006,598L276,675L210,607L107,544L82,375"></path><path id="#path_f" fill="none" stroke-width="5" stroke="#00ffff" stroke-opacity="0.3" d="M230.00000000000003,215L227,343L186,203L228,332L343,325L418,429L345,536L333.00000000000006,598L276,675L210,607L107,544L82,375"></path><path id="#path_f" fill="none" stroke-width="5" stroke="#00ffff" stroke-opacity="0.3" d="M230.00000000000003,215L227,343L186,203L228,332L343,325L418,429L345,536L333.00000000000006,598L276,675L210,607L107,544L82,375"></path><path id="#path_f" fill="none" stroke-width="5" stroke="#00ffff" stroke-opacity="0.3" d="M230.00000000000003,215L227,343L186,203L228,332L343,325L418,429L345,536L333.00000000000006,598L276,675L210,607L107,544L82,375"></path><path id="#path_f" fill="none" stroke-width="5" stroke="#00ffff" stroke-opacity="0.3" d="M230.00000000000003,215L227,343L186,203L228,332L343,325L418,429L345,536L333.00000000000006,598L276,675L210,607L107,544L82,375"></path><path id="#path_f" fill="none" stroke-width="5" stroke="#00ffff" stroke-opacity="0.3" d="M230.00000000000003,215L227,343L186,203L228,332L343,325L418,429L345,536L333.00000000000006,598L276,675L210,607L107,544L82,375"></path><path id="#path_f" fill="none" stroke-width="5" stroke="#00ffff" stroke-opacity="0.3" d="M230.00000000000003,215L227,343L186,203L228,332L343,325L418,429L345,536L333.00000000000006,598L276,675L210,607L107,544L82,375"></path><path id="#path_f" fill="none" stroke-width="5" stroke="#00ffff" stroke-opacity="0.3" d="M230.00000000000003,215L227,343L186,203L228,332L343,325L418,429L345,536L333.00000000000006,598L276,675L210,607L107,544L82,375"></path><path id="#path_f" fill="none" stroke-width="5" stroke="#00ffff" stroke-opacity="0.3" d="M230.00000000000003,215L227,343L186,203L228,332L343,325L418,429L345,536L333.00000000000006,598L276,675L210,607L107,544L82,375"></path><path id="#path_f" fill="none" stroke-width="5" stroke="#00ffff" stroke-opacity="0.3" d="M230.00000000000003,215L227,343L186,203L228,332L343,325L418,429L345,536L333.00000000000006,598L276,675L210,607L107,544L82,375"></path><path id="#path_f" fill="none" stroke-width="5" stroke="#00ffff" stroke-opacity="0.3" d="M230.00000000000003,215L227,343L186,203L228,332L343,325L418,429L345,536L333.00000000000006,598L276,675L210,607L107,544L82,375"></path><path id="#path_f" fill="none" stroke-width="5" stroke="#00ffff" stroke-opacity="0.3" d="M230.00000000000003,215L227,343L186,203L228,332L343,325L418,429L345,536L333.00000000000006,598L276,675L210,607L107,544L82,375"></path><path id="#path_f" fill="none" stroke-width="5" stroke="#00ffff" stroke-opacity="0.3" d="M230.00000000000003,215L227,343L186,203L228,332L343,325L418,429L345,536L333.00000000000006,598L276,675L210,607L107,544L82,375"></path><path id="#path_f" fill="none" stroke-width="5" stroke="#00ffff" stroke-opacity="0.3" d="M230.00000000000003,215L227,343L186,203L228,332L343,325L418,429L345,536L333.00000000000006,598L276,675L210,607L107,544L82,375"></path><path id="#path_f" fill="none" stroke-width="5" stroke="#00ffff" stroke-opacity="0.3" d="M230.00000000000003,215L227,343L186,203L228,332L343,325L418,429L345,536L333.00000000000006,598L276,675L210,607L107,544L82,375"></path><path id="#path_f" fill="none" stroke-width="5" stroke="#00ffff" stroke-opacity="0.3" d="M230.00000000000003,215L227,343L186,203L228,332L343,325L418,429L345,536L333.00000000000006,598L276,675L210,607L107,544L82,375"></path><path id="#path_f" fill="none" stroke-width="5" stroke="#00ffff" stroke-opacity="0.3" d="M230.00000000000003,215L227,343L186,203L228,332L343,325L418,429L345,536L333.00000000000006,598L276,675L210,607L107,544L82,375"></path><path id="#path_f" fill="none" stroke-width="5" stroke="#00ffff" stroke-opacity="0.3" d="M230.00000000000003,215L227,343L186,203L228,332L343,325L418,429L345,536L333.00000000000006,598L276,675L210,607L107,544L82,375"></path><path id="#path_f" fill="none" stroke-width="5" stroke="#00ffff" stroke-opacity="0.3" d="M230.00000000000003,215L227,343L186,203L228,332L343,325L418,429L345,536L333.00000000000006,598L276,675L210,607L107,544L82,375"></path><path id="#path_f" fill="none" stroke-width="5" stroke="#00ffff" stroke-opacity="0.3" d="M230.00000000000003,215L227,343L186,203L228,332L343,325L418,429L345,536L333.00000000000006,598L276,675L210,607L107,544L82,375"></path><path id="#path_f" fill="none" stroke-width="5" stroke="#00ffff" stroke-opacity="0.3" d="M230.00000000000003,215L227,343L186,203L228,332L343,325L418,429L345,536L333.00000000000006,598L276,675L210,607L107,544L82,375"></path><path id="#path_f" fill="none" stroke-width="5" stroke="#00ffff" stroke-opacity="0.3" d="M230.00000000000003,215L227,343L186,203L228,332L343,325L418,429L345,536L333.00000000000006,598L276,675L210,607L107,544L82,375"></path><path id="#path_f" fill="none" stroke-width="5" stroke="#00ffff" stroke-opacity="0.3" d="M230.00000000000003,215L227,343L186,203L228,332L343,325L418,429L345,536L333.00000000000006,598L276,675L210,607L107,544L82,375"></path><path id="#path_f" fill="none" stroke-width="5" stroke="#00ffff" stroke-opacity="0.3" d="M230.00000000000003,215L227,343L186,203L228,332L343,325L418,429L345,536L333.00000000000006,598L276,675L210,607L107,544L82,375"></path><path id="#path_f" fill="none" stroke-width="5" stroke="#00ffff" stroke-opacity="0.3" d="M230.00000000000003,215L227,343L186,203L228,332L343,325L418,429L345,536L333.00000000000006,598L276,675L210,607L107,544L82,375"></path><path id="#path_f" fill="none" stroke-width="5" stroke="#00ffff" stroke-opacity="0.3" d="M230.00000000000003,215L227,343L186,203L228,332L343,325L418,429L345,536L333.00000000000006,598L276,675L210,607L107,544L82,375"></path><path id="#path_f" fill="none" stroke-width="5" stroke="#00ffff" stroke-opacity="0.3" d="M230.00000000000003,215L227,343L186,203L228,332L343,325L418,429L345,536L333.00000000000006,598L276,675L210,607L107,544L82,375"></path><path id="#path_f" fill="none" stroke-width="5" stroke="#00ffff" stroke-opacity="0.3" d="M230.00000000000003,215L227,343L186,203L228,332L343,325L418,429L345,536L333.00000000000006,598L276,675L210,607L107,544L82,375"></path><path id="#path_f" fill="none" stroke-width="5" stroke="#00ffff" stroke-opacity="0.3" d="M230.00000000000003,215L227,343L186,203L228,332L343,325L418,429L345,536L333.00000000000006,598L276,675L210,607L107,544L82,375"></path><path id="#path_f" fill="none" stroke-width="5" stroke="#00ffff" stroke-opacity="0.3" d="M230.00000000000003,215L227,343L186,203L228,332L343,325L418,429L345,536L333.00000000000006,598L276,675L210,607L107,544L82,375"></path><path id="#path_f" fill="none" stroke-width="5" stroke="#00ffff" stroke-opacity="0.3" d="M230.00000000000003,215L227,343L186,203L228,332L343,325L418,429L345,536L333.00000000000006,598L276,675L210,607L107,544L82,375"></path><path id="#path_f" fill="none" stroke-width="5" stroke="#00ffff" stroke-opacity="0.3" d="M230.00000000000003,215L227,343L186,203L228,332L343,325L418,429L345,536L333.00000000000006,598L276,675L210,607L107,544L82,375"></path><path id="#path_f" fill="none" stroke-width="5" stroke="#00ffff" stroke-opacity="0.3" d="M230.00000000000003,215L227,343L186,203L228,332L343,325L418,429L345,536L333.00000000000006,598L276,675L210,607L107,544L82,375"></path><path id="#path_f" fill="none" stroke-width="5" stroke="#00ffff" stroke-opacity="0.3" d="M230.00000000000003,215L227,343L186,203L228,332L343,325L418,429L345,536L333.00000000000006,598L276,675L210,607L107,544L82,375"></path><path id="#path_f" fill="none" stroke-width="5" stroke="#00ffff" stroke-opacity="0.3" d="M230.00000000000003,215L227,343L186,203L228,332L343,325L418,429L345,536L333.00000000000006,598L276,675L210,607L107,544L82,375"></path><path id="#path_f" fill="none" stroke-width="5" stroke="#00ffff" stroke-opacity="0.3" d="M230.00000000000003,215L227,343L186,203L228,332L343,325L418,429L345,536L333.00000000000006,598L276,675L210,607L107,544L82,375"></path><path id="#path_f" fill="none" stroke-width="5" stroke="#00ffff" stroke-opacity="0.3" d="M230.00000000000003,215L227,343L186,203L228,332L343,325L418,429L345,536L333.00000000000006,598L276,675L210,607L107,544L82,375"></path><path id="#path_f" fill="none" stroke-width="5" stroke="#00ffff" stroke-opacity="0.3" d="M230.00000000000003,215L227,343L186,203L228,332L343,325L418,429L345,536L333.00000000000006,598L276,675L210,607L107,544L82,375"></path><path id="#path_f" fill="none" stroke-width="5" stroke="#00ffff" stroke-opacity="0.3" d="M230.00000000000003,215L227,343L186,203L228,332L343,325L418,429L345,536L333.00000000000006,598L276,675L210,607L107,544L82,375"></path><path id="#path_f" fill="none" stroke-width="5" stroke="#00ffff" stroke-opacity="0.3" d="M230.00000000000003,215L227,343L186,203L228,332L343,325L418,429L345,536L333.00000000000006,598L276,675L210,607L107,544L82,375"></path><path id="#path_f" fill="none" stroke-width="5" stroke="#00ffff" stroke-opacity="0.3" d="M230.00000000000003,215L227,343L186,203L228,332L343,325L418,429L345,536L333.00000000000006,598L276,675L210,607L107,544L82,375"></path><path id="#path_f" fill="none" stroke-width="5" stroke="#00ffff" stroke-opacity="0.3" d="M230.00000000000003,215L227,343L186,203L228,332L343,325L418,429L345,536L333.00000000000006,598L276,675L210,607L107,544L82,375"></path><path id="#path_f" fill="none" stroke-width="5" stroke="#00ffff" stroke-opacity="0.3" d="M230.00000000000003,215L227,343L186,203L228,332L343,325L418,429L345,536L333.00000000000006,598L276,675L210,607L107,544L82,375"></path><path id="#path_f" fill="none" stroke-width="5" stroke="#00ffff" stroke-opacity="0.3" d="M230.00000000000003,215L227,343L186,203L228,332L343,325L418,429L345,536L333.00000000000006,598L276,675L210,607L107,544L82,375"></path><path id="#path_f" fill="none" stroke-width="5" stroke="#00ffff" stroke-opacity="0.3" d="M230.00000000000003,215L227,343L186,203L228,332L343,325L418,429L345,536L333.00000000000006,598L276,675L210,607L107,544L82,375"></path><path id="#path_f" fill="none" stroke-width="5" stroke="#00ffff" stroke-opacity="0.3" d="M230.00000000000003,215L227,343L186,203L228,332L343,325L418,429L345,536L333.00000000000006,598L276,675L210,607L107,544L82,375"></path><path id="#path_f" fill="none" stroke-width="5" stroke="#00ffff" stroke-opacity="0.3" d="M230.00000000000003,215L227,343L186,203L228,332L343,325L418,429L345,536L333.00000000000006,598L276,675L210,607L107,544L82,375"></path><path id="#path_f" fill="none" stroke-width="5" stroke="#00ffff" stroke-opacity="0.3" d="M230.00000000000003,215L227,343L186,203L228,332L343,325L418,429L345,536L333.00000000000006,598L276,675L210,607L107,544L82,375"></path><path id="#path_f" fill="none" stroke-width="5" stroke="#00ffff" stroke-opacity="0.3" d="M230.00000000000003,215L227,343L186,203L228,332L343,325L418,429L345,536L333.00000000000006,598L276,675L210,607L107,544L82,375"></path><path id="#path_f" fill="none" stroke-width="5" stroke="#00ffff" stroke-opacity="0.3" d="M230.00000000000003,215L227,343L186,203L228,332L343,325L418,429L345,536L333.00000000000006,598L276,675L210,607L107,544L82,375"></path><path id="#path_f" fill="none" stroke-width="5" stroke="#00ffff" stroke-opacity="0.3" d="M230.00000000000003,215L227,343L186,203L228,332L343,325L418,429L345,536L333.00000000000006,598L276,675L210,607L107,544L82,375"></path><path id="#path_f" fill="none" stroke-width="5" stroke="#00ffff" stroke-opacity="0.3" d="M230.00000000000003,215L227,343L186,203L228,332L343,325L418,429L345,536L333.00000000000006,598L276,675L210,607L107,544L82,375"></path><path id="#path_f" fill="none" stroke-width="5" stroke="#00ffff" stroke-opacity="0.3" d="M230.00000000000003,215L227,343L186,203L228,332L343,325L418,429L345,536L333.00000000000006,598L276,675L210,607L107,544L82,375"></path><path id="#path_f" fill="none" stroke-width="5" stroke="#00ffff" stroke-opacity="0.3" d="M230.00000000000003,215L227,343L186,203L228,332L343,325L418,429L345,536L333.00000000000006,598L276,675L210,607L107,544L82,375"></path><path id="#path_f" fill="none" stroke-width="5" stroke="#00ffff" stroke-opacity="0.3" d="M230.00000000000003,215L227,343L186,203L228,332L343,325L418,429L345,536L333.00000000000006,598L276,675L210,607L107,544L82,375"></path><path id="#path_f" fill="none" stroke-width="5" stroke="#00ffff" stroke-opacity="0.3" d="M230.00000000000003,215L227,343L186,203L228,332L343,325L418,429L345,536L333.00000000000006,598L276,675L210,607L107,544L82,375"></path><path id="#path_f" fill="none" stroke-width="5" stroke="#00ffff" stroke-opacity="0.3" d="M230.00000000000003,215L227,343L186,203L228,332L343,325L418,429L345,536L333.00000000000006,598L276,675L210,607L107,544L82,375"></path><path id="#path_f" fill="none" stroke-width="5" stroke="#00ffff" stroke-opacity="0.3" d="M230.00000000000003,215L227,343L186,203L228,332L343,325L418,429L345,536L333.00000000000006,598L276,675L210,607L107,544L82,375"></path><path id="#path_f" fill="none" stroke-width="5" stroke="#00ffff" stroke-opacity="0.3" d="M230.00000000000003,215L227,343L186,203L228,332L343,325L418,429L345,536L333.00000000000006,598L276,675L210,607L107,544L82,375"></path><path id="#path_f" fill="none" stroke-width="5" stroke="#00ffff" stroke-opacity="0.3" d="M230.00000000000003,215L227,343L186,203L228,332L343,325L418,429L345,536L333.00000000000006,598L276,675L210,607L107,544L82,375"></path><path id="#path_f" fill="none" stroke-width="5" stroke="#00ffff" stroke-opacity="0.3" d="M230.00000000000003,215L227,343L186,203L228,332L343,325L418,429L345,536L333.00000000000006,598L276,675L210,607L107,544L82,375"></path><path id="#path_f" fill="none" stroke-width="5" stroke="#00ffff" stroke-opacity="0.3" d="M230.00000000000003,215L227,343L186,203L228,332L343,325L418,429L345,536L333.00000000000006,598L276,675L210,607L107,544L82,375"></path><path id="#path_f" fill="none" stroke-width="5" stroke="#00ffff" stroke-opacity="0.3" d="M230.00000000000003,215L227,343L186,203L228,332L343,325L418,429L345,536L333.00000000000006,598L276,675L210,607L107,544L82,375"></path><path id="#path_f" fill="none" stroke-width="5" stroke="#00ffff" stroke-opacity="0.3" d="M230.00000000000003,215L227,343L186,203L228,332L343,325L418,429L345,536L333.00000000000006,598L276,675L210,607L107,544L82,375"></path><path id="#path_f" fill="none" stroke-width="5" stroke="#00ffff" stroke-opacity="0.3" d="M230.00000000000003,215L227,343L186,203L228,332L343,325L418,429L345,536L333.00000000000006,598L276,675L210,607L107,544L82,375"></path><path id="#path_f" fill="none" stroke-width="5" stroke="#00ffff" stroke-opacity="0.3" d="M230.00000000000003,215L227,343L186,203L228,332L343,325L418,429L345,536L333.00000000000006,598L276,675L210,607L107,544L82,375"></path><path id="#path_f" fill="none" stroke-width="5" stroke="#00ffff" stroke-opacity="0.3" d="M230.00000000000003,215L227,343L186,203L228,332L343,325L418,429L345,536L333.00000000000006,598L276,675L210,607L107,544L82,375"></path><path id="#path_f" fill="none" stroke-width="5" stroke="#00ffff" stroke-opacity="0.3" d="M230.00000000000003,215L227,343L186,203L228,332L343,325L418,429L345,536L333.00000000000006,598L276,675L210,607L107,544L82,375"></path><path id="#path_f" fill="none" stroke-width="5" stroke="#00ffff" stroke-opacity="0.3" d="M230.00000000000003,215L227,343L186,203L228,332L343,325L418,429L345,536L333.00000000000006,598L276,675L210,607L107,544L82,375"></path><path id="#path_f" fill="none" stroke-width="5" stroke="#00ffff" stroke-opacity="0.3" d="M230.00000000000003,215L227,343L186,203L228,332L343,325L418,429L345,536L333.00000000000006,598L276,675L210,607L107,544L82,375"></path><path id="#path_f" fill="none" stroke-width="5" stroke="#00ffff" stroke-opacity="0.3" d="M230.00000000000003,215L227,343L186,203L228,332L343,325L418,429L345,536L333.00000000000006,598L276,675L210,607L107,544L82,375"></path><path id="#path_f" fill="none" stroke-width="5" stroke="#00ffff" stroke-opacity="0.3" d="M230.00000000000003,215L227,343L186,203L228,332L343,325L418,429L345,536L333.00000000000006,598L276,675L210,607L107,544L82,375"></path><path id="#path_f" fill="none" stroke-width="5" stroke="#00ffff" stroke-opacity="0.3" d="M230.00000000000003,215L227,343L186,203L228,332L343,325L418,429L345,536L333.00000000000006,598L276,675L210,607L107,544L82,375"></path><path id="#path_f" fill="none" stroke-width="5" stroke="#00ffff" stroke-opacity="0.3" d="M230.00000000000003,215L227,343L186,203L228,332L343,325L418,429L345,536L333.00000000000006,598L276,675L210,607L107,544L82,375"></path><path id="#path_f" fill="none" stroke-width="5" stroke="#00ffff" stroke-opacity="0.3" d="M230.00000000000003,215L227,343L186,203L228,332L343,325L418,429L345,536L333.00000000000006,598L276,675L210,607L107,544L82,375"></path><path id="#path_f" fill="none" stroke-width="5" stroke="#00ffff" stroke-opacity="0.3" d="M230.00000000000003,215L227,343L186,203L228,332L343,325L418,429L345,536L333.00000000000006,598L276,675L210,607L107,544L82,375"></path><path id="#path_f" fill="none" stroke-width="5" stroke="#00ffff" stroke-opacity="0.3" d="M230.00000000000003,215L227,343L186,203L228,332L343,325L418,429L345,536L333.00000000000006,598L276,675L210,607L107,544L82,375"></path><path id="#path_f" fill="none" stroke-width="5" stroke="#00ffff" stroke-opacity="0.3" d="M230.00000000000003,215L227,343L186,203L228,332L343,325L418,429L345,536L333.00000000000006,598L276,675L210,607L107,544L82,375"></path><path id="#path_f" fill="none" stroke-width="5" stroke="#00ffff" stroke-opacity="0.3" d="M230.00000000000003,215L227,343L186,203L228,332L343,325L418,429L345,536L333.00000000000006,598L276,675L210,607L107,544L82,375"></path><path id="#path_f" fill="none" stroke-width="5" stroke="#00ffff" stroke-opacity="0.3" d="M230.00000000000003,215L227,343L186,203L228,332L343,325L418,429L345,536L333.00000000000006,598L276,675L210,607L107,544L82,375"></path><path id="#path_f" fill="none" stroke-width="5" stroke="#00ffff" stroke-opacity="0.3" d="M230.00000000000003,215L227,343L186,203L228,332L343,325L418,429L345,536L333.00000000000006,598L276,675L210,607L107,544L82,375"></path><path id="#path_f" fill="none" stroke-width="5" stroke="#00ffff" stroke-opacity="0.3" d="M230.00000000000003,215L227,343L186,203L228,332L343,325L418,429L345,536L333.00000000000006,598L276,675L210,607L107,544L82,375"></path><path id="#path_f" fill="none" stroke-width="5" stroke="#00ffff" stroke-opacity="0.3" d="M230.00000000000003,215L227,343L186,203L228,332L343,325L418,429L345,536L333.00000000000006,598L276,675L210,607L107,544L82,375"></path><path id="#path_f" fill="none" stroke-width="5" stroke="#00ffff" stroke-opacity="0.3" d="M230.00000000000003,215L227,343L186,203L228,332L343,325L418,429L345,536L333.00000000000006,598L276,675L210,607L107,544L82,375"></path><path id="#path_f" fill="none" stroke-width="5" stroke="#00ffff" stroke-opacity="0.3" d="M230.00000000000003,215L227,343L186,203L228,332L343,325L418,429L345,536L333.00000000000006,598L276,675L210,607L107,544L82,375"></path><path id="#path_f" fill="none" stroke-width="5" stroke="#00ffff" stroke-opacity="0.3" d="M230.00000000000003,215L227,343L186,203L228,332L343,325L418,429L345,536L333.00000000000006,598L276,675L210,607L107,544L82,375"></path><path id="#path_f" fill="none" stroke-width="5" stroke="#00ffff" stroke-opacity="0.3" d="M230.00000000000003,215L227,343L186,203L228,332L343,325L418,429L345,536L333.00000000000006,598L276,675L210,607L107,544L82,375"></path><path id="#path_f" fill="none" stroke-width="5" stroke="#00ffff" stroke-opacity="0.3" d="M230.00000000000003,215L227,343L186,203L228,332L343,325L418,429L345,536L333.00000000000006,598L276,675L210,607L107,544L82,375"></path><path id="#path_f" fill="none" stroke-width="5" stroke="#00ffff" stroke-opacity="0.3" d="M230.00000000000003,215L227,343L186,203L228,332L343,325L418,429L345,536L333.00000000000006,598L276,675L210,607L107,544L82,375"></path><path id="#path_f" fill="none" stroke-width="5" stroke="#00ffff" stroke-opacity="0.3" d="M230.00000000000003,215L227,343L186,203L228,332L343,325L418,429L345,536L333.00000000000006,598L276,675L210,607L107,544L82,375"></path><path id="#path_f" fill="none" stroke-width="5" stroke="#00ffff" stroke-opacity="0.3" d="M230.00000000000003,215L227,343L186,203L228,332L343,325L418,429L345,536L333.00000000000006,598L276,675L210,607L107,544L82,375"></path><path id="#path_f" fill="none" stroke-width="5" stroke="#00ffff" stroke-opacity="0.3" d="M230.00000000000003,215L227,343L186,203L228,332L343,325L418,429L345,536L333.00000000000006,598L276,675L210,607L107,544L82,375"></path><path id="#path_f" fill="none" stroke-width="5" stroke="#00ffff" stroke-opacity="0.3" d="M230.00000000000003,215L227,343L186,203L228,332L343,325L418,429L345,536L333.00000000000006,598L276,675L210,607L107,544L82,375"></path><path id="#path_f" fill="none" stroke-width="5" stroke="#00ffff" stroke-opacity="0.3" d="M230.00000000000003,215L227,343L186,203L228,332L343,325L418,429L345,536L333.00000000000006,598L276,675L210,607L107,544L82,375"></path><path id="#path_f" fill="none" stroke-width="5" stroke="#00ffff" stroke-opacity="0.3" d="M230.00000000000003,215L227,343L186,203L228,332L343,325L418,429L345,536L333.00000000000006,598L276,675L210,607L107,544L82,375"></path><path id="#path_f" fill="none" stroke-width="5" stroke="#00ffff" stroke-opacity="0.3" d="M230.00000000000003,215L227,343L186,203L228,332L343,325L418,429L345,536L333.00000000000006,598L276,675L210,607L107,544L82,375"></path><path id="#path_f" fill="none" stroke-width="5" stroke="#00ffff" stroke-opacity="0.3" d="M230.00000000000003,215L227,343L186,203L228,332L343,325L418,429L345,536L333.00000000000006,598L276,675L210,607L107,544L82,375"></path><path id="#path_f" fill="none" stroke-width="5" stroke="#00ffff" stroke-opacity="0.3" d="M230.00000000000003,215L227,343L186,203L228,332L343,325L418,429L345,536L333.00000000000006,598L276,675L210,607L107,544L82,375"></path><path id="#path_f" fill="none" stroke-width="5" stroke="#00ffff" stroke-opacity="0.3" d="M230.00000000000003,215L227,343L186,203L228,332L343,325L418,429L345,536L333.00000000000006,598L276,675L210,607L107,544L82,375"></path><path id="#path_f" fill="none" stroke-width="5" stroke="#00ffff" stroke-opacity="0.3" d="M230.00000000000003,215L227,343L186,203L228,332L343,325L418,429L345,536L333.00000000000006,598L276,675L210,607L107,544L82,375"></path><path id="#path_f" fill="none" stroke-width="5" stroke="#00ffff" stroke-opacity="0.3" d="M230.00000000000003,215L227,343L186,203L228,332L343,325L418,429L345,536L333.00000000000006,598L276,675L210,607L107,544L82,375"></path><path id="#path_f" fill="none" stroke-width="5" stroke="#00ffff" stroke-opacity="0.3" d="M230.00000000000003,215L227,343L186,203L228,332L343,325L418,429L345,536L333.00000000000006,598L276,675L210,607L107,544L82,375"></path><path id="#path_f" fill="none" stroke-width="5" stroke="#00ffff" stroke-opacity="0.3" d="M230.00000000000003,215L227,343L186,203L228,332L343,325L418,429L345,536L333.00000000000006,598L276,675L210,607L107,544L82,375"></path><path id="#path_f" fill="none" stroke-width="5" stroke="#00ffff" stroke-opacity="0.3" d="M230.00000000000003,215L227,343L186,203L228,332L343,325L418,429L345,536L333.00000000000006,598L276,675L210,607L107,544L82,375"></path><path id="#path_f" fill="none" stroke-width="5" stroke="#00ffff" stroke-opacity="0.3" d="M230.00000000000003,215L227,343L186,203L228,332L343,325L418,429L345,536L333.00000000000006,598L276,675L210,607L107,544L82,375"></path><path id="#path_f" fill="none" stroke-width="5" stroke="#00ffff" stroke-opacity="0.3" d="M230.00000000000003,215L227,343L186,203L228,332L343,325L418,429L345,536L333.00000000000006,598L276,675L210,607L107,544L82,375"></path><path id="#path_f" fill="none" stroke-width="5" stroke="#00ffff" stroke-opacity="0.3" d="M230.00000000000003,215L227,343L186,203L228,332L343,325L418,429L345,536L333.00000000000006,598L276,675L210,607L107,544L82,375"></path><path id="#path_f" fill="none" stroke-width="5" stroke="#00ffff" stroke-opacity="0.3" d="M230.00000000000003,215L227,343L186,203L228,332L343,325L418,429L345,536L333.00000000000006,598L276,675L210,607L107,544L82,375"></path><path id="#path_f" fill="none" stroke-width="5" stroke="#00ffff" stroke-opacity="0.3" d="M230.00000000000003,215L227,343L186,203L228,332L343,325L418,429L345,536L333.00000000000006,598L276,675L210,607L107,544L82,375"></path><path id="#path_f" fill="none" stroke-width="5" stroke="#00ffff" stroke-opacity="0.3" d="M230.00000000000003,215L227,343L186,203L228,332L343,325L418,429L345,536L333.00000000000006,598L276,675L210,607L107,544L82,375"></path><path id="#path_f" fill="none" stroke-width="5" stroke="#00ffff" stroke-opacity="0.3" d="M230.00000000000003,215L227,343L186,203L228,332L343,325L418,429L345,536L333.00000000000006,598L276,675L210,607L107,544L82,375"></path><path id="#path_f" fill="none" stroke-width="5" stroke="#00ffff" stroke-opacity="0.3" d="M230.00000000000003,215L227,343L186,203L228,332L343,325L418,429L345,536L333.00000000000006,598L276,675L210,607L107,544L82,375"></path><path id="#path_f" fill="none" stroke-width="5" stroke="#00ffff" stroke-opacity="0.3" d="M230.00000000000003,215L227,343L186,203L228,332L343,325L418,429L345,536L333.00000000000006,598L276,675L210,607L107,544L82,375"></path><path id="#path_f" fill="none" stroke-width="5" stroke="#00ffff" stroke-opacity="0.3" d="M230.00000000000003,215L227,343L186,203L228,332L343,325L418,429L345,536L333.00000000000006,598L276,675L210,607L107,544L82,375"></path><path id="#path_f" fill="none" stroke-width="5" stroke="#00ffff" stroke-opacity="0.3" d="M230.00000000000003,215L227,343L186,203L228,332L343,325L418,429L345,536L333.00000000000006,598L276,675L210,607L107,544L82,375"></path><path id="#path_f" fill="none" stroke-width="5" stroke="#00ffff" stroke-opacity="0.3" d="M230.00000000000003,215L227,343L186,203L228,332L343,325L418,429L345,536L333.00000000000006,598L276,675L210,607L107,544L82,375"></path><path id="#path_f" fill="none" stroke-width="5" stroke="#00ffff" stroke-opacity="0.3" d="M230.00000000000003,215L227,343L186,203L228,332L343,325L418,429L345,536L333.00000000000006,598L276,675L210,607L107,544L82,375"></path><path id="#path_f" fill="none" stroke-width="5" stroke="#00ffff" stroke-opacity="0.3" d="M230.00000000000003,215L227,343L186,203L228,332L343,325L418,429L345,536L333.00000000000006,598L276,675L210,607L107,544L82,375"></path><path id="#path_f" fill="none" stroke-width="5" stroke="#00ffff" stroke-opacity="0.3" d="M230.00000000000003,215L227,343L186,203L228,332L343,325L418,429L345,536L333.00000000000006,598L276,675L210,607L107,544L82,375"></path><path id="#path_f" fill="none" stroke-width="5" stroke="#00ffff" stroke-opacity="0.3" d="M230.00000000000003,215L227,343L186,203L228,332L343,325L418,429L345,536L333.00000000000006,598L276,675L210,607L107,544L82,375"></path><path id="#path_f" fill="none" stroke-width="5" stroke="#00ffff" stroke-opacity="0.3" d="M230.00000000000003,215L227,343L186,203L228,332L343,325L418,429L345,536L333.00000000000006,598L276,675L210,607L107,544L82,375"></path><path id="#path_f" fill="none" stroke-width="5" stroke="#00ffff" stroke-opacity="0.3" d="M230.00000000000003,215L227,343L186,203L228,332L343,325L418,429L345,536L333.00000000000006,598L276,675L210,607L107,544L82,375"></path><path id="#path_f" fill="none" stroke-width="5" stroke="#00ffff" stroke-opacity="0.3" d="M230.00000000000003,215L227,343L186,203L228,332L343,325L418,429L345,536L333.00000000000006,598L276,675L210,607L107,544L82,375"></path><path id="#path_f" fill="none" stroke-width="5" stroke="#00ffff" stroke-opacity="0.3" d="M230.00000000000003,215L227,343L186,203L228,332L343,325L418,429L345,536L333.00000000000006,598L276,675L210,607L107,544L82,375"></path><path id="#path_f" fill="none" stroke-width="5" stroke="#00ffff" stroke-opacity="0.3" d="M230.00000000000003,215L227,343L186,203L228,332L343,325L418,429L345,536L333.00000000000006,598L276,675L210,607L107,544L82,375"></path><path id="#path_f" fill="none" stroke-width="5" stroke="#00ffff" stroke-opacity="0.3" d="M230.00000000000003,215L227,343L186,203L228,332L343,325L418,429L345,536L333.00000000000006,598L276,675L210,607L107,544L82,375"></path><path id="#path_f" fill="none" stroke-width="5" stroke="#00ffff" stroke-opacity="0.3" d="M230.00000000000003,215L227,343L186,203L228,332L343,325L418,429L345,536L333.00000000000006,598L276,675L210,607L107,544L82,375"></path><path id="#path_f" fill="none" stroke-width="5" stroke="#00ffff" stroke-opacity="0.3" d="M230.00000000000003,215L227,343L186,203L228,332L343,325L418,429L345,536L333.00000000000006,598L276,675L210,607L107,544L82,375"></path><path id="#path_f" fill="none" stroke-width="5" stroke="#00ffff" stroke-opacity="0.3" d="M230.00000000000003,215L227,343L186,203L228,332L343,325L418,429L345,536L333.00000000000006,598L276,675L210,607L107,544L82,375"></path><path id="#path_f" fill="none" stroke-width="5" stroke="#00ffff" stroke-opacity="0.3" d="M230.00000000000003,215L227,343L186,203L228,332L343,325L418,429L345,536L333.00000000000006,598L276,675L210,607L107,544L82,375"></path><path id="#path_f" fill="none" stroke-width="5" stroke="#00ffff" stroke-opacity="0.3" d="M230.00000000000003,215L227,343L186,203L228,332L343,325L418,429L345,536L333.00000000000006,598L276,675L210,607L107,544L82,375"></path><path id="#path_f" fill="none" stroke-width="5" stroke="#00ffff" stroke-opacity="0.3" d="M230.00000000000003,215L227,343L186,203L228,332L343,325L418,429L345,536L333.00000000000006,598L276,675L210,607L107,544L82,375"></path><path id="#path_f" fill="none" stroke-width="5" stroke="#00ffff" stroke-opacity="0.3" d="M230.00000000000003,215L227,343L186,203L228,332L343,325L418,429L345,536L333.00000000000006,598L276,675L210,607L107,544L82,375"></path><path id="#path_f" fill="none" stroke-width="5" stroke="#00ffff" stroke-opacity="0.3" d="M230.00000000000003,215L227,343L186,203L228,332L343,325L418,429L345,536L333.00000000000006,598L276,675L210,607L107,544L82,375"></path><path id="#path_f" fill="none" stroke-width="5" stroke="#00ffff" stroke-opacity="0.3" d="M230.00000000000003,215L227,343L186,203L228,332L343,325L418,429L345,536L333.00000000000006,598L276,675L210,607L107,544L82,375"></path><path id="#path_f" fill="none" stroke-width="5" stroke="#00ffff" stroke-opacity="0.3" d="M230.00000000000003,215L227,343L186,203L228,332L343,325L418,429L345,536L333.00000000000006,598L276,675L210,607L107,544L82,375"></path><path id="#path_f" fill="none" stroke-width="5" stroke="#00ffff" stroke-opacity="0.3" d="M230.00000000000003,215L227,343L186,203L228,332L343,325L418,429L345,536L333.00000000000006,598L276,675L210,607L107,544L82,375"></path><path id="#path_f" fill="none" stroke-width="5" stroke="#00ffff" stroke-opacity="0.3" d="M230.00000000000003,215L227,343L186,203L228,332L343,325L418,429L345,536L333.00000000000006,598L276,675L210,607L107,544L82,375"></path><path id="#path_f" fill="none" stroke-width="5" stroke="#00ffff" stroke-opacity="0.3" d="M230.00000000000003,215L227,343L186,203L228,332L343,325L418,429L345,536L333.00000000000006,598L276,675L210,607L107,544L82,375"></path><path id="#path_f" fill="none" stroke-width="5" stroke="#00ffff" stroke-opacity="0.3" d="M230.00000000000003,215L227,343L186,203L228,332L343,325L418,429L345,536L333.00000000000006,598L276,675L210,607L107,544L82,375"></path><path id="#path_f" fill="none" stroke-width="5" stroke="#00ffff" stroke-opacity="0.3" d="M230.00000000000003,215L227,343L186,203L228,332L343,325L418,429L345,536L333.00000000000006,598L276,675L210,607L107,544L82,375"></path><path id="#path_f" fill="none" stroke-width="5" stroke="#00ffff" stroke-opacity="0.3" d="M230.00000000000003,215L227,343L186,203L228,332L343,325L418,429L345,536L333.00000000000006,598L276,675L210,607L107,544L82,375"></path><path id="#path_f" fill="none" stroke-width="5" stroke="#00ffff" stroke-opacity="0.3" d="M230.00000000000003,215L227,343L186,203L228,332L343,325L418,429L345,536L333.00000000000006,598L276,675L210,607L107,544L82,375"></path><path id="#path_f" fill="none" stroke-width="5" stroke="#00ffff" stroke-opacity="0.3" d="M230.00000000000003,215L227,343L186,203L228,332L343,325L418,429L345,536L333.00000000000006,598L276,675L210,607L107,544L82,375"></path><path id="#path_f" fill="none" stroke-width="5" stroke="#00ffff" stroke-opacity="0.3" d="M230.00000000000003,215L227,343L186,203L228,332L343,325L418,429L345,536L333.00000000000006,598L276,675L210,607L107,544L82,375"></path><path id="#path_f" fill="none" stroke-width="5" stroke="#00ffff" stroke-opacity="0.3" d="M230.00000000000003,215L227,343L186,203L228,332L343,325L418,429L345,536L333.00000000000006,598L276,675L210,607L107,544L82,375"></path><path id="#path_f" fill="none" stroke-width="5" stroke="#00ffff" stroke-opacity="0.3" d="M230.00000000000003,215L227,343L186,203L228,332L343,325L418,429L345,536L333.00000000000006,598L276,675L210,607L107,544L82,375"></path><path id="#path_f" fill="none" stroke-width="5" stroke="#00ffff" stroke-opacity="0.3" d="M230.00000000000003,215L227,343L186,203L228,332L343,325L418,429L345,536L333.00000000000006,598L276,675L210,607L107,544L82,375"></path><path id="#path_f" fill="none" stroke-width="5" stroke="#00ffff" stroke-opacity="0.3" d="M230.00000000000003,215L227,343L186,203L228,332L343,325L418,429L345,536L333.00000000000006,598L276,675L210,607L107,544L82,375"></path><path id="#path_f" fill="none" stroke-width="5" stroke="#00ffff" stroke-opacity="0.3" d="M230.00000000000003,215L227,343L186,203L228,332L343,325L418,429L345,536L333.00000000000006,598L276,675L210,607L107,544L82,375"></path><path id="#path_f" fill="none" stroke-width="5" stroke="#00ffff" stroke-opacity="0.3" d="M230.00000000000003,215L227,343L186,203L228,332L343,325L418,429L345,536L333.00000000000006,598L276,675L210,607L107,544L82,375"></path><path id="#path_f" fill="none" stroke-width="5" stroke="#00ffff" stroke-opacity="0.3" d="M230.00000000000003,215L227,343L186,203L228,332L343,325L418,429L345,536L333.00000000000006,598L276,675L210,607L107,544L82,375"></path><path id="#path_f" fill="none" stroke-width="5" stroke="#00ffff" stroke-opacity="0.3" d="M230.00000000000003,215L227,343L186,203L228,332L343,325L418,429L345,536L333.00000000000006,598L276,675L210,607L107,544L82,375"></path><path id="#path_f" fill="none" stroke-width="5" stroke="#00ffff" stroke-opacity="0.3" d="M230.00000000000003,215L227,343L186,203L228,332L343,325L418,429L345,536L333.00000000000006,598L276,675L210,607L107,544L82,375"></path><path id="#path_f" fill="none" stroke-width="5" stroke="#00ffff" stroke-opacity="0.3" d="M230.00000000000003,215L227,343L186,203L228,332L343,325L418,429L345,536L333.00000000000006,598L276,675L210,607L107,544L82,375"></path><path id="#path_f" fill="none" stroke-width="5" stroke="#00ffff" stroke-opacity="0.3" d="M230.00000000000003,215L227,343L186,203L228,332L343,325L418,429L345,536L333.00000000000006,598L276,675L210,607L107,544L82,375"></path><path id="#path_f" fill="none" stroke-width="5" stroke="#00ffff" stroke-opacity="0.3" d="M230.00000000000003,215L227,343L186,203L228,332L343,325L418,429L345,536L333.00000000000006,598L276,675L210,607L107,544L82,375"></path><path id="#path_f" fill="none" stroke-width="5" stroke="#00ffff" stroke-opacity="0.3" d="M230.00000000000003,215L227,343L186,203L228,332L343,325L418,429L345,536L333.00000000000006,598L276,675L210,607L107,544L82,375"></path><path id="#path_f" fill="none" stroke-width="5" stroke="#00ffff" stroke-opacity="0.3" d="M230.00000000000003,215L227,343L186,203L228,332L343,325L418,429L345,536L333.00000000000006,598L276,675L210,607L107,544L82,375"></path><path id="#path_f" fill="none" stroke-width="5" stroke="#00ffff" stroke-opacity="0.3" d="M230.00000000000003,215L227,343L186,203L228,332L343,325L418,429L345,536L333.00000000000006,598L276,675L210,607L107,544L82,375"></path><path id="#path_f" fill="none" stroke-width="5" stroke="#00ffff" stroke-opacity="0.3" d="M230.00000000000003,215L227,343L186,203L228,332L343,325L418,429L345,536L333.00000000000006,598L276,675L210,607L107,544L82,375"></path><path id="#path_f" fill="none" stroke-width="5" stroke="#00ffff" stroke-opacity="0.3" d="M230.00000000000003,215L227,343L186,203L228,332L343,325L418,429L345,536L333.00000000000006,598L276,675L210,607L107,544L82,375"></path><path id="#path_f" fill="none" stroke-width="5" stroke="#00ffff" stroke-opacity="0.3" d="M230.00000000000003,215L227,343L186,203L228,332L343,325L418,429L345,536L333.00000000000006,598L276,675L210,607L107,544L82,375"></path><path id="#path_f" fill="none" stroke-width="5" stroke="#00ffff" stroke-opacity="0.3" d="M230.00000000000003,215L227,343L186,203L228,332L343,325L418,429L345,536L333.00000000000006,598L276,675L210,607L107,544L82,375"></path><path id="#path_f" fill="none" stroke-width="5" stroke="#00ffff" stroke-opacity="0.3" d="M230.00000000000003,215L227,343L186,203L228,332L343,325L418,429L345,536L333.00000000000006,598L276,675L210,607L107,544L82,375"></path><path id="#path_f" fill="none" stroke-width="5" stroke="#00ffff" stroke-opacity="0.3" d="M230.00000000000003,215L227,343L186,203L228,332L343,325L418,429L345,536L333.00000000000006,598L276,675L210,607L107,544L82,375"></path><path id="#path_f" fill="none" stroke-width="5" stroke="#00ffff" stroke-opacity="0.3" d="M230.00000000000003,215L227,343L186,203L228,332L343,325L418,429L345,536L333.00000000000006,598L276,675L210,607L107,544L82,375"></path><path id="#path_f" fill="none" stroke-width="5" stroke="#00ffff" stroke-opacity="0.3" d="M230.00000000000003,215L227,343L186,203L228,332L343,325L418,429L345,536L333.00000000000006,598L276,675L210,607L107,544L82,375"></path><path id="#path_f" fill="none" stroke-width="5" stroke="#00ffff" stroke-opacity="0.3" d="M230.00000000000003,215L227,343L186,203L228,332L343,325L418,429L345,536L333.00000000000006,598L276,675L210,607L107,544L82,375"></path><path id="#path_f" fill="none" stroke-width="5" stroke="#00ffff" stroke-opacity="0.3" d="M230.00000000000003,215L227,343L186,203L228,332L343,325L418,429L345,536L333.00000000000006,598L276,675L210,607L107,544L82,375"></path><path id="#path_f" fill="none" stroke-width="5" stroke="#00ffff" stroke-opacity="0.3" d="M230.00000000000003,215L227,343L186,203L228,332L343,325L418,429L345,536L333.00000000000006,598L276,675L210,607L107,544L82,375"></path><path id="#path_f" fill="none" stroke-width="5" stroke="#00ffff" stroke-opacity="0.3" d="M230.00000000000003,215L227,343L186,203L228,332L343,325L418,429L345,536L333.00000000000006,598L276,675L210,607L107,544L82,375"></path><path id="#path_f" fill="none" stroke-width="5" stroke="#00ffff" stroke-opacity="0.3" d="M230.00000000000003,215L227,343L186,203L228,332L343,325L418,429L345,536L333.00000000000006,598L276,675L210,607L107,544L82,375"></path><path id="#path_f" fill="none" stroke-width="5" stroke="#00ffff" stroke-opacity="0.3" d="M230.00000000000003,215L227,343L186,203L228,332L343,325L418,429L345,536L333.00000000000006,598L276,675L210,607L107,544L82,375"></path><path id="#path_f" fill="none" stroke-width="5" stroke="#00ffff" stroke-opacity="0.3" d="M230.00000000000003,215L227,343L186,203L228,332L343,325L418,429L345,536L333.00000000000006,598L276,675L210,607L107,544L82,375"></path><path id="#path_f" fill="none" stroke-width="5" stroke="#00ffff" stroke-opacity="0.3" d="M230.00000000000003,215L227,343L186,203L228,332L343,325L418,429L345,536L333.00000000000006,598L276,675L210,607L107,544L82,375"></path><path id="#path_f" fill="none" stroke-width="5" stroke="#00ffff" stroke-opacity="0.3" d="M230.00000000000003,215L227,343L186,203L228,332L343,325L418,429L345,536L333.00000000000006,598L276,675L210,607L107,544L82,375"></path><path id="#path_f" fill="none" stroke-width="5" stroke="#00ffff" stroke-opacity="0.3" d="M230.00000000000003,215L227,343L186,203L228,332L343,325L418,429L345,536L333.00000000000006,598L276,675L210,607L107,544L82,375"></path><path id="#path_f" fill="none" stroke-width="5" stroke="#00ffff" stroke-opacity="0.3" d="M230.00000000000003,215L227,343L186,203L228,332L343,325L418,429L345,536L333.00000000000006,598L276,675L210,607L107,544L82,375"></path><path id="#path_f" fill="none" stroke-width="5" stroke="#00ffff" stroke-opacity="0.3" d="M230.00000000000003,215L227,343L186,203L228,332L343,325L418,429L345,536L333.00000000000006,598L276,675L210,607L107,544L82,375"></path><path id="#path_f" fill="none" stroke-width="5" stroke="#00ffff" stroke-opacity="0.3" d="M230.00000000000003,215L227,343L186,203L228,332L343,325L418,429L345,536L333.00000000000006,598L276,675L210,607L107,544L82,375"></path><path id="#path_f" fill="none" stroke-width="5" stroke="#00ffff" stroke-opacity="0.3" d="M230.00000000000003,215L227,343L186,203L228,332L343,325L418,429L345,536L333.00000000000006,598L276,675L210,607L107,544L82,375"></path><path id="#path_f" fill="none" stroke-width="5" stroke="#00ffff" stroke-opacity="0.3" d="M230.00000000000003,215L227,343L186,203L228,332L343,325L418,429L345,536L333.00000000000006,598L276,675L210,607L107,544L82,375"></path><path id="#path_f" fill="none" stroke-width="5" stroke="#00ffff" stroke-opacity="0.3" d="M230.00000000000003,215L227,343L186,203L228,332L343,325L418,429L345,536L333.00000000000006,598L276,675L210,607L107,544L82,375"></path><path id="#path_f" fill="none" stroke-width="5" stroke="#00ffff" stroke-opacity="0.3" d="M230.00000000000003,215L227,343L186,203L228,332L343,325L418,429L345,536L333.00000000000006,598L276,675L210,607L107,544L82,375"></path><path id="#path_f" fill="none" stroke-width="5" stroke="#00ffff" stroke-opacity="0.3" d="M230.00000000000003,215L227,343L186,203L228,332L343,325L418,429L345,536L333.00000000000006,598L276,675L210,607L107,544L82,375"></path><path id="#path_f" fill="none" stroke-width="5" stroke="#00ffff" stroke-opacity="0.3" d="M230.00000000000003,215L227,343L186,203L228,332L343,325L418,429L345,536L333.00000000000006,598L276,675L210,607L107,544L82,375"></path><path id="#path_f" fill="none" stroke-width="5" stroke="#00ffff" stroke-opacity="0.3" d="M230.00000000000003,215L227,343L186,203L228,332L343,325L418,429L345,536L333.00000000000006,598L276,675L210,607L107,544L82,375"></path><path id="#path_f" fill="none" stroke-width="5" stroke="#00ffff" stroke-opacity="0.3" d="M230.00000000000003,215L227,343L186,203L228,332L343,325L418,429L345,536L333.00000000000006,598L276,675L210,607L107,544L82,375"></path><path id="#path_f" fill="none" stroke-width="5" stroke="#00ffff" stroke-opacity="0.3" d="M230.00000000000003,215L227,343L186,203L228,332L343,325L418,429L345,536L333.00000000000006,598L276,675L210,607L107,544L82,375"></path><path id="#path_f" fill="none" stroke-width="5" stroke="#00ffff" stroke-opacity="0.3" d="M230.00000000000003,215L227,343L186,203L228,332L343,325L418,429L345,536L333.00000000000006,598L276,675L210,607L107,544L82,375"></path><path id="#path_f" fill="none" stroke-width="5" stroke="#00ffff" stroke-opacity="0.3" d="M230.00000000000003,215L227,343L186,203L228,332L343,325L418,429L345,536L333.00000000000006,598L276,675L210,607L107,544L82,375"></path><path id="#path_f" fill="none" stroke-width="5" stroke="#00ffff" stroke-opacity="0.3" d="M230.00000000000003,215L227,343L186,203L228,332L343,325L418,429L345,536L333.00000000000006,598L276,675L210,607L107,544L82,375"></path><path id="#path_f" fill="none" stroke-width="5" stroke="#00ffff" stroke-opacity="0.3" d="M230.00000000000003,215L227,343L186,203L228,332L343,325L418,429L345,536L333.00000000000006,598L276,675L210,607L107,544L82,375"></path><path id="#path_f" fill="none" stroke-width="5" stroke="#00ffff" stroke-opacity="0.3" d="M230.00000000000003,215L227,343L186,203L228,332L343,325L418,429L345,536L333.00000000000006,598L276,675L210,607L107,544L82,375"></path><path id="#path_f" fill="none" stroke-width="5" stroke="#00ffff" stroke-opacity="0.3" d="M230.00000000000003,215L227,343L186,203L228,332L343,325L418,429L345,536L333.00000000000006,598L276,675L210,607L107,544L82,375"></path><path id="#path_f" fill="none" stroke-width="5" stroke="#00ffff" stroke-opacity="0.3" d="M230.00000000000003,215L227,343L186,203L228,332L343,325L418,429L345,536L333.00000000000006,598L276,675L210,607L107,544L82,375"></path><path id="#path_f" fill="none" stroke-width="5" stroke="#00ffff" stroke-opacity="0.3" d="M230.00000000000003,215L227,343L186,203L228,332L343,325L418,429L345,536L333.00000000000006,598L276,675L210,607L107,544L82,375"></path><path id="#path_f" fill="none" stroke-width="5" stroke="#00ffff" stroke-opacity="0.3" d="M230.00000000000003,215L227,343L186,203L228,332L343,325L418,429L345,536L333.00000000000006,598L276,675L210,607L107,544L82,375"></path><path id="#path_f" fill="none" stroke-width="5" stroke="#00ffff" stroke-opacity="0.3" d="M230.00000000000003,215L227,343L186,203L228,332L343,325L418,429L345,536L333.00000000000006,598L276,675L210,607L107,544L82,375"></path><path id="#path_f" fill="none" stroke-width="5" stroke="#00ffff" stroke-opacity="0.3" d="M230.00000000000003,215L227,343L186,203L228,332L343,325L418,429L345,536L333.00000000000006,598L276,675L210,607L107,544L82,375"></path><path id="#path_f" fill="none" stroke-width="5" stroke="#00ffff" stroke-opacity="0.3" d="M230.00000000000003,215L227,343L186,203L228,332L343,325L418,429L345,536L333.00000000000006,598L276,675L210,607L107,544L82,375"></path><path id="#path_f" fill="none" stroke-width="5" stroke="#00ffff" stroke-opacity="0.3" d="M230.00000000000003,215L227,343L186,203L228,332L343,325L418,429L345,536L333.00000000000006,598L276,675L210,607L107,544L82,375"></path><path id="#path_f" fill="none" stroke-width="5" stroke="#00ffff" stroke-opacity="0.3" d="M230.00000000000003,215L227,343L186,203L228,332L343,325L418,429L345,536L333.00000000000006,598L276,675L210,607L107,544L82,375"></path><path id="#path_f" fill="none" stroke-width="5" stroke="#00ffff" stroke-opacity="0.3" d="M230.00000000000003,215L227,343L186,203L228,332L343,325L418,429L345,536L333.00000000000006,598L276,675L210,607L107,544L82,375"></path><path id="#path_f" fill="none" stroke-width="5" stroke="#00ffff" stroke-opacity="0.3" d="M230.00000000000003,215L227,343L186,203L228,332L343,325L418,429L345,536L333.00000000000006,598L276,675L210,607L107,544L82,375"></path><path id="#path_f" fill="none" stroke-width="5" stroke="#00ffff" stroke-opacity="0.3" d="M230.00000000000003,215L227,343L186,203L228,332L343,325L418,429L345,536L333.00000000000006,598L276,675L210,607L107,544L82,375"></path><path id="#path_f" fill="none" stroke-width="5" stroke="#00ffff" stroke-opacity="0.3" d="M230.00000000000003,215L227,343L186,203L228,332L343,325L418,429L345,536L333.00000000000006,598L276,675L210,607L107,544L82,375"></path><path id="#path_f" fill="none" stroke-width="5" stroke="#00ffff" stroke-opacity="0.3" d="M230.00000000000003,215L227,343L186,203L228,332L343,325L418,429L345,536L333.00000000000006,598L276,675L210,607L107,544L82,375"></path><path id="#path_f" fill="none" stroke-width="5" stroke="#00ffff" stroke-opacity="0.3" d="M230.00000000000003,215L227,343L186,203L228,332L343,325L418,429L345,536L333.00000000000006,598L276,675L210,607L107,544L82,375"></path><path id="#path_f" fill="none" stroke-width="5" stroke="#00ffff" stroke-opacity="0.3" d="M230.00000000000003,215L227,343L186,203L228,332L343,325L418,429L345,536L333.00000000000006,598L276,675L210,607L107,544L82,375"></path><path id="#path_f" fill="none" stroke-width="5" stroke="#00ffff" stroke-opacity="0.3" d="M230.00000000000003,215L227,343L186,203L228,332L343,325L418,429L345,536L333.00000000000006,598L276,675L210,607L107,544L82,375"></path><path id="#path_f" fill="none" stroke-width="5" stroke="#00ffff" stroke-opacity="0.3" d="M230.00000000000003,215L227,343L186,203L228,332L343,325L418,429L345,536L333.00000000000006,598L276,675L210,607L107,544L82,375"></path><path id="#path_f" fill="none" stroke-width="5" stroke="#00ffff" stroke-opacity="0.3" d="M230.00000000000003,215L227,343L186,203L228,332L343,325L418,429L345,536L333.00000000000006,598L276,675L210,607L107,544L82,375"></path><path id="#path_f" fill="none" stroke-width="5" stroke="#00ffff" stroke-opacity="0.3" d="M230.00000000000003,215L227,343L186,203L228,332L343,325L418,429L345,536L333.00000000000006,598L276,675L210,607L107,544L82,375"></path><path id="#path_f" fill="none" stroke-width="5" stroke="#00ffff" stroke-opacity="0.3" d="M230.00000000000003,215L227,343L186,203L228,332L343,325L418,429L345,536L333.00000000000006,598L276,675L210,607L107,544L82,375"></path><path id="#path_f" fill="none" stroke-width="5" stroke="#00ffff" stroke-opacity="0.3" d="M230.00000000000003,215L227,343L186,203L228,332L343,325L418,429L345,536L333.00000000000006,598L276,675L210,607L107,544L82,375"></path><path id="#path_f" fill="none" stroke-width="5" stroke="#00ffff" stroke-opacity="0.3" d="M230.00000000000003,215L227,343L186,203L228,332L343,325L418,429L345,536L333.00000000000006,598L276,675L210,607L107,544L82,375"></path><path id="#path_f" fill="none" stroke-width="5" stroke="#00ffff" stroke-opacity="0.3" d="M230.00000000000003,215L227,343L186,203L228,332L343,325L418,429L345,536L333.00000000000006,598L276,675L210,607L107,544L82,375"></path><path id="#path_f" fill="none" stroke-width="5" stroke="#00ffff" stroke-opacity="0.3" d="M230.00000000000003,215L227,343L186,203L228,332L343,325L418,429L345,536L333.00000000000006,598L276,675L210,607L107,544L82,375"></path><path id="#path_f" fill="none" stroke-width="5" stroke="#00ffff" stroke-opacity="0.3" d="M230.00000000000003,215L227,343L186,203L228,332L343,325L418,429L345,536L333.00000000000006,598L276,675L210,607L107,544L82,375"></path><path id="#path_f" fill="none" stroke-width="5" stroke="#00ffff" stroke-opacity="0.3" d="M230.00000000000003,215L227,343L186,203L228,332L343,325L418,429L345,536L333.00000000000006,598L276,675L210,607L107,544L82,375"></path><path id="#path_f" fill="none" stroke-width="5" stroke="#00ffff" stroke-opacity="0.3" d="M230.00000000000003,215L227,343L186,203L228,332L343,325L418,429L345,536L333.00000000000006,598L276,675L210,607L107,544L82,375"></path><path id="#path_f" fill="none" stroke-width="5" stroke="#00ffff" stroke-opacity="0.3" d="M230.00000000000003,215L227,343L186,203L228,332L343,325L418,429L345,536L333.00000000000006,598L276,675L210,607L107,544L82,375"></path><path id="#path_f" fill="none" stroke-width="5" stroke="#00ffff" stroke-opacity="0.3" d="M230.00000000000003,215L227,343L186,203L228,332L343,325L418,429L345,536L333.00000000000006,598L276,675L210,607L107,544L82,375"></path><path id="#path_f" fill="none" stroke-width="5" stroke="#00ffff" stroke-opacity="0.3" d="M230.00000000000003,215L227,343L186,203L228,332L343,325L418,429L345,536L333.00000000000006,598L276,675L210,607L107,544L82,375"></path><path id="#path_f" fill="none" stroke-width="5" stroke="#00ffff" stroke-opacity="0.3" d="M230.00000000000003,215L227,343L186,203L228,332L343,325L418,429L345,536L333.00000000000006,598L276,675L210,607L107,544L82,375"></path><path id="#path_f" fill="none" stroke-width="5" stroke="#00ffff" stroke-opacity="0.3" d="M230.00000000000003,215L227,343L186,203L228,332L343,325L418,429L345,536L333.00000000000006,598L276,675L210,607L107,544L82,375"></path><path id="#path_f" fill="none" stroke-width="5" stroke="#00ffff" stroke-opacity="0.3" d="M230.00000000000003,215L227,343L186,203L228,332L343,325L418,429L345,536L333.00000000000006,598L276,675L210,607L107,544L82,375"></path><path id="#path_f" fill="none" stroke-width="5" stroke="#00ffff" stroke-opacity="0.3" d="M230.00000000000003,215L227,343L186,203L228,332L343,325L418,429L345,536L333.00000000000006,598L276,675L210,607L107,544L82,375"></path><path id="#path_f" fill="none" stroke-width="5" stroke="#00ffff" stroke-opacity="0.3" d="M230.00000000000003,215L227,343L186,203L228,332L343,325L418,429L345,536L333.00000000000006,598L276,675L210,607L107,544L82,375"></path><path id="#path_f" fill="none" stroke-width="5" stroke="#00ffff" stroke-opacity="0.3" d="M230.00000000000003,215L227,343L186,203L228,332L343,325L418,429L345,536L333.00000000000006,598L276,675L210,607L107,544L82,375"></path><path id="#path_f" fill="none" stroke-width="5" stroke="#00ffff" stroke-opacity="0.3" d="M230.00000000000003,215L227,343L186,203L228,332L343,325L418,429L345,536L333.00000000000006,598L276,675L210,607L107,544L82,375"></path><path id="#path_f" fill="none" stroke-width="5" stroke="#00ffff" stroke-opacity="0.3" d="M230.00000000000003,215L227,343L186,203L228,332L343,325L418,429L345,536L333.00000000000006,598L276,675L210,607L107,544L82,375"></path><path id="#path_f" fill="none" stroke-width="5" stroke="#00ffff" stroke-opacity="0.3" d="M230.00000000000003,215L227,343L186,203L228,332L343,325L418,429L345,536L333.00000000000006,598L276,675L210,607L107,544L82,375"></path><path id="#path_f" fill="none" stroke-width="5" stroke="#00ffff" stroke-opacity="0.3" d="M230.00000000000003,215L227,343L186,203L228,332L343,325L418,429L345,536L333.00000000000006,598L276,675L210,607L107,544L82,375"></path><path id="#path_f" fill="none" stroke-width="5" stroke="#00ffff" stroke-opacity="0.3" d="M230.00000000000003,215L227,343L186,203L228,332L343,325L418,429L345,536L333.00000000000006,598L276,675L210,607L107,544L82,375"></path><path id="#path_f" fill="none" stroke-width="5" stroke="#00ffff" stroke-opacity="0.3" d="M230.00000000000003,215L227,343L186,203L228,332L343,325L418,429L345,536L333.00000000000006,598L276,675L210,607L107,544L82,375"></path><path id="#path_f" fill="none" stroke-width="5" stroke="#00ffff" stroke-opacity="0.3" d="M230.00000000000003,215L227,343L186,203L228,332L343,325L418,429L345,536L333.00000000000006,598L276,675L210,607L107,544L82,375"></path><path id="#path_f" fill="none" stroke-width="5" stroke="#00ffff" stroke-opacity="0.3" d="M230.00000000000003,215L227,343L186,203L228,332L343,325L418,429L345,536L333.00000000000006,598L276,675L210,607L107,544L82,375"></path><path id="#path_f" fill="none" stroke-width="5" stroke="#00ffff" stroke-opacity="0.3" d="M230.00000000000003,215L227,343L186,203L228,332L343,325L418,429L345,536L333.00000000000006,598L276,675L210,607L107,544L82,375"></path><path id="#path_f" fill="none" stroke-width="5" stroke="#00ffff" stroke-opacity="0.3" d="M230.00000000000003,215L227,343L186,203L228,332L343,325L418,429L345,536L333.00000000000006,598L276,675L210,607L107,544L82,375"></path><path id="#path_f" fill="none" stroke-width="5" stroke="#00ffff" stroke-opacity="0.3" d="M230.00000000000003,215L227,343L186,203L228,332L343,325L418,429L345,536L333.00000000000006,598L276,675L210,607L107,544L82,375"></path><path id="#path_f" fill="none" stroke-width="5" stroke="#00ffff" stroke-opacity="0.3" d="M230.00000000000003,215L227,343L186,203L228,332L343,325L418,429L345,536L333.00000000000006,598L276,675L210,607L107,544L82,375"></path><path id="#path_f" fill="none" stroke-width="5" stroke="#00ffff" stroke-opacity="0.3" d="M230.00000000000003,215L227,343L186,203L228,332L343,325L418,429L345,536L333.00000000000006,598L276,675L210,607L107,544L82,375"></path><path id="#path_f" fill="none" stroke-width="5" stroke="#00ffff" stroke-opacity="0.3" d="M230.00000000000003,215L227,343L186,203L228,332L343,325L418,429L345,536L333.00000000000006,598L276,675L210,607L107,544L82,375"></path><path id="#path_f" fill="none" stroke-width="5" stroke="#00ffff" stroke-opacity="0.3" d="M230.00000000000003,215L227,343L186,203L228,332L343,325L418,429L345,536L333.00000000000006,598L276,675L210,607L107,544L82,375"></path><path id="#path_f" fill="none" stroke-width="5" stroke="#00ffff" stroke-opacity="0.3" d="M230.00000000000003,215L227,343L186,203L228,332L343,325L418,429L345,536L333.00000000000006,598L276,675L210,607L107,544L82,375"></path><path id="#path_f" fill="none" stroke-width="5" stroke="#00ffff" stroke-opacity="0.3" d="M230.00000000000003,215L227,343L186,203L228,332L343,325L418,429L345,536L333.00000000000006,598L276,675L210,607L107,544L82,375"></path><path id="#path_f" fill="none" stroke-width="5" stroke="#00ffff" stroke-opacity="0.3" d="M230.00000000000003,215L227,343L186,203L228,332L343,325L418,429L345,536L333.00000000000006,598L276,675L210,607L107,544L82,375"></path><path id="#path_f" fill="none" stroke-width="5" stroke="#00ffff" stroke-opacity="0.3" d="M230.00000000000003,215L227,343L186,203L228,332L343,325L418,429L345,536L333.00000000000006,598L276,675L210,607L107,544L82,375"></path><path id="#path_f" fill="none" stroke-width="5" stroke="#00ffff" stroke-opacity="0.3" d="M230.00000000000003,215L227,343L186,203L228,332L343,325L418,429L345,536L333.00000000000006,598L276,675L210,607L107,544L82,375"></path><path id="#path_f" fill="none" stroke-width="5" stroke="#00ffff" stroke-opacity="0.3" d="M230.00000000000003,215L227,343L186,203L228,332L343,325L418,429L345,536L333.00000000000006,598L276,675L210,607L107,544L82,375"></path><path id="#path_f" fill="none" stroke-width="5" stroke="#00ffff" stroke-opacity="0.3" d="M230.00000000000003,215L227,343L186,203L228,332L343,325L418,429L345,536L333.00000000000006,598L276,675L210,607L107,544L82,375"></path><path id="#path_f" fill="none" stroke-width="5" stroke="#00ffff" stroke-opacity="0.3" d="M230.00000000000003,215L227,343L186,203L228,332L343,325L418,429L345,536L333.00000000000006,598L276,675L210,607L107,544L82,375"></path><path id="#path_f" fill="none" stroke-width="5" stroke="#00ffff" stroke-opacity="0.3" d="M230.00000000000003,215L227,343L186,203L228,332L343,325L418,429L345,536L333.00000000000006,598L276,675L210,607L107,544L82,375"></path><path id="#path_f" fill="none" stroke-width="5" stroke="#00ffff" stroke-opacity="0.3" d="M230.00000000000003,215L227,343L186,203L228,332L343,325L418,429L345,536L333.00000000000006,598L276,675L210,607L107,544L82,375"></path><path id="#path_f" fill="none" stroke-width="5" stroke="#00ffff" stroke-opacity="0.3" d="M230.00000000000003,215L227,343L186,203L228,332L343,325L418,429L345,536L333.00000000000006,598L276,675L210,607L107,544L82,375"></path><path id="#path_f" fill="none" stroke-width="5" stroke="#00ffff" stroke-opacity="0.3" d="M230.00000000000003,215L227,343L186,203L228,332L343,325L418,429L345,536L333.00000000000006,598L276,675L210,607L107,544L82,375"></path><path id="#path_f" fill="none" stroke-width="5" stroke="#00ffff" stroke-opacity="0.3" d="M230.00000000000003,215L227,343L186,203L228,332L343,325L418,429L345,536L333.00000000000006,598L276,675L210,607L107,544L82,375"></path><path id="#path_f" fill="none" stroke-width="5" stroke="#00ffff" stroke-opacity="0.3" d="M230.00000000000003,215L227,343L186,203L228,332L343,325L418,429L345,536L333.00000000000006,598L276,675L210,607L107,544L82,375"></path><path id="#path_f" fill="none" stroke-width="5" stroke="#00ffff" stroke-opacity="0.3" d="M230.00000000000003,215L227,343L186,203L228,332L343,325L418,429L345,536L333.00000000000006,598L276,675L210,607L107,544L82,375"></path><path id="#path_f" fill="none" stroke-width="5" stroke="#00ffff" stroke-opacity="0.3" d="M230.00000000000003,215L227,343L186,203L228,332L343,325L418,429L345,536L333.00000000000006,598L276,675L210,607L107,544L82,375"></path><path id="#path_f" fill="none" stroke-width="5" stroke="#00ffff" stroke-opacity="0.3" d="M230.00000000000003,215L227,343L186,203L228,332L343,325L418,429L345,536L333.00000000000006,598L276,675L210,607L107,544L82,375"></path></svg>