<svg width="600" height="776" id="visual_9_j"><image xlink:href="./../images/9.jpeg" x="0" y="0" width="600" height="776"></image><rect x="0" y="0" width="600" height="776" fill="#fff" opacity="0.5"></rect><circle cx="241" cy="343" r="50" opacity="0" fill="#00ffff" id="circle_0"></circle><circle cx="231" cy="324" r="50" opacity="0.5" fill="green" id="circle_1"></circle><circle cx="315" cy="269" r="50" opacity="0" fill="#00ffff" id="circle_2"></circle><circle cx="293" cy="351" r="50" opacity="0" fill="#00ffff" id="circle_3"></circle><circle cx="324" cy="451.00000000000006" r="50" opacity="0" fill="#00ffff" id="circle_4"></circle><circle cx="354" cy="332" r="50" opacity="0" fill="#00ffff" id="circle_5"></circle><circle cx="364.99999999999994" cy="461" r="50" opacity="0" fill="#00ffff" id="circle_6"></circle><circle cx="218" cy="503" r="50" opacity="0" fill="#00ffff" id="circle_7"></circle><circle cx="186" cy="585" r="50" opacity="0.5" fill="purple" id="circle_8"></circle><path id="#path_j" fill="none" stroke-width="5" stroke="#00ffff" stroke-opacity="0.3" d="M241,343L231,324L315,269L293,351L324,451.00000000000006L354,332L364.99999999999994,461L218,503L186,585"></path><path id="#path_j" fill="none" stroke-width="5" stroke="#00ffff" stroke-opacity="0.3" d="M241,343L231,324L315,269L293,351L324,451.00000000000006L354,332L364.99999999999994,461L218,503L186,585"></path><path id="#path_j" fill="none" stroke-width="5" stroke="#00ffff" stroke-opacity="0.3" d="M241,343L231,324L315,269L293,351L324,451.00000000000006L354,332L364.99999999999994,461L218,503L186,585"></path><path id="#path_j" fill="none" stroke-width="5" stroke="#00ffff" stroke-opacity="0.3" d="M241,343L231,324L315,269L293,351L324,451.00000000000006L354,332L364.99999999999994,461L218,503L186,585"></path><path id="#path_j" fill="none" stroke-width="5" stroke="#00ffff" stroke-opacity="0.3" d="M241,343L231,324L315,269L293,351L324,451.00000000000006L354,332L364.99999999999994,461L218,503L186,585"></path><path id="#path_j" fill="none" stroke-width="5" stroke="#00ffff" stroke-opacity="0.3" d="M241,343L231,324L315,269L293,351L324,451.00000000000006L354,332L364.99999999999994,461L218,503L186,585"></path><path id="#path_j" fill="none" stroke-width="5" stroke="#00ffff" stroke-opacity="0.3" d="M241,343L231,324L315,269L293,351L324,451.00000000000006L354,332L364.99999999999994,461L218,503L186,585"></path><path id="#path_j" fill="none" stroke-width="5" stroke="#00ffff" stroke-opacity="0.3" d="M241,343L231,324L315,269L293,351L324,451.00000000000006L354,332L364.99999999999994,461L218,503L186,585"></path><path id="#path_j" fill="none" stroke-width="5" stroke="#00ffff" stroke-opacity="0.3" d="M241,343L231,324L315,269L293,351L324,451.00000000000006L354,332L364.99999999999994,461L218,503L186,585"></path><path id="#path_j" fill="none" stroke-width="5" stroke="#00ffff" stroke-opacity="0.3" d="M241,343L231,324L315,269L293,351L324,451.00000000000006L354,332L364.99999999999994,461L218,503L186,585"></path><path id="#path_j" fill="none" stroke-width="5" stroke="#00ffff" stroke-opacity="0.3" d="M241,343L231,324L315,269L293,351L324,451.00000000000006L354,332L364.99999999999994,461L218,503L186,585"></path><path id="#path_j" fill="none" stroke-width="5" stroke="#00ffff" stroke-opacity="0.3" d="M241,343L231,324L315,269L293,351L324,451.00000000000006L354,332L364.99999999999994,461L218,503L186,585"></path><path id="#path_j" fill="none" stroke-width="5" stroke="#00ffff" stroke-opacity="0.3" d="M241,343L231,324L315,269L293,351L324,451.00000000000006L354,332L364.99999999999994,461L218,503L186,585"></path><path id="#path_j" fill="none" stroke-width="5" stroke="#00ffff" stroke-opacity="0.3" d="M241,343L231,324L315,269L293,351L324,451.00000000000006L354,332L364.99999999999994,461L218,503L186,585"></path><path id="#path_j" fill="none" stroke-width="5" stroke="#00ffff" stroke-opacity="0.3" d="M241,343L231,324L315,269L293,351L324,451.00000000000006L354,332L364.99999999999994,461L218,503L186,585"></path><path id="#path_j" fill="none" stroke-width="5" stroke="#00ffff" stroke-opacity="0.3" d="M241,343L231,324L315,269L293,351L324,451.00000000000006L354,332L364.99999999999994,461L218,503L186,585"></path><path id="#path_j" fill="none" stroke-width="5" stroke="#00ffff" stroke-opacity="0.3" d="M241,343L231,324L315,269L293,351L324,451.00000000000006L354,332L364.99999999999994,461L218,503L186,585"></path><path id="#path_j" fill="none" stroke-width="5" stroke="#00ffff" stroke-opacity="0.3" d="M241,343L231,324L315,269L293,351L324,451.00000000000006L354,332L364.99999999999994,461L218,503L186,585"></path><path id="#path_j" fill="none" stroke-width="5" stroke="#00ffff" stroke-opacity="0.3" d="M241,343L231,324L315,269L293,351L324,451.00000000000006L354,332L364.99999999999994,461L218,503L186,585"></path><path id="#path_j" fill="none" stroke-width="5" stroke="#00ffff" stroke-opacity="0.3" d="M241,343L231,324L315,269L293,351L324,451.00000000000006L354,332L364.99999999999994,461L218,503L186,585"></path><path id="#path_j" fill="none" stroke-width="5" stroke="#00ffff" stroke-opacity="0.3" d="M241,343L231,324L315,269L293,351L324,451.00000000000006L354,332L364.99999999999994,461L218,503L186,585"></path><path id="#path_j" fill="none" stroke-width="5" stroke="#00ffff" stroke-opacity="0.3" d="M241,343L231,324L315,269L293,351L324,451.00000000000006L354,332L364.99999999999994,461L218,503L186,585"></path><path id="#path_j" fill="none" stroke-width="5" stroke="#00ffff" stroke-opacity="0.3" d="M241,343L231,324L315,269L293,351L324,451.00000000000006L354,332L364.99999999999994,461L218,503L186,585"></path><path id="#path_j" fill="none" stroke-width="5" stroke="#00ffff" stroke-opacity="0.3" d="M241,343L231,324L315,269L293,351L324,451.00000000000006L354,332L364.99999999999994,461L218,503L186,585"></path><path id="#path_j" fill="none" stroke-width="5" stroke="#00ffff" stroke-opacity="0.3" d="M241,343L231,324L315,269L293,351L324,451.00000000000006L354,332L364.99999999999994,461L218,503L186,585"></path><path id="#path_j" fill="none" stroke-width="5" stroke="#00ffff" stroke-opacity="0.3" d="M241,343L231,324L315,269L293,351L324,451.00000000000006L354,332L364.99999999999994,461L218,503L186,585"></path><path id="#path_j" fill="none" stroke-width="5" stroke="#00ffff" stroke-opacity="0.3" d="M241,343L231,324L315,269L293,351L324,451.00000000000006L354,332L364.99999999999994,461L218,503L186,585"></path><path id="#path_j" fill="none" stroke-width="5" stroke="#00ffff" stroke-opacity="0.3" d="M241,343L231,324L315,269L293,351L324,451.00000000000006L354,332L364.99999999999994,461L218,503L186,585"></path><path id="#path_j" fill="none" stroke-width="5" stroke="#00ffff" stroke-opacity="0.3" d="M241,343L231,324L315,269L293,351L324,451.00000000000006L354,332L364.99999999999994,461L218,503L186,585"></path><path id="#path_j" fill="none" stroke-width="5" stroke="#00ffff" stroke-opacity="0.3" d="M241,343L231,324L315,269L293,351L324,451.00000000000006L354,332L364.99999999999994,461L218,503L186,585"></path><path id="#path_j" fill="none" stroke-width="5" stroke="#00ffff" stroke-opacity="0.3" d="M241,343L231,324L315,269L293,351L324,451.00000000000006L354,332L364.99999999999994,461L218,503L186,585"></path><path id="#path_j" fill="none" stroke-width="5" stroke="#00ffff" stroke-opacity="0.3" d="M241,343L231,324L315,269L293,351L324,451.00000000000006L354,332L364.99999999999994,461L218,503L186,585"></path><path id="#path_j" fill="none" stroke-width="5" stroke="#00ffff" stroke-opacity="0.3" d="M241,343L231,324L315,269L293,351L324,451.00000000000006L354,332L364.99999999999994,461L218,503L186,585"></path><path id="#path_j" fill="none" stroke-width="5" stroke="#00ffff" stroke-opacity="0.3" d="M241,343L231,324L315,269L293,351L324,451.00000000000006L354,332L364.99999999999994,461L218,503L186,585"></path><path id="#path_j" fill="none" stroke-width="5" stroke="#00ffff" stroke-opacity="0.3" d="M241,343L231,324L315,269L293,351L324,451.00000000000006L354,332L364.99999999999994,461L218,503L186,585"></path><path id="#path_j" fill="none" stroke-width="5" stroke="#00ffff" stroke-opacity="0.3" d="M241,343L231,324L315,269L293,351L324,451.00000000000006L354,332L364.99999999999994,461L218,503L186,585"></path><path id="#path_j" fill="none" stroke-width="5" stroke="#00ffff" stroke-opacity="0.3" d="M241,343L231,324L315,269L293,351L324,451.00000000000006L354,332L364.99999999999994,461L218,503L186,585"></path><path id="#path_j" fill="none" stroke-width="5" stroke="#00ffff" stroke-opacity="0.3" d="M241,343L231,324L315,269L293,351L324,451.00000000000006L354,332L364.99999999999994,461L218,503L186,585"></path><path id="#path_j" fill="none" stroke-width="5" stroke="#00ffff" stroke-opacity="0.3" d="M241,343L231,324L315,269L293,351L324,451.00000000000006L354,332L364.99999999999994,461L218,503L186,585"></path><path id="#path_j" fill="none" stroke-width="5" stroke="#00ffff" stroke-opacity="0.3" d="M241,343L231,324L315,269L293,351L324,451.00000000000006L354,332L364.99999999999994,461L218,503L186,585"></path><path id="#path_j" fill="none" stroke-width="5" stroke="#00ffff" stroke-opacity="0.3" d="M241,343L231,324L315,269L293,351L324,451.00000000000006L354,332L364.99999999999994,461L218,503L186,585"></path><path id="#path_j" fill="none" stroke-width="5" stroke="#00ffff" stroke-opacity="0.3" d="M241,343L231,324L315,269L293,351L324,451.00000000000006L354,332L364.99999999999994,461L218,503L186,585"></path><path id="#path_j" fill="none" stroke-width="5" stroke="#00ffff" stroke-opacity="0.3" d="M241,343L231,324L315,269L293,351L324,451.00000000000006L354,332L364.99999999999994,461L218,503L186,585"></path><path id="#path_j" fill="none" stroke-width="5" stroke="#00ffff" stroke-opacity="0.3" d="M241,343L231,324L315,269L293,351L324,451.00000000000006L354,332L364.99999999999994,461L218,503L186,585"></path><path id="#path_j" fill="none" stroke-width="5" stroke="#00ffff" stroke-opacity="0.3" d="M241,343L231,324L315,269L293,351L324,451.00000000000006L354,332L364.99999999999994,461L218,503L186,585"></path><path id="#path_j" fill="none" stroke-width="5" stroke="#00ffff" stroke-opacity="0.3" d="M241,343L231,324L315,269L293,351L324,451.00000000000006L354,332L364.99999999999994,461L218,503L186,585"></path><path id="#path_j" fill="none" stroke-width="5" stroke="#00ffff" stroke-opacity="0.3" d="M241,343L231,324L315,269L293,351L324,451.00000000000006L354,332L364.99999999999994,461L218,503L186,585"></path><path id="#path_j" fill="none" stroke-width="5" stroke="#00ffff" stroke-opacity="0.3" d="M241,343L231,324L315,269L293,351L324,451.00000000000006L354,332L364.99999999999994,461L218,503L186,585"></path><path id="#path_j" fill="none" stroke-width="5" stroke="#00ffff" stroke-opacity="0.3" d="M241,343L231,324L315,269L293,351L324,451.00000000000006L354,332L364.99999999999994,461L218,503L186,585"></path><path id="#path_j" fill="none" stroke-width="5" stroke="#00ffff" stroke-opacity="0.3" d="M241,343L231,324L315,269L293,351L324,451.00000000000006L354,332L364.99999999999994,461L218,503L186,585"></path><path id="#path_j" fill="none" stroke-width="5" stroke="#00ffff" stroke-opacity="0.3" d="M241,343L231,324L315,269L293,351L324,451.00000000000006L354,332L364.99999999999994,461L218,503L186,585"></path><path id="#path_j" fill="none" stroke-width="5" stroke="#00ffff" stroke-opacity="0.3" d="M241,343L231,324L315,269L293,351L324,451.00000000000006L354,332L364.99999999999994,461L218,503L186,585"></path><path id="#path_j" fill="none" stroke-width="5" stroke="#00ffff" stroke-opacity="0.3" d="M241,343L231,324L315,269L293,351L324,451.00000000000006L354,332L364.99999999999994,461L218,503L186,585"></path><path id="#path_j" fill="none" stroke-width="5" stroke="#00ffff" stroke-opacity="0.3" d="M241,343L231,324L315,269L293,351L324,451.00000000000006L354,332L364.99999999999994,461L218,503L186,585"></path><path id="#path_j" fill="none" stroke-width="5" stroke="#00ffff" stroke-opacity="0.3" d="M241,343L231,324L315,269L293,351L324,451.00000000000006L354,332L364.99999999999994,461L218,503L186,585"></path><path id="#path_j" fill="none" stroke-width="5" stroke="#00ffff" stroke-opacity="0.3" d="M241,343L231,324L315,269L293,351L324,451.00000000000006L354,332L364.99999999999994,461L218,503L186,585"></path><path id="#path_j" fill="none" stroke-width="5" stroke="#00ffff" stroke-opacity="0.3" d="M241,343L231,324L315,269L293,351L324,451.00000000000006L354,332L364.99999999999994,461L218,503L186,585"></path><path id="#path_j" fill="none" stroke-width="5" stroke="#00ffff" stroke-opacity="0.3" d="M241,343L231,324L315,269L293,351L324,451.00000000000006L354,332L364.99999999999994,461L218,503L186,585"></path><path id="#path_j" fill="none" stroke-width="5" stroke="#00ffff" stroke-opacity="0.3" d="M241,343L231,324L315,269L293,351L324,451.00000000000006L354,332L364.99999999999994,461L218,503L186,585"></path><path id="#path_j" fill="none" stroke-width="5" stroke="#00ffff" stroke-opacity="0.3" d="M241,343L231,324L315,269L293,351L324,451.00000000000006L354,332L364.99999999999994,461L218,503L186,585"></path><path id="#path_j" fill="none" stroke-width="5" stroke="#00ffff" stroke-opacity="0.3" d="M241,343L231,324L315,269L293,351L324,451.00000000000006L354,332L364.99999999999994,461L218,503L186,585"></path><path id="#path_j" fill="none" stroke-width="5" stroke="#00ffff" stroke-opacity="0.3" d="M241,343L231,324L315,269L293,351L324,451.00000000000006L354,332L364.99999999999994,461L218,503L186,585"></path><path id="#path_j" fill="none" stroke-width="5" stroke="#00ffff" stroke-opacity="0.3" d="M241,343L231,324L315,269L293,351L324,451.00000000000006L354,332L364.99999999999994,461L218,503L186,585"></path><path id="#path_j" fill="none" stroke-width="5" stroke="#00ffff" stroke-opacity="0.3" d="M241,343L231,324L315,269L293,351L324,451.00000000000006L354,332L364.99999999999994,461L218,503L186,585"></path><path id="#path_j" fill="none" stroke-width="5" stroke="#00ffff" stroke-opacity="0.3" d="M241,343L231,324L315,269L293,351L324,451.00000000000006L354,332L364.99999999999994,461L218,503L186,585"></path><path id="#path_j" fill="none" stroke-width="5" stroke="#00ffff" stroke-opacity="0.3" d="M241,343L231,324L315,269L293,351L324,451.00000000000006L354,332L364.99999999999994,461L218,503L186,585"></path><path id="#path_j" fill="none" stroke-width="5" stroke="#00ffff" stroke-opacity="0.3" d="M241,343L231,324L315,269L293,351L324,451.00000000000006L354,332L364.99999999999994,461L218,503L186,585"></path><path id="#path_j" fill="none" stroke-width="5" stroke="#00ffff" stroke-opacity="0.3" d="M241,343L231,324L315,269L293,351L324,451.00000000000006L354,332L364.99999999999994,461L218,503L186,585"></path><path id="#path_j" fill="none" stroke-width="5" stroke="#00ffff" stroke-opacity="0.3" d="M241,343L231,324L315,269L293,351L324,451.00000000000006L354,332L364.99999999999994,461L218,503L186,585"></path><path id="#path_j" fill="none" stroke-width="5" stroke="#00ffff" stroke-opacity="0.3" d="M241,343L231,324L315,269L293,351L324,451.00000000000006L354,332L364.99999999999994,461L218,503L186,585"></path><path id="#path_j" fill="none" stroke-width="5" stroke="#00ffff" stroke-opacity="0.3" d="M241,343L231,324L315,269L293,351L324,451.00000000000006L354,332L364.99999999999994,461L218,503L186,585"></path><path id="#path_j" fill="none" stroke-width="5" stroke="#00ffff" stroke-opacity="0.3" d="M241,343L231,324L315,269L293,351L324,451.00000000000006L354,332L364.99999999999994,461L218,503L186,585"></path><path id="#path_j" fill="none" stroke-width="5" stroke="#00ffff" stroke-opacity="0.3" d="M241,343L231,324L315,269L293,351L324,451.00000000000006L354,332L364.99999999999994,461L218,503L186,585"></path><path id="#path_j" fill="none" stroke-width="5" stroke="#00ffff" stroke-opacity="0.3" d="M241,343L231,324L315,269L293,351L324,451.00000000000006L354,332L364.99999999999994,461L218,503L186,585"></path><path id="#path_j" fill="none" stroke-width="5" stroke="#00ffff" stroke-opacity="0.3" d="M241,343L231,324L315,269L293,351L324,451.00000000000006L354,332L364.99999999999994,461L218,503L186,585"></path><path id="#path_j" fill="none" stroke-width="5" stroke="#00ffff" stroke-opacity="0.3" d="M241,343L231,324L315,269L293,351L324,451.00000000000006L354,332L364.99999999999994,461L218,503L186,585"></path><path id="#path_j" fill="none" stroke-width="5" stroke="#00ffff" stroke-opacity="0.3" d="M241,343L231,324L315,269L293,351L324,451.00000000000006L354,332L364.99999999999994,461L218,503L186,585"></path><path id="#path_j" fill="none" stroke-width="5" stroke="#00ffff" stroke-opacity="0.3" d="M241,343L231,324L315,269L293,351L324,451.00000000000006L354,332L364.99999999999994,461L218,503L186,585"></path><path id="#path_j" fill="none" stroke-width="5" stroke="#00ffff" stroke-opacity="0.3" d="M241,343L231,324L315,269L293,351L324,451.00000000000006L354,332L364.99999999999994,461L218,503L186,585"></path><path id="#path_j" fill="none" stroke-width="5" stroke="#00ffff" stroke-opacity="0.3" d="M241,343L231,324L315,269L293,351L324,451.00000000000006L354,332L364.99999999999994,461L218,503L186,585"></path><path id="#path_j" fill="none" stroke-width="5" stroke="#00ffff" stroke-opacity="0.3" d="M241,343L231,324L315,269L293,351L324,451.00000000000006L354,332L364.99999999999994,461L218,503L186,585"></path><path id="#path_j" fill="none" stroke-width="5" stroke="#00ffff" stroke-opacity="0.3" d="M241,343L231,324L315,269L293,351L324,451.00000000000006L354,332L364.99999999999994,461L218,503L186,585"></path><path id="#path_j" fill="none" stroke-width="5" stroke="#00ffff" stroke-opacity="0.3" d="M241,343L231,324L315,269L293,351L324,451.00000000000006L354,332L364.99999999999994,461L218,503L186,585"></path><path id="#path_j" fill="none" stroke-width="5" stroke="#00ffff" stroke-opacity="0.3" d="M241,343L231,324L315,269L293,351L324,451.00000000000006L354,332L364.99999999999994,461L218,503L186,585"></path><path id="#path_j" fill="none" stroke-width="5" stroke="#00ffff" stroke-opacity="0.3" d="M241,343L231,324L315,269L293,351L324,451.00000000000006L354,332L364.99999999999994,461L218,503L186,585"></path><path id="#path_j" fill="none" stroke-width="5" stroke="#00ffff" stroke-opacity="0.3" d="M241,343L231,324L315,269L293,351L324,451.00000000000006L354,332L364.99999999999994,461L218,503L186,585"></path><path id="#path_j" fill="none" stroke-width="5" stroke="#00ffff" stroke-opacity="0.3" d="M241,343L231,324L315,269L293,351L324,451.00000000000006L354,332L364.99999999999994,461L218,503L186,585"></path><path id="#path_j" fill="none" stroke-width="5" stroke="#00ffff" stroke-opacity="0.3" d="M241,343L231,324L315,269L293,351L324,451.00000000000006L354,332L364.99999999999994,461L218,503L186,585"></path><path id="#path_j" fill="none" stroke-width="5" stroke="#00ffff" stroke-opacity="0.3" d="M241,343L231,324L315,269L293,351L324,451.00000000000006L354,332L364.99999999999994,461L218,503L186,585"></path><path id="#path_j" fill="none" stroke-width="5" stroke="#00ffff" stroke-opacity="0.3" d="M241,343L231,324L315,269L293,351L324,451.00000000000006L354,332L364.99999999999994,461L218,503L186,585"></path><path id="#path_j" fill="none" stroke-width="5" stroke="#00ffff" stroke-opacity="0.3" d="M241,343L231,324L315,269L293,351L324,451.00000000000006L354,332L364.99999999999994,461L218,503L186,585"></path><path id="#path_j" fill="none" stroke-width="5" stroke="#00ffff" stroke-opacity="0.3" d="M241,343L231,324L315,269L293,351L324,451.00000000000006L354,332L364.99999999999994,461L218,503L186,585"></path><path id="#path_j" fill="none" stroke-width="5" stroke="#00ffff" stroke-opacity="0.3" d="M241,343L231,324L315,269L293,351L324,451.00000000000006L354,332L364.99999999999994,461L218,503L186,585"></path><path id="#path_j" fill="none" stroke-width="5" stroke="#00ffff" stroke-opacity="0.3" d="M241,343L231,324L315,269L293,351L324,451.00000000000006L354,332L364.99999999999994,461L218,503L186,585"></path><path id="#path_j" fill="none" stroke-width="5" stroke="#00ffff" stroke-opacity="0.3" d="M241,343L231,324L315,269L293,351L324,451.00000000000006L354,332L364.99999999999994,461L218,503L186,585"></path><path id="#path_j" fill="none" stroke-width="5" stroke="#00ffff" stroke-opacity="0.3" d="M241,343L231,324L315,269L293,351L324,451.00000000000006L354,332L364.99999999999994,461L218,503L186,585"></path><path id="#path_j" fill="none" stroke-width="5" stroke="#00ffff" stroke-opacity="0.3" d="M241,343L231,324L315,269L293,351L324,451.00000000000006L354,332L364.99999999999994,461L218,503L186,585"></path><path id="#path_j" fill="none" stroke-width="5" stroke="#00ffff" stroke-opacity="0.3" d="M241,343L231,324L315,269L293,351L324,451.00000000000006L354,332L364.99999999999994,461L218,503L186,585"></path><path id="#path_j" fill="none" stroke-width="5" stroke="#00ffff" stroke-opacity="0.3" d="M241,343L231,324L315,269L293,351L324,451.00000000000006L354,332L364.99999999999994,461L218,503L186,585"></path><path id="#path_j" fill="none" stroke-width="5" stroke="#00ffff" stroke-opacity="0.3" d="M241,343L231,324L315,269L293,351L324,451.00000000000006L354,332L364.99999999999994,461L218,503L186,585"></path><path id="#path_j" fill="none" stroke-width="5" stroke="#00ffff" stroke-opacity="0.3" d="M241,343L231,324L315,269L293,351L324,451.00000000000006L354,332L364.99999999999994,461L218,503L186,585"></path><path id="#path_j" fill="none" stroke-width="5" stroke="#00ffff" stroke-opacity="0.3" d="M241,343L231,324L315,269L293,351L324,451.00000000000006L354,332L364.99999999999994,461L218,503L186,585"></path><path id="#path_j" fill="none" stroke-width="5" stroke="#00ffff" stroke-opacity="0.3" d="M241,343L231,324L315,269L293,351L324,451.00000000000006L354,332L364.99999999999994,461L218,503L186,585"></path><path id="#path_j" fill="none" stroke-width="5" stroke="#00ffff" stroke-opacity="0.3" d="M241,343L231,324L315,269L293,351L324,451.00000000000006L354,332L364.99999999999994,461L218,503L186,585"></path><path id="#path_j" fill="none" stroke-width="5" stroke="#00ffff" stroke-opacity="0.3" d="M241,343L231,324L315,269L293,351L324,451.00000000000006L354,332L364.99999999999994,461L218,503L186,585"></path><path id="#path_j" fill="none" stroke-width="5" stroke="#00ffff" stroke-opacity="0.3" d="M241,343L231,324L315,269L293,351L324,451.00000000000006L354,332L364.99999999999994,461L218,503L186,585"></path><path id="#path_j" fill="none" stroke-width="5" stroke="#00ffff" stroke-opacity="0.3" d="M241,343L231,324L315,269L293,351L324,451.00000000000006L354,332L364.99999999999994,461L218,503L186,585"></path><path id="#path_j" fill="none" stroke-width="5" stroke="#00ffff" stroke-opacity="0.3" d="M241,343L231,324L315,269L293,351L324,451.00000000000006L354,332L364.99999999999994,461L218,503L186,585"></path><path id="#path_j" fill="none" stroke-width="5" stroke="#00ffff" stroke-opacity="0.3" d="M241,343L231,324L315,269L293,351L324,451.00000000000006L354,332L364.99999999999994,461L218,503L186,585"></path><path id="#path_j" fill="none" stroke-width="5" stroke="#00ffff" stroke-opacity="0.3" d="M241,343L231,324L315,269L293,351L324,451.00000000000006L354,332L364.99999999999994,461L218,503L186,585"></path><path id="#path_j" fill="none" stroke-width="5" stroke="#00ffff" stroke-opacity="0.3" d="M241,343L231,324L315,269L293,351L324,451.00000000000006L354,332L364.99999999999994,461L218,503L186,585"></path><path id="#path_j" fill="none" stroke-width="5" stroke="#00ffff" stroke-opacity="0.3" d="M241,343L231,324L315,269L293,351L324,451.00000000000006L354,332L364.99999999999994,461L218,503L186,585"></path><path id="#path_j" fill="none" stroke-width="5" stroke="#00ffff" stroke-opacity="0.3" d="M241,343L231,324L315,269L293,351L324,451.00000000000006L354,332L364.99999999999994,461L218,503L186,585"></path><path id="#path_j" fill="none" stroke-width="5" stroke="#00ffff" stroke-opacity="0.3" d="M241,343L231,324L315,269L293,351L324,451.00000000000006L354,332L364.99999999999994,461L218,503L186,585"></path><path id="#path_j" fill="none" stroke-width="5" stroke="#00ffff" stroke-opacity="0.3" d="M241,343L231,324L315,269L293,351L324,451.00000000000006L354,332L364.99999999999994,461L218,503L186,585"></path><path id="#path_j" fill="none" stroke-width="5" stroke="#00ffff" stroke-opacity="0.3" d="M241,343L231,324L315,269L293,351L324,451.00000000000006L354,332L364.99999999999994,461L218,503L186,585"></path><path id="#path_j" fill="none" stroke-width="5" stroke="#00ffff" stroke-opacity="0.3" d="M241,343L231,324L315,269L293,351L324,451.00000000000006L354,332L364.99999999999994,461L218,503L186,585"></path><path id="#path_j" fill="none" stroke-width="5" stroke="#00ffff" stroke-opacity="0.3" d="M241,343L231,324L315,269L293,351L324,451.00000000000006L354,332L364.99999999999994,461L218,503L186,585"></path><path id="#path_j" fill="none" stroke-width="5" stroke="#00ffff" stroke-opacity="0.3" d="M241,343L231,324L315,269L293,351L324,451.00000000000006L354,332L364.99999999999994,461L218,503L186,585"></path><path id="#path_j" fill="none" stroke-width="5" stroke="#00ffff" stroke-opacity="0.3" d="M241,343L231,324L315,269L293,351L324,451.00000000000006L354,332L364.99999999999994,461L218,503L186,585"></path><path id="#path_j" fill="none" stroke-width="5" stroke="#00ffff" stroke-opacity="0.3" d="M241,343L231,324L315,269L293,351L324,451.00000000000006L354,332L364.99999999999994,461L218,503L186,585"></path><path id="#path_j" fill="none" stroke-width="5" stroke="#00ffff" stroke-opacity="0.3" d="M241,343L231,324L315,269L293,351L324,451.00000000000006L354,332L364.99999999999994,461L218,503L186,585"></path><path id="#path_j" fill="none" stroke-width="5" stroke="#00ffff" stroke-opacity="0.3" d="M241,343L231,324L315,269L293,351L324,451.00000000000006L354,332L364.99999999999994,461L218,503L186,585"></path><path id="#path_j" fill="none" stroke-width="5" stroke="#00ffff" stroke-opacity="0.3" d="M241,343L231,324L315,269L293,351L324,451.00000000000006L354,332L364.99999999999994,461L218,503L186,585"></path><path id="#path_j" fill="none" stroke-width="5" stroke="#00ffff" stroke-opacity="0.3" d="M241,343L231,324L315,269L293,351L324,451.00000000000006L354,332L364.99999999999994,461L218,503L186,585"></path><path id="#path_j" fill="none" stroke-width="5" stroke="#00ffff" stroke-opacity="0.3" d="M241,343L231,324L315,269L293,351L324,451.00000000000006L354,332L364.99999999999994,461L218,503L186,585"></path><path id="#path_j" fill="none" stroke-width="5" stroke="#00ffff" stroke-opacity="0.3" d="M241,343L231,324L315,269L293,351L324,451.00000000000006L354,332L364.99999999999994,461L218,503L186,585"></path><path id="#path_j" fill="none" stroke-width="5" stroke="#00ffff" stroke-opacity="0.3" d="M241,343L231,324L315,269L293,351L324,451.00000000000006L354,332L364.99999999999994,461L218,503L186,585"></path><path id="#path_j" fill="none" stroke-width="5" stroke="#00ffff" stroke-opacity="0.3" d="M241,343L231,324L315,269L293,351L324,451.00000000000006L354,332L364.99999999999994,461L218,503L186,585"></path><path id="#path_j" fill="none" stroke-width="5" stroke="#00ffff" stroke-opacity="0.3" d="M241,343L231,324L315,269L293,351L324,451.00000000000006L354,332L364.99999999999994,461L218,503L186,585"></path><path id="#path_j" fill="none" stroke-width="5" stroke="#00ffff" stroke-opacity="0.3" d="M241,343L231,324L315,269L293,351L324,451.00000000000006L354,332L364.99999999999994,461L218,503L186,585"></path><path id="#path_j" fill="none" stroke-width="5" stroke="#00ffff" stroke-opacity="0.3" d="M241,343L231,324L315,269L293,351L324,451.00000000000006L354,332L364.99999999999994,461L218,503L186,585"></path><path id="#path_j" fill="none" stroke-width="5" stroke="#00ffff" stroke-opacity="0.3" d="M241,343L231,324L315,269L293,351L324,451.00000000000006L354,332L364.99999999999994,461L218,503L186,585"></path><path id="#path_j" fill="none" stroke-width="5" stroke="#00ffff" stroke-opacity="0.3" d="M241,343L231,324L315,269L293,351L324,451.00000000000006L354,332L364.99999999999994,461L218,503L186,585"></path><path id="#path_j" fill="none" stroke-width="5" stroke="#00ffff" stroke-opacity="0.3" d="M241,343L231,324L315,269L293,351L324,451.00000000000006L354,332L364.99999999999994,461L218,503L186,585"></path><path id="#path_j" fill="none" stroke-width="5" stroke="#00ffff" stroke-opacity="0.3" d="M241,343L231,324L315,269L293,351L324,451.00000000000006L354,332L364.99999999999994,461L218,503L186,585"></path><path id="#path_j" fill="none" stroke-width="5" stroke="#00ffff" stroke-opacity="0.3" d="M241,343L231,324L315,269L293,351L324,451.00000000000006L354,332L364.99999999999994,461L218,503L186,585"></path><path id="#path_j" fill="none" stroke-width="5" stroke="#00ffff" stroke-opacity="0.3" d="M241,343L231,324L315,269L293,351L324,451.00000000000006L354,332L364.99999999999994,461L218,503L186,585"></path><path id="#path_j" fill="none" stroke-width="5" stroke="#00ffff" stroke-opacity="0.3" d="M241,343L231,324L315,269L293,351L324,451.00000000000006L354,332L364.99999999999994,461L218,503L186,585"></path><path id="#path_j" fill="none" stroke-width="5" stroke="#00ffff" stroke-opacity="0.3" d="M241,343L231,324L315,269L293,351L324,451.00000000000006L354,332L364.99999999999994,461L218,503L186,585"></path><path id="#path_j" fill="none" stroke-width="5" stroke="#00ffff" stroke-opacity="0.3" d="M241,343L231,324L315,269L293,351L324,451.00000000000006L354,332L364.99999999999994,461L218,503L186,585"></path><path id="#path_j" fill="none" stroke-width="5" stroke="#00ffff" stroke-opacity="0.3" d="M241,343L231,324L315,269L293,351L324,451.00000000000006L354,332L364.99999999999994,461L218,503L186,585"></path><path id="#path_j" fill="none" stroke-width="5" stroke="#00ffff" stroke-opacity="0.3" d="M241,343L231,324L315,269L293,351L324,451.00000000000006L354,332L364.99999999999994,461L218,503L186,585"></path><path id="#path_j" fill="none" stroke-width="5" stroke="#00ffff" stroke-opacity="0.3" d="M241,343L231,324L315,269L293,351L324,451.00000000000006L354,332L364.99999999999994,461L218,503L186,585"></path><path id="#path_j" fill="none" stroke-width="5" stroke="#00ffff" stroke-opacity="0.3" d="M241,343L231,324L315,269L293,351L324,451.00000000000006L354,332L364.99999999999994,461L218,503L186,585"></path><path id="#path_j" fill="none" stroke-width="5" stroke="#00ffff" stroke-opacity="0.3" d="M241,343L231,324L315,269L293,351L324,451.00000000000006L354,332L364.99999999999994,461L218,503L186,585"></path><path id="#path_j" fill="none" stroke-width="5" stroke="#00ffff" stroke-opacity="0.3" d="M241,343L231,324L315,269L293,351L324,451.00000000000006L354,332L364.99999999999994,461L218,503L186,585"></path><path id="#path_j" fill="none" stroke-width="5" stroke="#00ffff" stroke-opacity="0.3" d="M241,343L231,324L315,269L293,351L324,451.00000000000006L354,332L364.99999999999994,461L218,503L186,585"></path><path id="#path_j" fill="none" stroke-width="5" stroke="#00ffff" stroke-opacity="0.3" d="M241,343L231,324L315,269L293,351L324,451.00000000000006L354,332L364.99999999999994,461L218,503L186,585"></path><path id="#path_j" fill="none" stroke-width="5" stroke="#00ffff" stroke-opacity="0.3" d="M241,343L231,324L315,269L293,351L324,451.00000000000006L354,332L364.99999999999994,461L218,503L186,585"></path><path id="#path_j" fill="none" stroke-width="5" stroke="#00ffff" stroke-opacity="0.3" d="M241,343L231,324L315,269L293,351L324,451.00000000000006L354,332L364.99999999999994,461L218,503L186,585"></path><path id="#path_j" fill="none" stroke-width="5" stroke="#00ffff" stroke-opacity="0.3" d="M241,343L231,324L315,269L293,351L324,451.00000000000006L354,332L364.99999999999994,461L218,503L186,585"></path><path id="#path_j" fill="none" stroke-width="5" stroke="#00ffff" stroke-opacity="0.3" d="M241,343L231,324L315,269L293,351L324,451.00000000000006L354,332L364.99999999999994,461L218,503L186,585"></path><path id="#path_j" fill="none" stroke-width="5" stroke="#00ffff" stroke-opacity="0.3" d="M241,343L231,324L315,269L293,351L324,451.00000000000006L354,332L364.99999999999994,461L218,503L186,585"></path><path id="#path_j" fill="none" stroke-width="5" stroke="#00ffff" stroke-opacity="0.3" d="M241,343L231,324L315,269L293,351L324,451.00000000000006L354,332L364.99999999999994,461L218,503L186,585"></path><path id="#path_j" fill="none" stroke-width="5" stroke="#00ffff" stroke-opacity="0.3" d="M241,343L231,324L315,269L293,351L324,451.00000000000006L354,332L364.99999999999994,461L218,503L186,585"></path><path id="#path_j" fill="none" stroke-width="5" stroke="#00ffff" stroke-opacity="0.3" d="M241,343L231,324L315,269L293,351L324,451.00000000000006L354,332L364.99999999999994,461L218,503L186,585"></path><path id="#path_j" fill="none" stroke-width="5" stroke="#00ffff" stroke-opacity="0.3" d="M241,343L231,324L315,269L293,351L324,451.00000000000006L354,332L364.99999999999994,461L218,503L186,585"></path><path id="#path_j" fill="none" stroke-width="5" stroke="#00ffff" stroke-opacity="0.3" d="M241,343L231,324L315,269L293,351L324,451.00000000000006L354,332L364.99999999999994,461L218,503L186,585"></path><path id="#path_j" fill="none" stroke-width="5" stroke="#00ffff" stroke-opacity="0.3" d="M241,343L231,324L315,269L293,351L324,451.00000000000006L354,332L364.99999999999994,461L218,503L186,585"></path><path id="#path_j" fill="none" stroke-width="5" stroke="#00ffff" stroke-opacity="0.3" d="M241,343L231,324L315,269L293,351L324,451.00000000000006L354,332L364.99999999999994,461L218,503L186,585"></path><path id="#path_j" fill="none" stroke-width="5" stroke="#00ffff" stroke-opacity="0.3" d="M241,343L231,324L315,269L293,351L324,451.00000000000006L354,332L364.99999999999994,461L218,503L186,585"></path><path id="#path_j" fill="none" stroke-width="5" stroke="#00ffff" stroke-opacity="0.3" d="M241,343L231,324L315,269L293,351L324,451.00000000000006L354,332L364.99999999999994,461L218,503L186,585"></path><path id="#path_j" fill="none" stroke-width="5" stroke="#00ffff" stroke-opacity="0.3" d="M241,343L231,324L315,269L293,351L324,451.00000000000006L354,332L364.99999999999994,461L218,503L186,585"></path><path id="#path_j" fill="none" stroke-width="5" stroke="#00ffff" stroke-opacity="0.3" d="M241,343L231,324L315,269L293,351L324,451.00000000000006L354,332L364.99999999999994,461L218,503L186,585"></path><path id="#path_j" fill="none" stroke-width="5" stroke="#00ffff" stroke-opacity="0.3" d="M241,343L231,324L315,269L293,351L324,451.00000000000006L354,332L364.99999999999994,461L218,503L186,585"></path><path id="#path_j" fill="none" stroke-width="5" stroke="#00ffff" stroke-opacity="0.3" d="M241,343L231,324L315,269L293,351L324,451.00000000000006L354,332L364.99999999999994,461L218,503L186,585"></path><path id="#path_j" fill="none" stroke-width="5" stroke="#00ffff" stroke-opacity="0.3" d="M241,343L231,324L315,269L293,351L324,451.00000000000006L354,332L364.99999999999994,461L218,503L186,585"></path><path id="#path_j" fill="none" stroke-width="5" stroke="#00ffff" stroke-opacity="0.3" d="M241,343L231,324L315,269L293,351L324,451.00000000000006L354,332L364.99999999999994,461L218,503L186,585"></path><path id="#path_j" fill="none" stroke-width="5" stroke="#00ffff" stroke-opacity="0.3" d="M241,343L231,324L315,269L293,351L324,451.00000000000006L354,332L364.99999999999994,461L218,503L186,585"></path><path id="#path_j" fill="none" stroke-width="5" stroke="#00ffff" stroke-opacity="0.3" d="M241,343L231,324L315,269L293,351L324,451.00000000000006L354,332L364.99999999999994,461L218,503L186,585"></path><path id="#path_j" fill="none" stroke-width="5" stroke="#00ffff" stroke-opacity="0.3" d="M241,343L231,324L315,269L293,351L324,451.00000000000006L354,332L364.99999999999994,461L218,503L186,585"></path><path id="#path_j" fill="none" stroke-width="5" stroke="#00ffff" stroke-opacity="0.3" d="M241,343L231,324L315,269L293,351L324,451.00000000000006L354,332L364.99999999999994,461L218,503L186,585"></path><path id="#path_j" fill="none" stroke-width="5" stroke="#00ffff" stroke-opacity="0.3" d="M241,343L231,324L315,269L293,351L324,451.00000000000006L354,332L364.99999999999994,461L218,503L186,585"></path><path id="#path_j" fill="none" stroke-width="5" stroke="#00ffff" stroke-opacity="0.3" d="M241,343L231,324L315,269L293,351L324,451.00000000000006L354,332L364.99999999999994,461L218,503L186,585"></path><path id="#path_j" fill="none" stroke-width="5" stroke="#00ffff" stroke-opacity="0.3" d="M241,343L231,324L315,269L293,351L324,451.00000000000006L354,332L364.99999999999994,461L218,503L186,585"></path><path id="#path_j" fill="none" stroke-width="5" stroke="#00ffff" stroke-opacity="0.3" d="M241,343L231,324L315,269L293,351L324,451.00000000000006L354,332L364.99999999999994,461L218,503L186,585"></path><path id="#path_j" fill="none" stroke-width="5" stroke="#00ffff" stroke-opacity="0.3" d="M241,343L231,324L315,269L293,351L324,451.00000000000006L354,332L364.99999999999994,461L218,503L186,585"></path><path id="#path_j" fill="none" stroke-width="5" stroke="#00ffff" stroke-opacity="0.3" d="M241,343L231,324L315,269L293,351L324,451.00000000000006L354,332L364.99999999999994,461L218,503L186,585"></path><path id="#path_j" fill="none" stroke-width="5" stroke="#00ffff" stroke-opacity="0.3" d="M241,343L231,324L315,269L293,351L324,451.00000000000006L354,332L364.99999999999994,461L218,503L186,585"></path><path id="#path_j" fill="none" stroke-width="5" stroke="#00ffff" stroke-opacity="0.3" d="M241,343L231,324L315,269L293,351L324,451.00000000000006L354,332L364.99999999999994,461L218,503L186,585"></path><path id="#path_j" fill="none" stroke-width="5" stroke="#00ffff" stroke-opacity="0.3" d="M241,343L231,324L315,269L293,351L324,451.00000000000006L354,332L364.99999999999994,461L218,503L186,585"></path><path id="#path_j" fill="none" stroke-width="5" stroke="#00ffff" stroke-opacity="0.3" d="M241,343L231,324L315,269L293,351L324,451.00000000000006L354,332L364.99999999999994,461L218,503L186,585"></path><path id="#path_j" fill="none" stroke-width="5" stroke="#00ffff" stroke-opacity="0.3" d="M241,343L231,324L315,269L293,351L324,451.00000000000006L354,332L364.99999999999994,461L218,503L186,585"></path><path id="#path_j" fill="none" stroke-width="5" stroke="#00ffff" stroke-opacity="0.3" d="M241,343L231,324L315,269L293,351L324,451.00000000000006L354,332L364.99999999999994,461L218,503L186,585"></path><path id="#path_j" fill="none" stroke-width="5" stroke="#00ffff" stroke-opacity="0.3" d="M241,343L231,324L315,269L293,351L324,451.00000000000006L354,332L364.99999999999994,461L218,503L186,585"></path><path id="#path_j" fill="none" stroke-width="5" stroke="#00ffff" stroke-opacity="0.3" d="M241,343L231,324L315,269L293,351L324,451.00000000000006L354,332L364.99999999999994,461L218,503L186,585"></path><path id="#path_j" fill="none" stroke-width="5" stroke="#00ffff" stroke-opacity="0.3" d="M241,343L231,324L315,269L293,351L324,451.00000000000006L354,332L364.99999999999994,461L218,503L186,585"></path><path id="#path_j" fill="none" stroke-width="5" stroke="#00ffff" stroke-opacity="0.3" d="M241,343L231,324L315,269L293,351L324,451.00000000000006L354,332L364.99999999999994,461L218,503L186,585"></path><path id="#path_j" fill="none" stroke-width="5" stroke="#00ffff" stroke-opacity="0.3" d="M241,343L231,324L315,269L293,351L324,451.00000000000006L354,332L364.99999999999994,461L218,503L186,585"></path><path id="#path_j" fill="none" stroke-width="5" stroke="#00ffff" stroke-opacity="0.3" d="M241,343L231,324L315,269L293,351L324,451.00000000000006L354,332L364.99999999999994,461L218,503L186,585"></path><path id="#path_j" fill="none" stroke-width="5" stroke="#00ffff" stroke-opacity="0.3" d="M241,343L231,324L315,269L293,351L324,451.00000000000006L354,332L364.99999999999994,461L218,503L186,585"></path><path id="#path_j" fill="none" stroke-width="5" stroke="#00ffff" stroke-opacity="0.3" d="M241,343L231,324L315,269L293,351L324,451.00000000000006L354,332L364.99999999999994,461L218,503L186,585"></path><path id="#path_j" fill="none" stroke-width="5" stroke="#00ffff" stroke-opacity="0.3" d="M241,343L231,324L315,269L293,351L324,451.00000000000006L354,332L364.99999999999994,461L218,503L186,585"></path><path id="#path_j" fill="none" stroke-width="5" stroke="#00ffff" stroke-opacity="0.3" d="M241,343L231,324L315,269L293,351L324,451.00000000000006L354,332L364.99999999999994,461L218,503L186,585"></path><path id="#path_j" fill="none" stroke-width="5" stroke="#00ffff" stroke-opacity="0.3" d="M241,343L231,324L315,269L293,351L324,451.00000000000006L354,332L364.99999999999994,461L218,503L186,585"></path><path id="#path_j" fill="none" stroke-width="5" stroke="#00ffff" stroke-opacity="0.3" d="M241,343L231,324L315,269L293,351L324,451.00000000000006L354,332L364.99999999999994,461L218,503L186,585"></path><path id="#path_j" fill="none" stroke-width="5" stroke="#00ffff" stroke-opacity="0.3" d="M241,343L231,324L315,269L293,351L324,451.00000000000006L354,332L364.99999999999994,461L218,503L186,585"></path><path id="#path_j" fill="none" stroke-width="5" stroke="#00ffff" stroke-opacity="0.3" d="M241,343L231,324L315,269L293,351L324,451.00000000000006L354,332L364.99999999999994,461L218,503L186,585"></path><path id="#path_j" fill="none" stroke-width="5" stroke="#00ffff" stroke-opacity="0.3" d="M241,343L231,324L315,269L293,351L324,451.00000000000006L354,332L364.99999999999994,461L218,503L186,585"></path><path id="#path_j" fill="none" stroke-width="5" stroke="#00ffff" stroke-opacity="0.3" d="M241,343L231,324L315,269L293,351L324,451.00000000000006L354,332L364.99999999999994,461L218,503L186,585"></path><path id="#path_j" fill="none" stroke-width="5" stroke="#00ffff" stroke-opacity="0.3" d="M241,343L231,324L315,269L293,351L324,451.00000000000006L354,332L364.99999999999994,461L218,503L186,585"></path><path id="#path_j" fill="none" stroke-width="5" stroke="#00ffff" stroke-opacity="0.3" d="M241,343L231,324L315,269L293,351L324,451.00000000000006L354,332L364.99999999999994,461L218,503L186,585"></path><path id="#path_j" fill="none" stroke-width="5" stroke="#00ffff" stroke-opacity="0.3" d="M241,343L231,324L315,269L293,351L324,451.00000000000006L354,332L364.99999999999994,461L218,503L186,585"></path><path id="#path_j" fill="none" stroke-width="5" stroke="#00ffff" stroke-opacity="0.3" d="M241,343L231,324L315,269L293,351L324,451.00000000000006L354,332L364.99999999999994,461L218,503L186,585"></path><path id="#path_j" fill="none" stroke-width="5" stroke="#00ffff" stroke-opacity="0.3" d="M241,343L231,324L315,269L293,351L324,451.00000000000006L354,332L364.99999999999994,461L218,503L186,585"></path><path id="#path_j" fill="none" stroke-width="5" stroke="#00ffff" stroke-opacity="0.3" d="M241,343L231,324L315,269L293,351L324,451.00000000000006L354,332L364.99999999999994,461L218,503L186,585"></path><path id="#path_j" fill="none" stroke-width="5" stroke="#00ffff" stroke-opacity="0.3" d="M241,343L231,324L315,269L293,351L324,451.00000000000006L354,332L364.99999999999994,461L218,503L186,585"></path><path id="#path_j" fill="none" stroke-width="5" stroke="#00ffff" stroke-opacity="0.3" d="M241,343L231,324L315,269L293,351L324,451.00000000000006L354,332L364.99999999999994,461L218,503L186,585"></path><path id="#path_j" fill="none" stroke-width="5" stroke="#00ffff" stroke-opacity="0.3" d="M241,343L231,324L315,269L293,351L324,451.00000000000006L354,332L364.99999999999994,461L218,503L186,585"></path><path id="#path_j" fill="none" stroke-width="5" stroke="#00ffff" stroke-opacity="0.3" d="M241,343L231,324L315,269L293,351L324,451.00000000000006L354,332L364.99999999999994,461L218,503L186,585"></path><path id="#path_j" fill="none" stroke-width="5" stroke="#00ffff" stroke-opacity="0.3" d="M241,343L231,324L315,269L293,351L324,451.00000000000006L354,332L364.99999999999994,461L218,503L186,585"></path><path id="#path_j" fill="none" stroke-width="5" stroke="#00ffff" stroke-opacity="0.3" d="M241,343L231,324L315,269L293,351L324,451.00000000000006L354,332L364.99999999999994,461L218,503L186,585"></path><path id="#path_j" fill="none" stroke-width="5" stroke="#00ffff" stroke-opacity="0.3" d="M241,343L231,324L315,269L293,351L324,451.00000000000006L354,332L364.99999999999994,461L218,503L186,585"></path><path id="#path_j" fill="none" stroke-width="5" stroke="#00ffff" stroke-opacity="0.3" d="M241,343L231,324L315,269L293,351L324,451.00000000000006L354,332L364.99999999999994,461L218,503L186,585"></path><path id="#path_j" fill="none" stroke-width="5" stroke="#00ffff" stroke-opacity="0.3" d="M241,343L231,324L315,269L293,351L324,451.00000000000006L354,332L364.99999999999994,461L218,503L186,585"></path><path id="#path_j" fill="none" stroke-width="5" stroke="#00ffff" stroke-opacity="0.3" d="M241,343L231,324L315,269L293,351L324,451.00000000000006L354,332L364.99999999999994,461L218,503L186,585"></path><path id="#path_j" fill="none" stroke-width="5" stroke="#00ffff" stroke-opacity="0.3" d="M241,343L231,324L315,269L293,351L324,451.00000000000006L354,332L364.99999999999994,461L218,503L186,585"></path><path id="#path_j" fill="none" stroke-width="5" stroke="#00ffff" stroke-opacity="0.3" d="M241,343L231,324L315,269L293,351L324,451.00000000000006L354,332L364.99999999999994,461L218,503L186,585"></path><path id="#path_j" fill="none" stroke-width="5" stroke="#00ffff" stroke-opacity="0.3" d="M241,343L231,324L315,269L293,351L324,451.00000000000006L354,332L364.99999999999994,461L218,503L186,585"></path><path id="#path_j" fill="none" stroke-width="5" stroke="#00ffff" stroke-opacity="0.3" d="M241,343L231,324L315,269L293,351L324,451.00000000000006L354,332L364.99999999999994,461L218,503L186,585"></path><path id="#path_j" fill="none" stroke-width="5" stroke="#00ffff" stroke-opacity="0.3" d="M241,343L231,324L315,269L293,351L324,451.00000000000006L354,332L364.99999999999994,461L218,503L186,585"></path><path id="#path_j" fill="none" stroke-width="5" stroke="#00ffff" stroke-opacity="0.3" d="M241,343L231,324L315,269L293,351L324,451.00000000000006L354,332L364.99999999999994,461L218,503L186,585"></path><path id="#path_j" fill="none" stroke-width="5" stroke="#00ffff" stroke-opacity="0.3" d="M241,343L231,324L315,269L293,351L324,451.00000000000006L354,332L364.99999999999994,461L218,503L186,585"></path><path id="#path_j" fill="none" stroke-width="5" stroke="#00ffff" stroke-opacity="0.3" d="M241,343L231,324L315,269L293,351L324,451.00000000000006L354,332L364.99999999999994,461L218,503L186,585"></path><path id="#path_j" fill="none" stroke-width="5" stroke="#00ffff" stroke-opacity="0.3" d="M241,343L231,324L315,269L293,351L324,451.00000000000006L354,332L364.99999999999994,461L218,503L186,585"></path><path id="#path_j" fill="none" stroke-width="5" stroke="#00ffff" stroke-opacity="0.3" d="M241,343L231,324L315,269L293,351L324,451.00000000000006L354,332L364.99999999999994,461L218,503L186,585"></path><path id="#path_j" fill="none" stroke-width="5" stroke="#00ffff" stroke-opacity="0.3" d="M241,343L231,324L315,269L293,351L324,451.00000000000006L354,332L364.99999999999994,461L218,503L186,585"></path><path id="#path_j" fill="none" stroke-width="5" stroke="#00ffff" stroke-opacity="0.3" d="M241,343L231,324L315,269L293,351L324,451.00000000000006L354,332L364.99999999999994,461L218,503L186,585"></path><path id="#path_j" fill="none" stroke-width="5" stroke="#00ffff" stroke-opacity="0.3" d="M241,343L231,324L315,269L293,351L324,451.00000000000006L354,332L364.99999999999994,461L218,503L186,585"></path><path id="#path_j" fill="none" stroke-width="5" stroke="#00ffff" stroke-opacity="0.3" d="M241,343L231,324L315,269L293,351L324,451.00000000000006L354,332L364.99999999999994,461L218,503L186,585"></path><path id="#path_j" fill="none" stroke-width="5" stroke="#00ffff" stroke-opacity="0.3" d="M241,343L231,324L315,269L293,351L324,451.00000000000006L354,332L364.99999999999994,461L218,503L186,585"></path><path id="#path_j" fill="none" stroke-width="5" stroke="#00ffff" stroke-opacity="0.3" d="M241,343L231,324L315,269L293,351L324,451.00000000000006L354,332L364.99999999999994,461L218,503L186,585"></path><path id="#path_j" fill="none" stroke-width="5" stroke="#00ffff" stroke-opacity="0.3" d="M241,343L231,324L315,269L293,351L324,451.00000000000006L354,332L364.99999999999994,461L218,503L186,585"></path><path id="#path_j" fill="none" stroke-width="5" stroke="#00ffff" stroke-opacity="0.3" d="M241,343L231,324L315,269L293,351L324,451.00000000000006L354,332L364.99999999999994,461L218,503L186,585"></path><path id="#path_j" fill="none" stroke-width="5" stroke="#00ffff" stroke-opacity="0.3" d="M241,343L231,324L315,269L293,351L324,451.00000000000006L354,332L364.99999999999994,461L218,503L186,585"></path><path id="#path_j" fill="none" stroke-width="5" stroke="#00ffff" stroke-opacity="0.3" d="M241,343L231,324L315,269L293,351L324,451.00000000000006L354,332L364.99999999999994,461L218,503L186,585"></path><path id="#path_j" fill="none" stroke-width="5" stroke="#00ffff" stroke-opacity="0.3" d="M241,343L231,324L315,269L293,351L324,451.00000000000006L354,332L364.99999999999994,461L218,503L186,585"></path><path id="#path_j" fill="none" stroke-width="5" stroke="#00ffff" stroke-opacity="0.3" d="M241,343L231,324L315,269L293,351L324,451.00000000000006L354,332L364.99999999999994,461L218,503L186,585"></path><path id="#path_j" fill="none" stroke-width="5" stroke="#00ffff" stroke-opacity="0.3" d="M241,343L231,324L315,269L293,351L324,451.00000000000006L354,332L364.99999999999994,461L218,503L186,585"></path><path id="#path_j" fill="none" stroke-width="5" stroke="#00ffff" stroke-opacity="0.3" d="M241,343L231,324L315,269L293,351L324,451.00000000000006L354,332L364.99999999999994,461L218,503L186,585"></path><path id="#path_j" fill="none" stroke-width="5" stroke="#00ffff" stroke-opacity="0.3" d="M241,343L231,324L315,269L293,351L324,451.00000000000006L354,332L364.99999999999994,461L218,503L186,585"></path><path id="#path_j" fill="none" stroke-width="5" stroke="#00ffff" stroke-opacity="0.3" d="M241,343L231,324L315,269L293,351L324,451.00000000000006L354,332L364.99999999999994,461L218,503L186,585"></path><path id="#path_j" fill="none" stroke-width="5" stroke="#00ffff" stroke-opacity="0.3" d="M241,343L231,324L315,269L293,351L324,451.00000000000006L354,332L364.99999999999994,461L218,503L186,585"></path><path id="#path_j" fill="none" stroke-width="5" stroke="#00ffff" stroke-opacity="0.3" d="M241,343L231,324L315,269L293,351L324,451.00000000000006L354,332L364.99999999999994,461L218,503L186,585"></path><path id="#path_j" fill="none" stroke-width="5" stroke="#00ffff" stroke-opacity="0.3" d="M241,343L231,324L315,269L293,351L324,451.00000000000006L354,332L364.99999999999994,461L218,503L186,585"></path><path id="#path_j" fill="none" stroke-width="5" stroke="#00ffff" stroke-opacity="0.3" d="M241,343L231,324L315,269L293,351L324,451.00000000000006L354,332L364.99999999999994,461L218,503L186,585"></path><path id="#path_j" fill="none" stroke-width="5" stroke="#00ffff" stroke-opacity="0.3" d="M241,343L231,324L315,269L293,351L324,451.00000000000006L354,332L364.99999999999994,461L218,503L186,585"></path><path id="#path_j" fill="none" stroke-width="5" stroke="#00ffff" stroke-opacity="0.3" d="M241,343L231,324L315,269L293,351L324,451.00000000000006L354,332L364.99999999999994,461L218,503L186,585"></path><path id="#path_j" fill="none" stroke-width="5" stroke="#00ffff" stroke-opacity="0.3" d="M241,343L231,324L315,269L293,351L324,451.00000000000006L354,332L364.99999999999994,461L218,503L186,585"></path><path id="#path_j" fill="none" stroke-width="5" stroke="#00ffff" stroke-opacity="0.3" d="M241,343L231,324L315,269L293,351L324,451.00000000000006L354,332L364.99999999999994,461L218,503L186,585"></path><path id="#path_j" fill="none" stroke-width="5" stroke="#00ffff" stroke-opacity="0.3" d="M241,343L231,324L315,269L293,351L324,451.00000000000006L354,332L364.99999999999994,461L218,503L186,585"></path><path id="#path_j" fill="none" stroke-width="5" stroke="#00ffff" stroke-opacity="0.3" d="M241,343L231,324L315,269L293,351L324,451.00000000000006L354,332L364.99999999999994,461L218,503L186,585"></path><path id="#path_j" fill="none" stroke-width="5" stroke="#00ffff" stroke-opacity="0.3" d="M241,343L231,324L315,269L293,351L324,451.00000000000006L354,332L364.99999999999994,461L218,503L186,585"></path><path id="#path_j" fill="none" stroke-width="5" stroke="#00ffff" stroke-opacity="0.3" d="M241,343L231,324L315,269L293,351L324,451.00000000000006L354,332L364.99999999999994,461L218,503L186,585"></path><path id="#path_j" fill="none" stroke-width="5" stroke="#00ffff" stroke-opacity="0.3" d="M241,343L231,324L315,269L293,351L324,451.00000000000006L354,332L364.99999999999994,461L218,503L186,585"></path><path id="#path_j" fill="none" stroke-width="5" stroke="#00ffff" stroke-opacity="0.3" d="M241,343L231,324L315,269L293,351L324,451.00000000000006L354,332L364.99999999999994,461L218,503L186,585"></path><path id="#path_j" fill="none" stroke-width="5" stroke="#00ffff" stroke-opacity="0.3" d="M241,343L231,324L315,269L293,351L324,451.00000000000006L354,332L364.99999999999994,461L218,503L186,585"></path><path id="#path_j" fill="none" stroke-width="5" stroke="#00ffff" stroke-opacity="0.3" d="M241,343L231,324L315,269L293,351L324,451.00000000000006L354,332L364.99999999999994,461L218,503L186,585"></path><path id="#path_j" fill="none" stroke-width="5" stroke="#00ffff" stroke-opacity="0.3" d="M241,343L231,324L315,269L293,351L324,451.00000000000006L354,332L364.99999999999994,461L218,503L186,585"></path><path id="#path_j" fill="none" stroke-width="5" stroke="#00ffff" stroke-opacity="0.3" d="M241,343L231,324L315,269L293,351L324,451.00000000000006L354,332L364.99999999999994,461L218,503L186,585"></path><path id="#path_j" fill="none" stroke-width="5" stroke="#00ffff" stroke-opacity="0.3" d="M241,343L231,324L315,269L293,351L324,451.00000000000006L354,332L364.99999999999994,461L218,503L186,585"></path><path id="#path_j" fill="none" stroke-width="5" stroke="#00ffff" stroke-opacity="0.3" d="M241,343L231,324L315,269L293,351L324,451.00000000000006L354,332L364.99999999999994,461L218,503L186,585"></path><path id="#path_j" fill="none" stroke-width="5" stroke="#00ffff" stroke-opacity="0.3" d="M241,343L231,324L315,269L293,351L324,451.00000000000006L354,332L364.99999999999994,461L218,503L186,585"></path><path id="#path_j" fill="none" stroke-width="5" stroke="#00ffff" stroke-opacity="0.3" d="M241,343L231,324L315,269L293,351L324,451.00000000000006L354,332L364.99999999999994,461L218,503L186,585"></path><path id="#path_j" fill="none" stroke-width="5" stroke="#00ffff" stroke-opacity="0.3" d="M241,343L231,324L315,269L293,351L324,451.00000000000006L354,332L364.99999999999994,461L218,503L186,585"></path><path id="#path_j" fill="none" stroke-width="5" stroke="#00ffff" stroke-opacity="0.3" d="M241,343L231,324L315,269L293,351L324,451.00000000000006L354,332L364.99999999999994,461L218,503L186,585"></path><path id="#path_j" fill="none" stroke-width="5" stroke="#00ffff" stroke-opacity="0.3" d="M241,343L231,324L315,269L293,351L324,451.00000000000006L354,332L364.99999999999994,461L218,503L186,585"></path><path id="#path_j" fill="none" stroke-width="5" stroke="#00ffff" stroke-opacity="0.3" d="M241,343L231,324L315,269L293,351L324,451.00000000000006L354,332L364.99999999999994,461L218,503L186,585"></path><path id="#path_j" fill="none" stroke-width="5" stroke="#00ffff" stroke-opacity="0.3" d="M241,343L231,324L315,269L293,351L324,451.00000000000006L354,332L364.99999999999994,461L218,503L186,585"></path><path id="#path_j" fill="none" stroke-width="5" stroke="#00ffff" stroke-opacity="0.3" d="M241,343L231,324L315,269L293,351L324,451.00000000000006L354,332L364.99999999999994,461L218,503L186,585"></path><path id="#path_j" fill="none" stroke-width="5" stroke="#00ffff" stroke-opacity="0.3" d="M241,343L231,324L315,269L293,351L324,451.00000000000006L354,332L364.99999999999994,461L218,503L186,585"></path><path id="#path_j" fill="none" stroke-width="5" stroke="#00ffff" stroke-opacity="0.3" d="M241,343L231,324L315,269L293,351L324,451.00000000000006L354,332L364.99999999999994,461L218,503L186,585"></path><path id="#path_j" fill="none" stroke-width="5" stroke="#00ffff" stroke-opacity="0.3" d="M241,343L231,324L315,269L293,351L324,451.00000000000006L354,332L364.99999999999994,461L218,503L186,585"></path><path id="#path_j" fill="none" stroke-width="5" stroke="#00ffff" stroke-opacity="0.3" d="M241,343L231,324L315,269L293,351L324,451.00000000000006L354,332L364.99999999999994,461L218,503L186,585"></path><path id="#path_j" fill="none" stroke-width="5" stroke="#00ffff" stroke-opacity="0.3" d="M241,343L231,324L315,269L293,351L324,451.00000000000006L354,332L364.99999999999994,461L218,503L186,585"></path><path id="#path_j" fill="none" stroke-width="5" stroke="#00ffff" stroke-opacity="0.3" d="M241,343L231,324L315,269L293,351L324,451.00000000000006L354,332L364.99999999999994,461L218,503L186,585"></path><path id="#path_j" fill="none" stroke-width="5" stroke="#00ffff" stroke-opacity="0.3" d="M241,343L231,324L315,269L293,351L324,451.00000000000006L354,332L364.99999999999994,461L218,503L186,585"></path><path id="#path_j" fill="none" stroke-width="5" stroke="#00ffff" stroke-opacity="0.3" d="M241,343L231,324L315,269L293,351L324,451.00000000000006L354,332L364.99999999999994,461L218,503L186,585"></path><path id="#path_j" fill="none" stroke-width="5" stroke="#00ffff" stroke-opacity="0.3" d="M241,343L231,324L315,269L293,351L324,451.00000000000006L354,332L364.99999999999994,461L218,503L186,585"></path><path id="#path_j" fill="none" stroke-width="5" stroke="#00ffff" stroke-opacity="0.3" d="M241,343L231,324L315,269L293,351L324,451.00000000000006L354,332L364.99999999999994,461L218,503L186,585"></path><path id="#path_j" fill="none" stroke-width="5" stroke="#00ffff" stroke-opacity="0.3" d="M241,343L231,324L315,269L293,351L324,451.00000000000006L354,332L364.99999999999994,461L218,503L186,585"></path><path id="#path_j" fill="none" stroke-width="5" stroke="#00ffff" stroke-opacity="0.3" d="M241,343L231,324L315,269L293,351L324,451.00000000000006L354,332L364.99999999999994,461L218,503L186,585"></path><path id="#path_j" fill="none" stroke-width="5" stroke="#00ffff" stroke-opacity="0.3" d="M241,343L231,324L315,269L293,351L324,451.00000000000006L354,332L364.99999999999994,461L218,503L186,585"></path><path id="#path_j" fill="none" stroke-width="5" stroke="#00ffff" stroke-opacity="0.3" d="M241,343L231,324L315,269L293,351L324,451.00000000000006L354,332L364.99999999999994,461L218,503L186,585"></path><path id="#path_j" fill="none" stroke-width="5" stroke="#00ffff" stroke-opacity="0.3" d="M241,343L231,324L315,269L293,351L324,451.00000000000006L354,332L364.99999999999994,461L218,503L186,585"></path><path id="#path_j" fill="none" stroke-width="5" stroke="#00ffff" stroke-opacity="0.3" d="M241,343L231,324L315,269L293,351L324,451.00000000000006L354,332L364.99999999999994,461L218,503L186,585"></path><path id="#path_j" fill="none" stroke-width="5" stroke="#00ffff" stroke-opacity="0.3" d="M241,343L231,324L315,269L293,351L324,451.00000000000006L354,332L364.99999999999994,461L218,503L186,585"></path><path id="#path_j" fill="none" stroke-width="5" stroke="#00ffff" stroke-opacity="0.3" d="M241,343L231,324L315,269L293,351L324,451.00000000000006L354,332L364.99999999999994,461L218,503L186,585"></path></svg>