<svg width="600" height="776"><image xlink:href="./../images/9.jpeg" x="0" y="0" width="600" height="776"></image><circle cx="362.5" cy="293.75" r="10" opacity="0.7" fill="#ffffff"></circle><circle cx="326.5" cy="435.75" r="10" opacity="0.7" fill="#ffffff"></circle><circle cx="326.5" cy="373.75" r="10" opacity="0.7" fill="#ffffff"></circle><circle cx="290.5" cy="289.75" r="10" opacity="0.7" fill="#ffffff"></circle><circle cx="94.5" cy="229.75" r="10" opacity="0.7" fill="#ffffff"></circle><circle cx="361.5" cy="468.75" r="10" opacity="0.7" fill="#ffffff"></circle><circle cx="301.49999999999994" cy="364.75" r="10" opacity="0.7" fill="#ffffff"></circle><circle cx="87.5" cy="325.75" r="10" opacity="0.7" fill="#ffffff"></circle><circle cx="194.5" cy="337.75" r="10" opacity="0.7" fill="#ffffff"></circle><circle cx="221.5" cy="340.75" r="10" opacity="0.7" fill="#ffffff"></circle><circle cx="394.5" cy="364.75" r="10" opacity="0.7" fill="#ffffff"></circle><circle cx="334.5" cy="650.75" r="10" opacity="0.7" fill="#ffffff"></circle><circle cx="229.5" cy="225.75000000000003" r="10" opacity="0.7" fill="#ffffff"></circle><circle cx="129.5" cy="153.75" r="10" opacity="0.7" fill="#ffffff"></circle><circle cx="398.5" cy="294.75" r="10" opacity="0.7" fill="#ffffff"></circle><circle cx="120.5" cy="359.75" r="10" opacity="0.7" fill="#ffffff"></circle><circle cx="187.5" cy="339.75" r="10" opacity="0.7" fill="#ffffff"></circle><circle cx="335.5" cy="749.75" r="10" opacity="0.7" fill="#ffffff"></circle></svg>