<svg width="600" height="776" id="visual_9_a"><image xlink:href="./../images/9.jpeg" x="0" y="0" width="600" height="776"></image><rect x="0" y="0" width="600" height="776" fill="#fff" opacity="0.5"></rect><circle cx="216" cy="585" r="50" opacity="0" fill="#00ffff" id="circle_0"></circle><circle cx="217.00000000000003" cy="585" r="50" opacity="0.5" fill="green" id="circle_1"></circle><circle cx="366" cy="628" r="50" opacity="0" fill="#00ffff" id="circle_2"></circle><circle cx="415" cy="384" r="50" opacity="0" fill="#00ffff" id="circle_3"></circle><circle cx="336.00000000000006" cy="379" r="50" opacity="0" fill="#00ffff" id="circle_4"></circle><circle cx="366" cy="311" r="50" opacity="0" fill="#00ffff" id="circle_5"></circle><circle cx="324" cy="107.00000000000001" r="50" opacity="0" fill="#00ffff" id="circle_6"></circle><circle cx="454" cy="127" r="50" opacity="0" fill="#00ffff" id="circle_7"></circle><circle cx="395" cy="283" r="50" opacity="0" fill="#00ffff" id="circle_8"></circle><circle cx="312" cy="326" r="50" opacity="0" fill="#00ffff" id="circle_9"></circle><circle cx="242" cy="360" r="50" opacity="0" fill="#00ffff" id="circle_10"></circle><circle cx="256" cy="469.99999999999994" r="50" opacity="0" fill="#00ffff" id="circle_11"></circle><circle cx="282" cy="507" r="50" opacity="0" fill="#00ffff" id="circle_12"></circle><circle cx="280" cy="613" r="50" opacity="0" fill="#00ffff" id="circle_13"></circle><circle cx="302" cy="499.00000000000006" r="50" opacity="0" fill="#00ffff" id="circle_14"></circle><circle cx="192" cy="515" r="50" opacity="0.5" fill="purple" id="circle_15"></circle><path id="#path_a" fill="none" stroke-width="5" stroke="#00ffff" stroke-opacity="0.3" d="M216,585L217.00000000000003,585L366,628L415,384L336.00000000000006,379L366,311L324,107.00000000000001L454,127L395,283L312,326L242,360L256,469.99999999999994L282,507L280,613L302,499.00000000000006L192,515"></path><path id="#path_a" fill="none" stroke-width="5" stroke="#00ffff" stroke-opacity="0.3" d="M216,585L217.00000000000003,585L366,628L415,384L336.00000000000006,379L366,311L324,107.00000000000001L454,127L395,283L312,326L242,360L256,469.99999999999994L282,507L280,613L302,499.00000000000006L192,515"></path><path id="#path_a" fill="none" stroke-width="5" stroke="#00ffff" stroke-opacity="0.3" d="M216,585L217.00000000000003,585L366,628L415,384L336.00000000000006,379L366,311L324,107.00000000000001L454,127L395,283L312,326L242,360L256,469.99999999999994L282,507L280,613L302,499.00000000000006L192,515"></path><path id="#path_a" fill="none" stroke-width="5" stroke="#00ffff" stroke-opacity="0.3" d="M216,585L217.00000000000003,585L366,628L415,384L336.00000000000006,379L366,311L324,107.00000000000001L454,127L395,283L312,326L242,360L256,469.99999999999994L282,507L280,613L302,499.00000000000006L192,515"></path><path id="#path_a" fill="none" stroke-width="5" stroke="#00ffff" stroke-opacity="0.3" d="M216,585L217.00000000000003,585L366,628L415,384L336.00000000000006,379L366,311L324,107.00000000000001L454,127L395,283L312,326L242,360L256,469.99999999999994L282,507L280,613L302,499.00000000000006L192,515"></path><path id="#path_a" fill="none" stroke-width="5" stroke="#00ffff" stroke-opacity="0.3" d="M216,585L217.00000000000003,585L366,628L415,384L336.00000000000006,379L366,311L324,107.00000000000001L454,127L395,283L312,326L242,360L256,469.99999999999994L282,507L280,613L302,499.00000000000006L192,515"></path><path id="#path_a" fill="none" stroke-width="5" stroke="#00ffff" stroke-opacity="0.3" d="M216,585L217.00000000000003,585L366,628L415,384L336.00000000000006,379L366,311L324,107.00000000000001L454,127L395,283L312,326L242,360L256,469.99999999999994L282,507L280,613L302,499.00000000000006L192,515"></path><path id="#path_a" fill="none" stroke-width="5" stroke="#00ffff" stroke-opacity="0.3" d="M216,585L217.00000000000003,585L366,628L415,384L336.00000000000006,379L366,311L324,107.00000000000001L454,127L395,283L312,326L242,360L256,469.99999999999994L282,507L280,613L302,499.00000000000006L192,515"></path><path id="#path_a" fill="none" stroke-width="5" stroke="#00ffff" stroke-opacity="0.3" d="M216,585L217.00000000000003,585L366,628L415,384L336.00000000000006,379L366,311L324,107.00000000000001L454,127L395,283L312,326L242,360L256,469.99999999999994L282,507L280,613L302,499.00000000000006L192,515"></path><path id="#path_a" fill="none" stroke-width="5" stroke="#00ffff" stroke-opacity="0.3" d="M216,585L217.00000000000003,585L366,628L415,384L336.00000000000006,379L366,311L324,107.00000000000001L454,127L395,283L312,326L242,360L256,469.99999999999994L282,507L280,613L302,499.00000000000006L192,515"></path><path id="#path_a" fill="none" stroke-width="5" stroke="#00ffff" stroke-opacity="0.3" d="M216,585L217.00000000000003,585L366,628L415,384L336.00000000000006,379L366,311L324,107.00000000000001L454,127L395,283L312,326L242,360L256,469.99999999999994L282,507L280,613L302,499.00000000000006L192,515"></path><path id="#path_a" fill="none" stroke-width="5" stroke="#00ffff" stroke-opacity="0.3" d="M216,585L217.00000000000003,585L366,628L415,384L336.00000000000006,379L366,311L324,107.00000000000001L454,127L395,283L312,326L242,360L256,469.99999999999994L282,507L280,613L302,499.00000000000006L192,515"></path><path id="#path_a" fill="none" stroke-width="5" stroke="#00ffff" stroke-opacity="0.3" d="M216,585L217.00000000000003,585L366,628L415,384L336.00000000000006,379L366,311L324,107.00000000000001L454,127L395,283L312,326L242,360L256,469.99999999999994L282,507L280,613L302,499.00000000000006L192,515"></path><path id="#path_a" fill="none" stroke-width="5" stroke="#00ffff" stroke-opacity="0.3" d="M216,585L217.00000000000003,585L366,628L415,384L336.00000000000006,379L366,311L324,107.00000000000001L454,127L395,283L312,326L242,360L256,469.99999999999994L282,507L280,613L302,499.00000000000006L192,515"></path><path id="#path_a" fill="none" stroke-width="5" stroke="#00ffff" stroke-opacity="0.3" d="M216,585L217.00000000000003,585L366,628L415,384L336.00000000000006,379L366,311L324,107.00000000000001L454,127L395,283L312,326L242,360L256,469.99999999999994L282,507L280,613L302,499.00000000000006L192,515"></path><path id="#path_a" fill="none" stroke-width="5" stroke="#00ffff" stroke-opacity="0.3" d="M216,585L217.00000000000003,585L366,628L415,384L336.00000000000006,379L366,311L324,107.00000000000001L454,127L395,283L312,326L242,360L256,469.99999999999994L282,507L280,613L302,499.00000000000006L192,515"></path><path id="#path_a" fill="none" stroke-width="5" stroke="#00ffff" stroke-opacity="0.3" d="M216,585L217.00000000000003,585L366,628L415,384L336.00000000000006,379L366,311L324,107.00000000000001L454,127L395,283L312,326L242,360L256,469.99999999999994L282,507L280,613L302,499.00000000000006L192,515"></path><path id="#path_a" fill="none" stroke-width="5" stroke="#00ffff" stroke-opacity="0.3" d="M216,585L217.00000000000003,585L366,628L415,384L336.00000000000006,379L366,311L324,107.00000000000001L454,127L395,283L312,326L242,360L256,469.99999999999994L282,507L280,613L302,499.00000000000006L192,515"></path><path id="#path_a" fill="none" stroke-width="5" stroke="#00ffff" stroke-opacity="0.3" d="M216,585L217.00000000000003,585L366,628L415,384L336.00000000000006,379L366,311L324,107.00000000000001L454,127L395,283L312,326L242,360L256,469.99999999999994L282,507L280,613L302,499.00000000000006L192,515"></path><path id="#path_a" fill="none" stroke-width="5" stroke="#00ffff" stroke-opacity="0.3" d="M216,585L217.00000000000003,585L366,628L415,384L336.00000000000006,379L366,311L324,107.00000000000001L454,127L395,283L312,326L242,360L256,469.99999999999994L282,507L280,613L302,499.00000000000006L192,515"></path><path id="#path_a" fill="none" stroke-width="5" stroke="#00ffff" stroke-opacity="0.3" d="M216,585L217.00000000000003,585L366,628L415,384L336.00000000000006,379L366,311L324,107.00000000000001L454,127L395,283L312,326L242,360L256,469.99999999999994L282,507L280,613L302,499.00000000000006L192,515"></path><path id="#path_a" fill="none" stroke-width="5" stroke="#00ffff" stroke-opacity="0.3" d="M216,585L217.00000000000003,585L366,628L415,384L336.00000000000006,379L366,311L324,107.00000000000001L454,127L395,283L312,326L242,360L256,469.99999999999994L282,507L280,613L302,499.00000000000006L192,515"></path><path id="#path_a" fill="none" stroke-width="5" stroke="#00ffff" stroke-opacity="0.3" d="M216,585L217.00000000000003,585L366,628L415,384L336.00000000000006,379L366,311L324,107.00000000000001L454,127L395,283L312,326L242,360L256,469.99999999999994L282,507L280,613L302,499.00000000000006L192,515"></path><path id="#path_a" fill="none" stroke-width="5" stroke="#00ffff" stroke-opacity="0.3" d="M216,585L217.00000000000003,585L366,628L415,384L336.00000000000006,379L366,311L324,107.00000000000001L454,127L395,283L312,326L242,360L256,469.99999999999994L282,507L280,613L302,499.00000000000006L192,515"></path><path id="#path_a" fill="none" stroke-width="5" stroke="#00ffff" stroke-opacity="0.3" d="M216,585L217.00000000000003,585L366,628L415,384L336.00000000000006,379L366,311L324,107.00000000000001L454,127L395,283L312,326L242,360L256,469.99999999999994L282,507L280,613L302,499.00000000000006L192,515"></path><path id="#path_a" fill="none" stroke-width="5" stroke="#00ffff" stroke-opacity="0.3" d="M216,585L217.00000000000003,585L366,628L415,384L336.00000000000006,379L366,311L324,107.00000000000001L454,127L395,283L312,326L242,360L256,469.99999999999994L282,507L280,613L302,499.00000000000006L192,515"></path><path id="#path_a" fill="none" stroke-width="5" stroke="#00ffff" stroke-opacity="0.3" d="M216,585L217.00000000000003,585L366,628L415,384L336.00000000000006,379L366,311L324,107.00000000000001L454,127L395,283L312,326L242,360L256,469.99999999999994L282,507L280,613L302,499.00000000000006L192,515"></path><path id="#path_a" fill="none" stroke-width="5" stroke="#00ffff" stroke-opacity="0.3" d="M216,585L217.00000000000003,585L366,628L415,384L336.00000000000006,379L366,311L324,107.00000000000001L454,127L395,283L312,326L242,360L256,469.99999999999994L282,507L280,613L302,499.00000000000006L192,515"></path><path id="#path_a" fill="none" stroke-width="5" stroke="#00ffff" stroke-opacity="0.3" d="M216,585L217.00000000000003,585L366,628L415,384L336.00000000000006,379L366,311L324,107.00000000000001L454,127L395,283L312,326L242,360L256,469.99999999999994L282,507L280,613L302,499.00000000000006L192,515"></path><path id="#path_a" fill="none" stroke-width="5" stroke="#00ffff" stroke-opacity="0.3" d="M216,585L217.00000000000003,585L366,628L415,384L336.00000000000006,379L366,311L324,107.00000000000001L454,127L395,283L312,326L242,360L256,469.99999999999994L282,507L280,613L302,499.00000000000006L192,515"></path><path id="#path_a" fill="none" stroke-width="5" stroke="#00ffff" stroke-opacity="0.3" d="M216,585L217.00000000000003,585L366,628L415,384L336.00000000000006,379L366,311L324,107.00000000000001L454,127L395,283L312,326L242,360L256,469.99999999999994L282,507L280,613L302,499.00000000000006L192,515"></path><path id="#path_a" fill="none" stroke-width="5" stroke="#00ffff" stroke-opacity="0.3" d="M216,585L217.00000000000003,585L366,628L415,384L336.00000000000006,379L366,311L324,107.00000000000001L454,127L395,283L312,326L242,360L256,469.99999999999994L282,507L280,613L302,499.00000000000006L192,515"></path><path id="#path_a" fill="none" stroke-width="5" stroke="#00ffff" stroke-opacity="0.3" d="M216,585L217.00000000000003,585L366,628L415,384L336.00000000000006,379L366,311L324,107.00000000000001L454,127L395,283L312,326L242,360L256,469.99999999999994L282,507L280,613L302,499.00000000000006L192,515"></path><path id="#path_a" fill="none" stroke-width="5" stroke="#00ffff" stroke-opacity="0.3" d="M216,585L217.00000000000003,585L366,628L415,384L336.00000000000006,379L366,311L324,107.00000000000001L454,127L395,283L312,326L242,360L256,469.99999999999994L282,507L280,613L302,499.00000000000006L192,515"></path><path id="#path_a" fill="none" stroke-width="5" stroke="#00ffff" stroke-opacity="0.3" d="M216,585L217.00000000000003,585L366,628L415,384L336.00000000000006,379L366,311L324,107.00000000000001L454,127L395,283L312,326L242,360L256,469.99999999999994L282,507L280,613L302,499.00000000000006L192,515"></path><path id="#path_a" fill="none" stroke-width="5" stroke="#00ffff" stroke-opacity="0.3" d="M216,585L217.00000000000003,585L366,628L415,384L336.00000000000006,379L366,311L324,107.00000000000001L454,127L395,283L312,326L242,360L256,469.99999999999994L282,507L280,613L302,499.00000000000006L192,515"></path><path id="#path_a" fill="none" stroke-width="5" stroke="#00ffff" stroke-opacity="0.3" d="M216,585L217.00000000000003,585L366,628L415,384L336.00000000000006,379L366,311L324,107.00000000000001L454,127L395,283L312,326L242,360L256,469.99999999999994L282,507L280,613L302,499.00000000000006L192,515"></path><path id="#path_a" fill="none" stroke-width="5" stroke="#00ffff" stroke-opacity="0.3" d="M216,585L217.00000000000003,585L366,628L415,384L336.00000000000006,379L366,311L324,107.00000000000001L454,127L395,283L312,326L242,360L256,469.99999999999994L282,507L280,613L302,499.00000000000006L192,515"></path><path id="#path_a" fill="none" stroke-width="5" stroke="#00ffff" stroke-opacity="0.3" d="M216,585L217.00000000000003,585L366,628L415,384L336.00000000000006,379L366,311L324,107.00000000000001L454,127L395,283L312,326L242,360L256,469.99999999999994L282,507L280,613L302,499.00000000000006L192,515"></path><path id="#path_a" fill="none" stroke-width="5" stroke="#00ffff" stroke-opacity="0.3" d="M216,585L217.00000000000003,585L366,628L415,384L336.00000000000006,379L366,311L324,107.00000000000001L454,127L395,283L312,326L242,360L256,469.99999999999994L282,507L280,613L302,499.00000000000006L192,515"></path><path id="#path_a" fill="none" stroke-width="5" stroke="#00ffff" stroke-opacity="0.3" d="M216,585L217.00000000000003,585L366,628L415,384L336.00000000000006,379L366,311L324,107.00000000000001L454,127L395,283L312,326L242,360L256,469.99999999999994L282,507L280,613L302,499.00000000000006L192,515"></path><path id="#path_a" fill="none" stroke-width="5" stroke="#00ffff" stroke-opacity="0.3" d="M216,585L217.00000000000003,585L366,628L415,384L336.00000000000006,379L366,311L324,107.00000000000001L454,127L395,283L312,326L242,360L256,469.99999999999994L282,507L280,613L302,499.00000000000006L192,515"></path><path id="#path_a" fill="none" stroke-width="5" stroke="#00ffff" stroke-opacity="0.3" d="M216,585L217.00000000000003,585L366,628L415,384L336.00000000000006,379L366,311L324,107.00000000000001L454,127L395,283L312,326L242,360L256,469.99999999999994L282,507L280,613L302,499.00000000000006L192,515"></path><path id="#path_a" fill="none" stroke-width="5" stroke="#00ffff" stroke-opacity="0.3" d="M216,585L217.00000000000003,585L366,628L415,384L336.00000000000006,379L366,311L324,107.00000000000001L454,127L395,283L312,326L242,360L256,469.99999999999994L282,507L280,613L302,499.00000000000006L192,515"></path><path id="#path_a" fill="none" stroke-width="5" stroke="#00ffff" stroke-opacity="0.3" d="M216,585L217.00000000000003,585L366,628L415,384L336.00000000000006,379L366,311L324,107.00000000000001L454,127L395,283L312,326L242,360L256,469.99999999999994L282,507L280,613L302,499.00000000000006L192,515"></path><path id="#path_a" fill="none" stroke-width="5" stroke="#00ffff" stroke-opacity="0.3" d="M216,585L217.00000000000003,585L366,628L415,384L336.00000000000006,379L366,311L324,107.00000000000001L454,127L395,283L312,326L242,360L256,469.99999999999994L282,507L280,613L302,499.00000000000006L192,515"></path><path id="#path_a" fill="none" stroke-width="5" stroke="#00ffff" stroke-opacity="0.3" d="M216,585L217.00000000000003,585L366,628L415,384L336.00000000000006,379L366,311L324,107.00000000000001L454,127L395,283L312,326L242,360L256,469.99999999999994L282,507L280,613L302,499.00000000000006L192,515"></path><path id="#path_a" fill="none" stroke-width="5" stroke="#00ffff" stroke-opacity="0.3" d="M216,585L217.00000000000003,585L366,628L415,384L336.00000000000006,379L366,311L324,107.00000000000001L454,127L395,283L312,326L242,360L256,469.99999999999994L282,507L280,613L302,499.00000000000006L192,515"></path><path id="#path_a" fill="none" stroke-width="5" stroke="#00ffff" stroke-opacity="0.3" d="M216,585L217.00000000000003,585L366,628L415,384L336.00000000000006,379L366,311L324,107.00000000000001L454,127L395,283L312,326L242,360L256,469.99999999999994L282,507L280,613L302,499.00000000000006L192,515"></path><path id="#path_a" fill="none" stroke-width="5" stroke="#00ffff" stroke-opacity="0.3" d="M216,585L217.00000000000003,585L366,628L415,384L336.00000000000006,379L366,311L324,107.00000000000001L454,127L395,283L312,326L242,360L256,469.99999999999994L282,507L280,613L302,499.00000000000006L192,515"></path><path id="#path_a" fill="none" stroke-width="5" stroke="#00ffff" stroke-opacity="0.3" d="M216,585L217.00000000000003,585L366,628L415,384L336.00000000000006,379L366,311L324,107.00000000000001L454,127L395,283L312,326L242,360L256,469.99999999999994L282,507L280,613L302,499.00000000000006L192,515"></path><path id="#path_a" fill="none" stroke-width="5" stroke="#00ffff" stroke-opacity="0.3" d="M216,585L217.00000000000003,585L366,628L415,384L336.00000000000006,379L366,311L324,107.00000000000001L454,127L395,283L312,326L242,360L256,469.99999999999994L282,507L280,613L302,499.00000000000006L192,515"></path><path id="#path_a" fill="none" stroke-width="5" stroke="#00ffff" stroke-opacity="0.3" d="M216,585L217.00000000000003,585L366,628L415,384L336.00000000000006,379L366,311L324,107.00000000000001L454,127L395,283L312,326L242,360L256,469.99999999999994L282,507L280,613L302,499.00000000000006L192,515"></path><path id="#path_a" fill="none" stroke-width="5" stroke="#00ffff" stroke-opacity="0.3" d="M216,585L217.00000000000003,585L366,628L415,384L336.00000000000006,379L366,311L324,107.00000000000001L454,127L395,283L312,326L242,360L256,469.99999999999994L282,507L280,613L302,499.00000000000006L192,515"></path><path id="#path_a" fill="none" stroke-width="5" stroke="#00ffff" stroke-opacity="0.3" d="M216,585L217.00000000000003,585L366,628L415,384L336.00000000000006,379L366,311L324,107.00000000000001L454,127L395,283L312,326L242,360L256,469.99999999999994L282,507L280,613L302,499.00000000000006L192,515"></path><path id="#path_a" fill="none" stroke-width="5" stroke="#00ffff" stroke-opacity="0.3" d="M216,585L217.00000000000003,585L366,628L415,384L336.00000000000006,379L366,311L324,107.00000000000001L454,127L395,283L312,326L242,360L256,469.99999999999994L282,507L280,613L302,499.00000000000006L192,515"></path><path id="#path_a" fill="none" stroke-width="5" stroke="#00ffff" stroke-opacity="0.3" d="M216,585L217.00000000000003,585L366,628L415,384L336.00000000000006,379L366,311L324,107.00000000000001L454,127L395,283L312,326L242,360L256,469.99999999999994L282,507L280,613L302,499.00000000000006L192,515"></path><path id="#path_a" fill="none" stroke-width="5" stroke="#00ffff" stroke-opacity="0.3" d="M216,585L217.00000000000003,585L366,628L415,384L336.00000000000006,379L366,311L324,107.00000000000001L454,127L395,283L312,326L242,360L256,469.99999999999994L282,507L280,613L302,499.00000000000006L192,515"></path><path id="#path_a" fill="none" stroke-width="5" stroke="#00ffff" stroke-opacity="0.3" d="M216,585L217.00000000000003,585L366,628L415,384L336.00000000000006,379L366,311L324,107.00000000000001L454,127L395,283L312,326L242,360L256,469.99999999999994L282,507L280,613L302,499.00000000000006L192,515"></path><path id="#path_a" fill="none" stroke-width="5" stroke="#00ffff" stroke-opacity="0.3" d="M216,585L217.00000000000003,585L366,628L415,384L336.00000000000006,379L366,311L324,107.00000000000001L454,127L395,283L312,326L242,360L256,469.99999999999994L282,507L280,613L302,499.00000000000006L192,515"></path><path id="#path_a" fill="none" stroke-width="5" stroke="#00ffff" stroke-opacity="0.3" d="M216,585L217.00000000000003,585L366,628L415,384L336.00000000000006,379L366,311L324,107.00000000000001L454,127L395,283L312,326L242,360L256,469.99999999999994L282,507L280,613L302,499.00000000000006L192,515"></path><path id="#path_a" fill="none" stroke-width="5" stroke="#00ffff" stroke-opacity="0.3" d="M216,585L217.00000000000003,585L366,628L415,384L336.00000000000006,379L366,311L324,107.00000000000001L454,127L395,283L312,326L242,360L256,469.99999999999994L282,507L280,613L302,499.00000000000006L192,515"></path><path id="#path_a" fill="none" stroke-width="5" stroke="#00ffff" stroke-opacity="0.3" d="M216,585L217.00000000000003,585L366,628L415,384L336.00000000000006,379L366,311L324,107.00000000000001L454,127L395,283L312,326L242,360L256,469.99999999999994L282,507L280,613L302,499.00000000000006L192,515"></path><path id="#path_a" fill="none" stroke-width="5" stroke="#00ffff" stroke-opacity="0.3" d="M216,585L217.00000000000003,585L366,628L415,384L336.00000000000006,379L366,311L324,107.00000000000001L454,127L395,283L312,326L242,360L256,469.99999999999994L282,507L280,613L302,499.00000000000006L192,515"></path><path id="#path_a" fill="none" stroke-width="5" stroke="#00ffff" stroke-opacity="0.3" d="M216,585L217.00000000000003,585L366,628L415,384L336.00000000000006,379L366,311L324,107.00000000000001L454,127L395,283L312,326L242,360L256,469.99999999999994L282,507L280,613L302,499.00000000000006L192,515"></path><path id="#path_a" fill="none" stroke-width="5" stroke="#00ffff" stroke-opacity="0.3" d="M216,585L217.00000000000003,585L366,628L415,384L336.00000000000006,379L366,311L324,107.00000000000001L454,127L395,283L312,326L242,360L256,469.99999999999994L282,507L280,613L302,499.00000000000006L192,515"></path><path id="#path_a" fill="none" stroke-width="5" stroke="#00ffff" stroke-opacity="0.3" d="M216,585L217.00000000000003,585L366,628L415,384L336.00000000000006,379L366,311L324,107.00000000000001L454,127L395,283L312,326L242,360L256,469.99999999999994L282,507L280,613L302,499.00000000000006L192,515"></path><path id="#path_a" fill="none" stroke-width="5" stroke="#00ffff" stroke-opacity="0.3" d="M216,585L217.00000000000003,585L366,628L415,384L336.00000000000006,379L366,311L324,107.00000000000001L454,127L395,283L312,326L242,360L256,469.99999999999994L282,507L280,613L302,499.00000000000006L192,515"></path><path id="#path_a" fill="none" stroke-width="5" stroke="#00ffff" stroke-opacity="0.3" d="M216,585L217.00000000000003,585L366,628L415,384L336.00000000000006,379L366,311L324,107.00000000000001L454,127L395,283L312,326L242,360L256,469.99999999999994L282,507L280,613L302,499.00000000000006L192,515"></path><path id="#path_a" fill="none" stroke-width="5" stroke="#00ffff" stroke-opacity="0.3" d="M216,585L217.00000000000003,585L366,628L415,384L336.00000000000006,379L366,311L324,107.00000000000001L454,127L395,283L312,326L242,360L256,469.99999999999994L282,507L280,613L302,499.00000000000006L192,515"></path><path id="#path_a" fill="none" stroke-width="5" stroke="#00ffff" stroke-opacity="0.3" d="M216,585L217.00000000000003,585L366,628L415,384L336.00000000000006,379L366,311L324,107.00000000000001L454,127L395,283L312,326L242,360L256,469.99999999999994L282,507L280,613L302,499.00000000000006L192,515"></path><path id="#path_a" fill="none" stroke-width="5" stroke="#00ffff" stroke-opacity="0.3" d="M216,585L217.00000000000003,585L366,628L415,384L336.00000000000006,379L366,311L324,107.00000000000001L454,127L395,283L312,326L242,360L256,469.99999999999994L282,507L280,613L302,499.00000000000006L192,515"></path><path id="#path_a" fill="none" stroke-width="5" stroke="#00ffff" stroke-opacity="0.3" d="M216,585L217.00000000000003,585L366,628L415,384L336.00000000000006,379L366,311L324,107.00000000000001L454,127L395,283L312,326L242,360L256,469.99999999999994L282,507L280,613L302,499.00000000000006L192,515"></path><path id="#path_a" fill="none" stroke-width="5" stroke="#00ffff" stroke-opacity="0.3" d="M216,585L217.00000000000003,585L366,628L415,384L336.00000000000006,379L366,311L324,107.00000000000001L454,127L395,283L312,326L242,360L256,469.99999999999994L282,507L280,613L302,499.00000000000006L192,515"></path><path id="#path_a" fill="none" stroke-width="5" stroke="#00ffff" stroke-opacity="0.3" d="M216,585L217.00000000000003,585L366,628L415,384L336.00000000000006,379L366,311L324,107.00000000000001L454,127L395,283L312,326L242,360L256,469.99999999999994L282,507L280,613L302,499.00000000000006L192,515"></path><path id="#path_a" fill="none" stroke-width="5" stroke="#00ffff" stroke-opacity="0.3" d="M216,585L217.00000000000003,585L366,628L415,384L336.00000000000006,379L366,311L324,107.00000000000001L454,127L395,283L312,326L242,360L256,469.99999999999994L282,507L280,613L302,499.00000000000006L192,515"></path><path id="#path_a" fill="none" stroke-width="5" stroke="#00ffff" stroke-opacity="0.3" d="M216,585L217.00000000000003,585L366,628L415,384L336.00000000000006,379L366,311L324,107.00000000000001L454,127L395,283L312,326L242,360L256,469.99999999999994L282,507L280,613L302,499.00000000000006L192,515"></path><path id="#path_a" fill="none" stroke-width="5" stroke="#00ffff" stroke-opacity="0.3" d="M216,585L217.00000000000003,585L366,628L415,384L336.00000000000006,379L366,311L324,107.00000000000001L454,127L395,283L312,326L242,360L256,469.99999999999994L282,507L280,613L302,499.00000000000006L192,515"></path><path id="#path_a" fill="none" stroke-width="5" stroke="#00ffff" stroke-opacity="0.3" d="M216,585L217.00000000000003,585L366,628L415,384L336.00000000000006,379L366,311L324,107.00000000000001L454,127L395,283L312,326L242,360L256,469.99999999999994L282,507L280,613L302,499.00000000000006L192,515"></path><path id="#path_a" fill="none" stroke-width="5" stroke="#00ffff" stroke-opacity="0.3" d="M216,585L217.00000000000003,585L366,628L415,384L336.00000000000006,379L366,311L324,107.00000000000001L454,127L395,283L312,326L242,360L256,469.99999999999994L282,507L280,613L302,499.00000000000006L192,515"></path><path id="#path_a" fill="none" stroke-width="5" stroke="#00ffff" stroke-opacity="0.3" d="M216,585L217.00000000000003,585L366,628L415,384L336.00000000000006,379L366,311L324,107.00000000000001L454,127L395,283L312,326L242,360L256,469.99999999999994L282,507L280,613L302,499.00000000000006L192,515"></path><path id="#path_a" fill="none" stroke-width="5" stroke="#00ffff" stroke-opacity="0.3" d="M216,585L217.00000000000003,585L366,628L415,384L336.00000000000006,379L366,311L324,107.00000000000001L454,127L395,283L312,326L242,360L256,469.99999999999994L282,507L280,613L302,499.00000000000006L192,515"></path><path id="#path_a" fill="none" stroke-width="5" stroke="#00ffff" stroke-opacity="0.3" d="M216,585L217.00000000000003,585L366,628L415,384L336.00000000000006,379L366,311L324,107.00000000000001L454,127L395,283L312,326L242,360L256,469.99999999999994L282,507L280,613L302,499.00000000000006L192,515"></path><path id="#path_a" fill="none" stroke-width="5" stroke="#00ffff" stroke-opacity="0.3" d="M216,585L217.00000000000003,585L366,628L415,384L336.00000000000006,379L366,311L324,107.00000000000001L454,127L395,283L312,326L242,360L256,469.99999999999994L282,507L280,613L302,499.00000000000006L192,515"></path><path id="#path_a" fill="none" stroke-width="5" stroke="#00ffff" stroke-opacity="0.3" d="M216,585L217.00000000000003,585L366,628L415,384L336.00000000000006,379L366,311L324,107.00000000000001L454,127L395,283L312,326L242,360L256,469.99999999999994L282,507L280,613L302,499.00000000000006L192,515"></path><path id="#path_a" fill="none" stroke-width="5" stroke="#00ffff" stroke-opacity="0.3" d="M216,585L217.00000000000003,585L366,628L415,384L336.00000000000006,379L366,311L324,107.00000000000001L454,127L395,283L312,326L242,360L256,469.99999999999994L282,507L280,613L302,499.00000000000006L192,515"></path><path id="#path_a" fill="none" stroke-width="5" stroke="#00ffff" stroke-opacity="0.3" d="M216,585L217.00000000000003,585L366,628L415,384L336.00000000000006,379L366,311L324,107.00000000000001L454,127L395,283L312,326L242,360L256,469.99999999999994L282,507L280,613L302,499.00000000000006L192,515"></path><path id="#path_a" fill="none" stroke-width="5" stroke="#00ffff" stroke-opacity="0.3" d="M216,585L217.00000000000003,585L366,628L415,384L336.00000000000006,379L366,311L324,107.00000000000001L454,127L395,283L312,326L242,360L256,469.99999999999994L282,507L280,613L302,499.00000000000006L192,515"></path><path id="#path_a" fill="none" stroke-width="5" stroke="#00ffff" stroke-opacity="0.3" d="M216,585L217.00000000000003,585L366,628L415,384L336.00000000000006,379L366,311L324,107.00000000000001L454,127L395,283L312,326L242,360L256,469.99999999999994L282,507L280,613L302,499.00000000000006L192,515"></path><path id="#path_a" fill="none" stroke-width="5" stroke="#00ffff" stroke-opacity="0.3" d="M216,585L217.00000000000003,585L366,628L415,384L336.00000000000006,379L366,311L324,107.00000000000001L454,127L395,283L312,326L242,360L256,469.99999999999994L282,507L280,613L302,499.00000000000006L192,515"></path><path id="#path_a" fill="none" stroke-width="5" stroke="#00ffff" stroke-opacity="0.3" d="M216,585L217.00000000000003,585L366,628L415,384L336.00000000000006,379L366,311L324,107.00000000000001L454,127L395,283L312,326L242,360L256,469.99999999999994L282,507L280,613L302,499.00000000000006L192,515"></path><path id="#path_a" fill="none" stroke-width="5" stroke="#00ffff" stroke-opacity="0.3" d="M216,585L217.00000000000003,585L366,628L415,384L336.00000000000006,379L366,311L324,107.00000000000001L454,127L395,283L312,326L242,360L256,469.99999999999994L282,507L280,613L302,499.00000000000006L192,515"></path><path id="#path_a" fill="none" stroke-width="5" stroke="#00ffff" stroke-opacity="0.3" d="M216,585L217.00000000000003,585L366,628L415,384L336.00000000000006,379L366,311L324,107.00000000000001L454,127L395,283L312,326L242,360L256,469.99999999999994L282,507L280,613L302,499.00000000000006L192,515"></path><path id="#path_a" fill="none" stroke-width="5" stroke="#00ffff" stroke-opacity="0.3" d="M216,585L217.00000000000003,585L366,628L415,384L336.00000000000006,379L366,311L324,107.00000000000001L454,127L395,283L312,326L242,360L256,469.99999999999994L282,507L280,613L302,499.00000000000006L192,515"></path><path id="#path_a" fill="none" stroke-width="5" stroke="#00ffff" stroke-opacity="0.3" d="M216,585L217.00000000000003,585L366,628L415,384L336.00000000000006,379L366,311L324,107.00000000000001L454,127L395,283L312,326L242,360L256,469.99999999999994L282,507L280,613L302,499.00000000000006L192,515"></path><path id="#path_a" fill="none" stroke-width="5" stroke="#00ffff" stroke-opacity="0.3" d="M216,585L217.00000000000003,585L366,628L415,384L336.00000000000006,379L366,311L324,107.00000000000001L454,127L395,283L312,326L242,360L256,469.99999999999994L282,507L280,613L302,499.00000000000006L192,515"></path><path id="#path_a" fill="none" stroke-width="5" stroke="#00ffff" stroke-opacity="0.3" d="M216,585L217.00000000000003,585L366,628L415,384L336.00000000000006,379L366,311L324,107.00000000000001L454,127L395,283L312,326L242,360L256,469.99999999999994L282,507L280,613L302,499.00000000000006L192,515"></path><path id="#path_a" fill="none" stroke-width="5" stroke="#00ffff" stroke-opacity="0.3" d="M216,585L217.00000000000003,585L366,628L415,384L336.00000000000006,379L366,311L324,107.00000000000001L454,127L395,283L312,326L242,360L256,469.99999999999994L282,507L280,613L302,499.00000000000006L192,515"></path><path id="#path_a" fill="none" stroke-width="5" stroke="#00ffff" stroke-opacity="0.3" d="M216,585L217.00000000000003,585L366,628L415,384L336.00000000000006,379L366,311L324,107.00000000000001L454,127L395,283L312,326L242,360L256,469.99999999999994L282,507L280,613L302,499.00000000000006L192,515"></path><path id="#path_a" fill="none" stroke-width="5" stroke="#00ffff" stroke-opacity="0.3" d="M216,585L217.00000000000003,585L366,628L415,384L336.00000000000006,379L366,311L324,107.00000000000001L454,127L395,283L312,326L242,360L256,469.99999999999994L282,507L280,613L302,499.00000000000006L192,515"></path><path id="#path_a" fill="none" stroke-width="5" stroke="#00ffff" stroke-opacity="0.3" d="M216,585L217.00000000000003,585L366,628L415,384L336.00000000000006,379L366,311L324,107.00000000000001L454,127L395,283L312,326L242,360L256,469.99999999999994L282,507L280,613L302,499.00000000000006L192,515"></path><path id="#path_a" fill="none" stroke-width="5" stroke="#00ffff" stroke-opacity="0.3" d="M216,585L217.00000000000003,585L366,628L415,384L336.00000000000006,379L366,311L324,107.00000000000001L454,127L395,283L312,326L242,360L256,469.99999999999994L282,507L280,613L302,499.00000000000006L192,515"></path><path id="#path_a" fill="none" stroke-width="5" stroke="#00ffff" stroke-opacity="0.3" d="M216,585L217.00000000000003,585L366,628L415,384L336.00000000000006,379L366,311L324,107.00000000000001L454,127L395,283L312,326L242,360L256,469.99999999999994L282,507L280,613L302,499.00000000000006L192,515"></path><path id="#path_a" fill="none" stroke-width="5" stroke="#00ffff" stroke-opacity="0.3" d="M216,585L217.00000000000003,585L366,628L415,384L336.00000000000006,379L366,311L324,107.00000000000001L454,127L395,283L312,326L242,360L256,469.99999999999994L282,507L280,613L302,499.00000000000006L192,515"></path><path id="#path_a" fill="none" stroke-width="5" stroke="#00ffff" stroke-opacity="0.3" d="M216,585L217.00000000000003,585L366,628L415,384L336.00000000000006,379L366,311L324,107.00000000000001L454,127L395,283L312,326L242,360L256,469.99999999999994L282,507L280,613L302,499.00000000000006L192,515"></path><path id="#path_a" fill="none" stroke-width="5" stroke="#00ffff" stroke-opacity="0.3" d="M216,585L217.00000000000003,585L366,628L415,384L336.00000000000006,379L366,311L324,107.00000000000001L454,127L395,283L312,326L242,360L256,469.99999999999994L282,507L280,613L302,499.00000000000006L192,515"></path><path id="#path_a" fill="none" stroke-width="5" stroke="#00ffff" stroke-opacity="0.3" d="M216,585L217.00000000000003,585L366,628L415,384L336.00000000000006,379L366,311L324,107.00000000000001L454,127L395,283L312,326L242,360L256,469.99999999999994L282,507L280,613L302,499.00000000000006L192,515"></path><path id="#path_a" fill="none" stroke-width="5" stroke="#00ffff" stroke-opacity="0.3" d="M216,585L217.00000000000003,585L366,628L415,384L336.00000000000006,379L366,311L324,107.00000000000001L454,127L395,283L312,326L242,360L256,469.99999999999994L282,507L280,613L302,499.00000000000006L192,515"></path><path id="#path_a" fill="none" stroke-width="5" stroke="#00ffff" stroke-opacity="0.3" d="M216,585L217.00000000000003,585L366,628L415,384L336.00000000000006,379L366,311L324,107.00000000000001L454,127L395,283L312,326L242,360L256,469.99999999999994L282,507L280,613L302,499.00000000000006L192,515"></path><path id="#path_a" fill="none" stroke-width="5" stroke="#00ffff" stroke-opacity="0.3" d="M216,585L217.00000000000003,585L366,628L415,384L336.00000000000006,379L366,311L324,107.00000000000001L454,127L395,283L312,326L242,360L256,469.99999999999994L282,507L280,613L302,499.00000000000006L192,515"></path><path id="#path_a" fill="none" stroke-width="5" stroke="#00ffff" stroke-opacity="0.3" d="M216,585L217.00000000000003,585L366,628L415,384L336.00000000000006,379L366,311L324,107.00000000000001L454,127L395,283L312,326L242,360L256,469.99999999999994L282,507L280,613L302,499.00000000000006L192,515"></path><path id="#path_a" fill="none" stroke-width="5" stroke="#00ffff" stroke-opacity="0.3" d="M216,585L217.00000000000003,585L366,628L415,384L336.00000000000006,379L366,311L324,107.00000000000001L454,127L395,283L312,326L242,360L256,469.99999999999994L282,507L280,613L302,499.00000000000006L192,515"></path><path id="#path_a" fill="none" stroke-width="5" stroke="#00ffff" stroke-opacity="0.3" d="M216,585L217.00000000000003,585L366,628L415,384L336.00000000000006,379L366,311L324,107.00000000000001L454,127L395,283L312,326L242,360L256,469.99999999999994L282,507L280,613L302,499.00000000000006L192,515"></path><path id="#path_a" fill="none" stroke-width="5" stroke="#00ffff" stroke-opacity="0.3" d="M216,585L217.00000000000003,585L366,628L415,384L336.00000000000006,379L366,311L324,107.00000000000001L454,127L395,283L312,326L242,360L256,469.99999999999994L282,507L280,613L302,499.00000000000006L192,515"></path><path id="#path_a" fill="none" stroke-width="5" stroke="#00ffff" stroke-opacity="0.3" d="M216,585L217.00000000000003,585L366,628L415,384L336.00000000000006,379L366,311L324,107.00000000000001L454,127L395,283L312,326L242,360L256,469.99999999999994L282,507L280,613L302,499.00000000000006L192,515"></path><path id="#path_a" fill="none" stroke-width="5" stroke="#00ffff" stroke-opacity="0.3" d="M216,585L217.00000000000003,585L366,628L415,384L336.00000000000006,379L366,311L324,107.00000000000001L454,127L395,283L312,326L242,360L256,469.99999999999994L282,507L280,613L302,499.00000000000006L192,515"></path><path id="#path_a" fill="none" stroke-width="5" stroke="#00ffff" stroke-opacity="0.3" d="M216,585L217.00000000000003,585L366,628L415,384L336.00000000000006,379L366,311L324,107.00000000000001L454,127L395,283L312,326L242,360L256,469.99999999999994L282,507L280,613L302,499.00000000000006L192,515"></path><path id="#path_a" fill="none" stroke-width="5" stroke="#00ffff" stroke-opacity="0.3" d="M216,585L217.00000000000003,585L366,628L415,384L336.00000000000006,379L366,311L324,107.00000000000001L454,127L395,283L312,326L242,360L256,469.99999999999994L282,507L280,613L302,499.00000000000006L192,515"></path><path id="#path_a" fill="none" stroke-width="5" stroke="#00ffff" stroke-opacity="0.3" d="M216,585L217.00000000000003,585L366,628L415,384L336.00000000000006,379L366,311L324,107.00000000000001L454,127L395,283L312,326L242,360L256,469.99999999999994L282,507L280,613L302,499.00000000000006L192,515"></path><path id="#path_a" fill="none" stroke-width="5" stroke="#00ffff" stroke-opacity="0.3" d="M216,585L217.00000000000003,585L366,628L415,384L336.00000000000006,379L366,311L324,107.00000000000001L454,127L395,283L312,326L242,360L256,469.99999999999994L282,507L280,613L302,499.00000000000006L192,515"></path><path id="#path_a" fill="none" stroke-width="5" stroke="#00ffff" stroke-opacity="0.3" d="M216,585L217.00000000000003,585L366,628L415,384L336.00000000000006,379L366,311L324,107.00000000000001L454,127L395,283L312,326L242,360L256,469.99999999999994L282,507L280,613L302,499.00000000000006L192,515"></path><path id="#path_a" fill="none" stroke-width="5" stroke="#00ffff" stroke-opacity="0.3" d="M216,585L217.00000000000003,585L366,628L415,384L336.00000000000006,379L366,311L324,107.00000000000001L454,127L395,283L312,326L242,360L256,469.99999999999994L282,507L280,613L302,499.00000000000006L192,515"></path><path id="#path_a" fill="none" stroke-width="5" stroke="#00ffff" stroke-opacity="0.3" d="M216,585L217.00000000000003,585L366,628L415,384L336.00000000000006,379L366,311L324,107.00000000000001L454,127L395,283L312,326L242,360L256,469.99999999999994L282,507L280,613L302,499.00000000000006L192,515"></path><path id="#path_a" fill="none" stroke-width="5" stroke="#00ffff" stroke-opacity="0.3" d="M216,585L217.00000000000003,585L366,628L415,384L336.00000000000006,379L366,311L324,107.00000000000001L454,127L395,283L312,326L242,360L256,469.99999999999994L282,507L280,613L302,499.00000000000006L192,515"></path><path id="#path_a" fill="none" stroke-width="5" stroke="#00ffff" stroke-opacity="0.3" d="M216,585L217.00000000000003,585L366,628L415,384L336.00000000000006,379L366,311L324,107.00000000000001L454,127L395,283L312,326L242,360L256,469.99999999999994L282,507L280,613L302,499.00000000000006L192,515"></path><path id="#path_a" fill="none" stroke-width="5" stroke="#00ffff" stroke-opacity="0.3" d="M216,585L217.00000000000003,585L366,628L415,384L336.00000000000006,379L366,311L324,107.00000000000001L454,127L395,283L312,326L242,360L256,469.99999999999994L282,507L280,613L302,499.00000000000006L192,515"></path><path id="#path_a" fill="none" stroke-width="5" stroke="#00ffff" stroke-opacity="0.3" d="M216,585L217.00000000000003,585L366,628L415,384L336.00000000000006,379L366,311L324,107.00000000000001L454,127L395,283L312,326L242,360L256,469.99999999999994L282,507L280,613L302,499.00000000000006L192,515"></path><path id="#path_a" fill="none" stroke-width="5" stroke="#00ffff" stroke-opacity="0.3" d="M216,585L217.00000000000003,585L366,628L415,384L336.00000000000006,379L366,311L324,107.00000000000001L454,127L395,283L312,326L242,360L256,469.99999999999994L282,507L280,613L302,499.00000000000006L192,515"></path><path id="#path_a" fill="none" stroke-width="5" stroke="#00ffff" stroke-opacity="0.3" d="M216,585L217.00000000000003,585L366,628L415,384L336.00000000000006,379L366,311L324,107.00000000000001L454,127L395,283L312,326L242,360L256,469.99999999999994L282,507L280,613L302,499.00000000000006L192,515"></path><path id="#path_a" fill="none" stroke-width="5" stroke="#00ffff" stroke-opacity="0.3" d="M216,585L217.00000000000003,585L366,628L415,384L336.00000000000006,379L366,311L324,107.00000000000001L454,127L395,283L312,326L242,360L256,469.99999999999994L282,507L280,613L302,499.00000000000006L192,515"></path><path id="#path_a" fill="none" stroke-width="5" stroke="#00ffff" stroke-opacity="0.3" d="M216,585L217.00000000000003,585L366,628L415,384L336.00000000000006,379L366,311L324,107.00000000000001L454,127L395,283L312,326L242,360L256,469.99999999999994L282,507L280,613L302,499.00000000000006L192,515"></path><path id="#path_a" fill="none" stroke-width="5" stroke="#00ffff" stroke-opacity="0.3" d="M216,585L217.00000000000003,585L366,628L415,384L336.00000000000006,379L366,311L324,107.00000000000001L454,127L395,283L312,326L242,360L256,469.99999999999994L282,507L280,613L302,499.00000000000006L192,515"></path><path id="#path_a" fill="none" stroke-width="5" stroke="#00ffff" stroke-opacity="0.3" d="M216,585L217.00000000000003,585L366,628L415,384L336.00000000000006,379L366,311L324,107.00000000000001L454,127L395,283L312,326L242,360L256,469.99999999999994L282,507L280,613L302,499.00000000000006L192,515"></path><path id="#path_a" fill="none" stroke-width="5" stroke="#00ffff" stroke-opacity="0.3" d="M216,585L217.00000000000003,585L366,628L415,384L336.00000000000006,379L366,311L324,107.00000000000001L454,127L395,283L312,326L242,360L256,469.99999999999994L282,507L280,613L302,499.00000000000006L192,515"></path><path id="#path_a" fill="none" stroke-width="5" stroke="#00ffff" stroke-opacity="0.3" d="M216,585L217.00000000000003,585L366,628L415,384L336.00000000000006,379L366,311L324,107.00000000000001L454,127L395,283L312,326L242,360L256,469.99999999999994L282,507L280,613L302,499.00000000000006L192,515"></path><path id="#path_a" fill="none" stroke-width="5" stroke="#00ffff" stroke-opacity="0.3" d="M216,585L217.00000000000003,585L366,628L415,384L336.00000000000006,379L366,311L324,107.00000000000001L454,127L395,283L312,326L242,360L256,469.99999999999994L282,507L280,613L302,499.00000000000006L192,515"></path><path id="#path_a" fill="none" stroke-width="5" stroke="#00ffff" stroke-opacity="0.3" d="M216,585L217.00000000000003,585L366,628L415,384L336.00000000000006,379L366,311L324,107.00000000000001L454,127L395,283L312,326L242,360L256,469.99999999999994L282,507L280,613L302,499.00000000000006L192,515"></path><path id="#path_a" fill="none" stroke-width="5" stroke="#00ffff" stroke-opacity="0.3" d="M216,585L217.00000000000003,585L366,628L415,384L336.00000000000006,379L366,311L324,107.00000000000001L454,127L395,283L312,326L242,360L256,469.99999999999994L282,507L280,613L302,499.00000000000006L192,515"></path><path id="#path_a" fill="none" stroke-width="5" stroke="#00ffff" stroke-opacity="0.3" d="M216,585L217.00000000000003,585L366,628L415,384L336.00000000000006,379L366,311L324,107.00000000000001L454,127L395,283L312,326L242,360L256,469.99999999999994L282,507L280,613L302,499.00000000000006L192,515"></path><path id="#path_a" fill="none" stroke-width="5" stroke="#00ffff" stroke-opacity="0.3" d="M216,585L217.00000000000003,585L366,628L415,384L336.00000000000006,379L366,311L324,107.00000000000001L454,127L395,283L312,326L242,360L256,469.99999999999994L282,507L280,613L302,499.00000000000006L192,515"></path><path id="#path_a" fill="none" stroke-width="5" stroke="#00ffff" stroke-opacity="0.3" d="M216,585L217.00000000000003,585L366,628L415,384L336.00000000000006,379L366,311L324,107.00000000000001L454,127L395,283L312,326L242,360L256,469.99999999999994L282,507L280,613L302,499.00000000000006L192,515"></path><path id="#path_a" fill="none" stroke-width="5" stroke="#00ffff" stroke-opacity="0.3" d="M216,585L217.00000000000003,585L366,628L415,384L336.00000000000006,379L366,311L324,107.00000000000001L454,127L395,283L312,326L242,360L256,469.99999999999994L282,507L280,613L302,499.00000000000006L192,515"></path><path id="#path_a" fill="none" stroke-width="5" stroke="#00ffff" stroke-opacity="0.3" d="M216,585L217.00000000000003,585L366,628L415,384L336.00000000000006,379L366,311L324,107.00000000000001L454,127L395,283L312,326L242,360L256,469.99999999999994L282,507L280,613L302,499.00000000000006L192,515"></path><path id="#path_a" fill="none" stroke-width="5" stroke="#00ffff" stroke-opacity="0.3" d="M216,585L217.00000000000003,585L366,628L415,384L336.00000000000006,379L366,311L324,107.00000000000001L454,127L395,283L312,326L242,360L256,469.99999999999994L282,507L280,613L302,499.00000000000006L192,515"></path><path id="#path_a" fill="none" stroke-width="5" stroke="#00ffff" stroke-opacity="0.3" d="M216,585L217.00000000000003,585L366,628L415,384L336.00000000000006,379L366,311L324,107.00000000000001L454,127L395,283L312,326L242,360L256,469.99999999999994L282,507L280,613L302,499.00000000000006L192,515"></path><path id="#path_a" fill="none" stroke-width="5" stroke="#00ffff" stroke-opacity="0.3" d="M216,585L217.00000000000003,585L366,628L415,384L336.00000000000006,379L366,311L324,107.00000000000001L454,127L395,283L312,326L242,360L256,469.99999999999994L282,507L280,613L302,499.00000000000006L192,515"></path><path id="#path_a" fill="none" stroke-width="5" stroke="#00ffff" stroke-opacity="0.3" d="M216,585L217.00000000000003,585L366,628L415,384L336.00000000000006,379L366,311L324,107.00000000000001L454,127L395,283L312,326L242,360L256,469.99999999999994L282,507L280,613L302,499.00000000000006L192,515"></path><path id="#path_a" fill="none" stroke-width="5" stroke="#00ffff" stroke-opacity="0.3" d="M216,585L217.00000000000003,585L366,628L415,384L336.00000000000006,379L366,311L324,107.00000000000001L454,127L395,283L312,326L242,360L256,469.99999999999994L282,507L280,613L302,499.00000000000006L192,515"></path><path id="#path_a" fill="none" stroke-width="5" stroke="#00ffff" stroke-opacity="0.3" d="M216,585L217.00000000000003,585L366,628L415,384L336.00000000000006,379L366,311L324,107.00000000000001L454,127L395,283L312,326L242,360L256,469.99999999999994L282,507L280,613L302,499.00000000000006L192,515"></path><path id="#path_a" fill="none" stroke-width="5" stroke="#00ffff" stroke-opacity="0.3" d="M216,585L217.00000000000003,585L366,628L415,384L336.00000000000006,379L366,311L324,107.00000000000001L454,127L395,283L312,326L242,360L256,469.99999999999994L282,507L280,613L302,499.00000000000006L192,515"></path><path id="#path_a" fill="none" stroke-width="5" stroke="#00ffff" stroke-opacity="0.3" d="M216,585L217.00000000000003,585L366,628L415,384L336.00000000000006,379L366,311L324,107.00000000000001L454,127L395,283L312,326L242,360L256,469.99999999999994L282,507L280,613L302,499.00000000000006L192,515"></path><path id="#path_a" fill="none" stroke-width="5" stroke="#00ffff" stroke-opacity="0.3" d="M216,585L217.00000000000003,585L366,628L415,384L336.00000000000006,379L366,311L324,107.00000000000001L454,127L395,283L312,326L242,360L256,469.99999999999994L282,507L280,613L302,499.00000000000006L192,515"></path><path id="#path_a" fill="none" stroke-width="5" stroke="#00ffff" stroke-opacity="0.3" d="M216,585L217.00000000000003,585L366,628L415,384L336.00000000000006,379L366,311L324,107.00000000000001L454,127L395,283L312,326L242,360L256,469.99999999999994L282,507L280,613L302,499.00000000000006L192,515"></path><path id="#path_a" fill="none" stroke-width="5" stroke="#00ffff" stroke-opacity="0.3" d="M216,585L217.00000000000003,585L366,628L415,384L336.00000000000006,379L366,311L324,107.00000000000001L454,127L395,283L312,326L242,360L256,469.99999999999994L282,507L280,613L302,499.00000000000006L192,515"></path><path id="#path_a" fill="none" stroke-width="5" stroke="#00ffff" stroke-opacity="0.3" d="M216,585L217.00000000000003,585L366,628L415,384L336.00000000000006,379L366,311L324,107.00000000000001L454,127L395,283L312,326L242,360L256,469.99999999999994L282,507L280,613L302,499.00000000000006L192,515"></path><path id="#path_a" fill="none" stroke-width="5" stroke="#00ffff" stroke-opacity="0.3" d="M216,585L217.00000000000003,585L366,628L415,384L336.00000000000006,379L366,311L324,107.00000000000001L454,127L395,283L312,326L242,360L256,469.99999999999994L282,507L280,613L302,499.00000000000006L192,515"></path><path id="#path_a" fill="none" stroke-width="5" stroke="#00ffff" stroke-opacity="0.3" d="M216,585L217.00000000000003,585L366,628L415,384L336.00000000000006,379L366,311L324,107.00000000000001L454,127L395,283L312,326L242,360L256,469.99999999999994L282,507L280,613L302,499.00000000000006L192,515"></path><path id="#path_a" fill="none" stroke-width="5" stroke="#00ffff" stroke-opacity="0.3" d="M216,585L217.00000000000003,585L366,628L415,384L336.00000000000006,379L366,311L324,107.00000000000001L454,127L395,283L312,326L242,360L256,469.99999999999994L282,507L280,613L302,499.00000000000006L192,515"></path><path id="#path_a" fill="none" stroke-width="5" stroke="#00ffff" stroke-opacity="0.3" d="M216,585L217.00000000000003,585L366,628L415,384L336.00000000000006,379L366,311L324,107.00000000000001L454,127L395,283L312,326L242,360L256,469.99999999999994L282,507L280,613L302,499.00000000000006L192,515"></path><path id="#path_a" fill="none" stroke-width="5" stroke="#00ffff" stroke-opacity="0.3" d="M216,585L217.00000000000003,585L366,628L415,384L336.00000000000006,379L366,311L324,107.00000000000001L454,127L395,283L312,326L242,360L256,469.99999999999994L282,507L280,613L302,499.00000000000006L192,515"></path><path id="#path_a" fill="none" stroke-width="5" stroke="#00ffff" stroke-opacity="0.3" d="M216,585L217.00000000000003,585L366,628L415,384L336.00000000000006,379L366,311L324,107.00000000000001L454,127L395,283L312,326L242,360L256,469.99999999999994L282,507L280,613L302,499.00000000000006L192,515"></path><path id="#path_a" fill="none" stroke-width="5" stroke="#00ffff" stroke-opacity="0.3" d="M216,585L217.00000000000003,585L366,628L415,384L336.00000000000006,379L366,311L324,107.00000000000001L454,127L395,283L312,326L242,360L256,469.99999999999994L282,507L280,613L302,499.00000000000006L192,515"></path><path id="#path_a" fill="none" stroke-width="5" stroke="#00ffff" stroke-opacity="0.3" d="M216,585L217.00000000000003,585L366,628L415,384L336.00000000000006,379L366,311L324,107.00000000000001L454,127L395,283L312,326L242,360L256,469.99999999999994L282,507L280,613L302,499.00000000000006L192,515"></path><path id="#path_a" fill="none" stroke-width="5" stroke="#00ffff" stroke-opacity="0.3" d="M216,585L217.00000000000003,585L366,628L415,384L336.00000000000006,379L366,311L324,107.00000000000001L454,127L395,283L312,326L242,360L256,469.99999999999994L282,507L280,613L302,499.00000000000006L192,515"></path><path id="#path_a" fill="none" stroke-width="5" stroke="#00ffff" stroke-opacity="0.3" d="M216,585L217.00000000000003,585L366,628L415,384L336.00000000000006,379L366,311L324,107.00000000000001L454,127L395,283L312,326L242,360L256,469.99999999999994L282,507L280,613L302,499.00000000000006L192,515"></path><path id="#path_a" fill="none" stroke-width="5" stroke="#00ffff" stroke-opacity="0.3" d="M216,585L217.00000000000003,585L366,628L415,384L336.00000000000006,379L366,311L324,107.00000000000001L454,127L395,283L312,326L242,360L256,469.99999999999994L282,507L280,613L302,499.00000000000006L192,515"></path><path id="#path_a" fill="none" stroke-width="5" stroke="#00ffff" stroke-opacity="0.3" d="M216,585L217.00000000000003,585L366,628L415,384L336.00000000000006,379L366,311L324,107.00000000000001L454,127L395,283L312,326L242,360L256,469.99999999999994L282,507L280,613L302,499.00000000000006L192,515"></path><path id="#path_a" fill="none" stroke-width="5" stroke="#00ffff" stroke-opacity="0.3" d="M216,585L217.00000000000003,585L366,628L415,384L336.00000000000006,379L366,311L324,107.00000000000001L454,127L395,283L312,326L242,360L256,469.99999999999994L282,507L280,613L302,499.00000000000006L192,515"></path><path id="#path_a" fill="none" stroke-width="5" stroke="#00ffff" stroke-opacity="0.3" d="M216,585L217.00000000000003,585L366,628L415,384L336.00000000000006,379L366,311L324,107.00000000000001L454,127L395,283L312,326L242,360L256,469.99999999999994L282,507L280,613L302,499.00000000000006L192,515"></path><path id="#path_a" fill="none" stroke-width="5" stroke="#00ffff" stroke-opacity="0.3" d="M216,585L217.00000000000003,585L366,628L415,384L336.00000000000006,379L366,311L324,107.00000000000001L454,127L395,283L312,326L242,360L256,469.99999999999994L282,507L280,613L302,499.00000000000006L192,515"></path><path id="#path_a" fill="none" stroke-width="5" stroke="#00ffff" stroke-opacity="0.3" d="M216,585L217.00000000000003,585L366,628L415,384L336.00000000000006,379L366,311L324,107.00000000000001L454,127L395,283L312,326L242,360L256,469.99999999999994L282,507L280,613L302,499.00000000000006L192,515"></path><path id="#path_a" fill="none" stroke-width="5" stroke="#00ffff" stroke-opacity="0.3" d="M216,585L217.00000000000003,585L366,628L415,384L336.00000000000006,379L366,311L324,107.00000000000001L454,127L395,283L312,326L242,360L256,469.99999999999994L282,507L280,613L302,499.00000000000006L192,515"></path><path id="#path_a" fill="none" stroke-width="5" stroke="#00ffff" stroke-opacity="0.3" d="M216,585L217.00000000000003,585L366,628L415,384L336.00000000000006,379L366,311L324,107.00000000000001L454,127L395,283L312,326L242,360L256,469.99999999999994L282,507L280,613L302,499.00000000000006L192,515"></path><path id="#path_a" fill="none" stroke-width="5" stroke="#00ffff" stroke-opacity="0.3" d="M216,585L217.00000000000003,585L366,628L415,384L336.00000000000006,379L366,311L324,107.00000000000001L454,127L395,283L312,326L242,360L256,469.99999999999994L282,507L280,613L302,499.00000000000006L192,515"></path><path id="#path_a" fill="none" stroke-width="5" stroke="#00ffff" stroke-opacity="0.3" d="M216,585L217.00000000000003,585L366,628L415,384L336.00000000000006,379L366,311L324,107.00000000000001L454,127L395,283L312,326L242,360L256,469.99999999999994L282,507L280,613L302,499.00000000000006L192,515"></path><path id="#path_a" fill="none" stroke-width="5" stroke="#00ffff" stroke-opacity="0.3" d="M216,585L217.00000000000003,585L366,628L415,384L336.00000000000006,379L366,311L324,107.00000000000001L454,127L395,283L312,326L242,360L256,469.99999999999994L282,507L280,613L302,499.00000000000006L192,515"></path><path id="#path_a" fill="none" stroke-width="5" stroke="#00ffff" stroke-opacity="0.3" d="M216,585L217.00000000000003,585L366,628L415,384L336.00000000000006,379L366,311L324,107.00000000000001L454,127L395,283L312,326L242,360L256,469.99999999999994L282,507L280,613L302,499.00000000000006L192,515"></path><path id="#path_a" fill="none" stroke-width="5" stroke="#00ffff" stroke-opacity="0.3" d="M216,585L217.00000000000003,585L366,628L415,384L336.00000000000006,379L366,311L324,107.00000000000001L454,127L395,283L312,326L242,360L256,469.99999999999994L282,507L280,613L302,499.00000000000006L192,515"></path><path id="#path_a" fill="none" stroke-width="5" stroke="#00ffff" stroke-opacity="0.3" d="M216,585L217.00000000000003,585L366,628L415,384L336.00000000000006,379L366,311L324,107.00000000000001L454,127L395,283L312,326L242,360L256,469.99999999999994L282,507L280,613L302,499.00000000000006L192,515"></path><path id="#path_a" fill="none" stroke-width="5" stroke="#00ffff" stroke-opacity="0.3" d="M216,585L217.00000000000003,585L366,628L415,384L336.00000000000006,379L366,311L324,107.00000000000001L454,127L395,283L312,326L242,360L256,469.99999999999994L282,507L280,613L302,499.00000000000006L192,515"></path><path id="#path_a" fill="none" stroke-width="5" stroke="#00ffff" stroke-opacity="0.3" d="M216,585L217.00000000000003,585L366,628L415,384L336.00000000000006,379L366,311L324,107.00000000000001L454,127L395,283L312,326L242,360L256,469.99999999999994L282,507L280,613L302,499.00000000000006L192,515"></path><path id="#path_a" fill="none" stroke-width="5" stroke="#00ffff" stroke-opacity="0.3" d="M216,585L217.00000000000003,585L366,628L415,384L336.00000000000006,379L366,311L324,107.00000000000001L454,127L395,283L312,326L242,360L256,469.99999999999994L282,507L280,613L302,499.00000000000006L192,515"></path><path id="#path_a" fill="none" stroke-width="5" stroke="#00ffff" stroke-opacity="0.3" d="M216,585L217.00000000000003,585L366,628L415,384L336.00000000000006,379L366,311L324,107.00000000000001L454,127L395,283L312,326L242,360L256,469.99999999999994L282,507L280,613L302,499.00000000000006L192,515"></path><path id="#path_a" fill="none" stroke-width="5" stroke="#00ffff" stroke-opacity="0.3" d="M216,585L217.00000000000003,585L366,628L415,384L336.00000000000006,379L366,311L324,107.00000000000001L454,127L395,283L312,326L242,360L256,469.99999999999994L282,507L280,613L302,499.00000000000006L192,515"></path><path id="#path_a" fill="none" stroke-width="5" stroke="#00ffff" stroke-opacity="0.3" d="M216,585L217.00000000000003,585L366,628L415,384L336.00000000000006,379L366,311L324,107.00000000000001L454,127L395,283L312,326L242,360L256,469.99999999999994L282,507L280,613L302,499.00000000000006L192,515"></path><path id="#path_a" fill="none" stroke-width="5" stroke="#00ffff" stroke-opacity="0.3" d="M216,585L217.00000000000003,585L366,628L415,384L336.00000000000006,379L366,311L324,107.00000000000001L454,127L395,283L312,326L242,360L256,469.99999999999994L282,507L280,613L302,499.00000000000006L192,515"></path><path id="#path_a" fill="none" stroke-width="5" stroke="#00ffff" stroke-opacity="0.3" d="M216,585L217.00000000000003,585L366,628L415,384L336.00000000000006,379L366,311L324,107.00000000000001L454,127L395,283L312,326L242,360L256,469.99999999999994L282,507L280,613L302,499.00000000000006L192,515"></path><path id="#path_a" fill="none" stroke-width="5" stroke="#00ffff" stroke-opacity="0.3" d="M216,585L217.00000000000003,585L366,628L415,384L336.00000000000006,379L366,311L324,107.00000000000001L454,127L395,283L312,326L242,360L256,469.99999999999994L282,507L280,613L302,499.00000000000006L192,515"></path><path id="#path_a" fill="none" stroke-width="5" stroke="#00ffff" stroke-opacity="0.3" d="M216,585L217.00000000000003,585L366,628L415,384L336.00000000000006,379L366,311L324,107.00000000000001L454,127L395,283L312,326L242,360L256,469.99999999999994L282,507L280,613L302,499.00000000000006L192,515"></path><path id="#path_a" fill="none" stroke-width="5" stroke="#00ffff" stroke-opacity="0.3" d="M216,585L217.00000000000003,585L366,628L415,384L336.00000000000006,379L366,311L324,107.00000000000001L454,127L395,283L312,326L242,360L256,469.99999999999994L282,507L280,613L302,499.00000000000006L192,515"></path><path id="#path_a" fill="none" stroke-width="5" stroke="#00ffff" stroke-opacity="0.3" d="M216,585L217.00000000000003,585L366,628L415,384L336.00000000000006,379L366,311L324,107.00000000000001L454,127L395,283L312,326L242,360L256,469.99999999999994L282,507L280,613L302,499.00000000000006L192,515"></path><path id="#path_a" fill="none" stroke-width="5" stroke="#00ffff" stroke-opacity="0.3" d="M216,585L217.00000000000003,585L366,628L415,384L336.00000000000006,379L366,311L324,107.00000000000001L454,127L395,283L312,326L242,360L256,469.99999999999994L282,507L280,613L302,499.00000000000006L192,515"></path><path id="#path_a" fill="none" stroke-width="5" stroke="#00ffff" stroke-opacity="0.3" d="M216,585L217.00000000000003,585L366,628L415,384L336.00000000000006,379L366,311L324,107.00000000000001L454,127L395,283L312,326L242,360L256,469.99999999999994L282,507L280,613L302,499.00000000000006L192,515"></path><path id="#path_a" fill="none" stroke-width="5" stroke="#00ffff" stroke-opacity="0.3" d="M216,585L217.00000000000003,585L366,628L415,384L336.00000000000006,379L366,311L324,107.00000000000001L454,127L395,283L312,326L242,360L256,469.99999999999994L282,507L280,613L302,499.00000000000006L192,515"></path><path id="#path_a" fill="none" stroke-width="5" stroke="#00ffff" stroke-opacity="0.3" d="M216,585L217.00000000000003,585L366,628L415,384L336.00000000000006,379L366,311L324,107.00000000000001L454,127L395,283L312,326L242,360L256,469.99999999999994L282,507L280,613L302,499.00000000000006L192,515"></path><path id="#path_a" fill="none" stroke-width="5" stroke="#00ffff" stroke-opacity="0.3" d="M216,585L217.00000000000003,585L366,628L415,384L336.00000000000006,379L366,311L324,107.00000000000001L454,127L395,283L312,326L242,360L256,469.99999999999994L282,507L280,613L302,499.00000000000006L192,515"></path><path id="#path_a" fill="none" stroke-width="5" stroke="#00ffff" stroke-opacity="0.3" d="M216,585L217.00000000000003,585L366,628L415,384L336.00000000000006,379L366,311L324,107.00000000000001L454,127L395,283L312,326L242,360L256,469.99999999999994L282,507L280,613L302,499.00000000000006L192,515"></path><path id="#path_a" fill="none" stroke-width="5" stroke="#00ffff" stroke-opacity="0.3" d="M216,585L217.00000000000003,585L366,628L415,384L336.00000000000006,379L366,311L324,107.00000000000001L454,127L395,283L312,326L242,360L256,469.99999999999994L282,507L280,613L302,499.00000000000006L192,515"></path><path id="#path_a" fill="none" stroke-width="5" stroke="#00ffff" stroke-opacity="0.3" d="M216,585L217.00000000000003,585L366,628L415,384L336.00000000000006,379L366,311L324,107.00000000000001L454,127L395,283L312,326L242,360L256,469.99999999999994L282,507L280,613L302,499.00000000000006L192,515"></path><path id="#path_a" fill="none" stroke-width="5" stroke="#00ffff" stroke-opacity="0.3" d="M216,585L217.00000000000003,585L366,628L415,384L336.00000000000006,379L366,311L324,107.00000000000001L454,127L395,283L312,326L242,360L256,469.99999999999994L282,507L280,613L302,499.00000000000006L192,515"></path><path id="#path_a" fill="none" stroke-width="5" stroke="#00ffff" stroke-opacity="0.3" d="M216,585L217.00000000000003,585L366,628L415,384L336.00000000000006,379L366,311L324,107.00000000000001L454,127L395,283L312,326L242,360L256,469.99999999999994L282,507L280,613L302,499.00000000000006L192,515"></path><path id="#path_a" fill="none" stroke-width="5" stroke="#00ffff" stroke-opacity="0.3" d="M216,585L217.00000000000003,585L366,628L415,384L336.00000000000006,379L366,311L324,107.00000000000001L454,127L395,283L312,326L242,360L256,469.99999999999994L282,507L280,613L302,499.00000000000006L192,515"></path><path id="#path_a" fill="none" stroke-width="5" stroke="#00ffff" stroke-opacity="0.3" d="M216,585L217.00000000000003,585L366,628L415,384L336.00000000000006,379L366,311L324,107.00000000000001L454,127L395,283L312,326L242,360L256,469.99999999999994L282,507L280,613L302,499.00000000000006L192,515"></path><path id="#path_a" fill="none" stroke-width="5" stroke="#00ffff" stroke-opacity="0.3" d="M216,585L217.00000000000003,585L366,628L415,384L336.00000000000006,379L366,311L324,107.00000000000001L454,127L395,283L312,326L242,360L256,469.99999999999994L282,507L280,613L302,499.00000000000006L192,515"></path><path id="#path_a" fill="none" stroke-width="5" stroke="#00ffff" stroke-opacity="0.3" d="M216,585L217.00000000000003,585L366,628L415,384L336.00000000000006,379L366,311L324,107.00000000000001L454,127L395,283L312,326L242,360L256,469.99999999999994L282,507L280,613L302,499.00000000000006L192,515"></path><path id="#path_a" fill="none" stroke-width="5" stroke="#00ffff" stroke-opacity="0.3" d="M216,585L217.00000000000003,585L366,628L415,384L336.00000000000006,379L366,311L324,107.00000000000001L454,127L395,283L312,326L242,360L256,469.99999999999994L282,507L280,613L302,499.00000000000006L192,515"></path><path id="#path_a" fill="none" stroke-width="5" stroke="#00ffff" stroke-opacity="0.3" d="M216,585L217.00000000000003,585L366,628L415,384L336.00000000000006,379L366,311L324,107.00000000000001L454,127L395,283L312,326L242,360L256,469.99999999999994L282,507L280,613L302,499.00000000000006L192,515"></path><path id="#path_a" fill="none" stroke-width="5" stroke="#00ffff" stroke-opacity="0.3" d="M216,585L217.00000000000003,585L366,628L415,384L336.00000000000006,379L366,311L324,107.00000000000001L454,127L395,283L312,326L242,360L256,469.99999999999994L282,507L280,613L302,499.00000000000006L192,515"></path><path id="#path_a" fill="none" stroke-width="5" stroke="#00ffff" stroke-opacity="0.3" d="M216,585L217.00000000000003,585L366,628L415,384L336.00000000000006,379L366,311L324,107.00000000000001L454,127L395,283L312,326L242,360L256,469.99999999999994L282,507L280,613L302,499.00000000000006L192,515"></path><path id="#path_a" fill="none" stroke-width="5" stroke="#00ffff" stroke-opacity="0.3" d="M216,585L217.00000000000003,585L366,628L415,384L336.00000000000006,379L366,311L324,107.00000000000001L454,127L395,283L312,326L242,360L256,469.99999999999994L282,507L280,613L302,499.00000000000006L192,515"></path><path id="#path_a" fill="none" stroke-width="5" stroke="#00ffff" stroke-opacity="0.3" d="M216,585L217.00000000000003,585L366,628L415,384L336.00000000000006,379L366,311L324,107.00000000000001L454,127L395,283L312,326L242,360L256,469.99999999999994L282,507L280,613L302,499.00000000000006L192,515"></path><path id="#path_a" fill="none" stroke-width="5" stroke="#00ffff" stroke-opacity="0.3" d="M216,585L217.00000000000003,585L366,628L415,384L336.00000000000006,379L366,311L324,107.00000000000001L454,127L395,283L312,326L242,360L256,469.99999999999994L282,507L280,613L302,499.00000000000006L192,515"></path><path id="#path_a" fill="none" stroke-width="5" stroke="#00ffff" stroke-opacity="0.3" d="M216,585L217.00000000000003,585L366,628L415,384L336.00000000000006,379L366,311L324,107.00000000000001L454,127L395,283L312,326L242,360L256,469.99999999999994L282,507L280,613L302,499.00000000000006L192,515"></path><path id="#path_a" fill="none" stroke-width="5" stroke="#00ffff" stroke-opacity="0.3" d="M216,585L217.00000000000003,585L366,628L415,384L336.00000000000006,379L366,311L324,107.00000000000001L454,127L395,283L312,326L242,360L256,469.99999999999994L282,507L280,613L302,499.00000000000006L192,515"></path><path id="#path_a" fill="none" stroke-width="5" stroke="#00ffff" stroke-opacity="0.3" d="M216,585L217.00000000000003,585L366,628L415,384L336.00000000000006,379L366,311L324,107.00000000000001L454,127L395,283L312,326L242,360L256,469.99999999999994L282,507L280,613L302,499.00000000000006L192,515"></path><path id="#path_a" fill="none" stroke-width="5" stroke="#00ffff" stroke-opacity="0.3" d="M216,585L217.00000000000003,585L366,628L415,384L336.00000000000006,379L366,311L324,107.00000000000001L454,127L395,283L312,326L242,360L256,469.99999999999994L282,507L280,613L302,499.00000000000006L192,515"></path><path id="#path_a" fill="none" stroke-width="5" stroke="#00ffff" stroke-opacity="0.3" d="M216,585L217.00000000000003,585L366,628L415,384L336.00000000000006,379L366,311L324,107.00000000000001L454,127L395,283L312,326L242,360L256,469.99999999999994L282,507L280,613L302,499.00000000000006L192,515"></path><path id="#path_a" fill="none" stroke-width="5" stroke="#00ffff" stroke-opacity="0.3" d="M216,585L217.00000000000003,585L366,628L415,384L336.00000000000006,379L366,311L324,107.00000000000001L454,127L395,283L312,326L242,360L256,469.99999999999994L282,507L280,613L302,499.00000000000006L192,515"></path><path id="#path_a" fill="none" stroke-width="5" stroke="#00ffff" stroke-opacity="0.3" d="M216,585L217.00000000000003,585L366,628L415,384L336.00000000000006,379L366,311L324,107.00000000000001L454,127L395,283L312,326L242,360L256,469.99999999999994L282,507L280,613L302,499.00000000000006L192,515"></path><path id="#path_a" fill="none" stroke-width="5" stroke="#00ffff" stroke-opacity="0.3" d="M216,585L217.00000000000003,585L366,628L415,384L336.00000000000006,379L366,311L324,107.00000000000001L454,127L395,283L312,326L242,360L256,469.99999999999994L282,507L280,613L302,499.00000000000006L192,515"></path><path id="#path_a" fill="none" stroke-width="5" stroke="#00ffff" stroke-opacity="0.3" d="M216,585L217.00000000000003,585L366,628L415,384L336.00000000000006,379L366,311L324,107.00000000000001L454,127L395,283L312,326L242,360L256,469.99999999999994L282,507L280,613L302,499.00000000000006L192,515"></path><path id="#path_a" fill="none" stroke-width="5" stroke="#00ffff" stroke-opacity="0.3" d="M216,585L217.00000000000003,585L366,628L415,384L336.00000000000006,379L366,311L324,107.00000000000001L454,127L395,283L312,326L242,360L256,469.99999999999994L282,507L280,613L302,499.00000000000006L192,515"></path><path id="#path_a" fill="none" stroke-width="5" stroke="#00ffff" stroke-opacity="0.3" d="M216,585L217.00000000000003,585L366,628L415,384L336.00000000000006,379L366,311L324,107.00000000000001L454,127L395,283L312,326L242,360L256,469.99999999999994L282,507L280,613L302,499.00000000000006L192,515"></path><path id="#path_a" fill="none" stroke-width="5" stroke="#00ffff" stroke-opacity="0.3" d="M216,585L217.00000000000003,585L366,628L415,384L336.00000000000006,379L366,311L324,107.00000000000001L454,127L395,283L312,326L242,360L256,469.99999999999994L282,507L280,613L302,499.00000000000006L192,515"></path><path id="#path_a" fill="none" stroke-width="5" stroke="#00ffff" stroke-opacity="0.3" d="M216,585L217.00000000000003,585L366,628L415,384L336.00000000000006,379L366,311L324,107.00000000000001L454,127L395,283L312,326L242,360L256,469.99999999999994L282,507L280,613L302,499.00000000000006L192,515"></path><path id="#path_a" fill="none" stroke-width="5" stroke="#00ffff" stroke-opacity="0.3" d="M216,585L217.00000000000003,585L366,628L415,384L336.00000000000006,379L366,311L324,107.00000000000001L454,127L395,283L312,326L242,360L256,469.99999999999994L282,507L280,613L302,499.00000000000006L192,515"></path><path id="#path_a" fill="none" stroke-width="5" stroke="#00ffff" stroke-opacity="0.3" d="M216,585L217.00000000000003,585L366,628L415,384L336.00000000000006,379L366,311L324,107.00000000000001L454,127L395,283L312,326L242,360L256,469.99999999999994L282,507L280,613L302,499.00000000000006L192,515"></path><path id="#path_a" fill="none" stroke-width="5" stroke="#00ffff" stroke-opacity="0.3" d="M216,585L217.00000000000003,585L366,628L415,384L336.00000000000006,379L366,311L324,107.00000000000001L454,127L395,283L312,326L242,360L256,469.99999999999994L282,507L280,613L302,499.00000000000006L192,515"></path><path id="#path_a" fill="none" stroke-width="5" stroke="#00ffff" stroke-opacity="0.3" d="M216,585L217.00000000000003,585L366,628L415,384L336.00000000000006,379L366,311L324,107.00000000000001L454,127L395,283L312,326L242,360L256,469.99999999999994L282,507L280,613L302,499.00000000000006L192,515"></path><path id="#path_a" fill="none" stroke-width="5" stroke="#00ffff" stroke-opacity="0.3" d="M216,585L217.00000000000003,585L366,628L415,384L336.00000000000006,379L366,311L324,107.00000000000001L454,127L395,283L312,326L242,360L256,469.99999999999994L282,507L280,613L302,499.00000000000006L192,515"></path><path id="#path_a" fill="none" stroke-width="5" stroke="#00ffff" stroke-opacity="0.3" d="M216,585L217.00000000000003,585L366,628L415,384L336.00000000000006,379L366,311L324,107.00000000000001L454,127L395,283L312,326L242,360L256,469.99999999999994L282,507L280,613L302,499.00000000000006L192,515"></path><path id="#path_a" fill="none" stroke-width="5" stroke="#00ffff" stroke-opacity="0.3" d="M216,585L217.00000000000003,585L366,628L415,384L336.00000000000006,379L366,311L324,107.00000000000001L454,127L395,283L312,326L242,360L256,469.99999999999994L282,507L280,613L302,499.00000000000006L192,515"></path><path id="#path_a" fill="none" stroke-width="5" stroke="#00ffff" stroke-opacity="0.3" d="M216,585L217.00000000000003,585L366,628L415,384L336.00000000000006,379L366,311L324,107.00000000000001L454,127L395,283L312,326L242,360L256,469.99999999999994L282,507L280,613L302,499.00000000000006L192,515"></path><path id="#path_a" fill="none" stroke-width="5" stroke="#00ffff" stroke-opacity="0.3" d="M216,585L217.00000000000003,585L366,628L415,384L336.00000000000006,379L366,311L324,107.00000000000001L454,127L395,283L312,326L242,360L256,469.99999999999994L282,507L280,613L302,499.00000000000006L192,515"></path><path id="#path_a" fill="none" stroke-width="5" stroke="#00ffff" stroke-opacity="0.3" d="M216,585L217.00000000000003,585L366,628L415,384L336.00000000000006,379L366,311L324,107.00000000000001L454,127L395,283L312,326L242,360L256,469.99999999999994L282,507L280,613L302,499.00000000000006L192,515"></path><path id="#path_a" fill="none" stroke-width="5" stroke="#00ffff" stroke-opacity="0.3" d="M216,585L217.00000000000003,585L366,628L415,384L336.00000000000006,379L366,311L324,107.00000000000001L454,127L395,283L312,326L242,360L256,469.99999999999994L282,507L280,613L302,499.00000000000006L192,515"></path><path id="#path_a" fill="none" stroke-width="5" stroke="#00ffff" stroke-opacity="0.3" d="M216,585L217.00000000000003,585L366,628L415,384L336.00000000000006,379L366,311L324,107.00000000000001L454,127L395,283L312,326L242,360L256,469.99999999999994L282,507L280,613L302,499.00000000000006L192,515"></path><path id="#path_a" fill="none" stroke-width="5" stroke="#00ffff" stroke-opacity="0.3" d="M216,585L217.00000000000003,585L366,628L415,384L336.00000000000006,379L366,311L324,107.00000000000001L454,127L395,283L312,326L242,360L256,469.99999999999994L282,507L280,613L302,499.00000000000006L192,515"></path><path id="#path_a" fill="none" stroke-width="5" stroke="#00ffff" stroke-opacity="0.3" d="M216,585L217.00000000000003,585L366,628L415,384L336.00000000000006,379L366,311L324,107.00000000000001L454,127L395,283L312,326L242,360L256,469.99999999999994L282,507L280,613L302,499.00000000000006L192,515"></path><path id="#path_a" fill="none" stroke-width="5" stroke="#00ffff" stroke-opacity="0.3" d="M216,585L217.00000000000003,585L366,628L415,384L336.00000000000006,379L366,311L324,107.00000000000001L454,127L395,283L312,326L242,360L256,469.99999999999994L282,507L280,613L302,499.00000000000006L192,515"></path><path id="#path_a" fill="none" stroke-width="5" stroke="#00ffff" stroke-opacity="0.3" d="M216,585L217.00000000000003,585L366,628L415,384L336.00000000000006,379L366,311L324,107.00000000000001L454,127L395,283L312,326L242,360L256,469.99999999999994L282,507L280,613L302,499.00000000000006L192,515"></path><path id="#path_a" fill="none" stroke-width="5" stroke="#00ffff" stroke-opacity="0.3" d="M216,585L217.00000000000003,585L366,628L415,384L336.00000000000006,379L366,311L324,107.00000000000001L454,127L395,283L312,326L242,360L256,469.99999999999994L282,507L280,613L302,499.00000000000006L192,515"></path><path id="#path_a" fill="none" stroke-width="5" stroke="#00ffff" stroke-opacity="0.3" d="M216,585L217.00000000000003,585L366,628L415,384L336.00000000000006,379L366,311L324,107.00000000000001L454,127L395,283L312,326L242,360L256,469.99999999999994L282,507L280,613L302,499.00000000000006L192,515"></path><path id="#path_a" fill="none" stroke-width="5" stroke="#00ffff" stroke-opacity="0.3" d="M216,585L217.00000000000003,585L366,628L415,384L336.00000000000006,379L366,311L324,107.00000000000001L454,127L395,283L312,326L242,360L256,469.99999999999994L282,507L280,613L302,499.00000000000006L192,515"></path><path id="#path_a" fill="none" stroke-width="5" stroke="#00ffff" stroke-opacity="0.3" d="M216,585L217.00000000000003,585L366,628L415,384L336.00000000000006,379L366,311L324,107.00000000000001L454,127L395,283L312,326L242,360L256,469.99999999999994L282,507L280,613L302,499.00000000000006L192,515"></path><path id="#path_a" fill="none" stroke-width="5" stroke="#00ffff" stroke-opacity="0.3" d="M216,585L217.00000000000003,585L366,628L415,384L336.00000000000006,379L366,311L324,107.00000000000001L454,127L395,283L312,326L242,360L256,469.99999999999994L282,507L280,613L302,499.00000000000006L192,515"></path><path id="#path_a" fill="none" stroke-width="5" stroke="#00ffff" stroke-opacity="0.3" d="M216,585L217.00000000000003,585L366,628L415,384L336.00000000000006,379L366,311L324,107.00000000000001L454,127L395,283L312,326L242,360L256,469.99999999999994L282,507L280,613L302,499.00000000000006L192,515"></path><path id="#path_a" fill="none" stroke-width="5" stroke="#00ffff" stroke-opacity="0.3" d="M216,585L217.00000000000003,585L366,628L415,384L336.00000000000006,379L366,311L324,107.00000000000001L454,127L395,283L312,326L242,360L256,469.99999999999994L282,507L280,613L302,499.00000000000006L192,515"></path><path id="#path_a" fill="none" stroke-width="5" stroke="#00ffff" stroke-opacity="0.3" d="M216,585L217.00000000000003,585L366,628L415,384L336.00000000000006,379L366,311L324,107.00000000000001L454,127L395,283L312,326L242,360L256,469.99999999999994L282,507L280,613L302,499.00000000000006L192,515"></path><path id="#path_a" fill="none" stroke-width="5" stroke="#00ffff" stroke-opacity="0.3" d="M216,585L217.00000000000003,585L366,628L415,384L336.00000000000006,379L366,311L324,107.00000000000001L454,127L395,283L312,326L242,360L256,469.99999999999994L282,507L280,613L302,499.00000000000006L192,515"></path><path id="#path_a" fill="none" stroke-width="5" stroke="#00ffff" stroke-opacity="0.3" d="M216,585L217.00000000000003,585L366,628L415,384L336.00000000000006,379L366,311L324,107.00000000000001L454,127L395,283L312,326L242,360L256,469.99999999999994L282,507L280,613L302,499.00000000000006L192,515"></path><path id="#path_a" fill="none" stroke-width="5" stroke="#00ffff" stroke-opacity="0.3" d="M216,585L217.00000000000003,585L366,628L415,384L336.00000000000006,379L366,311L324,107.00000000000001L454,127L395,283L312,326L242,360L256,469.99999999999994L282,507L280,613L302,499.00000000000006L192,515"></path><path id="#path_a" fill="none" stroke-width="5" stroke="#00ffff" stroke-opacity="0.3" d="M216,585L217.00000000000003,585L366,628L415,384L336.00000000000006,379L366,311L324,107.00000000000001L454,127L395,283L312,326L242,360L256,469.99999999999994L282,507L280,613L302,499.00000000000006L192,515"></path><path id="#path_a" fill="none" stroke-width="5" stroke="#00ffff" stroke-opacity="0.3" d="M216,585L217.00000000000003,585L366,628L415,384L336.00000000000006,379L366,311L324,107.00000000000001L454,127L395,283L312,326L242,360L256,469.99999999999994L282,507L280,613L302,499.00000000000006L192,515"></path><path id="#path_a" fill="none" stroke-width="5" stroke="#00ffff" stroke-opacity="0.3" d="M216,585L217.00000000000003,585L366,628L415,384L336.00000000000006,379L366,311L324,107.00000000000001L454,127L395,283L312,326L242,360L256,469.99999999999994L282,507L280,613L302,499.00000000000006L192,515"></path><path id="#path_a" fill="none" stroke-width="5" stroke="#00ffff" stroke-opacity="0.3" d="M216,585L217.00000000000003,585L366,628L415,384L336.00000000000006,379L366,311L324,107.00000000000001L454,127L395,283L312,326L242,360L256,469.99999999999994L282,507L280,613L302,499.00000000000006L192,515"></path><path id="#path_a" fill="none" stroke-width="5" stroke="#00ffff" stroke-opacity="0.3" d="M216,585L217.00000000000003,585L366,628L415,384L336.00000000000006,379L366,311L324,107.00000000000001L454,127L395,283L312,326L242,360L256,469.99999999999994L282,507L280,613L302,499.00000000000006L192,515"></path><path id="#path_a" fill="none" stroke-width="5" stroke="#00ffff" stroke-opacity="0.3" d="M216,585L217.00000000000003,585L366,628L415,384L336.00000000000006,379L366,311L324,107.00000000000001L454,127L395,283L312,326L242,360L256,469.99999999999994L282,507L280,613L302,499.00000000000006L192,515"></path><path id="#path_a" fill="none" stroke-width="5" stroke="#00ffff" stroke-opacity="0.3" d="M216,585L217.00000000000003,585L366,628L415,384L336.00000000000006,379L366,311L324,107.00000000000001L454,127L395,283L312,326L242,360L256,469.99999999999994L282,507L280,613L302,499.00000000000006L192,515"></path><path id="#path_a" fill="none" stroke-width="5" stroke="#00ffff" stroke-opacity="0.3" d="M216,585L217.00000000000003,585L366,628L415,384L336.00000000000006,379L366,311L324,107.00000000000001L454,127L395,283L312,326L242,360L256,469.99999999999994L282,507L280,613L302,499.00000000000006L192,515"></path><path id="#path_a" fill="none" stroke-width="5" stroke="#00ffff" stroke-opacity="0.3" d="M216,585L217.00000000000003,585L366,628L415,384L336.00000000000006,379L366,311L324,107.00000000000001L454,127L395,283L312,326L242,360L256,469.99999999999994L282,507L280,613L302,499.00000000000006L192,515"></path><path id="#path_a" fill="none" stroke-width="5" stroke="#00ffff" stroke-opacity="0.3" d="M216,585L217.00000000000003,585L366,628L415,384L336.00000000000006,379L366,311L324,107.00000000000001L454,127L395,283L312,326L242,360L256,469.99999999999994L282,507L280,613L302,499.00000000000006L192,515"></path><path id="#path_a" fill="none" stroke-width="5" stroke="#00ffff" stroke-opacity="0.3" d="M216,585L217.00000000000003,585L366,628L415,384L336.00000000000006,379L366,311L324,107.00000000000001L454,127L395,283L312,326L242,360L256,469.99999999999994L282,507L280,613L302,499.00000000000006L192,515"></path><path id="#path_a" fill="none" stroke-width="5" stroke="#00ffff" stroke-opacity="0.3" d="M216,585L217.00000000000003,585L366,628L415,384L336.00000000000006,379L366,311L324,107.00000000000001L454,127L395,283L312,326L242,360L256,469.99999999999994L282,507L280,613L302,499.00000000000006L192,515"></path><path id="#path_a" fill="none" stroke-width="5" stroke="#00ffff" stroke-opacity="0.3" d="M216,585L217.00000000000003,585L366,628L415,384L336.00000000000006,379L366,311L324,107.00000000000001L454,127L395,283L312,326L242,360L256,469.99999999999994L282,507L280,613L302,499.00000000000006L192,515"></path><path id="#path_a" fill="none" stroke-width="5" stroke="#00ffff" stroke-opacity="0.3" d="M216,585L217.00000000000003,585L366,628L415,384L336.00000000000006,379L366,311L324,107.00000000000001L454,127L395,283L312,326L242,360L256,469.99999999999994L282,507L280,613L302,499.00000000000006L192,515"></path><path id="#path_a" fill="none" stroke-width="5" stroke="#00ffff" stroke-opacity="0.3" d="M216,585L217.00000000000003,585L366,628L415,384L336.00000000000006,379L366,311L324,107.00000000000001L454,127L395,283L312,326L242,360L256,469.99999999999994L282,507L280,613L302,499.00000000000006L192,515"></path><path id="#path_a" fill="none" stroke-width="5" stroke="#00ffff" stroke-opacity="0.3" d="M216,585L217.00000000000003,585L366,628L415,384L336.00000000000006,379L366,311L324,107.00000000000001L454,127L395,283L312,326L242,360L256,469.99999999999994L282,507L280,613L302,499.00000000000006L192,515"></path><path id="#path_a" fill="none" stroke-width="5" stroke="#00ffff" stroke-opacity="0.3" d="M216,585L217.00000000000003,585L366,628L415,384L336.00000000000006,379L366,311L324,107.00000000000001L454,127L395,283L312,326L242,360L256,469.99999999999994L282,507L280,613L302,499.00000000000006L192,515"></path><path id="#path_a" fill="none" stroke-width="5" stroke="#00ffff" stroke-opacity="0.3" d="M216,585L217.00000000000003,585L366,628L415,384L336.00000000000006,379L366,311L324,107.00000000000001L454,127L395,283L312,326L242,360L256,469.99999999999994L282,507L280,613L302,499.00000000000006L192,515"></path><path id="#path_a" fill="none" stroke-width="5" stroke="#00ffff" stroke-opacity="0.3" d="M216,585L217.00000000000003,585L366,628L415,384L336.00000000000006,379L366,311L324,107.00000000000001L454,127L395,283L312,326L242,360L256,469.99999999999994L282,507L280,613L302,499.00000000000006L192,515"></path><path id="#path_a" fill="none" stroke-width="5" stroke="#00ffff" stroke-opacity="0.3" d="M216,585L217.00000000000003,585L366,628L415,384L336.00000000000006,379L366,311L324,107.00000000000001L454,127L395,283L312,326L242,360L256,469.99999999999994L282,507L280,613L302,499.00000000000006L192,515"></path><path id="#path_a" fill="none" stroke-width="5" stroke="#00ffff" stroke-opacity="0.3" d="M216,585L217.00000000000003,585L366,628L415,384L336.00000000000006,379L366,311L324,107.00000000000001L454,127L395,283L312,326L242,360L256,469.99999999999994L282,507L280,613L302,499.00000000000006L192,515"></path><path id="#path_a" fill="none" stroke-width="5" stroke="#00ffff" stroke-opacity="0.3" d="M216,585L217.00000000000003,585L366,628L415,384L336.00000000000006,379L366,311L324,107.00000000000001L454,127L395,283L312,326L242,360L256,469.99999999999994L282,507L280,613L302,499.00000000000006L192,515"></path><path id="#path_a" fill="none" stroke-width="5" stroke="#00ffff" stroke-opacity="0.3" d="M216,585L217.00000000000003,585L366,628L415,384L336.00000000000006,379L366,311L324,107.00000000000001L454,127L395,283L312,326L242,360L256,469.99999999999994L282,507L280,613L302,499.00000000000006L192,515"></path><path id="#path_a" fill="none" stroke-width="5" stroke="#00ffff" stroke-opacity="0.3" d="M216,585L217.00000000000003,585L366,628L415,384L336.00000000000006,379L366,311L324,107.00000000000001L454,127L395,283L312,326L242,360L256,469.99999999999994L282,507L280,613L302,499.00000000000006L192,515"></path><path id="#path_a" fill="none" stroke-width="5" stroke="#00ffff" stroke-opacity="0.3" d="M216,585L217.00000000000003,585L366,628L415,384L336.00000000000006,379L366,311L324,107.00000000000001L454,127L395,283L312,326L242,360L256,469.99999999999994L282,507L280,613L302,499.00000000000006L192,515"></path><path id="#path_a" fill="none" stroke-width="5" stroke="#00ffff" stroke-opacity="0.3" d="M216,585L217.00000000000003,585L366,628L415,384L336.00000000000006,379L366,311L324,107.00000000000001L454,127L395,283L312,326L242,360L256,469.99999999999994L282,507L280,613L302,499.00000000000006L192,515"></path><path id="#path_a" fill="none" stroke-width="5" stroke="#00ffff" stroke-opacity="0.3" d="M216,585L217.00000000000003,585L366,628L415,384L336.00000000000006,379L366,311L324,107.00000000000001L454,127L395,283L312,326L242,360L256,469.99999999999994L282,507L280,613L302,499.00000000000006L192,515"></path><path id="#path_a" fill="none" stroke-width="5" stroke="#00ffff" stroke-opacity="0.3" d="M216,585L217.00000000000003,585L366,628L415,384L336.00000000000006,379L366,311L324,107.00000000000001L454,127L395,283L312,326L242,360L256,469.99999999999994L282,507L280,613L302,499.00000000000006L192,515"></path><path id="#path_a" fill="none" stroke-width="5" stroke="#00ffff" stroke-opacity="0.3" d="M216,585L217.00000000000003,585L366,628L415,384L336.00000000000006,379L366,311L324,107.00000000000001L454,127L395,283L312,326L242,360L256,469.99999999999994L282,507L280,613L302,499.00000000000006L192,515"></path><path id="#path_a" fill="none" stroke-width="5" stroke="#00ffff" stroke-opacity="0.3" d="M216,585L217.00000000000003,585L366,628L415,384L336.00000000000006,379L366,311L324,107.00000000000001L454,127L395,283L312,326L242,360L256,469.99999999999994L282,507L280,613L302,499.00000000000006L192,515"></path><path id="#path_a" fill="none" stroke-width="5" stroke="#00ffff" stroke-opacity="0.3" d="M216,585L217.00000000000003,585L366,628L415,384L336.00000000000006,379L366,311L324,107.00000000000001L454,127L395,283L312,326L242,360L256,469.99999999999994L282,507L280,613L302,499.00000000000006L192,515"></path><path id="#path_a" fill="none" stroke-width="5" stroke="#00ffff" stroke-opacity="0.3" d="M216,585L217.00000000000003,585L366,628L415,384L336.00000000000006,379L366,311L324,107.00000000000001L454,127L395,283L312,326L242,360L256,469.99999999999994L282,507L280,613L302,499.00000000000006L192,515"></path><path id="#path_a" fill="none" stroke-width="5" stroke="#00ffff" stroke-opacity="0.3" d="M216,585L217.00000000000003,585L366,628L415,384L336.00000000000006,379L366,311L324,107.00000000000001L454,127L395,283L312,326L242,360L256,469.99999999999994L282,507L280,613L302,499.00000000000006L192,515"></path><path id="#path_a" fill="none" stroke-width="5" stroke="#00ffff" stroke-opacity="0.3" d="M216,585L217.00000000000003,585L366,628L415,384L336.00000000000006,379L366,311L324,107.00000000000001L454,127L395,283L312,326L242,360L256,469.99999999999994L282,507L280,613L302,499.00000000000006L192,515"></path><path id="#path_a" fill="none" stroke-width="5" stroke="#00ffff" stroke-opacity="0.3" d="M216,585L217.00000000000003,585L366,628L415,384L336.00000000000006,379L366,311L324,107.00000000000001L454,127L395,283L312,326L242,360L256,469.99999999999994L282,507L280,613L302,499.00000000000006L192,515"></path><path id="#path_a" fill="none" stroke-width="5" stroke="#00ffff" stroke-opacity="0.3" d="M216,585L217.00000000000003,585L366,628L415,384L336.00000000000006,379L366,311L324,107.00000000000001L454,127L395,283L312,326L242,360L256,469.99999999999994L282,507L280,613L302,499.00000000000006L192,515"></path><path id="#path_a" fill="none" stroke-width="5" stroke="#00ffff" stroke-opacity="0.3" d="M216,585L217.00000000000003,585L366,628L415,384L336.00000000000006,379L366,311L324,107.00000000000001L454,127L395,283L312,326L242,360L256,469.99999999999994L282,507L280,613L302,499.00000000000006L192,515"></path></svg>