<svg width="600" height="776" id="visual_9_c"><image xlink:href="./../images/9.jpeg" x="0" y="0" width="600" height="776"></image><rect x="0" y="0" width="600" height="776" fill="#fff" opacity="0.5"></rect><circle cx="569" cy="449.00000000000006" r="50" opacity="0" fill="#00ffff" id="circle_0"></circle><circle cx="502" cy="418" r="50" opacity="0.5" fill="green" id="circle_1"></circle><circle cx="416.99999999999994" cy="384" r="50" opacity="0" fill="#00ffff" id="circle_2"></circle><circle cx="411.00000000000006" cy="383" r="50" opacity="0" fill="#00ffff" id="circle_3"></circle><circle cx="411.00000000000006" cy="383" r="50" opacity="0" fill="#00ffff" id="circle_4"></circle><circle cx="315.99999999999994" cy="390" r="50" opacity="0" fill="#00ffff" id="circle_5"></circle><circle cx="315.99999999999994" cy="390" r="50" opacity="0" fill="#00ffff" id="circle_6"></circle><circle cx="301" cy="398.99999999999994" r="50" opacity="0" fill="#00ffff" id="circle_7"></circle><circle cx="286" cy="450.00000000000006" r="50" opacity="0" fill="#00ffff" id="circle_8"></circle><circle cx="286" cy="450.00000000000006" r="50" opacity="0" fill="#00ffff" id="circle_9"></circle><circle cx="287" cy="453" r="50" opacity="0.5" fill="purple" id="circle_10"></circle><path id="#path_c" fill="none" stroke-width="5" stroke="#00ffff" stroke-opacity="0.3" d="M569,449.00000000000006L502,418L416.99999999999994,384L411.00000000000006,383L411.00000000000006,383L315.99999999999994,390L315.99999999999994,390L301,398.99999999999994L286,450.00000000000006L286,450.00000000000006L287,453"></path><path id="#path_c" fill="none" stroke-width="5" stroke="#00ffff" stroke-opacity="0.3" d="M569,449.00000000000006L502,418L416.99999999999994,384L411.00000000000006,383L411.00000000000006,383L315.99999999999994,390L315.99999999999994,390L301,398.99999999999994L286,450.00000000000006L286,450.00000000000006L287,453"></path><path id="#path_c" fill="none" stroke-width="5" stroke="#00ffff" stroke-opacity="0.3" d="M569,449.00000000000006L502,418L416.99999999999994,384L411.00000000000006,383L411.00000000000006,383L315.99999999999994,390L315.99999999999994,390L301,398.99999999999994L286,450.00000000000006L286,450.00000000000006L287,453"></path><path id="#path_c" fill="none" stroke-width="5" stroke="#00ffff" stroke-opacity="0.3" d="M569,449.00000000000006L502,418L416.99999999999994,384L411.00000000000006,383L411.00000000000006,383L315.99999999999994,390L315.99999999999994,390L301,398.99999999999994L286,450.00000000000006L286,450.00000000000006L287,453"></path><path id="#path_c" fill="none" stroke-width="5" stroke="#00ffff" stroke-opacity="0.3" d="M569,449.00000000000006L502,418L416.99999999999994,384L411.00000000000006,383L411.00000000000006,383L315.99999999999994,390L315.99999999999994,390L301,398.99999999999994L286,450.00000000000006L286,450.00000000000006L287,453"></path><path id="#path_c" fill="none" stroke-width="5" stroke="#00ffff" stroke-opacity="0.3" d="M569,449.00000000000006L502,418L416.99999999999994,384L411.00000000000006,383L411.00000000000006,383L315.99999999999994,390L315.99999999999994,390L301,398.99999999999994L286,450.00000000000006L286,450.00000000000006L287,453"></path><path id="#path_c" fill="none" stroke-width="5" stroke="#00ffff" stroke-opacity="0.3" d="M569,449.00000000000006L502,418L416.99999999999994,384L411.00000000000006,383L411.00000000000006,383L315.99999999999994,390L315.99999999999994,390L301,398.99999999999994L286,450.00000000000006L286,450.00000000000006L287,453"></path><path id="#path_c" fill="none" stroke-width="5" stroke="#00ffff" stroke-opacity="0.3" d="M569,449.00000000000006L502,418L416.99999999999994,384L411.00000000000006,383L411.00000000000006,383L315.99999999999994,390L315.99999999999994,390L301,398.99999999999994L286,450.00000000000006L286,450.00000000000006L287,453"></path><path id="#path_c" fill="none" stroke-width="5" stroke="#00ffff" stroke-opacity="0.3" d="M569,449.00000000000006L502,418L416.99999999999994,384L411.00000000000006,383L411.00000000000006,383L315.99999999999994,390L315.99999999999994,390L301,398.99999999999994L286,450.00000000000006L286,450.00000000000006L287,453"></path><path id="#path_c" fill="none" stroke-width="5" stroke="#00ffff" stroke-opacity="0.3" d="M569,449.00000000000006L502,418L416.99999999999994,384L411.00000000000006,383L411.00000000000006,383L315.99999999999994,390L315.99999999999994,390L301,398.99999999999994L286,450.00000000000006L286,450.00000000000006L287,453"></path><path id="#path_c" fill="none" stroke-width="5" stroke="#00ffff" stroke-opacity="0.3" d="M569,449.00000000000006L502,418L416.99999999999994,384L411.00000000000006,383L411.00000000000006,383L315.99999999999994,390L315.99999999999994,390L301,398.99999999999994L286,450.00000000000006L286,450.00000000000006L287,453"></path><path id="#path_c" fill="none" stroke-width="5" stroke="#00ffff" stroke-opacity="0.3" d="M569,449.00000000000006L502,418L416.99999999999994,384L411.00000000000006,383L411.00000000000006,383L315.99999999999994,390L315.99999999999994,390L301,398.99999999999994L286,450.00000000000006L286,450.00000000000006L287,453"></path><path id="#path_c" fill="none" stroke-width="5" stroke="#00ffff" stroke-opacity="0.3" d="M569,449.00000000000006L502,418L416.99999999999994,384L411.00000000000006,383L411.00000000000006,383L315.99999999999994,390L315.99999999999994,390L301,398.99999999999994L286,450.00000000000006L286,450.00000000000006L287,453"></path><path id="#path_c" fill="none" stroke-width="5" stroke="#00ffff" stroke-opacity="0.3" d="M569,449.00000000000006L502,418L416.99999999999994,384L411.00000000000006,383L411.00000000000006,383L315.99999999999994,390L315.99999999999994,390L301,398.99999999999994L286,450.00000000000006L286,450.00000000000006L287,453"></path><path id="#path_c" fill="none" stroke-width="5" stroke="#00ffff" stroke-opacity="0.3" d="M569,449.00000000000006L502,418L416.99999999999994,384L411.00000000000006,383L411.00000000000006,383L315.99999999999994,390L315.99999999999994,390L301,398.99999999999994L286,450.00000000000006L286,450.00000000000006L287,453"></path><path id="#path_c" fill="none" stroke-width="5" stroke="#00ffff" stroke-opacity="0.3" d="M569,449.00000000000006L502,418L416.99999999999994,384L411.00000000000006,383L411.00000000000006,383L315.99999999999994,390L315.99999999999994,390L301,398.99999999999994L286,450.00000000000006L286,450.00000000000006L287,453"></path><path id="#path_c" fill="none" stroke-width="5" stroke="#00ffff" stroke-opacity="0.3" d="M569,449.00000000000006L502,418L416.99999999999994,384L411.00000000000006,383L411.00000000000006,383L315.99999999999994,390L315.99999999999994,390L301,398.99999999999994L286,450.00000000000006L286,450.00000000000006L287,453"></path><path id="#path_c" fill="none" stroke-width="5" stroke="#00ffff" stroke-opacity="0.3" d="M569,449.00000000000006L502,418L416.99999999999994,384L411.00000000000006,383L411.00000000000006,383L315.99999999999994,390L315.99999999999994,390L301,398.99999999999994L286,450.00000000000006L286,450.00000000000006L287,453"></path><path id="#path_c" fill="none" stroke-width="5" stroke="#00ffff" stroke-opacity="0.3" d="M569,449.00000000000006L502,418L416.99999999999994,384L411.00000000000006,383L411.00000000000006,383L315.99999999999994,390L315.99999999999994,390L301,398.99999999999994L286,450.00000000000006L286,450.00000000000006L287,453"></path><path id="#path_c" fill="none" stroke-width="5" stroke="#00ffff" stroke-opacity="0.3" d="M569,449.00000000000006L502,418L416.99999999999994,384L411.00000000000006,383L411.00000000000006,383L315.99999999999994,390L315.99999999999994,390L301,398.99999999999994L286,450.00000000000006L286,450.00000000000006L287,453"></path><path id="#path_c" fill="none" stroke-width="5" stroke="#00ffff" stroke-opacity="0.3" d="M569,449.00000000000006L502,418L416.99999999999994,384L411.00000000000006,383L411.00000000000006,383L315.99999999999994,390L315.99999999999994,390L301,398.99999999999994L286,450.00000000000006L286,450.00000000000006L287,453"></path><path id="#path_c" fill="none" stroke-width="5" stroke="#00ffff" stroke-opacity="0.3" d="M569,449.00000000000006L502,418L416.99999999999994,384L411.00000000000006,383L411.00000000000006,383L315.99999999999994,390L315.99999999999994,390L301,398.99999999999994L286,450.00000000000006L286,450.00000000000006L287,453"></path><path id="#path_c" fill="none" stroke-width="5" stroke="#00ffff" stroke-opacity="0.3" d="M569,449.00000000000006L502,418L416.99999999999994,384L411.00000000000006,383L411.00000000000006,383L315.99999999999994,390L315.99999999999994,390L301,398.99999999999994L286,450.00000000000006L286,450.00000000000006L287,453"></path><path id="#path_c" fill="none" stroke-width="5" stroke="#00ffff" stroke-opacity="0.3" d="M569,449.00000000000006L502,418L416.99999999999994,384L411.00000000000006,383L411.00000000000006,383L315.99999999999994,390L315.99999999999994,390L301,398.99999999999994L286,450.00000000000006L286,450.00000000000006L287,453"></path><path id="#path_c" fill="none" stroke-width="5" stroke="#00ffff" stroke-opacity="0.3" d="M569,449.00000000000006L502,418L416.99999999999994,384L411.00000000000006,383L411.00000000000006,383L315.99999999999994,390L315.99999999999994,390L301,398.99999999999994L286,450.00000000000006L286,450.00000000000006L287,453"></path><path id="#path_c" fill="none" stroke-width="5" stroke="#00ffff" stroke-opacity="0.3" d="M569,449.00000000000006L502,418L416.99999999999994,384L411.00000000000006,383L411.00000000000006,383L315.99999999999994,390L315.99999999999994,390L301,398.99999999999994L286,450.00000000000006L286,450.00000000000006L287,453"></path><path id="#path_c" fill="none" stroke-width="5" stroke="#00ffff" stroke-opacity="0.3" d="M569,449.00000000000006L502,418L416.99999999999994,384L411.00000000000006,383L411.00000000000006,383L315.99999999999994,390L315.99999999999994,390L301,398.99999999999994L286,450.00000000000006L286,450.00000000000006L287,453"></path><path id="#path_c" fill="none" stroke-width="5" stroke="#00ffff" stroke-opacity="0.3" d="M569,449.00000000000006L502,418L416.99999999999994,384L411.00000000000006,383L411.00000000000006,383L315.99999999999994,390L315.99999999999994,390L301,398.99999999999994L286,450.00000000000006L286,450.00000000000006L287,453"></path><path id="#path_c" fill="none" stroke-width="5" stroke="#00ffff" stroke-opacity="0.3" d="M569,449.00000000000006L502,418L416.99999999999994,384L411.00000000000006,383L411.00000000000006,383L315.99999999999994,390L315.99999999999994,390L301,398.99999999999994L286,450.00000000000006L286,450.00000000000006L287,453"></path><path id="#path_c" fill="none" stroke-width="5" stroke="#00ffff" stroke-opacity="0.3" d="M569,449.00000000000006L502,418L416.99999999999994,384L411.00000000000006,383L411.00000000000006,383L315.99999999999994,390L315.99999999999994,390L301,398.99999999999994L286,450.00000000000006L286,450.00000000000006L287,453"></path><path id="#path_c" fill="none" stroke-width="5" stroke="#00ffff" stroke-opacity="0.3" d="M569,449.00000000000006L502,418L416.99999999999994,384L411.00000000000006,383L411.00000000000006,383L315.99999999999994,390L315.99999999999994,390L301,398.99999999999994L286,450.00000000000006L286,450.00000000000006L287,453"></path><path id="#path_c" fill="none" stroke-width="5" stroke="#00ffff" stroke-opacity="0.3" d="M569,449.00000000000006L502,418L416.99999999999994,384L411.00000000000006,383L411.00000000000006,383L315.99999999999994,390L315.99999999999994,390L301,398.99999999999994L286,450.00000000000006L286,450.00000000000006L287,453"></path><path id="#path_c" fill="none" stroke-width="5" stroke="#00ffff" stroke-opacity="0.3" d="M569,449.00000000000006L502,418L416.99999999999994,384L411.00000000000006,383L411.00000000000006,383L315.99999999999994,390L315.99999999999994,390L301,398.99999999999994L286,450.00000000000006L286,450.00000000000006L287,453"></path><path id="#path_c" fill="none" stroke-width="5" stroke="#00ffff" stroke-opacity="0.3" d="M569,449.00000000000006L502,418L416.99999999999994,384L411.00000000000006,383L411.00000000000006,383L315.99999999999994,390L315.99999999999994,390L301,398.99999999999994L286,450.00000000000006L286,450.00000000000006L287,453"></path><path id="#path_c" fill="none" stroke-width="5" stroke="#00ffff" stroke-opacity="0.3" d="M569,449.00000000000006L502,418L416.99999999999994,384L411.00000000000006,383L411.00000000000006,383L315.99999999999994,390L315.99999999999994,390L301,398.99999999999994L286,450.00000000000006L286,450.00000000000006L287,453"></path><path id="#path_c" fill="none" stroke-width="5" stroke="#00ffff" stroke-opacity="0.3" d="M569,449.00000000000006L502,418L416.99999999999994,384L411.00000000000006,383L411.00000000000006,383L315.99999999999994,390L315.99999999999994,390L301,398.99999999999994L286,450.00000000000006L286,450.00000000000006L287,453"></path><path id="#path_c" fill="none" stroke-width="5" stroke="#00ffff" stroke-opacity="0.3" d="M569,449.00000000000006L502,418L416.99999999999994,384L411.00000000000006,383L411.00000000000006,383L315.99999999999994,390L315.99999999999994,390L301,398.99999999999994L286,450.00000000000006L286,450.00000000000006L287,453"></path><path id="#path_c" fill="none" stroke-width="5" stroke="#00ffff" stroke-opacity="0.3" d="M569,449.00000000000006L502,418L416.99999999999994,384L411.00000000000006,383L411.00000000000006,383L315.99999999999994,390L315.99999999999994,390L301,398.99999999999994L286,450.00000000000006L286,450.00000000000006L287,453"></path><path id="#path_c" fill="none" stroke-width="5" stroke="#00ffff" stroke-opacity="0.3" d="M569,449.00000000000006L502,418L416.99999999999994,384L411.00000000000006,383L411.00000000000006,383L315.99999999999994,390L315.99999999999994,390L301,398.99999999999994L286,450.00000000000006L286,450.00000000000006L287,453"></path><path id="#path_c" fill="none" stroke-width="5" stroke="#00ffff" stroke-opacity="0.3" d="M569,449.00000000000006L502,418L416.99999999999994,384L411.00000000000006,383L411.00000000000006,383L315.99999999999994,390L315.99999999999994,390L301,398.99999999999994L286,450.00000000000006L286,450.00000000000006L287,453"></path><path id="#path_c" fill="none" stroke-width="5" stroke="#00ffff" stroke-opacity="0.3" d="M569,449.00000000000006L502,418L416.99999999999994,384L411.00000000000006,383L411.00000000000006,383L315.99999999999994,390L315.99999999999994,390L301,398.99999999999994L286,450.00000000000006L286,450.00000000000006L287,453"></path><path id="#path_c" fill="none" stroke-width="5" stroke="#00ffff" stroke-opacity="0.3" d="M569,449.00000000000006L502,418L416.99999999999994,384L411.00000000000006,383L411.00000000000006,383L315.99999999999994,390L315.99999999999994,390L301,398.99999999999994L286,450.00000000000006L286,450.00000000000006L287,453"></path><path id="#path_c" fill="none" stroke-width="5" stroke="#00ffff" stroke-opacity="0.3" d="M569,449.00000000000006L502,418L416.99999999999994,384L411.00000000000006,383L411.00000000000006,383L315.99999999999994,390L315.99999999999994,390L301,398.99999999999994L286,450.00000000000006L286,450.00000000000006L287,453"></path><path id="#path_c" fill="none" stroke-width="5" stroke="#00ffff" stroke-opacity="0.3" d="M569,449.00000000000006L502,418L416.99999999999994,384L411.00000000000006,383L411.00000000000006,383L315.99999999999994,390L315.99999999999994,390L301,398.99999999999994L286,450.00000000000006L286,450.00000000000006L287,453"></path><path id="#path_c" fill="none" stroke-width="5" stroke="#00ffff" stroke-opacity="0.3" d="M569,449.00000000000006L502,418L416.99999999999994,384L411.00000000000006,383L411.00000000000006,383L315.99999999999994,390L315.99999999999994,390L301,398.99999999999994L286,450.00000000000006L286,450.00000000000006L287,453"></path><path id="#path_c" fill="none" stroke-width="5" stroke="#00ffff" stroke-opacity="0.3" d="M569,449.00000000000006L502,418L416.99999999999994,384L411.00000000000006,383L411.00000000000006,383L315.99999999999994,390L315.99999999999994,390L301,398.99999999999994L286,450.00000000000006L286,450.00000000000006L287,453"></path><path id="#path_c" fill="none" stroke-width="5" stroke="#00ffff" stroke-opacity="0.3" d="M569,449.00000000000006L502,418L416.99999999999994,384L411.00000000000006,383L411.00000000000006,383L315.99999999999994,390L315.99999999999994,390L301,398.99999999999994L286,450.00000000000006L286,450.00000000000006L287,453"></path><path id="#path_c" fill="none" stroke-width="5" stroke="#00ffff" stroke-opacity="0.3" d="M569,449.00000000000006L502,418L416.99999999999994,384L411.00000000000006,383L411.00000000000006,383L315.99999999999994,390L315.99999999999994,390L301,398.99999999999994L286,450.00000000000006L286,450.00000000000006L287,453"></path><path id="#path_c" fill="none" stroke-width="5" stroke="#00ffff" stroke-opacity="0.3" d="M569,449.00000000000006L502,418L416.99999999999994,384L411.00000000000006,383L411.00000000000006,383L315.99999999999994,390L315.99999999999994,390L301,398.99999999999994L286,450.00000000000006L286,450.00000000000006L287,453"></path><path id="#path_c" fill="none" stroke-width="5" stroke="#00ffff" stroke-opacity="0.3" d="M569,449.00000000000006L502,418L416.99999999999994,384L411.00000000000006,383L411.00000000000006,383L315.99999999999994,390L315.99999999999994,390L301,398.99999999999994L286,450.00000000000006L286,450.00000000000006L287,453"></path><path id="#path_c" fill="none" stroke-width="5" stroke="#00ffff" stroke-opacity="0.3" d="M569,449.00000000000006L502,418L416.99999999999994,384L411.00000000000006,383L411.00000000000006,383L315.99999999999994,390L315.99999999999994,390L301,398.99999999999994L286,450.00000000000006L286,450.00000000000006L287,453"></path><path id="#path_c" fill="none" stroke-width="5" stroke="#00ffff" stroke-opacity="0.3" d="M569,449.00000000000006L502,418L416.99999999999994,384L411.00000000000006,383L411.00000000000006,383L315.99999999999994,390L315.99999999999994,390L301,398.99999999999994L286,450.00000000000006L286,450.00000000000006L287,453"></path><path id="#path_c" fill="none" stroke-width="5" stroke="#00ffff" stroke-opacity="0.3" d="M569,449.00000000000006L502,418L416.99999999999994,384L411.00000000000006,383L411.00000000000006,383L315.99999999999994,390L315.99999999999994,390L301,398.99999999999994L286,450.00000000000006L286,450.00000000000006L287,453"></path><path id="#path_c" fill="none" stroke-width="5" stroke="#00ffff" stroke-opacity="0.3" d="M569,449.00000000000006L502,418L416.99999999999994,384L411.00000000000006,383L411.00000000000006,383L315.99999999999994,390L315.99999999999994,390L301,398.99999999999994L286,450.00000000000006L286,450.00000000000006L287,453"></path><path id="#path_c" fill="none" stroke-width="5" stroke="#00ffff" stroke-opacity="0.3" d="M569,449.00000000000006L502,418L416.99999999999994,384L411.00000000000006,383L411.00000000000006,383L315.99999999999994,390L315.99999999999994,390L301,398.99999999999994L286,450.00000000000006L286,450.00000000000006L287,453"></path><path id="#path_c" fill="none" stroke-width="5" stroke="#00ffff" stroke-opacity="0.3" d="M569,449.00000000000006L502,418L416.99999999999994,384L411.00000000000006,383L411.00000000000006,383L315.99999999999994,390L315.99999999999994,390L301,398.99999999999994L286,450.00000000000006L286,450.00000000000006L287,453"></path><path id="#path_c" fill="none" stroke-width="5" stroke="#00ffff" stroke-opacity="0.3" d="M569,449.00000000000006L502,418L416.99999999999994,384L411.00000000000006,383L411.00000000000006,383L315.99999999999994,390L315.99999999999994,390L301,398.99999999999994L286,450.00000000000006L286,450.00000000000006L287,453"></path><path id="#path_c" fill="none" stroke-width="5" stroke="#00ffff" stroke-opacity="0.3" d="M569,449.00000000000006L502,418L416.99999999999994,384L411.00000000000006,383L411.00000000000006,383L315.99999999999994,390L315.99999999999994,390L301,398.99999999999994L286,450.00000000000006L286,450.00000000000006L287,453"></path><path id="#path_c" fill="none" stroke-width="5" stroke="#00ffff" stroke-opacity="0.3" d="M569,449.00000000000006L502,418L416.99999999999994,384L411.00000000000006,383L411.00000000000006,383L315.99999999999994,390L315.99999999999994,390L301,398.99999999999994L286,450.00000000000006L286,450.00000000000006L287,453"></path><path id="#path_c" fill="none" stroke-width="5" stroke="#00ffff" stroke-opacity="0.3" d="M569,449.00000000000006L502,418L416.99999999999994,384L411.00000000000006,383L411.00000000000006,383L315.99999999999994,390L315.99999999999994,390L301,398.99999999999994L286,450.00000000000006L286,450.00000000000006L287,453"></path><path id="#path_c" fill="none" stroke-width="5" stroke="#00ffff" stroke-opacity="0.3" d="M569,449.00000000000006L502,418L416.99999999999994,384L411.00000000000006,383L411.00000000000006,383L315.99999999999994,390L315.99999999999994,390L301,398.99999999999994L286,450.00000000000006L286,450.00000000000006L287,453"></path><path id="#path_c" fill="none" stroke-width="5" stroke="#00ffff" stroke-opacity="0.3" d="M569,449.00000000000006L502,418L416.99999999999994,384L411.00000000000006,383L411.00000000000006,383L315.99999999999994,390L315.99999999999994,390L301,398.99999999999994L286,450.00000000000006L286,450.00000000000006L287,453"></path><path id="#path_c" fill="none" stroke-width="5" stroke="#00ffff" stroke-opacity="0.3" d="M569,449.00000000000006L502,418L416.99999999999994,384L411.00000000000006,383L411.00000000000006,383L315.99999999999994,390L315.99999999999994,390L301,398.99999999999994L286,450.00000000000006L286,450.00000000000006L287,453"></path><path id="#path_c" fill="none" stroke-width="5" stroke="#00ffff" stroke-opacity="0.3" d="M569,449.00000000000006L502,418L416.99999999999994,384L411.00000000000006,383L411.00000000000006,383L315.99999999999994,390L315.99999999999994,390L301,398.99999999999994L286,450.00000000000006L286,450.00000000000006L287,453"></path><path id="#path_c" fill="none" stroke-width="5" stroke="#00ffff" stroke-opacity="0.3" d="M569,449.00000000000006L502,418L416.99999999999994,384L411.00000000000006,383L411.00000000000006,383L315.99999999999994,390L315.99999999999994,390L301,398.99999999999994L286,450.00000000000006L286,450.00000000000006L287,453"></path><path id="#path_c" fill="none" stroke-width="5" stroke="#00ffff" stroke-opacity="0.3" d="M569,449.00000000000006L502,418L416.99999999999994,384L411.00000000000006,383L411.00000000000006,383L315.99999999999994,390L315.99999999999994,390L301,398.99999999999994L286,450.00000000000006L286,450.00000000000006L287,453"></path><path id="#path_c" fill="none" stroke-width="5" stroke="#00ffff" stroke-opacity="0.3" d="M569,449.00000000000006L502,418L416.99999999999994,384L411.00000000000006,383L411.00000000000006,383L315.99999999999994,390L315.99999999999994,390L301,398.99999999999994L286,450.00000000000006L286,450.00000000000006L287,453"></path><path id="#path_c" fill="none" stroke-width="5" stroke="#00ffff" stroke-opacity="0.3" d="M569,449.00000000000006L502,418L416.99999999999994,384L411.00000000000006,383L411.00000000000006,383L315.99999999999994,390L315.99999999999994,390L301,398.99999999999994L286,450.00000000000006L286,450.00000000000006L287,453"></path><path id="#path_c" fill="none" stroke-width="5" stroke="#00ffff" stroke-opacity="0.3" d="M569,449.00000000000006L502,418L416.99999999999994,384L411.00000000000006,383L411.00000000000006,383L315.99999999999994,390L315.99999999999994,390L301,398.99999999999994L286,450.00000000000006L286,450.00000000000006L287,453"></path><path id="#path_c" fill="none" stroke-width="5" stroke="#00ffff" stroke-opacity="0.3" d="M569,449.00000000000006L502,418L416.99999999999994,384L411.00000000000006,383L411.00000000000006,383L315.99999999999994,390L315.99999999999994,390L301,398.99999999999994L286,450.00000000000006L286,450.00000000000006L287,453"></path><path id="#path_c" fill="none" stroke-width="5" stroke="#00ffff" stroke-opacity="0.3" d="M569,449.00000000000006L502,418L416.99999999999994,384L411.00000000000006,383L411.00000000000006,383L315.99999999999994,390L315.99999999999994,390L301,398.99999999999994L286,450.00000000000006L286,450.00000000000006L287,453"></path><path id="#path_c" fill="none" stroke-width="5" stroke="#00ffff" stroke-opacity="0.3" d="M569,449.00000000000006L502,418L416.99999999999994,384L411.00000000000006,383L411.00000000000006,383L315.99999999999994,390L315.99999999999994,390L301,398.99999999999994L286,450.00000000000006L286,450.00000000000006L287,453"></path><path id="#path_c" fill="none" stroke-width="5" stroke="#00ffff" stroke-opacity="0.3" d="M569,449.00000000000006L502,418L416.99999999999994,384L411.00000000000006,383L411.00000000000006,383L315.99999999999994,390L315.99999999999994,390L301,398.99999999999994L286,450.00000000000006L286,450.00000000000006L287,453"></path><path id="#path_c" fill="none" stroke-width="5" stroke="#00ffff" stroke-opacity="0.3" d="M569,449.00000000000006L502,418L416.99999999999994,384L411.00000000000006,383L411.00000000000006,383L315.99999999999994,390L315.99999999999994,390L301,398.99999999999994L286,450.00000000000006L286,450.00000000000006L287,453"></path><path id="#path_c" fill="none" stroke-width="5" stroke="#00ffff" stroke-opacity="0.3" d="M569,449.00000000000006L502,418L416.99999999999994,384L411.00000000000006,383L411.00000000000006,383L315.99999999999994,390L315.99999999999994,390L301,398.99999999999994L286,450.00000000000006L286,450.00000000000006L287,453"></path><path id="#path_c" fill="none" stroke-width="5" stroke="#00ffff" stroke-opacity="0.3" d="M569,449.00000000000006L502,418L416.99999999999994,384L411.00000000000006,383L411.00000000000006,383L315.99999999999994,390L315.99999999999994,390L301,398.99999999999994L286,450.00000000000006L286,450.00000000000006L287,453"></path><path id="#path_c" fill="none" stroke-width="5" stroke="#00ffff" stroke-opacity="0.3" d="M569,449.00000000000006L502,418L416.99999999999994,384L411.00000000000006,383L411.00000000000006,383L315.99999999999994,390L315.99999999999994,390L301,398.99999999999994L286,450.00000000000006L286,450.00000000000006L287,453"></path><path id="#path_c" fill="none" stroke-width="5" stroke="#00ffff" stroke-opacity="0.3" d="M569,449.00000000000006L502,418L416.99999999999994,384L411.00000000000006,383L411.00000000000006,383L315.99999999999994,390L315.99999999999994,390L301,398.99999999999994L286,450.00000000000006L286,450.00000000000006L287,453"></path><path id="#path_c" fill="none" stroke-width="5" stroke="#00ffff" stroke-opacity="0.3" d="M569,449.00000000000006L502,418L416.99999999999994,384L411.00000000000006,383L411.00000000000006,383L315.99999999999994,390L315.99999999999994,390L301,398.99999999999994L286,450.00000000000006L286,450.00000000000006L287,453"></path><path id="#path_c" fill="none" stroke-width="5" stroke="#00ffff" stroke-opacity="0.3" d="M569,449.00000000000006L502,418L416.99999999999994,384L411.00000000000006,383L411.00000000000006,383L315.99999999999994,390L315.99999999999994,390L301,398.99999999999994L286,450.00000000000006L286,450.00000000000006L287,453"></path><path id="#path_c" fill="none" stroke-width="5" stroke="#00ffff" stroke-opacity="0.3" d="M569,449.00000000000006L502,418L416.99999999999994,384L411.00000000000006,383L411.00000000000006,383L315.99999999999994,390L315.99999999999994,390L301,398.99999999999994L286,450.00000000000006L286,450.00000000000006L287,453"></path><path id="#path_c" fill="none" stroke-width="5" stroke="#00ffff" stroke-opacity="0.3" d="M569,449.00000000000006L502,418L416.99999999999994,384L411.00000000000006,383L411.00000000000006,383L315.99999999999994,390L315.99999999999994,390L301,398.99999999999994L286,450.00000000000006L286,450.00000000000006L287,453"></path><path id="#path_c" fill="none" stroke-width="5" stroke="#00ffff" stroke-opacity="0.3" d="M569,449.00000000000006L502,418L416.99999999999994,384L411.00000000000006,383L411.00000000000006,383L315.99999999999994,390L315.99999999999994,390L301,398.99999999999994L286,450.00000000000006L286,450.00000000000006L287,453"></path><path id="#path_c" fill="none" stroke-width="5" stroke="#00ffff" stroke-opacity="0.3" d="M569,449.00000000000006L502,418L416.99999999999994,384L411.00000000000006,383L411.00000000000006,383L315.99999999999994,390L315.99999999999994,390L301,398.99999999999994L286,450.00000000000006L286,450.00000000000006L287,453"></path><path id="#path_c" fill="none" stroke-width="5" stroke="#00ffff" stroke-opacity="0.3" d="M569,449.00000000000006L502,418L416.99999999999994,384L411.00000000000006,383L411.00000000000006,383L315.99999999999994,390L315.99999999999994,390L301,398.99999999999994L286,450.00000000000006L286,450.00000000000006L287,453"></path><path id="#path_c" fill="none" stroke-width="5" stroke="#00ffff" stroke-opacity="0.3" d="M569,449.00000000000006L502,418L416.99999999999994,384L411.00000000000006,383L411.00000000000006,383L315.99999999999994,390L315.99999999999994,390L301,398.99999999999994L286,450.00000000000006L286,450.00000000000006L287,453"></path><path id="#path_c" fill="none" stroke-width="5" stroke="#00ffff" stroke-opacity="0.3" d="M569,449.00000000000006L502,418L416.99999999999994,384L411.00000000000006,383L411.00000000000006,383L315.99999999999994,390L315.99999999999994,390L301,398.99999999999994L286,450.00000000000006L286,450.00000000000006L287,453"></path><path id="#path_c" fill="none" stroke-width="5" stroke="#00ffff" stroke-opacity="0.3" d="M569,449.00000000000006L502,418L416.99999999999994,384L411.00000000000006,383L411.00000000000006,383L315.99999999999994,390L315.99999999999994,390L301,398.99999999999994L286,450.00000000000006L286,450.00000000000006L287,453"></path><path id="#path_c" fill="none" stroke-width="5" stroke="#00ffff" stroke-opacity="0.3" d="M569,449.00000000000006L502,418L416.99999999999994,384L411.00000000000006,383L411.00000000000006,383L315.99999999999994,390L315.99999999999994,390L301,398.99999999999994L286,450.00000000000006L286,450.00000000000006L287,453"></path><path id="#path_c" fill="none" stroke-width="5" stroke="#00ffff" stroke-opacity="0.3" d="M569,449.00000000000006L502,418L416.99999999999994,384L411.00000000000006,383L411.00000000000006,383L315.99999999999994,390L315.99999999999994,390L301,398.99999999999994L286,450.00000000000006L286,450.00000000000006L287,453"></path><path id="#path_c" fill="none" stroke-width="5" stroke="#00ffff" stroke-opacity="0.3" d="M569,449.00000000000006L502,418L416.99999999999994,384L411.00000000000006,383L411.00000000000006,383L315.99999999999994,390L315.99999999999994,390L301,398.99999999999994L286,450.00000000000006L286,450.00000000000006L287,453"></path><path id="#path_c" fill="none" stroke-width="5" stroke="#00ffff" stroke-opacity="0.3" d="M569,449.00000000000006L502,418L416.99999999999994,384L411.00000000000006,383L411.00000000000006,383L315.99999999999994,390L315.99999999999994,390L301,398.99999999999994L286,450.00000000000006L286,450.00000000000006L287,453"></path><path id="#path_c" fill="none" stroke-width="5" stroke="#00ffff" stroke-opacity="0.3" d="M569,449.00000000000006L502,418L416.99999999999994,384L411.00000000000006,383L411.00000000000006,383L315.99999999999994,390L315.99999999999994,390L301,398.99999999999994L286,450.00000000000006L286,450.00000000000006L287,453"></path><path id="#path_c" fill="none" stroke-width="5" stroke="#00ffff" stroke-opacity="0.3" d="M569,449.00000000000006L502,418L416.99999999999994,384L411.00000000000006,383L411.00000000000006,383L315.99999999999994,390L315.99999999999994,390L301,398.99999999999994L286,450.00000000000006L286,450.00000000000006L287,453"></path><path id="#path_c" fill="none" stroke-width="5" stroke="#00ffff" stroke-opacity="0.3" d="M569,449.00000000000006L502,418L416.99999999999994,384L411.00000000000006,383L411.00000000000006,383L315.99999999999994,390L315.99999999999994,390L301,398.99999999999994L286,450.00000000000006L286,450.00000000000006L287,453"></path><path id="#path_c" fill="none" stroke-width="5" stroke="#00ffff" stroke-opacity="0.3" d="M569,449.00000000000006L502,418L416.99999999999994,384L411.00000000000006,383L411.00000000000006,383L315.99999999999994,390L315.99999999999994,390L301,398.99999999999994L286,450.00000000000006L286,450.00000000000006L287,453"></path><path id="#path_c" fill="none" stroke-width="5" stroke="#00ffff" stroke-opacity="0.3" d="M569,449.00000000000006L502,418L416.99999999999994,384L411.00000000000006,383L411.00000000000006,383L315.99999999999994,390L315.99999999999994,390L301,398.99999999999994L286,450.00000000000006L286,450.00000000000006L287,453"></path><path id="#path_c" fill="none" stroke-width="5" stroke="#00ffff" stroke-opacity="0.3" d="M569,449.00000000000006L502,418L416.99999999999994,384L411.00000000000006,383L411.00000000000006,383L315.99999999999994,390L315.99999999999994,390L301,398.99999999999994L286,450.00000000000006L286,450.00000000000006L287,453"></path><path id="#path_c" fill="none" stroke-width="5" stroke="#00ffff" stroke-opacity="0.3" d="M569,449.00000000000006L502,418L416.99999999999994,384L411.00000000000006,383L411.00000000000006,383L315.99999999999994,390L315.99999999999994,390L301,398.99999999999994L286,450.00000000000006L286,450.00000000000006L287,453"></path><path id="#path_c" fill="none" stroke-width="5" stroke="#00ffff" stroke-opacity="0.3" d="M569,449.00000000000006L502,418L416.99999999999994,384L411.00000000000006,383L411.00000000000006,383L315.99999999999994,390L315.99999999999994,390L301,398.99999999999994L286,450.00000000000006L286,450.00000000000006L287,453"></path><path id="#path_c" fill="none" stroke-width="5" stroke="#00ffff" stroke-opacity="0.3" d="M569,449.00000000000006L502,418L416.99999999999994,384L411.00000000000006,383L411.00000000000006,383L315.99999999999994,390L315.99999999999994,390L301,398.99999999999994L286,450.00000000000006L286,450.00000000000006L287,453"></path><path id="#path_c" fill="none" stroke-width="5" stroke="#00ffff" stroke-opacity="0.3" d="M569,449.00000000000006L502,418L416.99999999999994,384L411.00000000000006,383L411.00000000000006,383L315.99999999999994,390L315.99999999999994,390L301,398.99999999999994L286,450.00000000000006L286,450.00000000000006L287,453"></path><path id="#path_c" fill="none" stroke-width="5" stroke="#00ffff" stroke-opacity="0.3" d="M569,449.00000000000006L502,418L416.99999999999994,384L411.00000000000006,383L411.00000000000006,383L315.99999999999994,390L315.99999999999994,390L301,398.99999999999994L286,450.00000000000006L286,450.00000000000006L287,453"></path><path id="#path_c" fill="none" stroke-width="5" stroke="#00ffff" stroke-opacity="0.3" d="M569,449.00000000000006L502,418L416.99999999999994,384L411.00000000000006,383L411.00000000000006,383L315.99999999999994,390L315.99999999999994,390L301,398.99999999999994L286,450.00000000000006L286,450.00000000000006L287,453"></path><path id="#path_c" fill="none" stroke-width="5" stroke="#00ffff" stroke-opacity="0.3" d="M569,449.00000000000006L502,418L416.99999999999994,384L411.00000000000006,383L411.00000000000006,383L315.99999999999994,390L315.99999999999994,390L301,398.99999999999994L286,450.00000000000006L286,450.00000000000006L287,453"></path><path id="#path_c" fill="none" stroke-width="5" stroke="#00ffff" stroke-opacity="0.3" d="M569,449.00000000000006L502,418L416.99999999999994,384L411.00000000000006,383L411.00000000000006,383L315.99999999999994,390L315.99999999999994,390L301,398.99999999999994L286,450.00000000000006L286,450.00000000000006L287,453"></path><path id="#path_c" fill="none" stroke-width="5" stroke="#00ffff" stroke-opacity="0.3" d="M569,449.00000000000006L502,418L416.99999999999994,384L411.00000000000006,383L411.00000000000006,383L315.99999999999994,390L315.99999999999994,390L301,398.99999999999994L286,450.00000000000006L286,450.00000000000006L287,453"></path><path id="#path_c" fill="none" stroke-width="5" stroke="#00ffff" stroke-opacity="0.3" d="M569,449.00000000000006L502,418L416.99999999999994,384L411.00000000000006,383L411.00000000000006,383L315.99999999999994,390L315.99999999999994,390L301,398.99999999999994L286,450.00000000000006L286,450.00000000000006L287,453"></path><path id="#path_c" fill="none" stroke-width="5" stroke="#00ffff" stroke-opacity="0.3" d="M569,449.00000000000006L502,418L416.99999999999994,384L411.00000000000006,383L411.00000000000006,383L315.99999999999994,390L315.99999999999994,390L301,398.99999999999994L286,450.00000000000006L286,450.00000000000006L287,453"></path><path id="#path_c" fill="none" stroke-width="5" stroke="#00ffff" stroke-opacity="0.3" d="M569,449.00000000000006L502,418L416.99999999999994,384L411.00000000000006,383L411.00000000000006,383L315.99999999999994,390L315.99999999999994,390L301,398.99999999999994L286,450.00000000000006L286,450.00000000000006L287,453"></path><path id="#path_c" fill="none" stroke-width="5" stroke="#00ffff" stroke-opacity="0.3" d="M569,449.00000000000006L502,418L416.99999999999994,384L411.00000000000006,383L411.00000000000006,383L315.99999999999994,390L315.99999999999994,390L301,398.99999999999994L286,450.00000000000006L286,450.00000000000006L287,453"></path><path id="#path_c" fill="none" stroke-width="5" stroke="#00ffff" stroke-opacity="0.3" d="M569,449.00000000000006L502,418L416.99999999999994,384L411.00000000000006,383L411.00000000000006,383L315.99999999999994,390L315.99999999999994,390L301,398.99999999999994L286,450.00000000000006L286,450.00000000000006L287,453"></path><path id="#path_c" fill="none" stroke-width="5" stroke="#00ffff" stroke-opacity="0.3" d="M569,449.00000000000006L502,418L416.99999999999994,384L411.00000000000006,383L411.00000000000006,383L315.99999999999994,390L315.99999999999994,390L301,398.99999999999994L286,450.00000000000006L286,450.00000000000006L287,453"></path><path id="#path_c" fill="none" stroke-width="5" stroke="#00ffff" stroke-opacity="0.3" d="M569,449.00000000000006L502,418L416.99999999999994,384L411.00000000000006,383L411.00000000000006,383L315.99999999999994,390L315.99999999999994,390L301,398.99999999999994L286,450.00000000000006L286,450.00000000000006L287,453"></path><path id="#path_c" fill="none" stroke-width="5" stroke="#00ffff" stroke-opacity="0.3" d="M569,449.00000000000006L502,418L416.99999999999994,384L411.00000000000006,383L411.00000000000006,383L315.99999999999994,390L315.99999999999994,390L301,398.99999999999994L286,450.00000000000006L286,450.00000000000006L287,453"></path><path id="#path_c" fill="none" stroke-width="5" stroke="#00ffff" stroke-opacity="0.3" d="M569,449.00000000000006L502,418L416.99999999999994,384L411.00000000000006,383L411.00000000000006,383L315.99999999999994,390L315.99999999999994,390L301,398.99999999999994L286,450.00000000000006L286,450.00000000000006L287,453"></path><path id="#path_c" fill="none" stroke-width="5" stroke="#00ffff" stroke-opacity="0.3" d="M569,449.00000000000006L502,418L416.99999999999994,384L411.00000000000006,383L411.00000000000006,383L315.99999999999994,390L315.99999999999994,390L301,398.99999999999994L286,450.00000000000006L286,450.00000000000006L287,453"></path><path id="#path_c" fill="none" stroke-width="5" stroke="#00ffff" stroke-opacity="0.3" d="M569,449.00000000000006L502,418L416.99999999999994,384L411.00000000000006,383L411.00000000000006,383L315.99999999999994,390L315.99999999999994,390L301,398.99999999999994L286,450.00000000000006L286,450.00000000000006L287,453"></path><path id="#path_c" fill="none" stroke-width="5" stroke="#00ffff" stroke-opacity="0.3" d="M569,449.00000000000006L502,418L416.99999999999994,384L411.00000000000006,383L411.00000000000006,383L315.99999999999994,390L315.99999999999994,390L301,398.99999999999994L286,450.00000000000006L286,450.00000000000006L287,453"></path><path id="#path_c" fill="none" stroke-width="5" stroke="#00ffff" stroke-opacity="0.3" d="M569,449.00000000000006L502,418L416.99999999999994,384L411.00000000000006,383L411.00000000000006,383L315.99999999999994,390L315.99999999999994,390L301,398.99999999999994L286,450.00000000000006L286,450.00000000000006L287,453"></path><path id="#path_c" fill="none" stroke-width="5" stroke="#00ffff" stroke-opacity="0.3" d="M569,449.00000000000006L502,418L416.99999999999994,384L411.00000000000006,383L411.00000000000006,383L315.99999999999994,390L315.99999999999994,390L301,398.99999999999994L286,450.00000000000006L286,450.00000000000006L287,453"></path><path id="#path_c" fill="none" stroke-width="5" stroke="#00ffff" stroke-opacity="0.3" d="M569,449.00000000000006L502,418L416.99999999999994,384L411.00000000000006,383L411.00000000000006,383L315.99999999999994,390L315.99999999999994,390L301,398.99999999999994L286,450.00000000000006L286,450.00000000000006L287,453"></path><path id="#path_c" fill="none" stroke-width="5" stroke="#00ffff" stroke-opacity="0.3" d="M569,449.00000000000006L502,418L416.99999999999994,384L411.00000000000006,383L411.00000000000006,383L315.99999999999994,390L315.99999999999994,390L301,398.99999999999994L286,450.00000000000006L286,450.00000000000006L287,453"></path><path id="#path_c" fill="none" stroke-width="5" stroke="#00ffff" stroke-opacity="0.3" d="M569,449.00000000000006L502,418L416.99999999999994,384L411.00000000000006,383L411.00000000000006,383L315.99999999999994,390L315.99999999999994,390L301,398.99999999999994L286,450.00000000000006L286,450.00000000000006L287,453"></path><path id="#path_c" fill="none" stroke-width="5" stroke="#00ffff" stroke-opacity="0.3" d="M569,449.00000000000006L502,418L416.99999999999994,384L411.00000000000006,383L411.00000000000006,383L315.99999999999994,390L315.99999999999994,390L301,398.99999999999994L286,450.00000000000006L286,450.00000000000006L287,453"></path><path id="#path_c" fill="none" stroke-width="5" stroke="#00ffff" stroke-opacity="0.3" d="M569,449.00000000000006L502,418L416.99999999999994,384L411.00000000000006,383L411.00000000000006,383L315.99999999999994,390L315.99999999999994,390L301,398.99999999999994L286,450.00000000000006L286,450.00000000000006L287,453"></path><path id="#path_c" fill="none" stroke-width="5" stroke="#00ffff" stroke-opacity="0.3" d="M569,449.00000000000006L502,418L416.99999999999994,384L411.00000000000006,383L411.00000000000006,383L315.99999999999994,390L315.99999999999994,390L301,398.99999999999994L286,450.00000000000006L286,450.00000000000006L287,453"></path><path id="#path_c" fill="none" stroke-width="5" stroke="#00ffff" stroke-opacity="0.3" d="M569,449.00000000000006L502,418L416.99999999999994,384L411.00000000000006,383L411.00000000000006,383L315.99999999999994,390L315.99999999999994,390L301,398.99999999999994L286,450.00000000000006L286,450.00000000000006L287,453"></path><path id="#path_c" fill="none" stroke-width="5" stroke="#00ffff" stroke-opacity="0.3" d="M569,449.00000000000006L502,418L416.99999999999994,384L411.00000000000006,383L411.00000000000006,383L315.99999999999994,390L315.99999999999994,390L301,398.99999999999994L286,450.00000000000006L286,450.00000000000006L287,453"></path><path id="#path_c" fill="none" stroke-width="5" stroke="#00ffff" stroke-opacity="0.3" d="M569,449.00000000000006L502,418L416.99999999999994,384L411.00000000000006,383L411.00000000000006,383L315.99999999999994,390L315.99999999999994,390L301,398.99999999999994L286,450.00000000000006L286,450.00000000000006L287,453"></path><path id="#path_c" fill="none" stroke-width="5" stroke="#00ffff" stroke-opacity="0.3" d="M569,449.00000000000006L502,418L416.99999999999994,384L411.00000000000006,383L411.00000000000006,383L315.99999999999994,390L315.99999999999994,390L301,398.99999999999994L286,450.00000000000006L286,450.00000000000006L287,453"></path><path id="#path_c" fill="none" stroke-width="5" stroke="#00ffff" stroke-opacity="0.3" d="M569,449.00000000000006L502,418L416.99999999999994,384L411.00000000000006,383L411.00000000000006,383L315.99999999999994,390L315.99999999999994,390L301,398.99999999999994L286,450.00000000000006L286,450.00000000000006L287,453"></path><path id="#path_c" fill="none" stroke-width="5" stroke="#00ffff" stroke-opacity="0.3" d="M569,449.00000000000006L502,418L416.99999999999994,384L411.00000000000006,383L411.00000000000006,383L315.99999999999994,390L315.99999999999994,390L301,398.99999999999994L286,450.00000000000006L286,450.00000000000006L287,453"></path><path id="#path_c" fill="none" stroke-width="5" stroke="#00ffff" stroke-opacity="0.3" d="M569,449.00000000000006L502,418L416.99999999999994,384L411.00000000000006,383L411.00000000000006,383L315.99999999999994,390L315.99999999999994,390L301,398.99999999999994L286,450.00000000000006L286,450.00000000000006L287,453"></path><path id="#path_c" fill="none" stroke-width="5" stroke="#00ffff" stroke-opacity="0.3" d="M569,449.00000000000006L502,418L416.99999999999994,384L411.00000000000006,383L411.00000000000006,383L315.99999999999994,390L315.99999999999994,390L301,398.99999999999994L286,450.00000000000006L286,450.00000000000006L287,453"></path><path id="#path_c" fill="none" stroke-width="5" stroke="#00ffff" stroke-opacity="0.3" d="M569,449.00000000000006L502,418L416.99999999999994,384L411.00000000000006,383L411.00000000000006,383L315.99999999999994,390L315.99999999999994,390L301,398.99999999999994L286,450.00000000000006L286,450.00000000000006L287,453"></path><path id="#path_c" fill="none" stroke-width="5" stroke="#00ffff" stroke-opacity="0.3" d="M569,449.00000000000006L502,418L416.99999999999994,384L411.00000000000006,383L411.00000000000006,383L315.99999999999994,390L315.99999999999994,390L301,398.99999999999994L286,450.00000000000006L286,450.00000000000006L287,453"></path><path id="#path_c" fill="none" stroke-width="5" stroke="#00ffff" stroke-opacity="0.3" d="M569,449.00000000000006L502,418L416.99999999999994,384L411.00000000000006,383L411.00000000000006,383L315.99999999999994,390L315.99999999999994,390L301,398.99999999999994L286,450.00000000000006L286,450.00000000000006L287,453"></path><path id="#path_c" fill="none" stroke-width="5" stroke="#00ffff" stroke-opacity="0.3" d="M569,449.00000000000006L502,418L416.99999999999994,384L411.00000000000006,383L411.00000000000006,383L315.99999999999994,390L315.99999999999994,390L301,398.99999999999994L286,450.00000000000006L286,450.00000000000006L287,453"></path><path id="#path_c" fill="none" stroke-width="5" stroke="#00ffff" stroke-opacity="0.3" d="M569,449.00000000000006L502,418L416.99999999999994,384L411.00000000000006,383L411.00000000000006,383L315.99999999999994,390L315.99999999999994,390L301,398.99999999999994L286,450.00000000000006L286,450.00000000000006L287,453"></path><path id="#path_c" fill="none" stroke-width="5" stroke="#00ffff" stroke-opacity="0.3" d="M569,449.00000000000006L502,418L416.99999999999994,384L411.00000000000006,383L411.00000000000006,383L315.99999999999994,390L315.99999999999994,390L301,398.99999999999994L286,450.00000000000006L286,450.00000000000006L287,453"></path><path id="#path_c" fill="none" stroke-width="5" stroke="#00ffff" stroke-opacity="0.3" d="M569,449.00000000000006L502,418L416.99999999999994,384L411.00000000000006,383L411.00000000000006,383L315.99999999999994,390L315.99999999999994,390L301,398.99999999999994L286,450.00000000000006L286,450.00000000000006L287,453"></path><path id="#path_c" fill="none" stroke-width="5" stroke="#00ffff" stroke-opacity="0.3" d="M569,449.00000000000006L502,418L416.99999999999994,384L411.00000000000006,383L411.00000000000006,383L315.99999999999994,390L315.99999999999994,390L301,398.99999999999994L286,450.00000000000006L286,450.00000000000006L287,453"></path><path id="#path_c" fill="none" stroke-width="5" stroke="#00ffff" stroke-opacity="0.3" d="M569,449.00000000000006L502,418L416.99999999999994,384L411.00000000000006,383L411.00000000000006,383L315.99999999999994,390L315.99999999999994,390L301,398.99999999999994L286,450.00000000000006L286,450.00000000000006L287,453"></path><path id="#path_c" fill="none" stroke-width="5" stroke="#00ffff" stroke-opacity="0.3" d="M569,449.00000000000006L502,418L416.99999999999994,384L411.00000000000006,383L411.00000000000006,383L315.99999999999994,390L315.99999999999994,390L301,398.99999999999994L286,450.00000000000006L286,450.00000000000006L287,453"></path><path id="#path_c" fill="none" stroke-width="5" stroke="#00ffff" stroke-opacity="0.3" d="M569,449.00000000000006L502,418L416.99999999999994,384L411.00000000000006,383L411.00000000000006,383L315.99999999999994,390L315.99999999999994,390L301,398.99999999999994L286,450.00000000000006L286,450.00000000000006L287,453"></path><path id="#path_c" fill="none" stroke-width="5" stroke="#00ffff" stroke-opacity="0.3" d="M569,449.00000000000006L502,418L416.99999999999994,384L411.00000000000006,383L411.00000000000006,383L315.99999999999994,390L315.99999999999994,390L301,398.99999999999994L286,450.00000000000006L286,450.00000000000006L287,453"></path><path id="#path_c" fill="none" stroke-width="5" stroke="#00ffff" stroke-opacity="0.3" d="M569,449.00000000000006L502,418L416.99999999999994,384L411.00000000000006,383L411.00000000000006,383L315.99999999999994,390L315.99999999999994,390L301,398.99999999999994L286,450.00000000000006L286,450.00000000000006L287,453"></path><path id="#path_c" fill="none" stroke-width="5" stroke="#00ffff" stroke-opacity="0.3" d="M569,449.00000000000006L502,418L416.99999999999994,384L411.00000000000006,383L411.00000000000006,383L315.99999999999994,390L315.99999999999994,390L301,398.99999999999994L286,450.00000000000006L286,450.00000000000006L287,453"></path><path id="#path_c" fill="none" stroke-width="5" stroke="#00ffff" stroke-opacity="0.3" d="M569,449.00000000000006L502,418L416.99999999999994,384L411.00000000000006,383L411.00000000000006,383L315.99999999999994,390L315.99999999999994,390L301,398.99999999999994L286,450.00000000000006L286,450.00000000000006L287,453"></path><path id="#path_c" fill="none" stroke-width="5" stroke="#00ffff" stroke-opacity="0.3" d="M569,449.00000000000006L502,418L416.99999999999994,384L411.00000000000006,383L411.00000000000006,383L315.99999999999994,390L315.99999999999994,390L301,398.99999999999994L286,450.00000000000006L286,450.00000000000006L287,453"></path><path id="#path_c" fill="none" stroke-width="5" stroke="#00ffff" stroke-opacity="0.3" d="M569,449.00000000000006L502,418L416.99999999999994,384L411.00000000000006,383L411.00000000000006,383L315.99999999999994,390L315.99999999999994,390L301,398.99999999999994L286,450.00000000000006L286,450.00000000000006L287,453"></path><path id="#path_c" fill="none" stroke-width="5" stroke="#00ffff" stroke-opacity="0.3" d="M569,449.00000000000006L502,418L416.99999999999994,384L411.00000000000006,383L411.00000000000006,383L315.99999999999994,390L315.99999999999994,390L301,398.99999999999994L286,450.00000000000006L286,450.00000000000006L287,453"></path><path id="#path_c" fill="none" stroke-width="5" stroke="#00ffff" stroke-opacity="0.3" d="M569,449.00000000000006L502,418L416.99999999999994,384L411.00000000000006,383L411.00000000000006,383L315.99999999999994,390L315.99999999999994,390L301,398.99999999999994L286,450.00000000000006L286,450.00000000000006L287,453"></path><path id="#path_c" fill="none" stroke-width="5" stroke="#00ffff" stroke-opacity="0.3" d="M569,449.00000000000006L502,418L416.99999999999994,384L411.00000000000006,383L411.00000000000006,383L315.99999999999994,390L315.99999999999994,390L301,398.99999999999994L286,450.00000000000006L286,450.00000000000006L287,453"></path><path id="#path_c" fill="none" stroke-width="5" stroke="#00ffff" stroke-opacity="0.3" d="M569,449.00000000000006L502,418L416.99999999999994,384L411.00000000000006,383L411.00000000000006,383L315.99999999999994,390L315.99999999999994,390L301,398.99999999999994L286,450.00000000000006L286,450.00000000000006L287,453"></path><path id="#path_c" fill="none" stroke-width="5" stroke="#00ffff" stroke-opacity="0.3" d="M569,449.00000000000006L502,418L416.99999999999994,384L411.00000000000006,383L411.00000000000006,383L315.99999999999994,390L315.99999999999994,390L301,398.99999999999994L286,450.00000000000006L286,450.00000000000006L287,453"></path><path id="#path_c" fill="none" stroke-width="5" stroke="#00ffff" stroke-opacity="0.3" d="M569,449.00000000000006L502,418L416.99999999999994,384L411.00000000000006,383L411.00000000000006,383L315.99999999999994,390L315.99999999999994,390L301,398.99999999999994L286,450.00000000000006L286,450.00000000000006L287,453"></path><path id="#path_c" fill="none" stroke-width="5" stroke="#00ffff" stroke-opacity="0.3" d="M569,449.00000000000006L502,418L416.99999999999994,384L411.00000000000006,383L411.00000000000006,383L315.99999999999994,390L315.99999999999994,390L301,398.99999999999994L286,450.00000000000006L286,450.00000000000006L287,453"></path><path id="#path_c" fill="none" stroke-width="5" stroke="#00ffff" stroke-opacity="0.3" d="M569,449.00000000000006L502,418L416.99999999999994,384L411.00000000000006,383L411.00000000000006,383L315.99999999999994,390L315.99999999999994,390L301,398.99999999999994L286,450.00000000000006L286,450.00000000000006L287,453"></path><path id="#path_c" fill="none" stroke-width="5" stroke="#00ffff" stroke-opacity="0.3" d="M569,449.00000000000006L502,418L416.99999999999994,384L411.00000000000006,383L411.00000000000006,383L315.99999999999994,390L315.99999999999994,390L301,398.99999999999994L286,450.00000000000006L286,450.00000000000006L287,453"></path><path id="#path_c" fill="none" stroke-width="5" stroke="#00ffff" stroke-opacity="0.3" d="M569,449.00000000000006L502,418L416.99999999999994,384L411.00000000000006,383L411.00000000000006,383L315.99999999999994,390L315.99999999999994,390L301,398.99999999999994L286,450.00000000000006L286,450.00000000000006L287,453"></path><path id="#path_c" fill="none" stroke-width="5" stroke="#00ffff" stroke-opacity="0.3" d="M569,449.00000000000006L502,418L416.99999999999994,384L411.00000000000006,383L411.00000000000006,383L315.99999999999994,390L315.99999999999994,390L301,398.99999999999994L286,450.00000000000006L286,450.00000000000006L287,453"></path><path id="#path_c" fill="none" stroke-width="5" stroke="#00ffff" stroke-opacity="0.3" d="M569,449.00000000000006L502,418L416.99999999999994,384L411.00000000000006,383L411.00000000000006,383L315.99999999999994,390L315.99999999999994,390L301,398.99999999999994L286,450.00000000000006L286,450.00000000000006L287,453"></path><path id="#path_c" fill="none" stroke-width="5" stroke="#00ffff" stroke-opacity="0.3" d="M569,449.00000000000006L502,418L416.99999999999994,384L411.00000000000006,383L411.00000000000006,383L315.99999999999994,390L315.99999999999994,390L301,398.99999999999994L286,450.00000000000006L286,450.00000000000006L287,453"></path><path id="#path_c" fill="none" stroke-width="5" stroke="#00ffff" stroke-opacity="0.3" d="M569,449.00000000000006L502,418L416.99999999999994,384L411.00000000000006,383L411.00000000000006,383L315.99999999999994,390L315.99999999999994,390L301,398.99999999999994L286,450.00000000000006L286,450.00000000000006L287,453"></path><path id="#path_c" fill="none" stroke-width="5" stroke="#00ffff" stroke-opacity="0.3" d="M569,449.00000000000006L502,418L416.99999999999994,384L411.00000000000006,383L411.00000000000006,383L315.99999999999994,390L315.99999999999994,390L301,398.99999999999994L286,450.00000000000006L286,450.00000000000006L287,453"></path><path id="#path_c" fill="none" stroke-width="5" stroke="#00ffff" stroke-opacity="0.3" d="M569,449.00000000000006L502,418L416.99999999999994,384L411.00000000000006,383L411.00000000000006,383L315.99999999999994,390L315.99999999999994,390L301,398.99999999999994L286,450.00000000000006L286,450.00000000000006L287,453"></path><path id="#path_c" fill="none" stroke-width="5" stroke="#00ffff" stroke-opacity="0.3" d="M569,449.00000000000006L502,418L416.99999999999994,384L411.00000000000006,383L411.00000000000006,383L315.99999999999994,390L315.99999999999994,390L301,398.99999999999994L286,450.00000000000006L286,450.00000000000006L287,453"></path><path id="#path_c" fill="none" stroke-width="5" stroke="#00ffff" stroke-opacity="0.3" d="M569,449.00000000000006L502,418L416.99999999999994,384L411.00000000000006,383L411.00000000000006,383L315.99999999999994,390L315.99999999999994,390L301,398.99999999999994L286,450.00000000000006L286,450.00000000000006L287,453"></path><path id="#path_c" fill="none" stroke-width="5" stroke="#00ffff" stroke-opacity="0.3" d="M569,449.00000000000006L502,418L416.99999999999994,384L411.00000000000006,383L411.00000000000006,383L315.99999999999994,390L315.99999999999994,390L301,398.99999999999994L286,450.00000000000006L286,450.00000000000006L287,453"></path><path id="#path_c" fill="none" stroke-width="5" stroke="#00ffff" stroke-opacity="0.3" d="M569,449.00000000000006L502,418L416.99999999999994,384L411.00000000000006,383L411.00000000000006,383L315.99999999999994,390L315.99999999999994,390L301,398.99999999999994L286,450.00000000000006L286,450.00000000000006L287,453"></path><path id="#path_c" fill="none" stroke-width="5" stroke="#00ffff" stroke-opacity="0.3" d="M569,449.00000000000006L502,418L416.99999999999994,384L411.00000000000006,383L411.00000000000006,383L315.99999999999994,390L315.99999999999994,390L301,398.99999999999994L286,450.00000000000006L286,450.00000000000006L287,453"></path><path id="#path_c" fill="none" stroke-width="5" stroke="#00ffff" stroke-opacity="0.3" d="M569,449.00000000000006L502,418L416.99999999999994,384L411.00000000000006,383L411.00000000000006,383L315.99999999999994,390L315.99999999999994,390L301,398.99999999999994L286,450.00000000000006L286,450.00000000000006L287,453"></path><path id="#path_c" fill="none" stroke-width="5" stroke="#00ffff" stroke-opacity="0.3" d="M569,449.00000000000006L502,418L416.99999999999994,384L411.00000000000006,383L411.00000000000006,383L315.99999999999994,390L315.99999999999994,390L301,398.99999999999994L286,450.00000000000006L286,450.00000000000006L287,453"></path><path id="#path_c" fill="none" stroke-width="5" stroke="#00ffff" stroke-opacity="0.3" d="M569,449.00000000000006L502,418L416.99999999999994,384L411.00000000000006,383L411.00000000000006,383L315.99999999999994,390L315.99999999999994,390L301,398.99999999999994L286,450.00000000000006L286,450.00000000000006L287,453"></path><path id="#path_c" fill="none" stroke-width="5" stroke="#00ffff" stroke-opacity="0.3" d="M569,449.00000000000006L502,418L416.99999999999994,384L411.00000000000006,383L411.00000000000006,383L315.99999999999994,390L315.99999999999994,390L301,398.99999999999994L286,450.00000000000006L286,450.00000000000006L287,453"></path><path id="#path_c" fill="none" stroke-width="5" stroke="#00ffff" stroke-opacity="0.3" d="M569,449.00000000000006L502,418L416.99999999999994,384L411.00000000000006,383L411.00000000000006,383L315.99999999999994,390L315.99999999999994,390L301,398.99999999999994L286,450.00000000000006L286,450.00000000000006L287,453"></path><path id="#path_c" fill="none" stroke-width="5" stroke="#00ffff" stroke-opacity="0.3" d="M569,449.00000000000006L502,418L416.99999999999994,384L411.00000000000006,383L411.00000000000006,383L315.99999999999994,390L315.99999999999994,390L301,398.99999999999994L286,450.00000000000006L286,450.00000000000006L287,453"></path><path id="#path_c" fill="none" stroke-width="5" stroke="#00ffff" stroke-opacity="0.3" d="M569,449.00000000000006L502,418L416.99999999999994,384L411.00000000000006,383L411.00000000000006,383L315.99999999999994,390L315.99999999999994,390L301,398.99999999999994L286,450.00000000000006L286,450.00000000000006L287,453"></path><path id="#path_c" fill="none" stroke-width="5" stroke="#00ffff" stroke-opacity="0.3" d="M569,449.00000000000006L502,418L416.99999999999994,384L411.00000000000006,383L411.00000000000006,383L315.99999999999994,390L315.99999999999994,390L301,398.99999999999994L286,450.00000000000006L286,450.00000000000006L287,453"></path><path id="#path_c" fill="none" stroke-width="5" stroke="#00ffff" stroke-opacity="0.3" d="M569,449.00000000000006L502,418L416.99999999999994,384L411.00000000000006,383L411.00000000000006,383L315.99999999999994,390L315.99999999999994,390L301,398.99999999999994L286,450.00000000000006L286,450.00000000000006L287,453"></path><path id="#path_c" fill="none" stroke-width="5" stroke="#00ffff" stroke-opacity="0.3" d="M569,449.00000000000006L502,418L416.99999999999994,384L411.00000000000006,383L411.00000000000006,383L315.99999999999994,390L315.99999999999994,390L301,398.99999999999994L286,450.00000000000006L286,450.00000000000006L287,453"></path><path id="#path_c" fill="none" stroke-width="5" stroke="#00ffff" stroke-opacity="0.3" d="M569,449.00000000000006L502,418L416.99999999999994,384L411.00000000000006,383L411.00000000000006,383L315.99999999999994,390L315.99999999999994,390L301,398.99999999999994L286,450.00000000000006L286,450.00000000000006L287,453"></path><path id="#path_c" fill="none" stroke-width="5" stroke="#00ffff" stroke-opacity="0.3" d="M569,449.00000000000006L502,418L416.99999999999994,384L411.00000000000006,383L411.00000000000006,383L315.99999999999994,390L315.99999999999994,390L301,398.99999999999994L286,450.00000000000006L286,450.00000000000006L287,453"></path><path id="#path_c" fill="none" stroke-width="5" stroke="#00ffff" stroke-opacity="0.3" d="M569,449.00000000000006L502,418L416.99999999999994,384L411.00000000000006,383L411.00000000000006,383L315.99999999999994,390L315.99999999999994,390L301,398.99999999999994L286,450.00000000000006L286,450.00000000000006L287,453"></path><path id="#path_c" fill="none" stroke-width="5" stroke="#00ffff" stroke-opacity="0.3" d="M569,449.00000000000006L502,418L416.99999999999994,384L411.00000000000006,383L411.00000000000006,383L315.99999999999994,390L315.99999999999994,390L301,398.99999999999994L286,450.00000000000006L286,450.00000000000006L287,453"></path><path id="#path_c" fill="none" stroke-width="5" stroke="#00ffff" stroke-opacity="0.3" d="M569,449.00000000000006L502,418L416.99999999999994,384L411.00000000000006,383L411.00000000000006,383L315.99999999999994,390L315.99999999999994,390L301,398.99999999999994L286,450.00000000000006L286,450.00000000000006L287,453"></path><path id="#path_c" fill="none" stroke-width="5" stroke="#00ffff" stroke-opacity="0.3" d="M569,449.00000000000006L502,418L416.99999999999994,384L411.00000000000006,383L411.00000000000006,383L315.99999999999994,390L315.99999999999994,390L301,398.99999999999994L286,450.00000000000006L286,450.00000000000006L287,453"></path><path id="#path_c" fill="none" stroke-width="5" stroke="#00ffff" stroke-opacity="0.3" d="M569,449.00000000000006L502,418L416.99999999999994,384L411.00000000000006,383L411.00000000000006,383L315.99999999999994,390L315.99999999999994,390L301,398.99999999999994L286,450.00000000000006L286,450.00000000000006L287,453"></path><path id="#path_c" fill="none" stroke-width="5" stroke="#00ffff" stroke-opacity="0.3" d="M569,449.00000000000006L502,418L416.99999999999994,384L411.00000000000006,383L411.00000000000006,383L315.99999999999994,390L315.99999999999994,390L301,398.99999999999994L286,450.00000000000006L286,450.00000000000006L287,453"></path><path id="#path_c" fill="none" stroke-width="5" stroke="#00ffff" stroke-opacity="0.3" d="M569,449.00000000000006L502,418L416.99999999999994,384L411.00000000000006,383L411.00000000000006,383L315.99999999999994,390L315.99999999999994,390L301,398.99999999999994L286,450.00000000000006L286,450.00000000000006L287,453"></path><path id="#path_c" fill="none" stroke-width="5" stroke="#00ffff" stroke-opacity="0.3" d="M569,449.00000000000006L502,418L416.99999999999994,384L411.00000000000006,383L411.00000000000006,383L315.99999999999994,390L315.99999999999994,390L301,398.99999999999994L286,450.00000000000006L286,450.00000000000006L287,453"></path><path id="#path_c" fill="none" stroke-width="5" stroke="#00ffff" stroke-opacity="0.3" d="M569,449.00000000000006L502,418L416.99999999999994,384L411.00000000000006,383L411.00000000000006,383L315.99999999999994,390L315.99999999999994,390L301,398.99999999999994L286,450.00000000000006L286,450.00000000000006L287,453"></path><path id="#path_c" fill="none" stroke-width="5" stroke="#00ffff" stroke-opacity="0.3" d="M569,449.00000000000006L502,418L416.99999999999994,384L411.00000000000006,383L411.00000000000006,383L315.99999999999994,390L315.99999999999994,390L301,398.99999999999994L286,450.00000000000006L286,450.00000000000006L287,453"></path><path id="#path_c" fill="none" stroke-width="5" stroke="#00ffff" stroke-opacity="0.3" d="M569,449.00000000000006L502,418L416.99999999999994,384L411.00000000000006,383L411.00000000000006,383L315.99999999999994,390L315.99999999999994,390L301,398.99999999999994L286,450.00000000000006L286,450.00000000000006L287,453"></path><path id="#path_c" fill="none" stroke-width="5" stroke="#00ffff" stroke-opacity="0.3" d="M569,449.00000000000006L502,418L416.99999999999994,384L411.00000000000006,383L411.00000000000006,383L315.99999999999994,390L315.99999999999994,390L301,398.99999999999994L286,450.00000000000006L286,450.00000000000006L287,453"></path><path id="#path_c" fill="none" stroke-width="5" stroke="#00ffff" stroke-opacity="0.3" d="M569,449.00000000000006L502,418L416.99999999999994,384L411.00000000000006,383L411.00000000000006,383L315.99999999999994,390L315.99999999999994,390L301,398.99999999999994L286,450.00000000000006L286,450.00000000000006L287,453"></path><path id="#path_c" fill="none" stroke-width="5" stroke="#00ffff" stroke-opacity="0.3" d="M569,449.00000000000006L502,418L416.99999999999994,384L411.00000000000006,383L411.00000000000006,383L315.99999999999994,390L315.99999999999994,390L301,398.99999999999994L286,450.00000000000006L286,450.00000000000006L287,453"></path><path id="#path_c" fill="none" stroke-width="5" stroke="#00ffff" stroke-opacity="0.3" d="M569,449.00000000000006L502,418L416.99999999999994,384L411.00000000000006,383L411.00000000000006,383L315.99999999999994,390L315.99999999999994,390L301,398.99999999999994L286,450.00000000000006L286,450.00000000000006L287,453"></path><path id="#path_c" fill="none" stroke-width="5" stroke="#00ffff" stroke-opacity="0.3" d="M569,449.00000000000006L502,418L416.99999999999994,384L411.00000000000006,383L411.00000000000006,383L315.99999999999994,390L315.99999999999994,390L301,398.99999999999994L286,450.00000000000006L286,450.00000000000006L287,453"></path><path id="#path_c" fill="none" stroke-width="5" stroke="#00ffff" stroke-opacity="0.3" d="M569,449.00000000000006L502,418L416.99999999999994,384L411.00000000000006,383L411.00000000000006,383L315.99999999999994,390L315.99999999999994,390L301,398.99999999999994L286,450.00000000000006L286,450.00000000000006L287,453"></path><path id="#path_c" fill="none" stroke-width="5" stroke="#00ffff" stroke-opacity="0.3" d="M569,449.00000000000006L502,418L416.99999999999994,384L411.00000000000006,383L411.00000000000006,383L315.99999999999994,390L315.99999999999994,390L301,398.99999999999994L286,450.00000000000006L286,450.00000000000006L287,453"></path><path id="#path_c" fill="none" stroke-width="5" stroke="#00ffff" stroke-opacity="0.3" d="M569,449.00000000000006L502,418L416.99999999999994,384L411.00000000000006,383L411.00000000000006,383L315.99999999999994,390L315.99999999999994,390L301,398.99999999999994L286,450.00000000000006L286,450.00000000000006L287,453"></path><path id="#path_c" fill="none" stroke-width="5" stroke="#00ffff" stroke-opacity="0.3" d="M569,449.00000000000006L502,418L416.99999999999994,384L411.00000000000006,383L411.00000000000006,383L315.99999999999994,390L315.99999999999994,390L301,398.99999999999994L286,450.00000000000006L286,450.00000000000006L287,453"></path><path id="#path_c" fill="none" stroke-width="5" stroke="#00ffff" stroke-opacity="0.3" d="M569,449.00000000000006L502,418L416.99999999999994,384L411.00000000000006,383L411.00000000000006,383L315.99999999999994,390L315.99999999999994,390L301,398.99999999999994L286,450.00000000000006L286,450.00000000000006L287,453"></path><path id="#path_c" fill="none" stroke-width="5" stroke="#00ffff" stroke-opacity="0.3" d="M569,449.00000000000006L502,418L416.99999999999994,384L411.00000000000006,383L411.00000000000006,383L315.99999999999994,390L315.99999999999994,390L301,398.99999999999994L286,450.00000000000006L286,450.00000000000006L287,453"></path><path id="#path_c" fill="none" stroke-width="5" stroke="#00ffff" stroke-opacity="0.3" d="M569,449.00000000000006L502,418L416.99999999999994,384L411.00000000000006,383L411.00000000000006,383L315.99999999999994,390L315.99999999999994,390L301,398.99999999999994L286,450.00000000000006L286,450.00000000000006L287,453"></path><path id="#path_c" fill="none" stroke-width="5" stroke="#00ffff" stroke-opacity="0.3" d="M569,449.00000000000006L502,418L416.99999999999994,384L411.00000000000006,383L411.00000000000006,383L315.99999999999994,390L315.99999999999994,390L301,398.99999999999994L286,450.00000000000006L286,450.00000000000006L287,453"></path><path id="#path_c" fill="none" stroke-width="5" stroke="#00ffff" stroke-opacity="0.3" d="M569,449.00000000000006L502,418L416.99999999999994,384L411.00000000000006,383L411.00000000000006,383L315.99999999999994,390L315.99999999999994,390L301,398.99999999999994L286,450.00000000000006L286,450.00000000000006L287,453"></path><path id="#path_c" fill="none" stroke-width="5" stroke="#00ffff" stroke-opacity="0.3" d="M569,449.00000000000006L502,418L416.99999999999994,384L411.00000000000006,383L411.00000000000006,383L315.99999999999994,390L315.99999999999994,390L301,398.99999999999994L286,450.00000000000006L286,450.00000000000006L287,453"></path><path id="#path_c" fill="none" stroke-width="5" stroke="#00ffff" stroke-opacity="0.3" d="M569,449.00000000000006L502,418L416.99999999999994,384L411.00000000000006,383L411.00000000000006,383L315.99999999999994,390L315.99999999999994,390L301,398.99999999999994L286,450.00000000000006L286,450.00000000000006L287,453"></path><path id="#path_c" fill="none" stroke-width="5" stroke="#00ffff" stroke-opacity="0.3" d="M569,449.00000000000006L502,418L416.99999999999994,384L411.00000000000006,383L411.00000000000006,383L315.99999999999994,390L315.99999999999994,390L301,398.99999999999994L286,450.00000000000006L286,450.00000000000006L287,453"></path><path id="#path_c" fill="none" stroke-width="5" stroke="#00ffff" stroke-opacity="0.3" d="M569,449.00000000000006L502,418L416.99999999999994,384L411.00000000000006,383L411.00000000000006,383L315.99999999999994,390L315.99999999999994,390L301,398.99999999999994L286,450.00000000000006L286,450.00000000000006L287,453"></path><path id="#path_c" fill="none" stroke-width="5" stroke="#00ffff" stroke-opacity="0.3" d="M569,449.00000000000006L502,418L416.99999999999994,384L411.00000000000006,383L411.00000000000006,383L315.99999999999994,390L315.99999999999994,390L301,398.99999999999994L286,450.00000000000006L286,450.00000000000006L287,453"></path><path id="#path_c" fill="none" stroke-width="5" stroke="#00ffff" stroke-opacity="0.3" d="M569,449.00000000000006L502,418L416.99999999999994,384L411.00000000000006,383L411.00000000000006,383L315.99999999999994,390L315.99999999999994,390L301,398.99999999999994L286,450.00000000000006L286,450.00000000000006L287,453"></path><path id="#path_c" fill="none" stroke-width="5" stroke="#00ffff" stroke-opacity="0.3" d="M569,449.00000000000006L502,418L416.99999999999994,384L411.00000000000006,383L411.00000000000006,383L315.99999999999994,390L315.99999999999994,390L301,398.99999999999994L286,450.00000000000006L286,450.00000000000006L287,453"></path><path id="#path_c" fill="none" stroke-width="5" stroke="#00ffff" stroke-opacity="0.3" d="M569,449.00000000000006L502,418L416.99999999999994,384L411.00000000000006,383L411.00000000000006,383L315.99999999999994,390L315.99999999999994,390L301,398.99999999999994L286,450.00000000000006L286,450.00000000000006L287,453"></path><path id="#path_c" fill="none" stroke-width="5" stroke="#00ffff" stroke-opacity="0.3" d="M569,449.00000000000006L502,418L416.99999999999994,384L411.00000000000006,383L411.00000000000006,383L315.99999999999994,390L315.99999999999994,390L301,398.99999999999994L286,450.00000000000006L286,450.00000000000006L287,453"></path><path id="#path_c" fill="none" stroke-width="5" stroke="#00ffff" stroke-opacity="0.3" d="M569,449.00000000000006L502,418L416.99999999999994,384L411.00000000000006,383L411.00000000000006,383L315.99999999999994,390L315.99999999999994,390L301,398.99999999999994L286,450.00000000000006L286,450.00000000000006L287,453"></path><path id="#path_c" fill="none" stroke-width="5" stroke="#00ffff" stroke-opacity="0.3" d="M569,449.00000000000006L502,418L416.99999999999994,384L411.00000000000006,383L411.00000000000006,383L315.99999999999994,390L315.99999999999994,390L301,398.99999999999994L286,450.00000000000006L286,450.00000000000006L287,453"></path><path id="#path_c" fill="none" stroke-width="5" stroke="#00ffff" stroke-opacity="0.3" d="M569,449.00000000000006L502,418L416.99999999999994,384L411.00000000000006,383L411.00000000000006,383L315.99999999999994,390L315.99999999999994,390L301,398.99999999999994L286,450.00000000000006L286,450.00000000000006L287,453"></path><path id="#path_c" fill="none" stroke-width="5" stroke="#00ffff" stroke-opacity="0.3" d="M569,449.00000000000006L502,418L416.99999999999994,384L411.00000000000006,383L411.00000000000006,383L315.99999999999994,390L315.99999999999994,390L301,398.99999999999994L286,450.00000000000006L286,450.00000000000006L287,453"></path><path id="#path_c" fill="none" stroke-width="5" stroke="#00ffff" stroke-opacity="0.3" d="M569,449.00000000000006L502,418L416.99999999999994,384L411.00000000000006,383L411.00000000000006,383L315.99999999999994,390L315.99999999999994,390L301,398.99999999999994L286,450.00000000000006L286,450.00000000000006L287,453"></path><path id="#path_c" fill="none" stroke-width="5" stroke="#00ffff" stroke-opacity="0.3" d="M569,449.00000000000006L502,418L416.99999999999994,384L411.00000000000006,383L411.00000000000006,383L315.99999999999994,390L315.99999999999994,390L301,398.99999999999994L286,450.00000000000006L286,450.00000000000006L287,453"></path><path id="#path_c" fill="none" stroke-width="5" stroke="#00ffff" stroke-opacity="0.3" d="M569,449.00000000000006L502,418L416.99999999999994,384L411.00000000000006,383L411.00000000000006,383L315.99999999999994,390L315.99999999999994,390L301,398.99999999999994L286,450.00000000000006L286,450.00000000000006L287,453"></path><path id="#path_c" fill="none" stroke-width="5" stroke="#00ffff" stroke-opacity="0.3" d="M569,449.00000000000006L502,418L416.99999999999994,384L411.00000000000006,383L411.00000000000006,383L315.99999999999994,390L315.99999999999994,390L301,398.99999999999994L286,450.00000000000006L286,450.00000000000006L287,453"></path><path id="#path_c" fill="none" stroke-width="5" stroke="#00ffff" stroke-opacity="0.3" d="M569,449.00000000000006L502,418L416.99999999999994,384L411.00000000000006,383L411.00000000000006,383L315.99999999999994,390L315.99999999999994,390L301,398.99999999999994L286,450.00000000000006L286,450.00000000000006L287,453"></path><path id="#path_c" fill="none" stroke-width="5" stroke="#00ffff" stroke-opacity="0.3" d="M569,449.00000000000006L502,418L416.99999999999994,384L411.00000000000006,383L411.00000000000006,383L315.99999999999994,390L315.99999999999994,390L301,398.99999999999994L286,450.00000000000006L286,450.00000000000006L287,453"></path><path id="#path_c" fill="none" stroke-width="5" stroke="#00ffff" stroke-opacity="0.3" d="M569,449.00000000000006L502,418L416.99999999999994,384L411.00000000000006,383L411.00000000000006,383L315.99999999999994,390L315.99999999999994,390L301,398.99999999999994L286,450.00000000000006L286,450.00000000000006L287,453"></path><path id="#path_c" fill="none" stroke-width="5" stroke="#00ffff" stroke-opacity="0.3" d="M569,449.00000000000006L502,418L416.99999999999994,384L411.00000000000006,383L411.00000000000006,383L315.99999999999994,390L315.99999999999994,390L301,398.99999999999994L286,450.00000000000006L286,450.00000000000006L287,453"></path><path id="#path_c" fill="none" stroke-width="5" stroke="#00ffff" stroke-opacity="0.3" d="M569,449.00000000000006L502,418L416.99999999999994,384L411.00000000000006,383L411.00000000000006,383L315.99999999999994,390L315.99999999999994,390L301,398.99999999999994L286,450.00000000000006L286,450.00000000000006L287,453"></path><path id="#path_c" fill="none" stroke-width="5" stroke="#00ffff" stroke-opacity="0.3" d="M569,449.00000000000006L502,418L416.99999999999994,384L411.00000000000006,383L411.00000000000006,383L315.99999999999994,390L315.99999999999994,390L301,398.99999999999994L286,450.00000000000006L286,450.00000000000006L287,453"></path><path id="#path_c" fill="none" stroke-width="5" stroke="#00ffff" stroke-opacity="0.3" d="M569,449.00000000000006L502,418L416.99999999999994,384L411.00000000000006,383L411.00000000000006,383L315.99999999999994,390L315.99999999999994,390L301,398.99999999999994L286,450.00000000000006L286,450.00000000000006L287,453"></path><path id="#path_c" fill="none" stroke-width="5" stroke="#00ffff" stroke-opacity="0.3" d="M569,449.00000000000006L502,418L416.99999999999994,384L411.00000000000006,383L411.00000000000006,383L315.99999999999994,390L315.99999999999994,390L301,398.99999999999994L286,450.00000000000006L286,450.00000000000006L287,453"></path><path id="#path_c" fill="none" stroke-width="5" stroke="#00ffff" stroke-opacity="0.3" d="M569,449.00000000000006L502,418L416.99999999999994,384L411.00000000000006,383L411.00000000000006,383L315.99999999999994,390L315.99999999999994,390L301,398.99999999999994L286,450.00000000000006L286,450.00000000000006L287,453"></path><path id="#path_c" fill="none" stroke-width="5" stroke="#00ffff" stroke-opacity="0.3" d="M569,449.00000000000006L502,418L416.99999999999994,384L411.00000000000006,383L411.00000000000006,383L315.99999999999994,390L315.99999999999994,390L301,398.99999999999994L286,450.00000000000006L286,450.00000000000006L287,453"></path><path id="#path_c" fill="none" stroke-width="5" stroke="#00ffff" stroke-opacity="0.3" d="M569,449.00000000000006L502,418L416.99999999999994,384L411.00000000000006,383L411.00000000000006,383L315.99999999999994,390L315.99999999999994,390L301,398.99999999999994L286,450.00000000000006L286,450.00000000000006L287,453"></path><path id="#path_c" fill="none" stroke-width="5" stroke="#00ffff" stroke-opacity="0.3" d="M569,449.00000000000006L502,418L416.99999999999994,384L411.00000000000006,383L411.00000000000006,383L315.99999999999994,390L315.99999999999994,390L301,398.99999999999994L286,450.00000000000006L286,450.00000000000006L287,453"></path><path id="#path_c" fill="none" stroke-width="5" stroke="#00ffff" stroke-opacity="0.3" d="M569,449.00000000000006L502,418L416.99999999999994,384L411.00000000000006,383L411.00000000000006,383L315.99999999999994,390L315.99999999999994,390L301,398.99999999999994L286,450.00000000000006L286,450.00000000000006L287,453"></path><path id="#path_c" fill="none" stroke-width="5" stroke="#00ffff" stroke-opacity="0.3" d="M569,449.00000000000006L502,418L416.99999999999994,384L411.00000000000006,383L411.00000000000006,383L315.99999999999994,390L315.99999999999994,390L301,398.99999999999994L286,450.00000000000006L286,450.00000000000006L287,453"></path><path id="#path_c" fill="none" stroke-width="5" stroke="#00ffff" stroke-opacity="0.3" d="M569,449.00000000000006L502,418L416.99999999999994,384L411.00000000000006,383L411.00000000000006,383L315.99999999999994,390L315.99999999999994,390L301,398.99999999999994L286,450.00000000000006L286,450.00000000000006L287,453"></path><path id="#path_c" fill="none" stroke-width="5" stroke="#00ffff" stroke-opacity="0.3" d="M569,449.00000000000006L502,418L416.99999999999994,384L411.00000000000006,383L411.00000000000006,383L315.99999999999994,390L315.99999999999994,390L301,398.99999999999994L286,450.00000000000006L286,450.00000000000006L287,453"></path><path id="#path_c" fill="none" stroke-width="5" stroke="#00ffff" stroke-opacity="0.3" d="M569,449.00000000000006L502,418L416.99999999999994,384L411.00000000000006,383L411.00000000000006,383L315.99999999999994,390L315.99999999999994,390L301,398.99999999999994L286,450.00000000000006L286,450.00000000000006L287,453"></path><path id="#path_c" fill="none" stroke-width="5" stroke="#00ffff" stroke-opacity="0.3" d="M569,449.00000000000006L502,418L416.99999999999994,384L411.00000000000006,383L411.00000000000006,383L315.99999999999994,390L315.99999999999994,390L301,398.99999999999994L286,450.00000000000006L286,450.00000000000006L287,453"></path><path id="#path_c" fill="none" stroke-width="5" stroke="#00ffff" stroke-opacity="0.3" d="M569,449.00000000000006L502,418L416.99999999999994,384L411.00000000000006,383L411.00000000000006,383L315.99999999999994,390L315.99999999999994,390L301,398.99999999999994L286,450.00000000000006L286,450.00000000000006L287,453"></path><path id="#path_c" fill="none" stroke-width="5" stroke="#00ffff" stroke-opacity="0.3" d="M569,449.00000000000006L502,418L416.99999999999994,384L411.00000000000006,383L411.00000000000006,383L315.99999999999994,390L315.99999999999994,390L301,398.99999999999994L286,450.00000000000006L286,450.00000000000006L287,453"></path><path id="#path_c" fill="none" stroke-width="5" stroke="#00ffff" stroke-opacity="0.3" d="M569,449.00000000000006L502,418L416.99999999999994,384L411.00000000000006,383L411.00000000000006,383L315.99999999999994,390L315.99999999999994,390L301,398.99999999999994L286,450.00000000000006L286,450.00000000000006L287,453"></path><path id="#path_c" fill="none" stroke-width="5" stroke="#00ffff" stroke-opacity="0.3" d="M569,449.00000000000006L502,418L416.99999999999994,384L411.00000000000006,383L411.00000000000006,383L315.99999999999994,390L315.99999999999994,390L301,398.99999999999994L286,450.00000000000006L286,450.00000000000006L287,453"></path><path id="#path_c" fill="none" stroke-width="5" stroke="#00ffff" stroke-opacity="0.3" d="M569,449.00000000000006L502,418L416.99999999999994,384L411.00000000000006,383L411.00000000000006,383L315.99999999999994,390L315.99999999999994,390L301,398.99999999999994L286,450.00000000000006L286,450.00000000000006L287,453"></path><path id="#path_c" fill="none" stroke-width="5" stroke="#00ffff" stroke-opacity="0.3" d="M569,449.00000000000006L502,418L416.99999999999994,384L411.00000000000006,383L411.00000000000006,383L315.99999999999994,390L315.99999999999994,390L301,398.99999999999994L286,450.00000000000006L286,450.00000000000006L287,453"></path><path id="#path_c" fill="none" stroke-width="5" stroke="#00ffff" stroke-opacity="0.3" d="M569,449.00000000000006L502,418L416.99999999999994,384L411.00000000000006,383L411.00000000000006,383L315.99999999999994,390L315.99999999999994,390L301,398.99999999999994L286,450.00000000000006L286,450.00000000000006L287,453"></path><path id="#path_c" fill="none" stroke-width="5" stroke="#00ffff" stroke-opacity="0.3" d="M569,449.00000000000006L502,418L416.99999999999994,384L411.00000000000006,383L411.00000000000006,383L315.99999999999994,390L315.99999999999994,390L301,398.99999999999994L286,450.00000000000006L286,450.00000000000006L287,453"></path><path id="#path_c" fill="none" stroke-width="5" stroke="#00ffff" stroke-opacity="0.3" d="M569,449.00000000000006L502,418L416.99999999999994,384L411.00000000000006,383L411.00000000000006,383L315.99999999999994,390L315.99999999999994,390L301,398.99999999999994L286,450.00000000000006L286,450.00000000000006L287,453"></path><path id="#path_c" fill="none" stroke-width="5" stroke="#00ffff" stroke-opacity="0.3" d="M569,449.00000000000006L502,418L416.99999999999994,384L411.00000000000006,383L411.00000000000006,383L315.99999999999994,390L315.99999999999994,390L301,398.99999999999994L286,450.00000000000006L286,450.00000000000006L287,453"></path><path id="#path_c" fill="none" stroke-width="5" stroke="#00ffff" stroke-opacity="0.3" d="M569,449.00000000000006L502,418L416.99999999999994,384L411.00000000000006,383L411.00000000000006,383L315.99999999999994,390L315.99999999999994,390L301,398.99999999999994L286,450.00000000000006L286,450.00000000000006L287,453"></path><path id="#path_c" fill="none" stroke-width="5" stroke="#00ffff" stroke-opacity="0.3" d="M569,449.00000000000006L502,418L416.99999999999994,384L411.00000000000006,383L411.00000000000006,383L315.99999999999994,390L315.99999999999994,390L301,398.99999999999994L286,450.00000000000006L286,450.00000000000006L287,453"></path><path id="#path_c" fill="none" stroke-width="5" stroke="#00ffff" stroke-opacity="0.3" d="M569,449.00000000000006L502,418L416.99999999999994,384L411.00000000000006,383L411.00000000000006,383L315.99999999999994,390L315.99999999999994,390L301,398.99999999999994L286,450.00000000000006L286,450.00000000000006L287,453"></path><path id="#path_c" fill="none" stroke-width="5" stroke="#00ffff" stroke-opacity="0.3" d="M569,449.00000000000006L502,418L416.99999999999994,384L411.00000000000006,383L411.00000000000006,383L315.99999999999994,390L315.99999999999994,390L301,398.99999999999994L286,450.00000000000006L286,450.00000000000006L287,453"></path><path id="#path_c" fill="none" stroke-width="5" stroke="#00ffff" stroke-opacity="0.3" d="M569,449.00000000000006L502,418L416.99999999999994,384L411.00000000000006,383L411.00000000000006,383L315.99999999999994,390L315.99999999999994,390L301,398.99999999999994L286,450.00000000000006L286,450.00000000000006L287,453"></path><path id="#path_c" fill="none" stroke-width="5" stroke="#00ffff" stroke-opacity="0.3" d="M569,449.00000000000006L502,418L416.99999999999994,384L411.00000000000006,383L411.00000000000006,383L315.99999999999994,390L315.99999999999994,390L301,398.99999999999994L286,450.00000000000006L286,450.00000000000006L287,453"></path><path id="#path_c" fill="none" stroke-width="5" stroke="#00ffff" stroke-opacity="0.3" d="M569,449.00000000000006L502,418L416.99999999999994,384L411.00000000000006,383L411.00000000000006,383L315.99999999999994,390L315.99999999999994,390L301,398.99999999999994L286,450.00000000000006L286,450.00000000000006L287,453"></path><path id="#path_c" fill="none" stroke-width="5" stroke="#00ffff" stroke-opacity="0.3" d="M569,449.00000000000006L502,418L416.99999999999994,384L411.00000000000006,383L411.00000000000006,383L315.99999999999994,390L315.99999999999994,390L301,398.99999999999994L286,450.00000000000006L286,450.00000000000006L287,453"></path><path id="#path_c" fill="none" stroke-width="5" stroke="#00ffff" stroke-opacity="0.3" d="M569,449.00000000000006L502,418L416.99999999999994,384L411.00000000000006,383L411.00000000000006,383L315.99999999999994,390L315.99999999999994,390L301,398.99999999999994L286,450.00000000000006L286,450.00000000000006L287,453"></path><path id="#path_c" fill="none" stroke-width="5" stroke="#00ffff" stroke-opacity="0.3" d="M569,449.00000000000006L502,418L416.99999999999994,384L411.00000000000006,383L411.00000000000006,383L315.99999999999994,390L315.99999999999994,390L301,398.99999999999994L286,450.00000000000006L286,450.00000000000006L287,453"></path><path id="#path_c" fill="none" stroke-width="5" stroke="#00ffff" stroke-opacity="0.3" d="M569,449.00000000000006L502,418L416.99999999999994,384L411.00000000000006,383L411.00000000000006,383L315.99999999999994,390L315.99999999999994,390L301,398.99999999999994L286,450.00000000000006L286,450.00000000000006L287,453"></path><path id="#path_c" fill="none" stroke-width="5" stroke="#00ffff" stroke-opacity="0.3" d="M569,449.00000000000006L502,418L416.99999999999994,384L411.00000000000006,383L411.00000000000006,383L315.99999999999994,390L315.99999999999994,390L301,398.99999999999994L286,450.00000000000006L286,450.00000000000006L287,453"></path><path id="#path_c" fill="none" stroke-width="5" stroke="#00ffff" stroke-opacity="0.3" d="M569,449.00000000000006L502,418L416.99999999999994,384L411.00000000000006,383L411.00000000000006,383L315.99999999999994,390L315.99999999999994,390L301,398.99999999999994L286,450.00000000000006L286,450.00000000000006L287,453"></path><path id="#path_c" fill="none" stroke-width="5" stroke="#00ffff" stroke-opacity="0.3" d="M569,449.00000000000006L502,418L416.99999999999994,384L411.00000000000006,383L411.00000000000006,383L315.99999999999994,390L315.99999999999994,390L301,398.99999999999994L286,450.00000000000006L286,450.00000000000006L287,453"></path><path id="#path_c" fill="none" stroke-width="5" stroke="#00ffff" stroke-opacity="0.3" d="M569,449.00000000000006L502,418L416.99999999999994,384L411.00000000000006,383L411.00000000000006,383L315.99999999999994,390L315.99999999999994,390L301,398.99999999999994L286,450.00000000000006L286,450.00000000000006L287,453"></path><path id="#path_c" fill="none" stroke-width="5" stroke="#00ffff" stroke-opacity="0.3" d="M569,449.00000000000006L502,418L416.99999999999994,384L411.00000000000006,383L411.00000000000006,383L315.99999999999994,390L315.99999999999994,390L301,398.99999999999994L286,450.00000000000006L286,450.00000000000006L287,453"></path><path id="#path_c" fill="none" stroke-width="5" stroke="#00ffff" stroke-opacity="0.3" d="M569,449.00000000000006L502,418L416.99999999999994,384L411.00000000000006,383L411.00000000000006,383L315.99999999999994,390L315.99999999999994,390L301,398.99999999999994L286,450.00000000000006L286,450.00000000000006L287,453"></path><path id="#path_c" fill="none" stroke-width="5" stroke="#00ffff" stroke-opacity="0.3" d="M569,449.00000000000006L502,418L416.99999999999994,384L411.00000000000006,383L411.00000000000006,383L315.99999999999994,390L315.99999999999994,390L301,398.99999999999994L286,450.00000000000006L286,450.00000000000006L287,453"></path><path id="#path_c" fill="none" stroke-width="5" stroke="#00ffff" stroke-opacity="0.3" d="M569,449.00000000000006L502,418L416.99999999999994,384L411.00000000000006,383L411.00000000000006,383L315.99999999999994,390L315.99999999999994,390L301,398.99999999999994L286,450.00000000000006L286,450.00000000000006L287,453"></path><path id="#path_c" fill="none" stroke-width="5" stroke="#00ffff" stroke-opacity="0.3" d="M569,449.00000000000006L502,418L416.99999999999994,384L411.00000000000006,383L411.00000000000006,383L315.99999999999994,390L315.99999999999994,390L301,398.99999999999994L286,450.00000000000006L286,450.00000000000006L287,453"></path><path id="#path_c" fill="none" stroke-width="5" stroke="#00ffff" stroke-opacity="0.3" d="M569,449.00000000000006L502,418L416.99999999999994,384L411.00000000000006,383L411.00000000000006,383L315.99999999999994,390L315.99999999999994,390L301,398.99999999999994L286,450.00000000000006L286,450.00000000000006L287,453"></path><path id="#path_c" fill="none" stroke-width="5" stroke="#00ffff" stroke-opacity="0.3" d="M569,449.00000000000006L502,418L416.99999999999994,384L411.00000000000006,383L411.00000000000006,383L315.99999999999994,390L315.99999999999994,390L301,398.99999999999994L286,450.00000000000006L286,450.00000000000006L287,453"></path><path id="#path_c" fill="none" stroke-width="5" stroke="#00ffff" stroke-opacity="0.3" d="M569,449.00000000000006L502,418L416.99999999999994,384L411.00000000000006,383L411.00000000000006,383L315.99999999999994,390L315.99999999999994,390L301,398.99999999999994L286,450.00000000000006L286,450.00000000000006L287,453"></path><path id="#path_c" fill="none" stroke-width="5" stroke="#00ffff" stroke-opacity="0.3" d="M569,449.00000000000006L502,418L416.99999999999994,384L411.00000000000006,383L411.00000000000006,383L315.99999999999994,390L315.99999999999994,390L301,398.99999999999994L286,450.00000000000006L286,450.00000000000006L287,453"></path><path id="#path_c" fill="none" stroke-width="5" stroke="#00ffff" stroke-opacity="0.3" d="M569,449.00000000000006L502,418L416.99999999999994,384L411.00000000000006,383L411.00000000000006,383L315.99999999999994,390L315.99999999999994,390L301,398.99999999999994L286,450.00000000000006L286,450.00000000000006L287,453"></path><path id="#path_c" fill="none" stroke-width="5" stroke="#00ffff" stroke-opacity="0.3" d="M569,449.00000000000006L502,418L416.99999999999994,384L411.00000000000006,383L411.00000000000006,383L315.99999999999994,390L315.99999999999994,390L301,398.99999999999994L286,450.00000000000006L286,450.00000000000006L287,453"></path><path id="#path_c" fill="none" stroke-width="5" stroke="#00ffff" stroke-opacity="0.3" d="M569,449.00000000000006L502,418L416.99999999999994,384L411.00000000000006,383L411.00000000000006,383L315.99999999999994,390L315.99999999999994,390L301,398.99999999999994L286,450.00000000000006L286,450.00000000000006L287,453"></path><path id="#path_c" fill="none" stroke-width="5" stroke="#00ffff" stroke-opacity="0.3" d="M569,449.00000000000006L502,418L416.99999999999994,384L411.00000000000006,383L411.00000000000006,383L315.99999999999994,390L315.99999999999994,390L301,398.99999999999994L286,450.00000000000006L286,450.00000000000006L287,453"></path><path id="#path_c" fill="none" stroke-width="5" stroke="#00ffff" stroke-opacity="0.3" d="M569,449.00000000000006L502,418L416.99999999999994,384L411.00000000000006,383L411.00000000000006,383L315.99999999999994,390L315.99999999999994,390L301,398.99999999999994L286,450.00000000000006L286,450.00000000000006L287,453"></path><path id="#path_c" fill="none" stroke-width="5" stroke="#00ffff" stroke-opacity="0.3" d="M569,449.00000000000006L502,418L416.99999999999994,384L411.00000000000006,383L411.00000000000006,383L315.99999999999994,390L315.99999999999994,390L301,398.99999999999994L286,450.00000000000006L286,450.00000000000006L287,453"></path><path id="#path_c" fill="none" stroke-width="5" stroke="#00ffff" stroke-opacity="0.3" d="M569,449.00000000000006L502,418L416.99999999999994,384L411.00000000000006,383L411.00000000000006,383L315.99999999999994,390L315.99999999999994,390L301,398.99999999999994L286,450.00000000000006L286,450.00000000000006L287,453"></path><path id="#path_c" fill="none" stroke-width="5" stroke="#00ffff" stroke-opacity="0.3" d="M569,449.00000000000006L502,418L416.99999999999994,384L411.00000000000006,383L411.00000000000006,383L315.99999999999994,390L315.99999999999994,390L301,398.99999999999994L286,450.00000000000006L286,450.00000000000006L287,453"></path><path id="#path_c" fill="none" stroke-width="5" stroke="#00ffff" stroke-opacity="0.3" d="M569,449.00000000000006L502,418L416.99999999999994,384L411.00000000000006,383L411.00000000000006,383L315.99999999999994,390L315.99999999999994,390L301,398.99999999999994L286,450.00000000000006L286,450.00000000000006L287,453"></path><path id="#path_c" fill="none" stroke-width="5" stroke="#00ffff" stroke-opacity="0.3" d="M569,449.00000000000006L502,418L416.99999999999994,384L411.00000000000006,383L411.00000000000006,383L315.99999999999994,390L315.99999999999994,390L301,398.99999999999994L286,450.00000000000006L286,450.00000000000006L287,453"></path></svg>