<svg width="600" height="776" id="visual_9_i"><image xlink:href="./../images/9.jpeg" x="0" y="0" width="600" height="776"></image><rect x="0" y="0" width="600" height="776" fill="#fff" opacity="0.5"></rect><circle cx="190" cy="516" r="50" opacity="0" fill="#00ffff" id="circle_0"></circle><circle cx="196" cy="593" r="50" opacity="0.5" fill="green" id="circle_1"></circle><circle cx="297" cy="446.99999999999994" r="50" opacity="0.5" fill="purple" id="circle_2"></circle><path id="#path_i" fill="none" stroke-width="5" stroke="#00ffff" stroke-opacity="0.3" d="M190,516L196,593L297,446.99999999999994"></path><path id="#path_i" fill="none" stroke-width="5" stroke="#00ffff" stroke-opacity="0.3" d="M190,516L196,593L297,446.99999999999994"></path><path id="#path_i" fill="none" stroke-width="5" stroke="#00ffff" stroke-opacity="0.3" d="M190,516L196,593L297,446.99999999999994"></path><path id="#path_i" fill="none" stroke-width="5" stroke="#00ffff" stroke-opacity="0.3" d="M190,516L196,593L297,446.99999999999994"></path><path id="#path_i" fill="none" stroke-width="5" stroke="#00ffff" stroke-opacity="0.3" d="M190,516L196,593L297,446.99999999999994"></path><path id="#path_i" fill="none" stroke-width="5" stroke="#00ffff" stroke-opacity="0.3" d="M190,516L196,593L297,446.99999999999994"></path><path id="#path_i" fill="none" stroke-width="5" stroke="#00ffff" stroke-opacity="0.3" d="M190,516L196,593L297,446.99999999999994"></path><path id="#path_i" fill="none" stroke-width="5" stroke="#00ffff" stroke-opacity="0.3" d="M190,516L196,593L297,446.99999999999994"></path><path id="#path_i" fill="none" stroke-width="5" stroke="#00ffff" stroke-opacity="0.3" d="M190,516L196,593L297,446.99999999999994"></path><path id="#path_i" fill="none" stroke-width="5" stroke="#00ffff" stroke-opacity="0.3" d="M190,516L196,593L297,446.99999999999994"></path><path id="#path_i" fill="none" stroke-width="5" stroke="#00ffff" stroke-opacity="0.3" d="M190,516L196,593L297,446.99999999999994"></path><path id="#path_i" fill="none" stroke-width="5" stroke="#00ffff" stroke-opacity="0.3" d="M190,516L196,593L297,446.99999999999994"></path><path id="#path_i" fill="none" stroke-width="5" stroke="#00ffff" stroke-opacity="0.3" d="M190,516L196,593L297,446.99999999999994"></path><path id="#path_i" fill="none" stroke-width="5" stroke="#00ffff" stroke-opacity="0.3" d="M190,516L196,593L297,446.99999999999994"></path><path id="#path_i" fill="none" stroke-width="5" stroke="#00ffff" stroke-opacity="0.3" d="M190,516L196,593L297,446.99999999999994"></path><path id="#path_i" fill="none" stroke-width="5" stroke="#00ffff" stroke-opacity="0.3" d="M190,516L196,593L297,446.99999999999994"></path><path id="#path_i" fill="none" stroke-width="5" stroke="#00ffff" stroke-opacity="0.3" d="M190,516L196,593L297,446.99999999999994"></path><path id="#path_i" fill="none" stroke-width="5" stroke="#00ffff" stroke-opacity="0.3" d="M190,516L196,593L297,446.99999999999994"></path><path id="#path_i" fill="none" stroke-width="5" stroke="#00ffff" stroke-opacity="0.3" d="M190,516L196,593L297,446.99999999999994"></path><path id="#path_i" fill="none" stroke-width="5" stroke="#00ffff" stroke-opacity="0.3" d="M190,516L196,593L297,446.99999999999994"></path><path id="#path_i" fill="none" stroke-width="5" stroke="#00ffff" stroke-opacity="0.3" d="M190,516L196,593L297,446.99999999999994"></path><path id="#path_i" fill="none" stroke-width="5" stroke="#00ffff" stroke-opacity="0.3" d="M190,516L196,593L297,446.99999999999994"></path><path id="#path_i" fill="none" stroke-width="5" stroke="#00ffff" stroke-opacity="0.3" d="M190,516L196,593L297,446.99999999999994"></path><path id="#path_i" fill="none" stroke-width="5" stroke="#00ffff" stroke-opacity="0.3" d="M190,516L196,593L297,446.99999999999994"></path><path id="#path_i" fill="none" stroke-width="5" stroke="#00ffff" stroke-opacity="0.3" d="M190,516L196,593L297,446.99999999999994"></path><path id="#path_i" fill="none" stroke-width="5" stroke="#00ffff" stroke-opacity="0.3" d="M190,516L196,593L297,446.99999999999994"></path><path id="#path_i" fill="none" stroke-width="5" stroke="#00ffff" stroke-opacity="0.3" d="M190,516L196,593L297,446.99999999999994"></path><path id="#path_i" fill="none" stroke-width="5" stroke="#00ffff" stroke-opacity="0.3" d="M190,516L196,593L297,446.99999999999994"></path><path id="#path_i" fill="none" stroke-width="5" stroke="#00ffff" stroke-opacity="0.3" d="M190,516L196,593L297,446.99999999999994"></path><path id="#path_i" fill="none" stroke-width="5" stroke="#00ffff" stroke-opacity="0.3" d="M190,516L196,593L297,446.99999999999994"></path><path id="#path_i" fill="none" stroke-width="5" stroke="#00ffff" stroke-opacity="0.3" d="M190,516L196,593L297,446.99999999999994"></path><path id="#path_i" fill="none" stroke-width="5" stroke="#00ffff" stroke-opacity="0.3" d="M190,516L196,593L297,446.99999999999994"></path><path id="#path_i" fill="none" stroke-width="5" stroke="#00ffff" stroke-opacity="0.3" d="M190,516L196,593L297,446.99999999999994"></path><path id="#path_i" fill="none" stroke-width="5" stroke="#00ffff" stroke-opacity="0.3" d="M190,516L196,593L297,446.99999999999994"></path><path id="#path_i" fill="none" stroke-width="5" stroke="#00ffff" stroke-opacity="0.3" d="M190,516L196,593L297,446.99999999999994"></path><path id="#path_i" fill="none" stroke-width="5" stroke="#00ffff" stroke-opacity="0.3" d="M190,516L196,593L297,446.99999999999994"></path><path id="#path_i" fill="none" stroke-width="5" stroke="#00ffff" stroke-opacity="0.3" d="M190,516L196,593L297,446.99999999999994"></path><path id="#path_i" fill="none" stroke-width="5" stroke="#00ffff" stroke-opacity="0.3" d="M190,516L196,593L297,446.99999999999994"></path><path id="#path_i" fill="none" stroke-width="5" stroke="#00ffff" stroke-opacity="0.3" d="M190,516L196,593L297,446.99999999999994"></path><path id="#path_i" fill="none" stroke-width="5" stroke="#00ffff" stroke-opacity="0.3" d="M190,516L196,593L297,446.99999999999994"></path><path id="#path_i" fill="none" stroke-width="5" stroke="#00ffff" stroke-opacity="0.3" d="M190,516L196,593L297,446.99999999999994"></path><path id="#path_i" fill="none" stroke-width="5" stroke="#00ffff" stroke-opacity="0.3" d="M190,516L196,593L297,446.99999999999994"></path><path id="#path_i" fill="none" stroke-width="5" stroke="#00ffff" stroke-opacity="0.3" d="M190,516L196,593L297,446.99999999999994"></path><path id="#path_i" fill="none" stroke-width="5" stroke="#00ffff" stroke-opacity="0.3" d="M190,516L196,593L297,446.99999999999994"></path><path id="#path_i" fill="none" stroke-width="5" stroke="#00ffff" stroke-opacity="0.3" d="M190,516L196,593L297,446.99999999999994"></path><path id="#path_i" fill="none" stroke-width="5" stroke="#00ffff" stroke-opacity="0.3" d="M190,516L196,593L297,446.99999999999994"></path><path id="#path_i" fill="none" stroke-width="5" stroke="#00ffff" stroke-opacity="0.3" d="M190,516L196,593L297,446.99999999999994"></path><path id="#path_i" fill="none" stroke-width="5" stroke="#00ffff" stroke-opacity="0.3" d="M190,516L196,593L297,446.99999999999994"></path><path id="#path_i" fill="none" stroke-width="5" stroke="#00ffff" stroke-opacity="0.3" d="M190,516L196,593L297,446.99999999999994"></path><path id="#path_i" fill="none" stroke-width="5" stroke="#00ffff" stroke-opacity="0.3" d="M190,516L196,593L297,446.99999999999994"></path><path id="#path_i" fill="none" stroke-width="5" stroke="#00ffff" stroke-opacity="0.3" d="M190,516L196,593L297,446.99999999999994"></path><path id="#path_i" fill="none" stroke-width="5" stroke="#00ffff" stroke-opacity="0.3" d="M190,516L196,593L297,446.99999999999994"></path><path id="#path_i" fill="none" stroke-width="5" stroke="#00ffff" stroke-opacity="0.3" d="M190,516L196,593L297,446.99999999999994"></path><path id="#path_i" fill="none" stroke-width="5" stroke="#00ffff" stroke-opacity="0.3" d="M190,516L196,593L297,446.99999999999994"></path><path id="#path_i" fill="none" stroke-width="5" stroke="#00ffff" stroke-opacity="0.3" d="M190,516L196,593L297,446.99999999999994"></path><path id="#path_i" fill="none" stroke-width="5" stroke="#00ffff" stroke-opacity="0.3" d="M190,516L196,593L297,446.99999999999994"></path><path id="#path_i" fill="none" stroke-width="5" stroke="#00ffff" stroke-opacity="0.3" d="M190,516L196,593L297,446.99999999999994"></path><path id="#path_i" fill="none" stroke-width="5" stroke="#00ffff" stroke-opacity="0.3" d="M190,516L196,593L297,446.99999999999994"></path><path id="#path_i" fill="none" stroke-width="5" stroke="#00ffff" stroke-opacity="0.3" d="M190,516L196,593L297,446.99999999999994"></path><path id="#path_i" fill="none" stroke-width="5" stroke="#00ffff" stroke-opacity="0.3" d="M190,516L196,593L297,446.99999999999994"></path><path id="#path_i" fill="none" stroke-width="5" stroke="#00ffff" stroke-opacity="0.3" d="M190,516L196,593L297,446.99999999999994"></path><path id="#path_i" fill="none" stroke-width="5" stroke="#00ffff" stroke-opacity="0.3" d="M190,516L196,593L297,446.99999999999994"></path><path id="#path_i" fill="none" stroke-width="5" stroke="#00ffff" stroke-opacity="0.3" d="M190,516L196,593L297,446.99999999999994"></path><path id="#path_i" fill="none" stroke-width="5" stroke="#00ffff" stroke-opacity="0.3" d="M190,516L196,593L297,446.99999999999994"></path><path id="#path_i" fill="none" stroke-width="5" stroke="#00ffff" stroke-opacity="0.3" d="M190,516L196,593L297,446.99999999999994"></path><path id="#path_i" fill="none" stroke-width="5" stroke="#00ffff" stroke-opacity="0.3" d="M190,516L196,593L297,446.99999999999994"></path><path id="#path_i" fill="none" stroke-width="5" stroke="#00ffff" stroke-opacity="0.3" d="M190,516L196,593L297,446.99999999999994"></path><path id="#path_i" fill="none" stroke-width="5" stroke="#00ffff" stroke-opacity="0.3" d="M190,516L196,593L297,446.99999999999994"></path><path id="#path_i" fill="none" stroke-width="5" stroke="#00ffff" stroke-opacity="0.3" d="M190,516L196,593L297,446.99999999999994"></path><path id="#path_i" fill="none" stroke-width="5" stroke="#00ffff" stroke-opacity="0.3" d="M190,516L196,593L297,446.99999999999994"></path><path id="#path_i" fill="none" stroke-width="5" stroke="#00ffff" stroke-opacity="0.3" d="M190,516L196,593L297,446.99999999999994"></path><path id="#path_i" fill="none" stroke-width="5" stroke="#00ffff" stroke-opacity="0.3" d="M190,516L196,593L297,446.99999999999994"></path><path id="#path_i" fill="none" stroke-width="5" stroke="#00ffff" stroke-opacity="0.3" d="M190,516L196,593L297,446.99999999999994"></path><path id="#path_i" fill="none" stroke-width="5" stroke="#00ffff" stroke-opacity="0.3" d="M190,516L196,593L297,446.99999999999994"></path><path id="#path_i" fill="none" stroke-width="5" stroke="#00ffff" stroke-opacity="0.3" d="M190,516L196,593L297,446.99999999999994"></path><path id="#path_i" fill="none" stroke-width="5" stroke="#00ffff" stroke-opacity="0.3" d="M190,516L196,593L297,446.99999999999994"></path><path id="#path_i" fill="none" stroke-width="5" stroke="#00ffff" stroke-opacity="0.3" d="M190,516L196,593L297,446.99999999999994"></path><path id="#path_i" fill="none" stroke-width="5" stroke="#00ffff" stroke-opacity="0.3" d="M190,516L196,593L297,446.99999999999994"></path><path id="#path_i" fill="none" stroke-width="5" stroke="#00ffff" stroke-opacity="0.3" d="M190,516L196,593L297,446.99999999999994"></path><path id="#path_i" fill="none" stroke-width="5" stroke="#00ffff" stroke-opacity="0.3" d="M190,516L196,593L297,446.99999999999994"></path><path id="#path_i" fill="none" stroke-width="5" stroke="#00ffff" stroke-opacity="0.3" d="M190,516L196,593L297,446.99999999999994"></path><path id="#path_i" fill="none" stroke-width="5" stroke="#00ffff" stroke-opacity="0.3" d="M190,516L196,593L297,446.99999999999994"></path><path id="#path_i" fill="none" stroke-width="5" stroke="#00ffff" stroke-opacity="0.3" d="M190,516L196,593L297,446.99999999999994"></path><path id="#path_i" fill="none" stroke-width="5" stroke="#00ffff" stroke-opacity="0.3" d="M190,516L196,593L297,446.99999999999994"></path><path id="#path_i" fill="none" stroke-width="5" stroke="#00ffff" stroke-opacity="0.3" d="M190,516L196,593L297,446.99999999999994"></path><path id="#path_i" fill="none" stroke-width="5" stroke="#00ffff" stroke-opacity="0.3" d="M190,516L196,593L297,446.99999999999994"></path><path id="#path_i" fill="none" stroke-width="5" stroke="#00ffff" stroke-opacity="0.3" d="M190,516L196,593L297,446.99999999999994"></path><path id="#path_i" fill="none" stroke-width="5" stroke="#00ffff" stroke-opacity="0.3" d="M190,516L196,593L297,446.99999999999994"></path><path id="#path_i" fill="none" stroke-width="5" stroke="#00ffff" stroke-opacity="0.3" d="M190,516L196,593L297,446.99999999999994"></path><path id="#path_i" fill="none" stroke-width="5" stroke="#00ffff" stroke-opacity="0.3" d="M190,516L196,593L297,446.99999999999994"></path><path id="#path_i" fill="none" stroke-width="5" stroke="#00ffff" stroke-opacity="0.3" d="M190,516L196,593L297,446.99999999999994"></path><path id="#path_i" fill="none" stroke-width="5" stroke="#00ffff" stroke-opacity="0.3" d="M190,516L196,593L297,446.99999999999994"></path><path id="#path_i" fill="none" stroke-width="5" stroke="#00ffff" stroke-opacity="0.3" d="M190,516L196,593L297,446.99999999999994"></path><path id="#path_i" fill="none" stroke-width="5" stroke="#00ffff" stroke-opacity="0.3" d="M190,516L196,593L297,446.99999999999994"></path><path id="#path_i" fill="none" stroke-width="5" stroke="#00ffff" stroke-opacity="0.3" d="M190,516L196,593L297,446.99999999999994"></path><path id="#path_i" fill="none" stroke-width="5" stroke="#00ffff" stroke-opacity="0.3" d="M190,516L196,593L297,446.99999999999994"></path><path id="#path_i" fill="none" stroke-width="5" stroke="#00ffff" stroke-opacity="0.3" d="M190,516L196,593L297,446.99999999999994"></path><path id="#path_i" fill="none" stroke-width="5" stroke="#00ffff" stroke-opacity="0.3" d="M190,516L196,593L297,446.99999999999994"></path><path id="#path_i" fill="none" stroke-width="5" stroke="#00ffff" stroke-opacity="0.3" d="M190,516L196,593L297,446.99999999999994"></path><path id="#path_i" fill="none" stroke-width="5" stroke="#00ffff" stroke-opacity="0.3" d="M190,516L196,593L297,446.99999999999994"></path><path id="#path_i" fill="none" stroke-width="5" stroke="#00ffff" stroke-opacity="0.3" d="M190,516L196,593L297,446.99999999999994"></path><path id="#path_i" fill="none" stroke-width="5" stroke="#00ffff" stroke-opacity="0.3" d="M190,516L196,593L297,446.99999999999994"></path><path id="#path_i" fill="none" stroke-width="5" stroke="#00ffff" stroke-opacity="0.3" d="M190,516L196,593L297,446.99999999999994"></path><path id="#path_i" fill="none" stroke-width="5" stroke="#00ffff" stroke-opacity="0.3" d="M190,516L196,593L297,446.99999999999994"></path><path id="#path_i" fill="none" stroke-width="5" stroke="#00ffff" stroke-opacity="0.3" d="M190,516L196,593L297,446.99999999999994"></path><path id="#path_i" fill="none" stroke-width="5" stroke="#00ffff" stroke-opacity="0.3" d="M190,516L196,593L297,446.99999999999994"></path><path id="#path_i" fill="none" stroke-width="5" stroke="#00ffff" stroke-opacity="0.3" d="M190,516L196,593L297,446.99999999999994"></path><path id="#path_i" fill="none" stroke-width="5" stroke="#00ffff" stroke-opacity="0.3" d="M190,516L196,593L297,446.99999999999994"></path><path id="#path_i" fill="none" stroke-width="5" stroke="#00ffff" stroke-opacity="0.3" d="M190,516L196,593L297,446.99999999999994"></path><path id="#path_i" fill="none" stroke-width="5" stroke="#00ffff" stroke-opacity="0.3" d="M190,516L196,593L297,446.99999999999994"></path><path id="#path_i" fill="none" stroke-width="5" stroke="#00ffff" stroke-opacity="0.3" d="M190,516L196,593L297,446.99999999999994"></path><path id="#path_i" fill="none" stroke-width="5" stroke="#00ffff" stroke-opacity="0.3" d="M190,516L196,593L297,446.99999999999994"></path><path id="#path_i" fill="none" stroke-width="5" stroke="#00ffff" stroke-opacity="0.3" d="M190,516L196,593L297,446.99999999999994"></path><path id="#path_i" fill="none" stroke-width="5" stroke="#00ffff" stroke-opacity="0.3" d="M190,516L196,593L297,446.99999999999994"></path><path id="#path_i" fill="none" stroke-width="5" stroke="#00ffff" stroke-opacity="0.3" d="M190,516L196,593L297,446.99999999999994"></path><path id="#path_i" fill="none" stroke-width="5" stroke="#00ffff" stroke-opacity="0.3" d="M190,516L196,593L297,446.99999999999994"></path><path id="#path_i" fill="none" stroke-width="5" stroke="#00ffff" stroke-opacity="0.3" d="M190,516L196,593L297,446.99999999999994"></path><path id="#path_i" fill="none" stroke-width="5" stroke="#00ffff" stroke-opacity="0.3" d="M190,516L196,593L297,446.99999999999994"></path><path id="#path_i" fill="none" stroke-width="5" stroke="#00ffff" stroke-opacity="0.3" d="M190,516L196,593L297,446.99999999999994"></path><path id="#path_i" fill="none" stroke-width="5" stroke="#00ffff" stroke-opacity="0.3" d="M190,516L196,593L297,446.99999999999994"></path><path id="#path_i" fill="none" stroke-width="5" stroke="#00ffff" stroke-opacity="0.3" d="M190,516L196,593L297,446.99999999999994"></path><path id="#path_i" fill="none" stroke-width="5" stroke="#00ffff" stroke-opacity="0.3" d="M190,516L196,593L297,446.99999999999994"></path><path id="#path_i" fill="none" stroke-width="5" stroke="#00ffff" stroke-opacity="0.3" d="M190,516L196,593L297,446.99999999999994"></path><path id="#path_i" fill="none" stroke-width="5" stroke="#00ffff" stroke-opacity="0.3" d="M190,516L196,593L297,446.99999999999994"></path><path id="#path_i" fill="none" stroke-width="5" stroke="#00ffff" stroke-opacity="0.3" d="M190,516L196,593L297,446.99999999999994"></path><path id="#path_i" fill="none" stroke-width="5" stroke="#00ffff" stroke-opacity="0.3" d="M190,516L196,593L297,446.99999999999994"></path><path id="#path_i" fill="none" stroke-width="5" stroke="#00ffff" stroke-opacity="0.3" d="M190,516L196,593L297,446.99999999999994"></path><path id="#path_i" fill="none" stroke-width="5" stroke="#00ffff" stroke-opacity="0.3" d="M190,516L196,593L297,446.99999999999994"></path><path id="#path_i" fill="none" stroke-width="5" stroke="#00ffff" stroke-opacity="0.3" d="M190,516L196,593L297,446.99999999999994"></path><path id="#path_i" fill="none" stroke-width="5" stroke="#00ffff" stroke-opacity="0.3" d="M190,516L196,593L297,446.99999999999994"></path><path id="#path_i" fill="none" stroke-width="5" stroke="#00ffff" stroke-opacity="0.3" d="M190,516L196,593L297,446.99999999999994"></path><path id="#path_i" fill="none" stroke-width="5" stroke="#00ffff" stroke-opacity="0.3" d="M190,516L196,593L297,446.99999999999994"></path><path id="#path_i" fill="none" stroke-width="5" stroke="#00ffff" stroke-opacity="0.3" d="M190,516L196,593L297,446.99999999999994"></path><path id="#path_i" fill="none" stroke-width="5" stroke="#00ffff" stroke-opacity="0.3" d="M190,516L196,593L297,446.99999999999994"></path><path id="#path_i" fill="none" stroke-width="5" stroke="#00ffff" stroke-opacity="0.3" d="M190,516L196,593L297,446.99999999999994"></path><path id="#path_i" fill="none" stroke-width="5" stroke="#00ffff" stroke-opacity="0.3" d="M190,516L196,593L297,446.99999999999994"></path><path id="#path_i" fill="none" stroke-width="5" stroke="#00ffff" stroke-opacity="0.3" d="M190,516L196,593L297,446.99999999999994"></path><path id="#path_i" fill="none" stroke-width="5" stroke="#00ffff" stroke-opacity="0.3" d="M190,516L196,593L297,446.99999999999994"></path><path id="#path_i" fill="none" stroke-width="5" stroke="#00ffff" stroke-opacity="0.3" d="M190,516L196,593L297,446.99999999999994"></path><path id="#path_i" fill="none" stroke-width="5" stroke="#00ffff" stroke-opacity="0.3" d="M190,516L196,593L297,446.99999999999994"></path><path id="#path_i" fill="none" stroke-width="5" stroke="#00ffff" stroke-opacity="0.3" d="M190,516L196,593L297,446.99999999999994"></path><path id="#path_i" fill="none" stroke-width="5" stroke="#00ffff" stroke-opacity="0.3" d="M190,516L196,593L297,446.99999999999994"></path><path id="#path_i" fill="none" stroke-width="5" stroke="#00ffff" stroke-opacity="0.3" d="M190,516L196,593L297,446.99999999999994"></path><path id="#path_i" fill="none" stroke-width="5" stroke="#00ffff" stroke-opacity="0.3" d="M190,516L196,593L297,446.99999999999994"></path><path id="#path_i" fill="none" stroke-width="5" stroke="#00ffff" stroke-opacity="0.3" d="M190,516L196,593L297,446.99999999999994"></path><path id="#path_i" fill="none" stroke-width="5" stroke="#00ffff" stroke-opacity="0.3" d="M190,516L196,593L297,446.99999999999994"></path><path id="#path_i" fill="none" stroke-width="5" stroke="#00ffff" stroke-opacity="0.3" d="M190,516L196,593L297,446.99999999999994"></path><path id="#path_i" fill="none" stroke-width="5" stroke="#00ffff" stroke-opacity="0.3" d="M190,516L196,593L297,446.99999999999994"></path><path id="#path_i" fill="none" stroke-width="5" stroke="#00ffff" stroke-opacity="0.3" d="M190,516L196,593L297,446.99999999999994"></path><path id="#path_i" fill="none" stroke-width="5" stroke="#00ffff" stroke-opacity="0.3" d="M190,516L196,593L297,446.99999999999994"></path><path id="#path_i" fill="none" stroke-width="5" stroke="#00ffff" stroke-opacity="0.3" d="M190,516L196,593L297,446.99999999999994"></path><path id="#path_i" fill="none" stroke-width="5" stroke="#00ffff" stroke-opacity="0.3" d="M190,516L196,593L297,446.99999999999994"></path><path id="#path_i" fill="none" stroke-width="5" stroke="#00ffff" stroke-opacity="0.3" d="M190,516L196,593L297,446.99999999999994"></path><path id="#path_i" fill="none" stroke-width="5" stroke="#00ffff" stroke-opacity="0.3" d="M190,516L196,593L297,446.99999999999994"></path><path id="#path_i" fill="none" stroke-width="5" stroke="#00ffff" stroke-opacity="0.3" d="M190,516L196,593L297,446.99999999999994"></path><path id="#path_i" fill="none" stroke-width="5" stroke="#00ffff" stroke-opacity="0.3" d="M190,516L196,593L297,446.99999999999994"></path><path id="#path_i" fill="none" stroke-width="5" stroke="#00ffff" stroke-opacity="0.3" d="M190,516L196,593L297,446.99999999999994"></path><path id="#path_i" fill="none" stroke-width="5" stroke="#00ffff" stroke-opacity="0.3" d="M190,516L196,593L297,446.99999999999994"></path><path id="#path_i" fill="none" stroke-width="5" stroke="#00ffff" stroke-opacity="0.3" d="M190,516L196,593L297,446.99999999999994"></path><path id="#path_i" fill="none" stroke-width="5" stroke="#00ffff" stroke-opacity="0.3" d="M190,516L196,593L297,446.99999999999994"></path><path id="#path_i" fill="none" stroke-width="5" stroke="#00ffff" stroke-opacity="0.3" d="M190,516L196,593L297,446.99999999999994"></path><path id="#path_i" fill="none" stroke-width="5" stroke="#00ffff" stroke-opacity="0.3" d="M190,516L196,593L297,446.99999999999994"></path><path id="#path_i" fill="none" stroke-width="5" stroke="#00ffff" stroke-opacity="0.3" d="M190,516L196,593L297,446.99999999999994"></path><path id="#path_i" fill="none" stroke-width="5" stroke="#00ffff" stroke-opacity="0.3" d="M190,516L196,593L297,446.99999999999994"></path><path id="#path_i" fill="none" stroke-width="5" stroke="#00ffff" stroke-opacity="0.3" d="M190,516L196,593L297,446.99999999999994"></path><path id="#path_i" fill="none" stroke-width="5" stroke="#00ffff" stroke-opacity="0.3" d="M190,516L196,593L297,446.99999999999994"></path><path id="#path_i" fill="none" stroke-width="5" stroke="#00ffff" stroke-opacity="0.3" d="M190,516L196,593L297,446.99999999999994"></path><path id="#path_i" fill="none" stroke-width="5" stroke="#00ffff" stroke-opacity="0.3" d="M190,516L196,593L297,446.99999999999994"></path><path id="#path_i" fill="none" stroke-width="5" stroke="#00ffff" stroke-opacity="0.3" d="M190,516L196,593L297,446.99999999999994"></path><path id="#path_i" fill="none" stroke-width="5" stroke="#00ffff" stroke-opacity="0.3" d="M190,516L196,593L297,446.99999999999994"></path><path id="#path_i" fill="none" stroke-width="5" stroke="#00ffff" stroke-opacity="0.3" d="M190,516L196,593L297,446.99999999999994"></path><path id="#path_i" fill="none" stroke-width="5" stroke="#00ffff" stroke-opacity="0.3" d="M190,516L196,593L297,446.99999999999994"></path><path id="#path_i" fill="none" stroke-width="5" stroke="#00ffff" stroke-opacity="0.3" d="M190,516L196,593L297,446.99999999999994"></path><path id="#path_i" fill="none" stroke-width="5" stroke="#00ffff" stroke-opacity="0.3" d="M190,516L196,593L297,446.99999999999994"></path><path id="#path_i" fill="none" stroke-width="5" stroke="#00ffff" stroke-opacity="0.3" d="M190,516L196,593L297,446.99999999999994"></path><path id="#path_i" fill="none" stroke-width="5" stroke="#00ffff" stroke-opacity="0.3" d="M190,516L196,593L297,446.99999999999994"></path><path id="#path_i" fill="none" stroke-width="5" stroke="#00ffff" stroke-opacity="0.3" d="M190,516L196,593L297,446.99999999999994"></path><path id="#path_i" fill="none" stroke-width="5" stroke="#00ffff" stroke-opacity="0.3" d="M190,516L196,593L297,446.99999999999994"></path><path id="#path_i" fill="none" stroke-width="5" stroke="#00ffff" stroke-opacity="0.3" d="M190,516L196,593L297,446.99999999999994"></path><path id="#path_i" fill="none" stroke-width="5" stroke="#00ffff" stroke-opacity="0.3" d="M190,516L196,593L297,446.99999999999994"></path><path id="#path_i" fill="none" stroke-width="5" stroke="#00ffff" stroke-opacity="0.3" d="M190,516L196,593L297,446.99999999999994"></path><path id="#path_i" fill="none" stroke-width="5" stroke="#00ffff" stroke-opacity="0.3" d="M190,516L196,593L297,446.99999999999994"></path><path id="#path_i" fill="none" stroke-width="5" stroke="#00ffff" stroke-opacity="0.3" d="M190,516L196,593L297,446.99999999999994"></path><path id="#path_i" fill="none" stroke-width="5" stroke="#00ffff" stroke-opacity="0.3" d="M190,516L196,593L297,446.99999999999994"></path><path id="#path_i" fill="none" stroke-width="5" stroke="#00ffff" stroke-opacity="0.3" d="M190,516L196,593L297,446.99999999999994"></path><path id="#path_i" fill="none" stroke-width="5" stroke="#00ffff" stroke-opacity="0.3" d="M190,516L196,593L297,446.99999999999994"></path><path id="#path_i" fill="none" stroke-width="5" stroke="#00ffff" stroke-opacity="0.3" d="M190,516L196,593L297,446.99999999999994"></path><path id="#path_i" fill="none" stroke-width="5" stroke="#00ffff" stroke-opacity="0.3" d="M190,516L196,593L297,446.99999999999994"></path><path id="#path_i" fill="none" stroke-width="5" stroke="#00ffff" stroke-opacity="0.3" d="M190,516L196,593L297,446.99999999999994"></path><path id="#path_i" fill="none" stroke-width="5" stroke="#00ffff" stroke-opacity="0.3" d="M190,516L196,593L297,446.99999999999994"></path><path id="#path_i" fill="none" stroke-width="5" stroke="#00ffff" stroke-opacity="0.3" d="M190,516L196,593L297,446.99999999999994"></path><path id="#path_i" fill="none" stroke-width="5" stroke="#00ffff" stroke-opacity="0.3" d="M190,516L196,593L297,446.99999999999994"></path><path id="#path_i" fill="none" stroke-width="5" stroke="#00ffff" stroke-opacity="0.3" d="M190,516L196,593L297,446.99999999999994"></path><path id="#path_i" fill="none" stroke-width="5" stroke="#00ffff" stroke-opacity="0.3" d="M190,516L196,593L297,446.99999999999994"></path><path id="#path_i" fill="none" stroke-width="5" stroke="#00ffff" stroke-opacity="0.3" d="M190,516L196,593L297,446.99999999999994"></path><path id="#path_i" fill="none" stroke-width="5" stroke="#00ffff" stroke-opacity="0.3" d="M190,516L196,593L297,446.99999999999994"></path><path id="#path_i" fill="none" stroke-width="5" stroke="#00ffff" stroke-opacity="0.3" d="M190,516L196,593L297,446.99999999999994"></path><path id="#path_i" fill="none" stroke-width="5" stroke="#00ffff" stroke-opacity="0.3" d="M190,516L196,593L297,446.99999999999994"></path><path id="#path_i" fill="none" stroke-width="5" stroke="#00ffff" stroke-opacity="0.3" d="M190,516L196,593L297,446.99999999999994"></path><path id="#path_i" fill="none" stroke-width="5" stroke="#00ffff" stroke-opacity="0.3" d="M190,516L196,593L297,446.99999999999994"></path><path id="#path_i" fill="none" stroke-width="5" stroke="#00ffff" stroke-opacity="0.3" d="M190,516L196,593L297,446.99999999999994"></path><path id="#path_i" fill="none" stroke-width="5" stroke="#00ffff" stroke-opacity="0.3" d="M190,516L196,593L297,446.99999999999994"></path><path id="#path_i" fill="none" stroke-width="5" stroke="#00ffff" stroke-opacity="0.3" d="M190,516L196,593L297,446.99999999999994"></path><path id="#path_i" fill="none" stroke-width="5" stroke="#00ffff" stroke-opacity="0.3" d="M190,516L196,593L297,446.99999999999994"></path><path id="#path_i" fill="none" stroke-width="5" stroke="#00ffff" stroke-opacity="0.3" d="M190,516L196,593L297,446.99999999999994"></path><path id="#path_i" fill="none" stroke-width="5" stroke="#00ffff" stroke-opacity="0.3" d="M190,516L196,593L297,446.99999999999994"></path><path id="#path_i" fill="none" stroke-width="5" stroke="#00ffff" stroke-opacity="0.3" d="M190,516L196,593L297,446.99999999999994"></path><path id="#path_i" fill="none" stroke-width="5" stroke="#00ffff" stroke-opacity="0.3" d="M190,516L196,593L297,446.99999999999994"></path><path id="#path_i" fill="none" stroke-width="5" stroke="#00ffff" stroke-opacity="0.3" d="M190,516L196,593L297,446.99999999999994"></path><path id="#path_i" fill="none" stroke-width="5" stroke="#00ffff" stroke-opacity="0.3" d="M190,516L196,593L297,446.99999999999994"></path><path id="#path_i" fill="none" stroke-width="5" stroke="#00ffff" stroke-opacity="0.3" d="M190,516L196,593L297,446.99999999999994"></path><path id="#path_i" fill="none" stroke-width="5" stroke="#00ffff" stroke-opacity="0.3" d="M190,516L196,593L297,446.99999999999994"></path><path id="#path_i" fill="none" stroke-width="5" stroke="#00ffff" stroke-opacity="0.3" d="M190,516L196,593L297,446.99999999999994"></path><path id="#path_i" fill="none" stroke-width="5" stroke="#00ffff" stroke-opacity="0.3" d="M190,516L196,593L297,446.99999999999994"></path><path id="#path_i" fill="none" stroke-width="5" stroke="#00ffff" stroke-opacity="0.3" d="M190,516L196,593L297,446.99999999999994"></path><path id="#path_i" fill="none" stroke-width="5" stroke="#00ffff" stroke-opacity="0.3" d="M190,516L196,593L297,446.99999999999994"></path><path id="#path_i" fill="none" stroke-width="5" stroke="#00ffff" stroke-opacity="0.3" d="M190,516L196,593L297,446.99999999999994"></path><path id="#path_i" fill="none" stroke-width="5" stroke="#00ffff" stroke-opacity="0.3" d="M190,516L196,593L297,446.99999999999994"></path><path id="#path_i" fill="none" stroke-width="5" stroke="#00ffff" stroke-opacity="0.3" d="M190,516L196,593L297,446.99999999999994"></path><path id="#path_i" fill="none" stroke-width="5" stroke="#00ffff" stroke-opacity="0.3" d="M190,516L196,593L297,446.99999999999994"></path><path id="#path_i" fill="none" stroke-width="5" stroke="#00ffff" stroke-opacity="0.3" d="M190,516L196,593L297,446.99999999999994"></path><path id="#path_i" fill="none" stroke-width="5" stroke="#00ffff" stroke-opacity="0.3" d="M190,516L196,593L297,446.99999999999994"></path><path id="#path_i" fill="none" stroke-width="5" stroke="#00ffff" stroke-opacity="0.3" d="M190,516L196,593L297,446.99999999999994"></path><path id="#path_i" fill="none" stroke-width="5" stroke="#00ffff" stroke-opacity="0.3" d="M190,516L196,593L297,446.99999999999994"></path><path id="#path_i" fill="none" stroke-width="5" stroke="#00ffff" stroke-opacity="0.3" d="M190,516L196,593L297,446.99999999999994"></path><path id="#path_i" fill="none" stroke-width="5" stroke="#00ffff" stroke-opacity="0.3" d="M190,516L196,593L297,446.99999999999994"></path><path id="#path_i" fill="none" stroke-width="5" stroke="#00ffff" stroke-opacity="0.3" d="M190,516L196,593L297,446.99999999999994"></path><path id="#path_i" fill="none" stroke-width="5" stroke="#00ffff" stroke-opacity="0.3" d="M190,516L196,593L297,446.99999999999994"></path><path id="#path_i" fill="none" stroke-width="5" stroke="#00ffff" stroke-opacity="0.3" d="M190,516L196,593L297,446.99999999999994"></path><path id="#path_i" fill="none" stroke-width="5" stroke="#00ffff" stroke-opacity="0.3" d="M190,516L196,593L297,446.99999999999994"></path><path id="#path_i" fill="none" stroke-width="5" stroke="#00ffff" stroke-opacity="0.3" d="M190,516L196,593L297,446.99999999999994"></path><path id="#path_i" fill="none" stroke-width="5" stroke="#00ffff" stroke-opacity="0.3" d="M190,516L196,593L297,446.99999999999994"></path><path id="#path_i" fill="none" stroke-width="5" stroke="#00ffff" stroke-opacity="0.3" d="M190,516L196,593L297,446.99999999999994"></path><path id="#path_i" fill="none" stroke-width="5" stroke="#00ffff" stroke-opacity="0.3" d="M190,516L196,593L297,446.99999999999994"></path><path id="#path_i" fill="none" stroke-width="5" stroke="#00ffff" stroke-opacity="0.3" d="M190,516L196,593L297,446.99999999999994"></path><path id="#path_i" fill="none" stroke-width="5" stroke="#00ffff" stroke-opacity="0.3" d="M190,516L196,593L297,446.99999999999994"></path><path id="#path_i" fill="none" stroke-width="5" stroke="#00ffff" stroke-opacity="0.3" d="M190,516L196,593L297,446.99999999999994"></path><path id="#path_i" fill="none" stroke-width="5" stroke="#00ffff" stroke-opacity="0.3" d="M190,516L196,593L297,446.99999999999994"></path><path id="#path_i" fill="none" stroke-width="5" stroke="#00ffff" stroke-opacity="0.3" d="M190,516L196,593L297,446.99999999999994"></path><path id="#path_i" fill="none" stroke-width="5" stroke="#00ffff" stroke-opacity="0.3" d="M190,516L196,593L297,446.99999999999994"></path><path id="#path_i" fill="none" stroke-width="5" stroke="#00ffff" stroke-opacity="0.3" d="M190,516L196,593L297,446.99999999999994"></path><path id="#path_i" fill="none" stroke-width="5" stroke="#00ffff" stroke-opacity="0.3" d="M190,516L196,593L297,446.99999999999994"></path><path id="#path_i" fill="none" stroke-width="5" stroke="#00ffff" stroke-opacity="0.3" d="M190,516L196,593L297,446.99999999999994"></path><path id="#path_i" fill="none" stroke-width="5" stroke="#00ffff" stroke-opacity="0.3" d="M190,516L196,593L297,446.99999999999994"></path><path id="#path_i" fill="none" stroke-width="5" stroke="#00ffff" stroke-opacity="0.3" d="M190,516L196,593L297,446.99999999999994"></path><path id="#path_i" fill="none" stroke-width="5" stroke="#00ffff" stroke-opacity="0.3" d="M190,516L196,593L297,446.99999999999994"></path><path id="#path_i" fill="none" stroke-width="5" stroke="#00ffff" stroke-opacity="0.3" d="M190,516L196,593L297,446.99999999999994"></path><path id="#path_i" fill="none" stroke-width="5" stroke="#00ffff" stroke-opacity="0.3" d="M190,516L196,593L297,446.99999999999994"></path><path id="#path_i" fill="none" stroke-width="5" stroke="#00ffff" stroke-opacity="0.3" d="M190,516L196,593L297,446.99999999999994"></path><path id="#path_i" fill="none" stroke-width="5" stroke="#00ffff" stroke-opacity="0.3" d="M190,516L196,593L297,446.99999999999994"></path><path id="#path_i" fill="none" stroke-width="5" stroke="#00ffff" stroke-opacity="0.3" d="M190,516L196,593L297,446.99999999999994"></path><path id="#path_i" fill="none" stroke-width="5" stroke="#00ffff" stroke-opacity="0.3" d="M190,516L196,593L297,446.99999999999994"></path><path id="#path_i" fill="none" stroke-width="5" stroke="#00ffff" stroke-opacity="0.3" d="M190,516L196,593L297,446.99999999999994"></path><path id="#path_i" fill="none" stroke-width="5" stroke="#00ffff" stroke-opacity="0.3" d="M190,516L196,593L297,446.99999999999994"></path><path id="#path_i" fill="none" stroke-width="5" stroke="#00ffff" stroke-opacity="0.3" d="M190,516L196,593L297,446.99999999999994"></path><path id="#path_i" fill="none" stroke-width="5" stroke="#00ffff" stroke-opacity="0.3" d="M190,516L196,593L297,446.99999999999994"></path><path id="#path_i" fill="none" stroke-width="5" stroke="#00ffff" stroke-opacity="0.3" d="M190,516L196,593L297,446.99999999999994"></path><path id="#path_i" fill="none" stroke-width="5" stroke="#00ffff" stroke-opacity="0.3" d="M190,516L196,593L297,446.99999999999994"></path><path id="#path_i" fill="none" stroke-width="5" stroke="#00ffff" stroke-opacity="0.3" d="M190,516L196,593L297,446.99999999999994"></path><path id="#path_i" fill="none" stroke-width="5" stroke="#00ffff" stroke-opacity="0.3" d="M190,516L196,593L297,446.99999999999994"></path><path id="#path_i" fill="none" stroke-width="5" stroke="#00ffff" stroke-opacity="0.3" d="M190,516L196,593L297,446.99999999999994"></path><path id="#path_i" fill="none" stroke-width="5" stroke="#00ffff" stroke-opacity="0.3" d="M190,516L196,593L297,446.99999999999994"></path><path id="#path_i" fill="none" stroke-width="5" stroke="#00ffff" stroke-opacity="0.3" d="M190,516L196,593L297,446.99999999999994"></path><path id="#path_i" fill="none" stroke-width="5" stroke="#00ffff" stroke-opacity="0.3" d="M190,516L196,593L297,446.99999999999994"></path><path id="#path_i" fill="none" stroke-width="5" stroke="#00ffff" stroke-opacity="0.3" d="M190,516L196,593L297,446.99999999999994"></path><path id="#path_i" fill="none" stroke-width="5" stroke="#00ffff" stroke-opacity="0.3" d="M190,516L196,593L297,446.99999999999994"></path><path id="#path_i" fill="none" stroke-width="5" stroke="#00ffff" stroke-opacity="0.3" d="M190,516L196,593L297,446.99999999999994"></path><path id="#path_i" fill="none" stroke-width="5" stroke="#00ffff" stroke-opacity="0.3" d="M190,516L196,593L297,446.99999999999994"></path><path id="#path_i" fill="none" stroke-width="5" stroke="#00ffff" stroke-opacity="0.3" d="M190,516L196,593L297,446.99999999999994"></path><path id="#path_i" fill="none" stroke-width="5" stroke="#00ffff" stroke-opacity="0.3" d="M190,516L196,593L297,446.99999999999994"></path><path id="#path_i" fill="none" stroke-width="5" stroke="#00ffff" stroke-opacity="0.3" d="M190,516L196,593L297,446.99999999999994"></path><path id="#path_i" fill="none" stroke-width="5" stroke="#00ffff" stroke-opacity="0.3" d="M190,516L196,593L297,446.99999999999994"></path><path id="#path_i" fill="none" stroke-width="5" stroke="#00ffff" stroke-opacity="0.3" d="M190,516L196,593L297,446.99999999999994"></path><path id="#path_i" fill="none" stroke-width="5" stroke="#00ffff" stroke-opacity="0.3" d="M190,516L196,593L297,446.99999999999994"></path><path id="#path_i" fill="none" stroke-width="5" stroke="#00ffff" stroke-opacity="0.3" d="M190,516L196,593L297,446.99999999999994"></path><path id="#path_i" fill="none" stroke-width="5" stroke="#00ffff" stroke-opacity="0.3" d="M190,516L196,593L297,446.99999999999994"></path><path id="#path_i" fill="none" stroke-width="5" stroke="#00ffff" stroke-opacity="0.3" d="M190,516L196,593L297,446.99999999999994"></path><path id="#path_i" fill="none" stroke-width="5" stroke="#00ffff" stroke-opacity="0.3" d="M190,516L196,593L297,446.99999999999994"></path><path id="#path_i" fill="none" stroke-width="5" stroke="#00ffff" stroke-opacity="0.3" d="M190,516L196,593L297,446.99999999999994"></path><path id="#path_i" fill="none" stroke-width="5" stroke="#00ffff" stroke-opacity="0.3" d="M190,516L196,593L297,446.99999999999994"></path><path id="#path_i" fill="none" stroke-width="5" stroke="#00ffff" stroke-opacity="0.3" d="M190,516L196,593L297,446.99999999999994"></path><path id="#path_i" fill="none" stroke-width="5" stroke="#00ffff" stroke-opacity="0.3" d="M190,516L196,593L297,446.99999999999994"></path><path id="#path_i" fill="none" stroke-width="5" stroke="#00ffff" stroke-opacity="0.3" d="M190,516L196,593L297,446.99999999999994"></path><path id="#path_i" fill="none" stroke-width="5" stroke="#00ffff" stroke-opacity="0.3" d="M190,516L196,593L297,446.99999999999994"></path><path id="#path_i" fill="none" stroke-width="5" stroke="#00ffff" stroke-opacity="0.3" d="M190,516L196,593L297,446.99999999999994"></path><path id="#path_i" fill="none" stroke-width="5" stroke="#00ffff" stroke-opacity="0.3" d="M190,516L196,593L297,446.99999999999994"></path><path id="#path_i" fill="none" stroke-width="5" stroke="#00ffff" stroke-opacity="0.3" d="M190,516L196,593L297,446.99999999999994"></path><path id="#path_i" fill="none" stroke-width="5" stroke="#00ffff" stroke-opacity="0.3" d="M190,516L196,593L297,446.99999999999994"></path><path id="#path_i" fill="none" stroke-width="5" stroke="#00ffff" stroke-opacity="0.3" d="M190,516L196,593L297,446.99999999999994"></path></svg>