<svg width="600" height="776" id="visual_9_m"><image xlink:href="./../images/9.jpeg" x="0" y="0" width="600" height="776"></image><rect x="0" y="0" width="600" height="776" fill="#fff" opacity="0.5"></rect><circle cx="367" cy="392" r="50" opacity="0" fill="#00ffff" id="circle_0"></circle><circle cx="369" cy="327" r="50" opacity="0.5" fill="green" id="circle_1"></circle><circle cx="247" cy="172" r="50" opacity="0" fill="#00ffff" id="circle_2"></circle><circle cx="247" cy="291" r="50" opacity="0" fill="#00ffff" id="circle_3"></circle><circle cx="176" cy="538" r="50" opacity="0" fill="#00ffff" id="circle_4"></circle><circle cx="241" cy="468" r="50" opacity="0" fill="#00ffff" id="circle_5"></circle><circle cx="241" cy="552" r="50" opacity="0" fill="#00ffff" id="circle_6"></circle><circle cx="191" cy="562" r="50" opacity="0" fill="#00ffff" id="circle_7"></circle><circle cx="211" cy="495.99999999999994" r="50" opacity="0" fill="#00ffff" id="circle_8"></circle><circle cx="129" cy="405" r="50" opacity="0" fill="#00ffff" id="circle_9"></circle><circle cx="69" cy="194" r="50" opacity="0" fill="#00ffff" id="circle_10"></circle><circle cx="204.00000000000003" cy="246.99999999999997" r="50" opacity="0" fill="#00ffff" id="circle_11"></circle><circle cx="219.99999999999997" cy="395" r="50" opacity="0" fill="#00ffff" id="circle_12"></circle><circle cx="310.00000000000006" cy="312" r="50" opacity="0" fill="#00ffff" id="circle_13"></circle><circle cx="355" cy="392" r="50" opacity="0" fill="#00ffff" id="circle_14"></circle><circle cx="373" cy="493.99999999999994" r="50" opacity="0.5" fill="purple" id="circle_15"></circle><path id="#path_m" fill="none" stroke-width="5" stroke="#00ffff" stroke-opacity="0.3" d="M367,392L369,327L247,172L247,291L176,538L241,468L241,552L191,562L211,495.99999999999994L129,405L69,194L204.00000000000003,246.99999999999997L219.99999999999997,395L310.00000000000006,312L355,392L373,493.99999999999994"></path><path id="#path_m" fill="none" stroke-width="5" stroke="#00ffff" stroke-opacity="0.3" d="M367,392L369,327L247,172L247,291L176,538L241,468L241,552L191,562L211,495.99999999999994L129,405L69,194L204.00000000000003,246.99999999999997L219.99999999999997,395L310.00000000000006,312L355,392L373,493.99999999999994"></path><path id="#path_m" fill="none" stroke-width="5" stroke="#00ffff" stroke-opacity="0.3" d="M367,392L369,327L247,172L247,291L176,538L241,468L241,552L191,562L211,495.99999999999994L129,405L69,194L204.00000000000003,246.99999999999997L219.99999999999997,395L310.00000000000006,312L355,392L373,493.99999999999994"></path><path id="#path_m" fill="none" stroke-width="5" stroke="#00ffff" stroke-opacity="0.3" d="M367,392L369,327L247,172L247,291L176,538L241,468L241,552L191,562L211,495.99999999999994L129,405L69,194L204.00000000000003,246.99999999999997L219.99999999999997,395L310.00000000000006,312L355,392L373,493.99999999999994"></path><path id="#path_m" fill="none" stroke-width="5" stroke="#00ffff" stroke-opacity="0.3" d="M367,392L369,327L247,172L247,291L176,538L241,468L241,552L191,562L211,495.99999999999994L129,405L69,194L204.00000000000003,246.99999999999997L219.99999999999997,395L310.00000000000006,312L355,392L373,493.99999999999994"></path><path id="#path_m" fill="none" stroke-width="5" stroke="#00ffff" stroke-opacity="0.3" d="M367,392L369,327L247,172L247,291L176,538L241,468L241,552L191,562L211,495.99999999999994L129,405L69,194L204.00000000000003,246.99999999999997L219.99999999999997,395L310.00000000000006,312L355,392L373,493.99999999999994"></path><path id="#path_m" fill="none" stroke-width="5" stroke="#00ffff" stroke-opacity="0.3" d="M367,392L369,327L247,172L247,291L176,538L241,468L241,552L191,562L211,495.99999999999994L129,405L69,194L204.00000000000003,246.99999999999997L219.99999999999997,395L310.00000000000006,312L355,392L373,493.99999999999994"></path><path id="#path_m" fill="none" stroke-width="5" stroke="#00ffff" stroke-opacity="0.3" d="M367,392L369,327L247,172L247,291L176,538L241,468L241,552L191,562L211,495.99999999999994L129,405L69,194L204.00000000000003,246.99999999999997L219.99999999999997,395L310.00000000000006,312L355,392L373,493.99999999999994"></path><path id="#path_m" fill="none" stroke-width="5" stroke="#00ffff" stroke-opacity="0.3" d="M367,392L369,327L247,172L247,291L176,538L241,468L241,552L191,562L211,495.99999999999994L129,405L69,194L204.00000000000003,246.99999999999997L219.99999999999997,395L310.00000000000006,312L355,392L373,493.99999999999994"></path><path id="#path_m" fill="none" stroke-width="5" stroke="#00ffff" stroke-opacity="0.3" d="M367,392L369,327L247,172L247,291L176,538L241,468L241,552L191,562L211,495.99999999999994L129,405L69,194L204.00000000000003,246.99999999999997L219.99999999999997,395L310.00000000000006,312L355,392L373,493.99999999999994"></path><path id="#path_m" fill="none" stroke-width="5" stroke="#00ffff" stroke-opacity="0.3" d="M367,392L369,327L247,172L247,291L176,538L241,468L241,552L191,562L211,495.99999999999994L129,405L69,194L204.00000000000003,246.99999999999997L219.99999999999997,395L310.00000000000006,312L355,392L373,493.99999999999994"></path><path id="#path_m" fill="none" stroke-width="5" stroke="#00ffff" stroke-opacity="0.3" d="M367,392L369,327L247,172L247,291L176,538L241,468L241,552L191,562L211,495.99999999999994L129,405L69,194L204.00000000000003,246.99999999999997L219.99999999999997,395L310.00000000000006,312L355,392L373,493.99999999999994"></path><path id="#path_m" fill="none" stroke-width="5" stroke="#00ffff" stroke-opacity="0.3" d="M367,392L369,327L247,172L247,291L176,538L241,468L241,552L191,562L211,495.99999999999994L129,405L69,194L204.00000000000003,246.99999999999997L219.99999999999997,395L310.00000000000006,312L355,392L373,493.99999999999994"></path><path id="#path_m" fill="none" stroke-width="5" stroke="#00ffff" stroke-opacity="0.3" d="M367,392L369,327L247,172L247,291L176,538L241,468L241,552L191,562L211,495.99999999999994L129,405L69,194L204.00000000000003,246.99999999999997L219.99999999999997,395L310.00000000000006,312L355,392L373,493.99999999999994"></path><path id="#path_m" fill="none" stroke-width="5" stroke="#00ffff" stroke-opacity="0.3" d="M367,392L369,327L247,172L247,291L176,538L241,468L241,552L191,562L211,495.99999999999994L129,405L69,194L204.00000000000003,246.99999999999997L219.99999999999997,395L310.00000000000006,312L355,392L373,493.99999999999994"></path><path id="#path_m" fill="none" stroke-width="5" stroke="#00ffff" stroke-opacity="0.3" d="M367,392L369,327L247,172L247,291L176,538L241,468L241,552L191,562L211,495.99999999999994L129,405L69,194L204.00000000000003,246.99999999999997L219.99999999999997,395L310.00000000000006,312L355,392L373,493.99999999999994"></path><path id="#path_m" fill="none" stroke-width="5" stroke="#00ffff" stroke-opacity="0.3" d="M367,392L369,327L247,172L247,291L176,538L241,468L241,552L191,562L211,495.99999999999994L129,405L69,194L204.00000000000003,246.99999999999997L219.99999999999997,395L310.00000000000006,312L355,392L373,493.99999999999994"></path><path id="#path_m" fill="none" stroke-width="5" stroke="#00ffff" stroke-opacity="0.3" d="M367,392L369,327L247,172L247,291L176,538L241,468L241,552L191,562L211,495.99999999999994L129,405L69,194L204.00000000000003,246.99999999999997L219.99999999999997,395L310.00000000000006,312L355,392L373,493.99999999999994"></path><path id="#path_m" fill="none" stroke-width="5" stroke="#00ffff" stroke-opacity="0.3" d="M367,392L369,327L247,172L247,291L176,538L241,468L241,552L191,562L211,495.99999999999994L129,405L69,194L204.00000000000003,246.99999999999997L219.99999999999997,395L310.00000000000006,312L355,392L373,493.99999999999994"></path><path id="#path_m" fill="none" stroke-width="5" stroke="#00ffff" stroke-opacity="0.3" d="M367,392L369,327L247,172L247,291L176,538L241,468L241,552L191,562L211,495.99999999999994L129,405L69,194L204.00000000000003,246.99999999999997L219.99999999999997,395L310.00000000000006,312L355,392L373,493.99999999999994"></path><path id="#path_m" fill="none" stroke-width="5" stroke="#00ffff" stroke-opacity="0.3" d="M367,392L369,327L247,172L247,291L176,538L241,468L241,552L191,562L211,495.99999999999994L129,405L69,194L204.00000000000003,246.99999999999997L219.99999999999997,395L310.00000000000006,312L355,392L373,493.99999999999994"></path><path id="#path_m" fill="none" stroke-width="5" stroke="#00ffff" stroke-opacity="0.3" d="M367,392L369,327L247,172L247,291L176,538L241,468L241,552L191,562L211,495.99999999999994L129,405L69,194L204.00000000000003,246.99999999999997L219.99999999999997,395L310.00000000000006,312L355,392L373,493.99999999999994"></path><path id="#path_m" fill="none" stroke-width="5" stroke="#00ffff" stroke-opacity="0.3" d="M367,392L369,327L247,172L247,291L176,538L241,468L241,552L191,562L211,495.99999999999994L129,405L69,194L204.00000000000003,246.99999999999997L219.99999999999997,395L310.00000000000006,312L355,392L373,493.99999999999994"></path><path id="#path_m" fill="none" stroke-width="5" stroke="#00ffff" stroke-opacity="0.3" d="M367,392L369,327L247,172L247,291L176,538L241,468L241,552L191,562L211,495.99999999999994L129,405L69,194L204.00000000000003,246.99999999999997L219.99999999999997,395L310.00000000000006,312L355,392L373,493.99999999999994"></path><path id="#path_m" fill="none" stroke-width="5" stroke="#00ffff" stroke-opacity="0.3" d="M367,392L369,327L247,172L247,291L176,538L241,468L241,552L191,562L211,495.99999999999994L129,405L69,194L204.00000000000003,246.99999999999997L219.99999999999997,395L310.00000000000006,312L355,392L373,493.99999999999994"></path><path id="#path_m" fill="none" stroke-width="5" stroke="#00ffff" stroke-opacity="0.3" d="M367,392L369,327L247,172L247,291L176,538L241,468L241,552L191,562L211,495.99999999999994L129,405L69,194L204.00000000000003,246.99999999999997L219.99999999999997,395L310.00000000000006,312L355,392L373,493.99999999999994"></path><path id="#path_m" fill="none" stroke-width="5" stroke="#00ffff" stroke-opacity="0.3" d="M367,392L369,327L247,172L247,291L176,538L241,468L241,552L191,562L211,495.99999999999994L129,405L69,194L204.00000000000003,246.99999999999997L219.99999999999997,395L310.00000000000006,312L355,392L373,493.99999999999994"></path><path id="#path_m" fill="none" stroke-width="5" stroke="#00ffff" stroke-opacity="0.3" d="M367,392L369,327L247,172L247,291L176,538L241,468L241,552L191,562L211,495.99999999999994L129,405L69,194L204.00000000000003,246.99999999999997L219.99999999999997,395L310.00000000000006,312L355,392L373,493.99999999999994"></path><path id="#path_m" fill="none" stroke-width="5" stroke="#00ffff" stroke-opacity="0.3" d="M367,392L369,327L247,172L247,291L176,538L241,468L241,552L191,562L211,495.99999999999994L129,405L69,194L204.00000000000003,246.99999999999997L219.99999999999997,395L310.00000000000006,312L355,392L373,493.99999999999994"></path><path id="#path_m" fill="none" stroke-width="5" stroke="#00ffff" stroke-opacity="0.3" d="M367,392L369,327L247,172L247,291L176,538L241,468L241,552L191,562L211,495.99999999999994L129,405L69,194L204.00000000000003,246.99999999999997L219.99999999999997,395L310.00000000000006,312L355,392L373,493.99999999999994"></path><path id="#path_m" fill="none" stroke-width="5" stroke="#00ffff" stroke-opacity="0.3" d="M367,392L369,327L247,172L247,291L176,538L241,468L241,552L191,562L211,495.99999999999994L129,405L69,194L204.00000000000003,246.99999999999997L219.99999999999997,395L310.00000000000006,312L355,392L373,493.99999999999994"></path><path id="#path_m" fill="none" stroke-width="5" stroke="#00ffff" stroke-opacity="0.3" d="M367,392L369,327L247,172L247,291L176,538L241,468L241,552L191,562L211,495.99999999999994L129,405L69,194L204.00000000000003,246.99999999999997L219.99999999999997,395L310.00000000000006,312L355,392L373,493.99999999999994"></path><path id="#path_m" fill="none" stroke-width="5" stroke="#00ffff" stroke-opacity="0.3" d="M367,392L369,327L247,172L247,291L176,538L241,468L241,552L191,562L211,495.99999999999994L129,405L69,194L204.00000000000003,246.99999999999997L219.99999999999997,395L310.00000000000006,312L355,392L373,493.99999999999994"></path><path id="#path_m" fill="none" stroke-width="5" stroke="#00ffff" stroke-opacity="0.3" d="M367,392L369,327L247,172L247,291L176,538L241,468L241,552L191,562L211,495.99999999999994L129,405L69,194L204.00000000000003,246.99999999999997L219.99999999999997,395L310.00000000000006,312L355,392L373,493.99999999999994"></path><path id="#path_m" fill="none" stroke-width="5" stroke="#00ffff" stroke-opacity="0.3" d="M367,392L369,327L247,172L247,291L176,538L241,468L241,552L191,562L211,495.99999999999994L129,405L69,194L204.00000000000003,246.99999999999997L219.99999999999997,395L310.00000000000006,312L355,392L373,493.99999999999994"></path><path id="#path_m" fill="none" stroke-width="5" stroke="#00ffff" stroke-opacity="0.3" d="M367,392L369,327L247,172L247,291L176,538L241,468L241,552L191,562L211,495.99999999999994L129,405L69,194L204.00000000000003,246.99999999999997L219.99999999999997,395L310.00000000000006,312L355,392L373,493.99999999999994"></path><path id="#path_m" fill="none" stroke-width="5" stroke="#00ffff" stroke-opacity="0.3" d="M367,392L369,327L247,172L247,291L176,538L241,468L241,552L191,562L211,495.99999999999994L129,405L69,194L204.00000000000003,246.99999999999997L219.99999999999997,395L310.00000000000006,312L355,392L373,493.99999999999994"></path><path id="#path_m" fill="none" stroke-width="5" stroke="#00ffff" stroke-opacity="0.3" d="M367,392L369,327L247,172L247,291L176,538L241,468L241,552L191,562L211,495.99999999999994L129,405L69,194L204.00000000000003,246.99999999999997L219.99999999999997,395L310.00000000000006,312L355,392L373,493.99999999999994"></path><path id="#path_m" fill="none" stroke-width="5" stroke="#00ffff" stroke-opacity="0.3" d="M367,392L369,327L247,172L247,291L176,538L241,468L241,552L191,562L211,495.99999999999994L129,405L69,194L204.00000000000003,246.99999999999997L219.99999999999997,395L310.00000000000006,312L355,392L373,493.99999999999994"></path><path id="#path_m" fill="none" stroke-width="5" stroke="#00ffff" stroke-opacity="0.3" d="M367,392L369,327L247,172L247,291L176,538L241,468L241,552L191,562L211,495.99999999999994L129,405L69,194L204.00000000000003,246.99999999999997L219.99999999999997,395L310.00000000000006,312L355,392L373,493.99999999999994"></path><path id="#path_m" fill="none" stroke-width="5" stroke="#00ffff" stroke-opacity="0.3" d="M367,392L369,327L247,172L247,291L176,538L241,468L241,552L191,562L211,495.99999999999994L129,405L69,194L204.00000000000003,246.99999999999997L219.99999999999997,395L310.00000000000006,312L355,392L373,493.99999999999994"></path><path id="#path_m" fill="none" stroke-width="5" stroke="#00ffff" stroke-opacity="0.3" d="M367,392L369,327L247,172L247,291L176,538L241,468L241,552L191,562L211,495.99999999999994L129,405L69,194L204.00000000000003,246.99999999999997L219.99999999999997,395L310.00000000000006,312L355,392L373,493.99999999999994"></path><path id="#path_m" fill="none" stroke-width="5" stroke="#00ffff" stroke-opacity="0.3" d="M367,392L369,327L247,172L247,291L176,538L241,468L241,552L191,562L211,495.99999999999994L129,405L69,194L204.00000000000003,246.99999999999997L219.99999999999997,395L310.00000000000006,312L355,392L373,493.99999999999994"></path><path id="#path_m" fill="none" stroke-width="5" stroke="#00ffff" stroke-opacity="0.3" d="M367,392L369,327L247,172L247,291L176,538L241,468L241,552L191,562L211,495.99999999999994L129,405L69,194L204.00000000000003,246.99999999999997L219.99999999999997,395L310.00000000000006,312L355,392L373,493.99999999999994"></path><path id="#path_m" fill="none" stroke-width="5" stroke="#00ffff" stroke-opacity="0.3" d="M367,392L369,327L247,172L247,291L176,538L241,468L241,552L191,562L211,495.99999999999994L129,405L69,194L204.00000000000003,246.99999999999997L219.99999999999997,395L310.00000000000006,312L355,392L373,493.99999999999994"></path><path id="#path_m" fill="none" stroke-width="5" stroke="#00ffff" stroke-opacity="0.3" d="M367,392L369,327L247,172L247,291L176,538L241,468L241,552L191,562L211,495.99999999999994L129,405L69,194L204.00000000000003,246.99999999999997L219.99999999999997,395L310.00000000000006,312L355,392L373,493.99999999999994"></path><path id="#path_m" fill="none" stroke-width="5" stroke="#00ffff" stroke-opacity="0.3" d="M367,392L369,327L247,172L247,291L176,538L241,468L241,552L191,562L211,495.99999999999994L129,405L69,194L204.00000000000003,246.99999999999997L219.99999999999997,395L310.00000000000006,312L355,392L373,493.99999999999994"></path><path id="#path_m" fill="none" stroke-width="5" stroke="#00ffff" stroke-opacity="0.3" d="M367,392L369,327L247,172L247,291L176,538L241,468L241,552L191,562L211,495.99999999999994L129,405L69,194L204.00000000000003,246.99999999999997L219.99999999999997,395L310.00000000000006,312L355,392L373,493.99999999999994"></path><path id="#path_m" fill="none" stroke-width="5" stroke="#00ffff" stroke-opacity="0.3" d="M367,392L369,327L247,172L247,291L176,538L241,468L241,552L191,562L211,495.99999999999994L129,405L69,194L204.00000000000003,246.99999999999997L219.99999999999997,395L310.00000000000006,312L355,392L373,493.99999999999994"></path><path id="#path_m" fill="none" stroke-width="5" stroke="#00ffff" stroke-opacity="0.3" d="M367,392L369,327L247,172L247,291L176,538L241,468L241,552L191,562L211,495.99999999999994L129,405L69,194L204.00000000000003,246.99999999999997L219.99999999999997,395L310.00000000000006,312L355,392L373,493.99999999999994"></path><path id="#path_m" fill="none" stroke-width="5" stroke="#00ffff" stroke-opacity="0.3" d="M367,392L369,327L247,172L247,291L176,538L241,468L241,552L191,562L211,495.99999999999994L129,405L69,194L204.00000000000003,246.99999999999997L219.99999999999997,395L310.00000000000006,312L355,392L373,493.99999999999994"></path><path id="#path_m" fill="none" stroke-width="5" stroke="#00ffff" stroke-opacity="0.3" d="M367,392L369,327L247,172L247,291L176,538L241,468L241,552L191,562L211,495.99999999999994L129,405L69,194L204.00000000000003,246.99999999999997L219.99999999999997,395L310.00000000000006,312L355,392L373,493.99999999999994"></path><path id="#path_m" fill="none" stroke-width="5" stroke="#00ffff" stroke-opacity="0.3" d="M367,392L369,327L247,172L247,291L176,538L241,468L241,552L191,562L211,495.99999999999994L129,405L69,194L204.00000000000003,246.99999999999997L219.99999999999997,395L310.00000000000006,312L355,392L373,493.99999999999994"></path><path id="#path_m" fill="none" stroke-width="5" stroke="#00ffff" stroke-opacity="0.3" d="M367,392L369,327L247,172L247,291L176,538L241,468L241,552L191,562L211,495.99999999999994L129,405L69,194L204.00000000000003,246.99999999999997L219.99999999999997,395L310.00000000000006,312L355,392L373,493.99999999999994"></path><path id="#path_m" fill="none" stroke-width="5" stroke="#00ffff" stroke-opacity="0.3" d="M367,392L369,327L247,172L247,291L176,538L241,468L241,552L191,562L211,495.99999999999994L129,405L69,194L204.00000000000003,246.99999999999997L219.99999999999997,395L310.00000000000006,312L355,392L373,493.99999999999994"></path><path id="#path_m" fill="none" stroke-width="5" stroke="#00ffff" stroke-opacity="0.3" d="M367,392L369,327L247,172L247,291L176,538L241,468L241,552L191,562L211,495.99999999999994L129,405L69,194L204.00000000000003,246.99999999999997L219.99999999999997,395L310.00000000000006,312L355,392L373,493.99999999999994"></path><path id="#path_m" fill="none" stroke-width="5" stroke="#00ffff" stroke-opacity="0.3" d="M367,392L369,327L247,172L247,291L176,538L241,468L241,552L191,562L211,495.99999999999994L129,405L69,194L204.00000000000003,246.99999999999997L219.99999999999997,395L310.00000000000006,312L355,392L373,493.99999999999994"></path><path id="#path_m" fill="none" stroke-width="5" stroke="#00ffff" stroke-opacity="0.3" d="M367,392L369,327L247,172L247,291L176,538L241,468L241,552L191,562L211,495.99999999999994L129,405L69,194L204.00000000000003,246.99999999999997L219.99999999999997,395L310.00000000000006,312L355,392L373,493.99999999999994"></path><path id="#path_m" fill="none" stroke-width="5" stroke="#00ffff" stroke-opacity="0.3" d="M367,392L369,327L247,172L247,291L176,538L241,468L241,552L191,562L211,495.99999999999994L129,405L69,194L204.00000000000003,246.99999999999997L219.99999999999997,395L310.00000000000006,312L355,392L373,493.99999999999994"></path><path id="#path_m" fill="none" stroke-width="5" stroke="#00ffff" stroke-opacity="0.3" d="M367,392L369,327L247,172L247,291L176,538L241,468L241,552L191,562L211,495.99999999999994L129,405L69,194L204.00000000000003,246.99999999999997L219.99999999999997,395L310.00000000000006,312L355,392L373,493.99999999999994"></path><path id="#path_m" fill="none" stroke-width="5" stroke="#00ffff" stroke-opacity="0.3" d="M367,392L369,327L247,172L247,291L176,538L241,468L241,552L191,562L211,495.99999999999994L129,405L69,194L204.00000000000003,246.99999999999997L219.99999999999997,395L310.00000000000006,312L355,392L373,493.99999999999994"></path><path id="#path_m" fill="none" stroke-width="5" stroke="#00ffff" stroke-opacity="0.3" d="M367,392L369,327L247,172L247,291L176,538L241,468L241,552L191,562L211,495.99999999999994L129,405L69,194L204.00000000000003,246.99999999999997L219.99999999999997,395L310.00000000000006,312L355,392L373,493.99999999999994"></path><path id="#path_m" fill="none" stroke-width="5" stroke="#00ffff" stroke-opacity="0.3" d="M367,392L369,327L247,172L247,291L176,538L241,468L241,552L191,562L211,495.99999999999994L129,405L69,194L204.00000000000003,246.99999999999997L219.99999999999997,395L310.00000000000006,312L355,392L373,493.99999999999994"></path><path id="#path_m" fill="none" stroke-width="5" stroke="#00ffff" stroke-opacity="0.3" d="M367,392L369,327L247,172L247,291L176,538L241,468L241,552L191,562L211,495.99999999999994L129,405L69,194L204.00000000000003,246.99999999999997L219.99999999999997,395L310.00000000000006,312L355,392L373,493.99999999999994"></path><path id="#path_m" fill="none" stroke-width="5" stroke="#00ffff" stroke-opacity="0.3" d="M367,392L369,327L247,172L247,291L176,538L241,468L241,552L191,562L211,495.99999999999994L129,405L69,194L204.00000000000003,246.99999999999997L219.99999999999997,395L310.00000000000006,312L355,392L373,493.99999999999994"></path><path id="#path_m" fill="none" stroke-width="5" stroke="#00ffff" stroke-opacity="0.3" d="M367,392L369,327L247,172L247,291L176,538L241,468L241,552L191,562L211,495.99999999999994L129,405L69,194L204.00000000000003,246.99999999999997L219.99999999999997,395L310.00000000000006,312L355,392L373,493.99999999999994"></path><path id="#path_m" fill="none" stroke-width="5" stroke="#00ffff" stroke-opacity="0.3" d="M367,392L369,327L247,172L247,291L176,538L241,468L241,552L191,562L211,495.99999999999994L129,405L69,194L204.00000000000003,246.99999999999997L219.99999999999997,395L310.00000000000006,312L355,392L373,493.99999999999994"></path><path id="#path_m" fill="none" stroke-width="5" stroke="#00ffff" stroke-opacity="0.3" d="M367,392L369,327L247,172L247,291L176,538L241,468L241,552L191,562L211,495.99999999999994L129,405L69,194L204.00000000000003,246.99999999999997L219.99999999999997,395L310.00000000000006,312L355,392L373,493.99999999999994"></path><path id="#path_m" fill="none" stroke-width="5" stroke="#00ffff" stroke-opacity="0.3" d="M367,392L369,327L247,172L247,291L176,538L241,468L241,552L191,562L211,495.99999999999994L129,405L69,194L204.00000000000003,246.99999999999997L219.99999999999997,395L310.00000000000006,312L355,392L373,493.99999999999994"></path><path id="#path_m" fill="none" stroke-width="5" stroke="#00ffff" stroke-opacity="0.3" d="M367,392L369,327L247,172L247,291L176,538L241,468L241,552L191,562L211,495.99999999999994L129,405L69,194L204.00000000000003,246.99999999999997L219.99999999999997,395L310.00000000000006,312L355,392L373,493.99999999999994"></path><path id="#path_m" fill="none" stroke-width="5" stroke="#00ffff" stroke-opacity="0.3" d="M367,392L369,327L247,172L247,291L176,538L241,468L241,552L191,562L211,495.99999999999994L129,405L69,194L204.00000000000003,246.99999999999997L219.99999999999997,395L310.00000000000006,312L355,392L373,493.99999999999994"></path><path id="#path_m" fill="none" stroke-width="5" stroke="#00ffff" stroke-opacity="0.3" d="M367,392L369,327L247,172L247,291L176,538L241,468L241,552L191,562L211,495.99999999999994L129,405L69,194L204.00000000000003,246.99999999999997L219.99999999999997,395L310.00000000000006,312L355,392L373,493.99999999999994"></path><path id="#path_m" fill="none" stroke-width="5" stroke="#00ffff" stroke-opacity="0.3" d="M367,392L369,327L247,172L247,291L176,538L241,468L241,552L191,562L211,495.99999999999994L129,405L69,194L204.00000000000003,246.99999999999997L219.99999999999997,395L310.00000000000006,312L355,392L373,493.99999999999994"></path><path id="#path_m" fill="none" stroke-width="5" stroke="#00ffff" stroke-opacity="0.3" d="M367,392L369,327L247,172L247,291L176,538L241,468L241,552L191,562L211,495.99999999999994L129,405L69,194L204.00000000000003,246.99999999999997L219.99999999999997,395L310.00000000000006,312L355,392L373,493.99999999999994"></path><path id="#path_m" fill="none" stroke-width="5" stroke="#00ffff" stroke-opacity="0.3" d="M367,392L369,327L247,172L247,291L176,538L241,468L241,552L191,562L211,495.99999999999994L129,405L69,194L204.00000000000003,246.99999999999997L219.99999999999997,395L310.00000000000006,312L355,392L373,493.99999999999994"></path><path id="#path_m" fill="none" stroke-width="5" stroke="#00ffff" stroke-opacity="0.3" d="M367,392L369,327L247,172L247,291L176,538L241,468L241,552L191,562L211,495.99999999999994L129,405L69,194L204.00000000000003,246.99999999999997L219.99999999999997,395L310.00000000000006,312L355,392L373,493.99999999999994"></path><path id="#path_m" fill="none" stroke-width="5" stroke="#00ffff" stroke-opacity="0.3" d="M367,392L369,327L247,172L247,291L176,538L241,468L241,552L191,562L211,495.99999999999994L129,405L69,194L204.00000000000003,246.99999999999997L219.99999999999997,395L310.00000000000006,312L355,392L373,493.99999999999994"></path><path id="#path_m" fill="none" stroke-width="5" stroke="#00ffff" stroke-opacity="0.3" d="M367,392L369,327L247,172L247,291L176,538L241,468L241,552L191,562L211,495.99999999999994L129,405L69,194L204.00000000000003,246.99999999999997L219.99999999999997,395L310.00000000000006,312L355,392L373,493.99999999999994"></path><path id="#path_m" fill="none" stroke-width="5" stroke="#00ffff" stroke-opacity="0.3" d="M367,392L369,327L247,172L247,291L176,538L241,468L241,552L191,562L211,495.99999999999994L129,405L69,194L204.00000000000003,246.99999999999997L219.99999999999997,395L310.00000000000006,312L355,392L373,493.99999999999994"></path><path id="#path_m" fill="none" stroke-width="5" stroke="#00ffff" stroke-opacity="0.3" d="M367,392L369,327L247,172L247,291L176,538L241,468L241,552L191,562L211,495.99999999999994L129,405L69,194L204.00000000000003,246.99999999999997L219.99999999999997,395L310.00000000000006,312L355,392L373,493.99999999999994"></path><path id="#path_m" fill="none" stroke-width="5" stroke="#00ffff" stroke-opacity="0.3" d="M367,392L369,327L247,172L247,291L176,538L241,468L241,552L191,562L211,495.99999999999994L129,405L69,194L204.00000000000003,246.99999999999997L219.99999999999997,395L310.00000000000006,312L355,392L373,493.99999999999994"></path><path id="#path_m" fill="none" stroke-width="5" stroke="#00ffff" stroke-opacity="0.3" d="M367,392L369,327L247,172L247,291L176,538L241,468L241,552L191,562L211,495.99999999999994L129,405L69,194L204.00000000000003,246.99999999999997L219.99999999999997,395L310.00000000000006,312L355,392L373,493.99999999999994"></path><path id="#path_m" fill="none" stroke-width="5" stroke="#00ffff" stroke-opacity="0.3" d="M367,392L369,327L247,172L247,291L176,538L241,468L241,552L191,562L211,495.99999999999994L129,405L69,194L204.00000000000003,246.99999999999997L219.99999999999997,395L310.00000000000006,312L355,392L373,493.99999999999994"></path><path id="#path_m" fill="none" stroke-width="5" stroke="#00ffff" stroke-opacity="0.3" d="M367,392L369,327L247,172L247,291L176,538L241,468L241,552L191,562L211,495.99999999999994L129,405L69,194L204.00000000000003,246.99999999999997L219.99999999999997,395L310.00000000000006,312L355,392L373,493.99999999999994"></path><path id="#path_m" fill="none" stroke-width="5" stroke="#00ffff" stroke-opacity="0.3" d="M367,392L369,327L247,172L247,291L176,538L241,468L241,552L191,562L211,495.99999999999994L129,405L69,194L204.00000000000003,246.99999999999997L219.99999999999997,395L310.00000000000006,312L355,392L373,493.99999999999994"></path><path id="#path_m" fill="none" stroke-width="5" stroke="#00ffff" stroke-opacity="0.3" d="M367,392L369,327L247,172L247,291L176,538L241,468L241,552L191,562L211,495.99999999999994L129,405L69,194L204.00000000000003,246.99999999999997L219.99999999999997,395L310.00000000000006,312L355,392L373,493.99999999999994"></path><path id="#path_m" fill="none" stroke-width="5" stroke="#00ffff" stroke-opacity="0.3" d="M367,392L369,327L247,172L247,291L176,538L241,468L241,552L191,562L211,495.99999999999994L129,405L69,194L204.00000000000003,246.99999999999997L219.99999999999997,395L310.00000000000006,312L355,392L373,493.99999999999994"></path><path id="#path_m" fill="none" stroke-width="5" stroke="#00ffff" stroke-opacity="0.3" d="M367,392L369,327L247,172L247,291L176,538L241,468L241,552L191,562L211,495.99999999999994L129,405L69,194L204.00000000000003,246.99999999999997L219.99999999999997,395L310.00000000000006,312L355,392L373,493.99999999999994"></path><path id="#path_m" fill="none" stroke-width="5" stroke="#00ffff" stroke-opacity="0.3" d="M367,392L369,327L247,172L247,291L176,538L241,468L241,552L191,562L211,495.99999999999994L129,405L69,194L204.00000000000003,246.99999999999997L219.99999999999997,395L310.00000000000006,312L355,392L373,493.99999999999994"></path><path id="#path_m" fill="none" stroke-width="5" stroke="#00ffff" stroke-opacity="0.3" d="M367,392L369,327L247,172L247,291L176,538L241,468L241,552L191,562L211,495.99999999999994L129,405L69,194L204.00000000000003,246.99999999999997L219.99999999999997,395L310.00000000000006,312L355,392L373,493.99999999999994"></path><path id="#path_m" fill="none" stroke-width="5" stroke="#00ffff" stroke-opacity="0.3" d="M367,392L369,327L247,172L247,291L176,538L241,468L241,552L191,562L211,495.99999999999994L129,405L69,194L204.00000000000003,246.99999999999997L219.99999999999997,395L310.00000000000006,312L355,392L373,493.99999999999994"></path><path id="#path_m" fill="none" stroke-width="5" stroke="#00ffff" stroke-opacity="0.3" d="M367,392L369,327L247,172L247,291L176,538L241,468L241,552L191,562L211,495.99999999999994L129,405L69,194L204.00000000000003,246.99999999999997L219.99999999999997,395L310.00000000000006,312L355,392L373,493.99999999999994"></path><path id="#path_m" fill="none" stroke-width="5" stroke="#00ffff" stroke-opacity="0.3" d="M367,392L369,327L247,172L247,291L176,538L241,468L241,552L191,562L211,495.99999999999994L129,405L69,194L204.00000000000003,246.99999999999997L219.99999999999997,395L310.00000000000006,312L355,392L373,493.99999999999994"></path><path id="#path_m" fill="none" stroke-width="5" stroke="#00ffff" stroke-opacity="0.3" d="M367,392L369,327L247,172L247,291L176,538L241,468L241,552L191,562L211,495.99999999999994L129,405L69,194L204.00000000000003,246.99999999999997L219.99999999999997,395L310.00000000000006,312L355,392L373,493.99999999999994"></path><path id="#path_m" fill="none" stroke-width="5" stroke="#00ffff" stroke-opacity="0.3" d="M367,392L369,327L247,172L247,291L176,538L241,468L241,552L191,562L211,495.99999999999994L129,405L69,194L204.00000000000003,246.99999999999997L219.99999999999997,395L310.00000000000006,312L355,392L373,493.99999999999994"></path><path id="#path_m" fill="none" stroke-width="5" stroke="#00ffff" stroke-opacity="0.3" d="M367,392L369,327L247,172L247,291L176,538L241,468L241,552L191,562L211,495.99999999999994L129,405L69,194L204.00000000000003,246.99999999999997L219.99999999999997,395L310.00000000000006,312L355,392L373,493.99999999999994"></path><path id="#path_m" fill="none" stroke-width="5" stroke="#00ffff" stroke-opacity="0.3" d="M367,392L369,327L247,172L247,291L176,538L241,468L241,552L191,562L211,495.99999999999994L129,405L69,194L204.00000000000003,246.99999999999997L219.99999999999997,395L310.00000000000006,312L355,392L373,493.99999999999994"></path><path id="#path_m" fill="none" stroke-width="5" stroke="#00ffff" stroke-opacity="0.3" d="M367,392L369,327L247,172L247,291L176,538L241,468L241,552L191,562L211,495.99999999999994L129,405L69,194L204.00000000000003,246.99999999999997L219.99999999999997,395L310.00000000000006,312L355,392L373,493.99999999999994"></path><path id="#path_m" fill="none" stroke-width="5" stroke="#00ffff" stroke-opacity="0.3" d="M367,392L369,327L247,172L247,291L176,538L241,468L241,552L191,562L211,495.99999999999994L129,405L69,194L204.00000000000003,246.99999999999997L219.99999999999997,395L310.00000000000006,312L355,392L373,493.99999999999994"></path><path id="#path_m" fill="none" stroke-width="5" stroke="#00ffff" stroke-opacity="0.3" d="M367,392L369,327L247,172L247,291L176,538L241,468L241,552L191,562L211,495.99999999999994L129,405L69,194L204.00000000000003,246.99999999999997L219.99999999999997,395L310.00000000000006,312L355,392L373,493.99999999999994"></path><path id="#path_m" fill="none" stroke-width="5" stroke="#00ffff" stroke-opacity="0.3" d="M367,392L369,327L247,172L247,291L176,538L241,468L241,552L191,562L211,495.99999999999994L129,405L69,194L204.00000000000003,246.99999999999997L219.99999999999997,395L310.00000000000006,312L355,392L373,493.99999999999994"></path><path id="#path_m" fill="none" stroke-width="5" stroke="#00ffff" stroke-opacity="0.3" d="M367,392L369,327L247,172L247,291L176,538L241,468L241,552L191,562L211,495.99999999999994L129,405L69,194L204.00000000000003,246.99999999999997L219.99999999999997,395L310.00000000000006,312L355,392L373,493.99999999999994"></path><path id="#path_m" fill="none" stroke-width="5" stroke="#00ffff" stroke-opacity="0.3" d="M367,392L369,327L247,172L247,291L176,538L241,468L241,552L191,562L211,495.99999999999994L129,405L69,194L204.00000000000003,246.99999999999997L219.99999999999997,395L310.00000000000006,312L355,392L373,493.99999999999994"></path><path id="#path_m" fill="none" stroke-width="5" stroke="#00ffff" stroke-opacity="0.3" d="M367,392L369,327L247,172L247,291L176,538L241,468L241,552L191,562L211,495.99999999999994L129,405L69,194L204.00000000000003,246.99999999999997L219.99999999999997,395L310.00000000000006,312L355,392L373,493.99999999999994"></path><path id="#path_m" fill="none" stroke-width="5" stroke="#00ffff" stroke-opacity="0.3" d="M367,392L369,327L247,172L247,291L176,538L241,468L241,552L191,562L211,495.99999999999994L129,405L69,194L204.00000000000003,246.99999999999997L219.99999999999997,395L310.00000000000006,312L355,392L373,493.99999999999994"></path><path id="#path_m" fill="none" stroke-width="5" stroke="#00ffff" stroke-opacity="0.3" d="M367,392L369,327L247,172L247,291L176,538L241,468L241,552L191,562L211,495.99999999999994L129,405L69,194L204.00000000000003,246.99999999999997L219.99999999999997,395L310.00000000000006,312L355,392L373,493.99999999999994"></path><path id="#path_m" fill="none" stroke-width="5" stroke="#00ffff" stroke-opacity="0.3" d="M367,392L369,327L247,172L247,291L176,538L241,468L241,552L191,562L211,495.99999999999994L129,405L69,194L204.00000000000003,246.99999999999997L219.99999999999997,395L310.00000000000006,312L355,392L373,493.99999999999994"></path><path id="#path_m" fill="none" stroke-width="5" stroke="#00ffff" stroke-opacity="0.3" d="M367,392L369,327L247,172L247,291L176,538L241,468L241,552L191,562L211,495.99999999999994L129,405L69,194L204.00000000000003,246.99999999999997L219.99999999999997,395L310.00000000000006,312L355,392L373,493.99999999999994"></path><path id="#path_m" fill="none" stroke-width="5" stroke="#00ffff" stroke-opacity="0.3" d="M367,392L369,327L247,172L247,291L176,538L241,468L241,552L191,562L211,495.99999999999994L129,405L69,194L204.00000000000003,246.99999999999997L219.99999999999997,395L310.00000000000006,312L355,392L373,493.99999999999994"></path><path id="#path_m" fill="none" stroke-width="5" stroke="#00ffff" stroke-opacity="0.3" d="M367,392L369,327L247,172L247,291L176,538L241,468L241,552L191,562L211,495.99999999999994L129,405L69,194L204.00000000000003,246.99999999999997L219.99999999999997,395L310.00000000000006,312L355,392L373,493.99999999999994"></path><path id="#path_m" fill="none" stroke-width="5" stroke="#00ffff" stroke-opacity="0.3" d="M367,392L369,327L247,172L247,291L176,538L241,468L241,552L191,562L211,495.99999999999994L129,405L69,194L204.00000000000003,246.99999999999997L219.99999999999997,395L310.00000000000006,312L355,392L373,493.99999999999994"></path><path id="#path_m" fill="none" stroke-width="5" stroke="#00ffff" stroke-opacity="0.3" d="M367,392L369,327L247,172L247,291L176,538L241,468L241,552L191,562L211,495.99999999999994L129,405L69,194L204.00000000000003,246.99999999999997L219.99999999999997,395L310.00000000000006,312L355,392L373,493.99999999999994"></path><path id="#path_m" fill="none" stroke-width="5" stroke="#00ffff" stroke-opacity="0.3" d="M367,392L369,327L247,172L247,291L176,538L241,468L241,552L191,562L211,495.99999999999994L129,405L69,194L204.00000000000003,246.99999999999997L219.99999999999997,395L310.00000000000006,312L355,392L373,493.99999999999994"></path><path id="#path_m" fill="none" stroke-width="5" stroke="#00ffff" stroke-opacity="0.3" d="M367,392L369,327L247,172L247,291L176,538L241,468L241,552L191,562L211,495.99999999999994L129,405L69,194L204.00000000000003,246.99999999999997L219.99999999999997,395L310.00000000000006,312L355,392L373,493.99999999999994"></path><path id="#path_m" fill="none" stroke-width="5" stroke="#00ffff" stroke-opacity="0.3" d="M367,392L369,327L247,172L247,291L176,538L241,468L241,552L191,562L211,495.99999999999994L129,405L69,194L204.00000000000003,246.99999999999997L219.99999999999997,395L310.00000000000006,312L355,392L373,493.99999999999994"></path><path id="#path_m" fill="none" stroke-width="5" stroke="#00ffff" stroke-opacity="0.3" d="M367,392L369,327L247,172L247,291L176,538L241,468L241,552L191,562L211,495.99999999999994L129,405L69,194L204.00000000000003,246.99999999999997L219.99999999999997,395L310.00000000000006,312L355,392L373,493.99999999999994"></path><path id="#path_m" fill="none" stroke-width="5" stroke="#00ffff" stroke-opacity="0.3" d="M367,392L369,327L247,172L247,291L176,538L241,468L241,552L191,562L211,495.99999999999994L129,405L69,194L204.00000000000003,246.99999999999997L219.99999999999997,395L310.00000000000006,312L355,392L373,493.99999999999994"></path><path id="#path_m" fill="none" stroke-width="5" stroke="#00ffff" stroke-opacity="0.3" d="M367,392L369,327L247,172L247,291L176,538L241,468L241,552L191,562L211,495.99999999999994L129,405L69,194L204.00000000000003,246.99999999999997L219.99999999999997,395L310.00000000000006,312L355,392L373,493.99999999999994"></path><path id="#path_m" fill="none" stroke-width="5" stroke="#00ffff" stroke-opacity="0.3" d="M367,392L369,327L247,172L247,291L176,538L241,468L241,552L191,562L211,495.99999999999994L129,405L69,194L204.00000000000003,246.99999999999997L219.99999999999997,395L310.00000000000006,312L355,392L373,493.99999999999994"></path><path id="#path_m" fill="none" stroke-width="5" stroke="#00ffff" stroke-opacity="0.3" d="M367,392L369,327L247,172L247,291L176,538L241,468L241,552L191,562L211,495.99999999999994L129,405L69,194L204.00000000000003,246.99999999999997L219.99999999999997,395L310.00000000000006,312L355,392L373,493.99999999999994"></path><path id="#path_m" fill="none" stroke-width="5" stroke="#00ffff" stroke-opacity="0.3" d="M367,392L369,327L247,172L247,291L176,538L241,468L241,552L191,562L211,495.99999999999994L129,405L69,194L204.00000000000003,246.99999999999997L219.99999999999997,395L310.00000000000006,312L355,392L373,493.99999999999994"></path><path id="#path_m" fill="none" stroke-width="5" stroke="#00ffff" stroke-opacity="0.3" d="M367,392L369,327L247,172L247,291L176,538L241,468L241,552L191,562L211,495.99999999999994L129,405L69,194L204.00000000000003,246.99999999999997L219.99999999999997,395L310.00000000000006,312L355,392L373,493.99999999999994"></path><path id="#path_m" fill="none" stroke-width="5" stroke="#00ffff" stroke-opacity="0.3" d="M367,392L369,327L247,172L247,291L176,538L241,468L241,552L191,562L211,495.99999999999994L129,405L69,194L204.00000000000003,246.99999999999997L219.99999999999997,395L310.00000000000006,312L355,392L373,493.99999999999994"></path><path id="#path_m" fill="none" stroke-width="5" stroke="#00ffff" stroke-opacity="0.3" d="M367,392L369,327L247,172L247,291L176,538L241,468L241,552L191,562L211,495.99999999999994L129,405L69,194L204.00000000000003,246.99999999999997L219.99999999999997,395L310.00000000000006,312L355,392L373,493.99999999999994"></path><path id="#path_m" fill="none" stroke-width="5" stroke="#00ffff" stroke-opacity="0.3" d="M367,392L369,327L247,172L247,291L176,538L241,468L241,552L191,562L211,495.99999999999994L129,405L69,194L204.00000000000003,246.99999999999997L219.99999999999997,395L310.00000000000006,312L355,392L373,493.99999999999994"></path><path id="#path_m" fill="none" stroke-width="5" stroke="#00ffff" stroke-opacity="0.3" d="M367,392L369,327L247,172L247,291L176,538L241,468L241,552L191,562L211,495.99999999999994L129,405L69,194L204.00000000000003,246.99999999999997L219.99999999999997,395L310.00000000000006,312L355,392L373,493.99999999999994"></path><path id="#path_m" fill="none" stroke-width="5" stroke="#00ffff" stroke-opacity="0.3" d="M367,392L369,327L247,172L247,291L176,538L241,468L241,552L191,562L211,495.99999999999994L129,405L69,194L204.00000000000003,246.99999999999997L219.99999999999997,395L310.00000000000006,312L355,392L373,493.99999999999994"></path><path id="#path_m" fill="none" stroke-width="5" stroke="#00ffff" stroke-opacity="0.3" d="M367,392L369,327L247,172L247,291L176,538L241,468L241,552L191,562L211,495.99999999999994L129,405L69,194L204.00000000000003,246.99999999999997L219.99999999999997,395L310.00000000000006,312L355,392L373,493.99999999999994"></path><path id="#path_m" fill="none" stroke-width="5" stroke="#00ffff" stroke-opacity="0.3" d="M367,392L369,327L247,172L247,291L176,538L241,468L241,552L191,562L211,495.99999999999994L129,405L69,194L204.00000000000003,246.99999999999997L219.99999999999997,395L310.00000000000006,312L355,392L373,493.99999999999994"></path><path id="#path_m" fill="none" stroke-width="5" stroke="#00ffff" stroke-opacity="0.3" d="M367,392L369,327L247,172L247,291L176,538L241,468L241,552L191,562L211,495.99999999999994L129,405L69,194L204.00000000000003,246.99999999999997L219.99999999999997,395L310.00000000000006,312L355,392L373,493.99999999999994"></path><path id="#path_m" fill="none" stroke-width="5" stroke="#00ffff" stroke-opacity="0.3" d="M367,392L369,327L247,172L247,291L176,538L241,468L241,552L191,562L211,495.99999999999994L129,405L69,194L204.00000000000003,246.99999999999997L219.99999999999997,395L310.00000000000006,312L355,392L373,493.99999999999994"></path><path id="#path_m" fill="none" stroke-width="5" stroke="#00ffff" stroke-opacity="0.3" d="M367,392L369,327L247,172L247,291L176,538L241,468L241,552L191,562L211,495.99999999999994L129,405L69,194L204.00000000000003,246.99999999999997L219.99999999999997,395L310.00000000000006,312L355,392L373,493.99999999999994"></path><path id="#path_m" fill="none" stroke-width="5" stroke="#00ffff" stroke-opacity="0.3" d="M367,392L369,327L247,172L247,291L176,538L241,468L241,552L191,562L211,495.99999999999994L129,405L69,194L204.00000000000003,246.99999999999997L219.99999999999997,395L310.00000000000006,312L355,392L373,493.99999999999994"></path><path id="#path_m" fill="none" stroke-width="5" stroke="#00ffff" stroke-opacity="0.3" d="M367,392L369,327L247,172L247,291L176,538L241,468L241,552L191,562L211,495.99999999999994L129,405L69,194L204.00000000000003,246.99999999999997L219.99999999999997,395L310.00000000000006,312L355,392L373,493.99999999999994"></path><path id="#path_m" fill="none" stroke-width="5" stroke="#00ffff" stroke-opacity="0.3" d="M367,392L369,327L247,172L247,291L176,538L241,468L241,552L191,562L211,495.99999999999994L129,405L69,194L204.00000000000003,246.99999999999997L219.99999999999997,395L310.00000000000006,312L355,392L373,493.99999999999994"></path><path id="#path_m" fill="none" stroke-width="5" stroke="#00ffff" stroke-opacity="0.3" d="M367,392L369,327L247,172L247,291L176,538L241,468L241,552L191,562L211,495.99999999999994L129,405L69,194L204.00000000000003,246.99999999999997L219.99999999999997,395L310.00000000000006,312L355,392L373,493.99999999999994"></path><path id="#path_m" fill="none" stroke-width="5" stroke="#00ffff" stroke-opacity="0.3" d="M367,392L369,327L247,172L247,291L176,538L241,468L241,552L191,562L211,495.99999999999994L129,405L69,194L204.00000000000003,246.99999999999997L219.99999999999997,395L310.00000000000006,312L355,392L373,493.99999999999994"></path><path id="#path_m" fill="none" stroke-width="5" stroke="#00ffff" stroke-opacity="0.3" d="M367,392L369,327L247,172L247,291L176,538L241,468L241,552L191,562L211,495.99999999999994L129,405L69,194L204.00000000000003,246.99999999999997L219.99999999999997,395L310.00000000000006,312L355,392L373,493.99999999999994"></path><path id="#path_m" fill="none" stroke-width="5" stroke="#00ffff" stroke-opacity="0.3" d="M367,392L369,327L247,172L247,291L176,538L241,468L241,552L191,562L211,495.99999999999994L129,405L69,194L204.00000000000003,246.99999999999997L219.99999999999997,395L310.00000000000006,312L355,392L373,493.99999999999994"></path><path id="#path_m" fill="none" stroke-width="5" stroke="#00ffff" stroke-opacity="0.3" d="M367,392L369,327L247,172L247,291L176,538L241,468L241,552L191,562L211,495.99999999999994L129,405L69,194L204.00000000000003,246.99999999999997L219.99999999999997,395L310.00000000000006,312L355,392L373,493.99999999999994"></path><path id="#path_m" fill="none" stroke-width="5" stroke="#00ffff" stroke-opacity="0.3" d="M367,392L369,327L247,172L247,291L176,538L241,468L241,552L191,562L211,495.99999999999994L129,405L69,194L204.00000000000003,246.99999999999997L219.99999999999997,395L310.00000000000006,312L355,392L373,493.99999999999994"></path><path id="#path_m" fill="none" stroke-width="5" stroke="#00ffff" stroke-opacity="0.3" d="M367,392L369,327L247,172L247,291L176,538L241,468L241,552L191,562L211,495.99999999999994L129,405L69,194L204.00000000000003,246.99999999999997L219.99999999999997,395L310.00000000000006,312L355,392L373,493.99999999999994"></path><path id="#path_m" fill="none" stroke-width="5" stroke="#00ffff" stroke-opacity="0.3" d="M367,392L369,327L247,172L247,291L176,538L241,468L241,552L191,562L211,495.99999999999994L129,405L69,194L204.00000000000003,246.99999999999997L219.99999999999997,395L310.00000000000006,312L355,392L373,493.99999999999994"></path><path id="#path_m" fill="none" stroke-width="5" stroke="#00ffff" stroke-opacity="0.3" d="M367,392L369,327L247,172L247,291L176,538L241,468L241,552L191,562L211,495.99999999999994L129,405L69,194L204.00000000000003,246.99999999999997L219.99999999999997,395L310.00000000000006,312L355,392L373,493.99999999999994"></path><path id="#path_m" fill="none" stroke-width="5" stroke="#00ffff" stroke-opacity="0.3" d="M367,392L369,327L247,172L247,291L176,538L241,468L241,552L191,562L211,495.99999999999994L129,405L69,194L204.00000000000003,246.99999999999997L219.99999999999997,395L310.00000000000006,312L355,392L373,493.99999999999994"></path><path id="#path_m" fill="none" stroke-width="5" stroke="#00ffff" stroke-opacity="0.3" d="M367,392L369,327L247,172L247,291L176,538L241,468L241,552L191,562L211,495.99999999999994L129,405L69,194L204.00000000000003,246.99999999999997L219.99999999999997,395L310.00000000000006,312L355,392L373,493.99999999999994"></path><path id="#path_m" fill="none" stroke-width="5" stroke="#00ffff" stroke-opacity="0.3" d="M367,392L369,327L247,172L247,291L176,538L241,468L241,552L191,562L211,495.99999999999994L129,405L69,194L204.00000000000003,246.99999999999997L219.99999999999997,395L310.00000000000006,312L355,392L373,493.99999999999994"></path><path id="#path_m" fill="none" stroke-width="5" stroke="#00ffff" stroke-opacity="0.3" d="M367,392L369,327L247,172L247,291L176,538L241,468L241,552L191,562L211,495.99999999999994L129,405L69,194L204.00000000000003,246.99999999999997L219.99999999999997,395L310.00000000000006,312L355,392L373,493.99999999999994"></path><path id="#path_m" fill="none" stroke-width="5" stroke="#00ffff" stroke-opacity="0.3" d="M367,392L369,327L247,172L247,291L176,538L241,468L241,552L191,562L211,495.99999999999994L129,405L69,194L204.00000000000003,246.99999999999997L219.99999999999997,395L310.00000000000006,312L355,392L373,493.99999999999994"></path><path id="#path_m" fill="none" stroke-width="5" stroke="#00ffff" stroke-opacity="0.3" d="M367,392L369,327L247,172L247,291L176,538L241,468L241,552L191,562L211,495.99999999999994L129,405L69,194L204.00000000000003,246.99999999999997L219.99999999999997,395L310.00000000000006,312L355,392L373,493.99999999999994"></path><path id="#path_m" fill="none" stroke-width="5" stroke="#00ffff" stroke-opacity="0.3" d="M367,392L369,327L247,172L247,291L176,538L241,468L241,552L191,562L211,495.99999999999994L129,405L69,194L204.00000000000003,246.99999999999997L219.99999999999997,395L310.00000000000006,312L355,392L373,493.99999999999994"></path><path id="#path_m" fill="none" stroke-width="5" stroke="#00ffff" stroke-opacity="0.3" d="M367,392L369,327L247,172L247,291L176,538L241,468L241,552L191,562L211,495.99999999999994L129,405L69,194L204.00000000000003,246.99999999999997L219.99999999999997,395L310.00000000000006,312L355,392L373,493.99999999999994"></path><path id="#path_m" fill="none" stroke-width="5" stroke="#00ffff" stroke-opacity="0.3" d="M367,392L369,327L247,172L247,291L176,538L241,468L241,552L191,562L211,495.99999999999994L129,405L69,194L204.00000000000003,246.99999999999997L219.99999999999997,395L310.00000000000006,312L355,392L373,493.99999999999994"></path><path id="#path_m" fill="none" stroke-width="5" stroke="#00ffff" stroke-opacity="0.3" d="M367,392L369,327L247,172L247,291L176,538L241,468L241,552L191,562L211,495.99999999999994L129,405L69,194L204.00000000000003,246.99999999999997L219.99999999999997,395L310.00000000000006,312L355,392L373,493.99999999999994"></path><path id="#path_m" fill="none" stroke-width="5" stroke="#00ffff" stroke-opacity="0.3" d="M367,392L369,327L247,172L247,291L176,538L241,468L241,552L191,562L211,495.99999999999994L129,405L69,194L204.00000000000003,246.99999999999997L219.99999999999997,395L310.00000000000006,312L355,392L373,493.99999999999994"></path><path id="#path_m" fill="none" stroke-width="5" stroke="#00ffff" stroke-opacity="0.3" d="M367,392L369,327L247,172L247,291L176,538L241,468L241,552L191,562L211,495.99999999999994L129,405L69,194L204.00000000000003,246.99999999999997L219.99999999999997,395L310.00000000000006,312L355,392L373,493.99999999999994"></path><path id="#path_m" fill="none" stroke-width="5" stroke="#00ffff" stroke-opacity="0.3" d="M367,392L369,327L247,172L247,291L176,538L241,468L241,552L191,562L211,495.99999999999994L129,405L69,194L204.00000000000003,246.99999999999997L219.99999999999997,395L310.00000000000006,312L355,392L373,493.99999999999994"></path><path id="#path_m" fill="none" stroke-width="5" stroke="#00ffff" stroke-opacity="0.3" d="M367,392L369,327L247,172L247,291L176,538L241,468L241,552L191,562L211,495.99999999999994L129,405L69,194L204.00000000000003,246.99999999999997L219.99999999999997,395L310.00000000000006,312L355,392L373,493.99999999999994"></path><path id="#path_m" fill="none" stroke-width="5" stroke="#00ffff" stroke-opacity="0.3" d="M367,392L369,327L247,172L247,291L176,538L241,468L241,552L191,562L211,495.99999999999994L129,405L69,194L204.00000000000003,246.99999999999997L219.99999999999997,395L310.00000000000006,312L355,392L373,493.99999999999994"></path><path id="#path_m" fill="none" stroke-width="5" stroke="#00ffff" stroke-opacity="0.3" d="M367,392L369,327L247,172L247,291L176,538L241,468L241,552L191,562L211,495.99999999999994L129,405L69,194L204.00000000000003,246.99999999999997L219.99999999999997,395L310.00000000000006,312L355,392L373,493.99999999999994"></path><path id="#path_m" fill="none" stroke-width="5" stroke="#00ffff" stroke-opacity="0.3" d="M367,392L369,327L247,172L247,291L176,538L241,468L241,552L191,562L211,495.99999999999994L129,405L69,194L204.00000000000003,246.99999999999997L219.99999999999997,395L310.00000000000006,312L355,392L373,493.99999999999994"></path><path id="#path_m" fill="none" stroke-width="5" stroke="#00ffff" stroke-opacity="0.3" d="M367,392L369,327L247,172L247,291L176,538L241,468L241,552L191,562L211,495.99999999999994L129,405L69,194L204.00000000000003,246.99999999999997L219.99999999999997,395L310.00000000000006,312L355,392L373,493.99999999999994"></path><path id="#path_m" fill="none" stroke-width="5" stroke="#00ffff" stroke-opacity="0.3" d="M367,392L369,327L247,172L247,291L176,538L241,468L241,552L191,562L211,495.99999999999994L129,405L69,194L204.00000000000003,246.99999999999997L219.99999999999997,395L310.00000000000006,312L355,392L373,493.99999999999994"></path><path id="#path_m" fill="none" stroke-width="5" stroke="#00ffff" stroke-opacity="0.3" d="M367,392L369,327L247,172L247,291L176,538L241,468L241,552L191,562L211,495.99999999999994L129,405L69,194L204.00000000000003,246.99999999999997L219.99999999999997,395L310.00000000000006,312L355,392L373,493.99999999999994"></path><path id="#path_m" fill="none" stroke-width="5" stroke="#00ffff" stroke-opacity="0.3" d="M367,392L369,327L247,172L247,291L176,538L241,468L241,552L191,562L211,495.99999999999994L129,405L69,194L204.00000000000003,246.99999999999997L219.99999999999997,395L310.00000000000006,312L355,392L373,493.99999999999994"></path><path id="#path_m" fill="none" stroke-width="5" stroke="#00ffff" stroke-opacity="0.3" d="M367,392L369,327L247,172L247,291L176,538L241,468L241,552L191,562L211,495.99999999999994L129,405L69,194L204.00000000000003,246.99999999999997L219.99999999999997,395L310.00000000000006,312L355,392L373,493.99999999999994"></path><path id="#path_m" fill="none" stroke-width="5" stroke="#00ffff" stroke-opacity="0.3" d="M367,392L369,327L247,172L247,291L176,538L241,468L241,552L191,562L211,495.99999999999994L129,405L69,194L204.00000000000003,246.99999999999997L219.99999999999997,395L310.00000000000006,312L355,392L373,493.99999999999994"></path><path id="#path_m" fill="none" stroke-width="5" stroke="#00ffff" stroke-opacity="0.3" d="M367,392L369,327L247,172L247,291L176,538L241,468L241,552L191,562L211,495.99999999999994L129,405L69,194L204.00000000000003,246.99999999999997L219.99999999999997,395L310.00000000000006,312L355,392L373,493.99999999999994"></path><path id="#path_m" fill="none" stroke-width="5" stroke="#00ffff" stroke-opacity="0.3" d="M367,392L369,327L247,172L247,291L176,538L241,468L241,552L191,562L211,495.99999999999994L129,405L69,194L204.00000000000003,246.99999999999997L219.99999999999997,395L310.00000000000006,312L355,392L373,493.99999999999994"></path><path id="#path_m" fill="none" stroke-width="5" stroke="#00ffff" stroke-opacity="0.3" d="M367,392L369,327L247,172L247,291L176,538L241,468L241,552L191,562L211,495.99999999999994L129,405L69,194L204.00000000000003,246.99999999999997L219.99999999999997,395L310.00000000000006,312L355,392L373,493.99999999999994"></path><path id="#path_m" fill="none" stroke-width="5" stroke="#00ffff" stroke-opacity="0.3" d="M367,392L369,327L247,172L247,291L176,538L241,468L241,552L191,562L211,495.99999999999994L129,405L69,194L204.00000000000003,246.99999999999997L219.99999999999997,395L310.00000000000006,312L355,392L373,493.99999999999994"></path><path id="#path_m" fill="none" stroke-width="5" stroke="#00ffff" stroke-opacity="0.3" d="M367,392L369,327L247,172L247,291L176,538L241,468L241,552L191,562L211,495.99999999999994L129,405L69,194L204.00000000000003,246.99999999999997L219.99999999999997,395L310.00000000000006,312L355,392L373,493.99999999999994"></path><path id="#path_m" fill="none" stroke-width="5" stroke="#00ffff" stroke-opacity="0.3" d="M367,392L369,327L247,172L247,291L176,538L241,468L241,552L191,562L211,495.99999999999994L129,405L69,194L204.00000000000003,246.99999999999997L219.99999999999997,395L310.00000000000006,312L355,392L373,493.99999999999994"></path><path id="#path_m" fill="none" stroke-width="5" stroke="#00ffff" stroke-opacity="0.3" d="M367,392L369,327L247,172L247,291L176,538L241,468L241,552L191,562L211,495.99999999999994L129,405L69,194L204.00000000000003,246.99999999999997L219.99999999999997,395L310.00000000000006,312L355,392L373,493.99999999999994"></path><path id="#path_m" fill="none" stroke-width="5" stroke="#00ffff" stroke-opacity="0.3" d="M367,392L369,327L247,172L247,291L176,538L241,468L241,552L191,562L211,495.99999999999994L129,405L69,194L204.00000000000003,246.99999999999997L219.99999999999997,395L310.00000000000006,312L355,392L373,493.99999999999994"></path><path id="#path_m" fill="none" stroke-width="5" stroke="#00ffff" stroke-opacity="0.3" d="M367,392L369,327L247,172L247,291L176,538L241,468L241,552L191,562L211,495.99999999999994L129,405L69,194L204.00000000000003,246.99999999999997L219.99999999999997,395L310.00000000000006,312L355,392L373,493.99999999999994"></path><path id="#path_m" fill="none" stroke-width="5" stroke="#00ffff" stroke-opacity="0.3" d="M367,392L369,327L247,172L247,291L176,538L241,468L241,552L191,562L211,495.99999999999994L129,405L69,194L204.00000000000003,246.99999999999997L219.99999999999997,395L310.00000000000006,312L355,392L373,493.99999999999994"></path><path id="#path_m" fill="none" stroke-width="5" stroke="#00ffff" stroke-opacity="0.3" d="M367,392L369,327L247,172L247,291L176,538L241,468L241,552L191,562L211,495.99999999999994L129,405L69,194L204.00000000000003,246.99999999999997L219.99999999999997,395L310.00000000000006,312L355,392L373,493.99999999999994"></path><path id="#path_m" fill="none" stroke-width="5" stroke="#00ffff" stroke-opacity="0.3" d="M367,392L369,327L247,172L247,291L176,538L241,468L241,552L191,562L211,495.99999999999994L129,405L69,194L204.00000000000003,246.99999999999997L219.99999999999997,395L310.00000000000006,312L355,392L373,493.99999999999994"></path><path id="#path_m" fill="none" stroke-width="5" stroke="#00ffff" stroke-opacity="0.3" d="M367,392L369,327L247,172L247,291L176,538L241,468L241,552L191,562L211,495.99999999999994L129,405L69,194L204.00000000000003,246.99999999999997L219.99999999999997,395L310.00000000000006,312L355,392L373,493.99999999999994"></path><path id="#path_m" fill="none" stroke-width="5" stroke="#00ffff" stroke-opacity="0.3" d="M367,392L369,327L247,172L247,291L176,538L241,468L241,552L191,562L211,495.99999999999994L129,405L69,194L204.00000000000003,246.99999999999997L219.99999999999997,395L310.00000000000006,312L355,392L373,493.99999999999994"></path><path id="#path_m" fill="none" stroke-width="5" stroke="#00ffff" stroke-opacity="0.3" d="M367,392L369,327L247,172L247,291L176,538L241,468L241,552L191,562L211,495.99999999999994L129,405L69,194L204.00000000000003,246.99999999999997L219.99999999999997,395L310.00000000000006,312L355,392L373,493.99999999999994"></path><path id="#path_m" fill="none" stroke-width="5" stroke="#00ffff" stroke-opacity="0.3" d="M367,392L369,327L247,172L247,291L176,538L241,468L241,552L191,562L211,495.99999999999994L129,405L69,194L204.00000000000003,246.99999999999997L219.99999999999997,395L310.00000000000006,312L355,392L373,493.99999999999994"></path><path id="#path_m" fill="none" stroke-width="5" stroke="#00ffff" stroke-opacity="0.3" d="M367,392L369,327L247,172L247,291L176,538L241,468L241,552L191,562L211,495.99999999999994L129,405L69,194L204.00000000000003,246.99999999999997L219.99999999999997,395L310.00000000000006,312L355,392L373,493.99999999999994"></path><path id="#path_m" fill="none" stroke-width="5" stroke="#00ffff" stroke-opacity="0.3" d="M367,392L369,327L247,172L247,291L176,538L241,468L241,552L191,562L211,495.99999999999994L129,405L69,194L204.00000000000003,246.99999999999997L219.99999999999997,395L310.00000000000006,312L355,392L373,493.99999999999994"></path><path id="#path_m" fill="none" stroke-width="5" stroke="#00ffff" stroke-opacity="0.3" d="M367,392L369,327L247,172L247,291L176,538L241,468L241,552L191,562L211,495.99999999999994L129,405L69,194L204.00000000000003,246.99999999999997L219.99999999999997,395L310.00000000000006,312L355,392L373,493.99999999999994"></path><path id="#path_m" fill="none" stroke-width="5" stroke="#00ffff" stroke-opacity="0.3" d="M367,392L369,327L247,172L247,291L176,538L241,468L241,552L191,562L211,495.99999999999994L129,405L69,194L204.00000000000003,246.99999999999997L219.99999999999997,395L310.00000000000006,312L355,392L373,493.99999999999994"></path><path id="#path_m" fill="none" stroke-width="5" stroke="#00ffff" stroke-opacity="0.3" d="M367,392L369,327L247,172L247,291L176,538L241,468L241,552L191,562L211,495.99999999999994L129,405L69,194L204.00000000000003,246.99999999999997L219.99999999999997,395L310.00000000000006,312L355,392L373,493.99999999999994"></path><path id="#path_m" fill="none" stroke-width="5" stroke="#00ffff" stroke-opacity="0.3" d="M367,392L369,327L247,172L247,291L176,538L241,468L241,552L191,562L211,495.99999999999994L129,405L69,194L204.00000000000003,246.99999999999997L219.99999999999997,395L310.00000000000006,312L355,392L373,493.99999999999994"></path><path id="#path_m" fill="none" stroke-width="5" stroke="#00ffff" stroke-opacity="0.3" d="M367,392L369,327L247,172L247,291L176,538L241,468L241,552L191,562L211,495.99999999999994L129,405L69,194L204.00000000000003,246.99999999999997L219.99999999999997,395L310.00000000000006,312L355,392L373,493.99999999999994"></path><path id="#path_m" fill="none" stroke-width="5" stroke="#00ffff" stroke-opacity="0.3" d="M367,392L369,327L247,172L247,291L176,538L241,468L241,552L191,562L211,495.99999999999994L129,405L69,194L204.00000000000003,246.99999999999997L219.99999999999997,395L310.00000000000006,312L355,392L373,493.99999999999994"></path><path id="#path_m" fill="none" stroke-width="5" stroke="#00ffff" stroke-opacity="0.3" d="M367,392L369,327L247,172L247,291L176,538L241,468L241,552L191,562L211,495.99999999999994L129,405L69,194L204.00000000000003,246.99999999999997L219.99999999999997,395L310.00000000000006,312L355,392L373,493.99999999999994"></path><path id="#path_m" fill="none" stroke-width="5" stroke="#00ffff" stroke-opacity="0.3" d="M367,392L369,327L247,172L247,291L176,538L241,468L241,552L191,562L211,495.99999999999994L129,405L69,194L204.00000000000003,246.99999999999997L219.99999999999997,395L310.00000000000006,312L355,392L373,493.99999999999994"></path><path id="#path_m" fill="none" stroke-width="5" stroke="#00ffff" stroke-opacity="0.3" d="M367,392L369,327L247,172L247,291L176,538L241,468L241,552L191,562L211,495.99999999999994L129,405L69,194L204.00000000000003,246.99999999999997L219.99999999999997,395L310.00000000000006,312L355,392L373,493.99999999999994"></path><path id="#path_m" fill="none" stroke-width="5" stroke="#00ffff" stroke-opacity="0.3" d="M367,392L369,327L247,172L247,291L176,538L241,468L241,552L191,562L211,495.99999999999994L129,405L69,194L204.00000000000003,246.99999999999997L219.99999999999997,395L310.00000000000006,312L355,392L373,493.99999999999994"></path><path id="#path_m" fill="none" stroke-width="5" stroke="#00ffff" stroke-opacity="0.3" d="M367,392L369,327L247,172L247,291L176,538L241,468L241,552L191,562L211,495.99999999999994L129,405L69,194L204.00000000000003,246.99999999999997L219.99999999999997,395L310.00000000000006,312L355,392L373,493.99999999999994"></path><path id="#path_m" fill="none" stroke-width="5" stroke="#00ffff" stroke-opacity="0.3" d="M367,392L369,327L247,172L247,291L176,538L241,468L241,552L191,562L211,495.99999999999994L129,405L69,194L204.00000000000003,246.99999999999997L219.99999999999997,395L310.00000000000006,312L355,392L373,493.99999999999994"></path><path id="#path_m" fill="none" stroke-width="5" stroke="#00ffff" stroke-opacity="0.3" d="M367,392L369,327L247,172L247,291L176,538L241,468L241,552L191,562L211,495.99999999999994L129,405L69,194L204.00000000000003,246.99999999999997L219.99999999999997,395L310.00000000000006,312L355,392L373,493.99999999999994"></path><path id="#path_m" fill="none" stroke-width="5" stroke="#00ffff" stroke-opacity="0.3" d="M367,392L369,327L247,172L247,291L176,538L241,468L241,552L191,562L211,495.99999999999994L129,405L69,194L204.00000000000003,246.99999999999997L219.99999999999997,395L310.00000000000006,312L355,392L373,493.99999999999994"></path><path id="#path_m" fill="none" stroke-width="5" stroke="#00ffff" stroke-opacity="0.3" d="M367,392L369,327L247,172L247,291L176,538L241,468L241,552L191,562L211,495.99999999999994L129,405L69,194L204.00000000000003,246.99999999999997L219.99999999999997,395L310.00000000000006,312L355,392L373,493.99999999999994"></path><path id="#path_m" fill="none" stroke-width="5" stroke="#00ffff" stroke-opacity="0.3" d="M367,392L369,327L247,172L247,291L176,538L241,468L241,552L191,562L211,495.99999999999994L129,405L69,194L204.00000000000003,246.99999999999997L219.99999999999997,395L310.00000000000006,312L355,392L373,493.99999999999994"></path><path id="#path_m" fill="none" stroke-width="5" stroke="#00ffff" stroke-opacity="0.3" d="M367,392L369,327L247,172L247,291L176,538L241,468L241,552L191,562L211,495.99999999999994L129,405L69,194L204.00000000000003,246.99999999999997L219.99999999999997,395L310.00000000000006,312L355,392L373,493.99999999999994"></path><path id="#path_m" fill="none" stroke-width="5" stroke="#00ffff" stroke-opacity="0.3" d="M367,392L369,327L247,172L247,291L176,538L241,468L241,552L191,562L211,495.99999999999994L129,405L69,194L204.00000000000003,246.99999999999997L219.99999999999997,395L310.00000000000006,312L355,392L373,493.99999999999994"></path><path id="#path_m" fill="none" stroke-width="5" stroke="#00ffff" stroke-opacity="0.3" d="M367,392L369,327L247,172L247,291L176,538L241,468L241,552L191,562L211,495.99999999999994L129,405L69,194L204.00000000000003,246.99999999999997L219.99999999999997,395L310.00000000000006,312L355,392L373,493.99999999999994"></path><path id="#path_m" fill="none" stroke-width="5" stroke="#00ffff" stroke-opacity="0.3" d="M367,392L369,327L247,172L247,291L176,538L241,468L241,552L191,562L211,495.99999999999994L129,405L69,194L204.00000000000003,246.99999999999997L219.99999999999997,395L310.00000000000006,312L355,392L373,493.99999999999994"></path><path id="#path_m" fill="none" stroke-width="5" stroke="#00ffff" stroke-opacity="0.3" d="M367,392L369,327L247,172L247,291L176,538L241,468L241,552L191,562L211,495.99999999999994L129,405L69,194L204.00000000000003,246.99999999999997L219.99999999999997,395L310.00000000000006,312L355,392L373,493.99999999999994"></path><path id="#path_m" fill="none" stroke-width="5" stroke="#00ffff" stroke-opacity="0.3" d="M367,392L369,327L247,172L247,291L176,538L241,468L241,552L191,562L211,495.99999999999994L129,405L69,194L204.00000000000003,246.99999999999997L219.99999999999997,395L310.00000000000006,312L355,392L373,493.99999999999994"></path><path id="#path_m" fill="none" stroke-width="5" stroke="#00ffff" stroke-opacity="0.3" d="M367,392L369,327L247,172L247,291L176,538L241,468L241,552L191,562L211,495.99999999999994L129,405L69,194L204.00000000000003,246.99999999999997L219.99999999999997,395L310.00000000000006,312L355,392L373,493.99999999999994"></path><path id="#path_m" fill="none" stroke-width="5" stroke="#00ffff" stroke-opacity="0.3" d="M367,392L369,327L247,172L247,291L176,538L241,468L241,552L191,562L211,495.99999999999994L129,405L69,194L204.00000000000003,246.99999999999997L219.99999999999997,395L310.00000000000006,312L355,392L373,493.99999999999994"></path><path id="#path_m" fill="none" stroke-width="5" stroke="#00ffff" stroke-opacity="0.3" d="M367,392L369,327L247,172L247,291L176,538L241,468L241,552L191,562L211,495.99999999999994L129,405L69,194L204.00000000000003,246.99999999999997L219.99999999999997,395L310.00000000000006,312L355,392L373,493.99999999999994"></path><path id="#path_m" fill="none" stroke-width="5" stroke="#00ffff" stroke-opacity="0.3" d="M367,392L369,327L247,172L247,291L176,538L241,468L241,552L191,562L211,495.99999999999994L129,405L69,194L204.00000000000003,246.99999999999997L219.99999999999997,395L310.00000000000006,312L355,392L373,493.99999999999994"></path><path id="#path_m" fill="none" stroke-width="5" stroke="#00ffff" stroke-opacity="0.3" d="M367,392L369,327L247,172L247,291L176,538L241,468L241,552L191,562L211,495.99999999999994L129,405L69,194L204.00000000000003,246.99999999999997L219.99999999999997,395L310.00000000000006,312L355,392L373,493.99999999999994"></path><path id="#path_m" fill="none" stroke-width="5" stroke="#00ffff" stroke-opacity="0.3" d="M367,392L369,327L247,172L247,291L176,538L241,468L241,552L191,562L211,495.99999999999994L129,405L69,194L204.00000000000003,246.99999999999997L219.99999999999997,395L310.00000000000006,312L355,392L373,493.99999999999994"></path><path id="#path_m" fill="none" stroke-width="5" stroke="#00ffff" stroke-opacity="0.3" d="M367,392L369,327L247,172L247,291L176,538L241,468L241,552L191,562L211,495.99999999999994L129,405L69,194L204.00000000000003,246.99999999999997L219.99999999999997,395L310.00000000000006,312L355,392L373,493.99999999999994"></path><path id="#path_m" fill="none" stroke-width="5" stroke="#00ffff" stroke-opacity="0.3" d="M367,392L369,327L247,172L247,291L176,538L241,468L241,552L191,562L211,495.99999999999994L129,405L69,194L204.00000000000003,246.99999999999997L219.99999999999997,395L310.00000000000006,312L355,392L373,493.99999999999994"></path><path id="#path_m" fill="none" stroke-width="5" stroke="#00ffff" stroke-opacity="0.3" d="M367,392L369,327L247,172L247,291L176,538L241,468L241,552L191,562L211,495.99999999999994L129,405L69,194L204.00000000000003,246.99999999999997L219.99999999999997,395L310.00000000000006,312L355,392L373,493.99999999999994"></path><path id="#path_m" fill="none" stroke-width="5" stroke="#00ffff" stroke-opacity="0.3" d="M367,392L369,327L247,172L247,291L176,538L241,468L241,552L191,562L211,495.99999999999994L129,405L69,194L204.00000000000003,246.99999999999997L219.99999999999997,395L310.00000000000006,312L355,392L373,493.99999999999994"></path><path id="#path_m" fill="none" stroke-width="5" stroke="#00ffff" stroke-opacity="0.3" d="M367,392L369,327L247,172L247,291L176,538L241,468L241,552L191,562L211,495.99999999999994L129,405L69,194L204.00000000000003,246.99999999999997L219.99999999999997,395L310.00000000000006,312L355,392L373,493.99999999999994"></path><path id="#path_m" fill="none" stroke-width="5" stroke="#00ffff" stroke-opacity="0.3" d="M367,392L369,327L247,172L247,291L176,538L241,468L241,552L191,562L211,495.99999999999994L129,405L69,194L204.00000000000003,246.99999999999997L219.99999999999997,395L310.00000000000006,312L355,392L373,493.99999999999994"></path><path id="#path_m" fill="none" stroke-width="5" stroke="#00ffff" stroke-opacity="0.3" d="M367,392L369,327L247,172L247,291L176,538L241,468L241,552L191,562L211,495.99999999999994L129,405L69,194L204.00000000000003,246.99999999999997L219.99999999999997,395L310.00000000000006,312L355,392L373,493.99999999999994"></path><path id="#path_m" fill="none" stroke-width="5" stroke="#00ffff" stroke-opacity="0.3" d="M367,392L369,327L247,172L247,291L176,538L241,468L241,552L191,562L211,495.99999999999994L129,405L69,194L204.00000000000003,246.99999999999997L219.99999999999997,395L310.00000000000006,312L355,392L373,493.99999999999994"></path><path id="#path_m" fill="none" stroke-width="5" stroke="#00ffff" stroke-opacity="0.3" d="M367,392L369,327L247,172L247,291L176,538L241,468L241,552L191,562L211,495.99999999999994L129,405L69,194L204.00000000000003,246.99999999999997L219.99999999999997,395L310.00000000000006,312L355,392L373,493.99999999999994"></path><path id="#path_m" fill="none" stroke-width="5" stroke="#00ffff" stroke-opacity="0.3" d="M367,392L369,327L247,172L247,291L176,538L241,468L241,552L191,562L211,495.99999999999994L129,405L69,194L204.00000000000003,246.99999999999997L219.99999999999997,395L310.00000000000006,312L355,392L373,493.99999999999994"></path><path id="#path_m" fill="none" stroke-width="5" stroke="#00ffff" stroke-opacity="0.3" d="M367,392L369,327L247,172L247,291L176,538L241,468L241,552L191,562L211,495.99999999999994L129,405L69,194L204.00000000000003,246.99999999999997L219.99999999999997,395L310.00000000000006,312L355,392L373,493.99999999999994"></path><path id="#path_m" fill="none" stroke-width="5" stroke="#00ffff" stroke-opacity="0.3" d="M367,392L369,327L247,172L247,291L176,538L241,468L241,552L191,562L211,495.99999999999994L129,405L69,194L204.00000000000003,246.99999999999997L219.99999999999997,395L310.00000000000006,312L355,392L373,493.99999999999994"></path><path id="#path_m" fill="none" stroke-width="5" stroke="#00ffff" stroke-opacity="0.3" d="M367,392L369,327L247,172L247,291L176,538L241,468L241,552L191,562L211,495.99999999999994L129,405L69,194L204.00000000000003,246.99999999999997L219.99999999999997,395L310.00000000000006,312L355,392L373,493.99999999999994"></path><path id="#path_m" fill="none" stroke-width="5" stroke="#00ffff" stroke-opacity="0.3" d="M367,392L369,327L247,172L247,291L176,538L241,468L241,552L191,562L211,495.99999999999994L129,405L69,194L204.00000000000003,246.99999999999997L219.99999999999997,395L310.00000000000006,312L355,392L373,493.99999999999994"></path><path id="#path_m" fill="none" stroke-width="5" stroke="#00ffff" stroke-opacity="0.3" d="M367,392L369,327L247,172L247,291L176,538L241,468L241,552L191,562L211,495.99999999999994L129,405L69,194L204.00000000000003,246.99999999999997L219.99999999999997,395L310.00000000000006,312L355,392L373,493.99999999999994"></path><path id="#path_m" fill="none" stroke-width="5" stroke="#00ffff" stroke-opacity="0.3" d="M367,392L369,327L247,172L247,291L176,538L241,468L241,552L191,562L211,495.99999999999994L129,405L69,194L204.00000000000003,246.99999999999997L219.99999999999997,395L310.00000000000006,312L355,392L373,493.99999999999994"></path><path id="#path_m" fill="none" stroke-width="5" stroke="#00ffff" stroke-opacity="0.3" d="M367,392L369,327L247,172L247,291L176,538L241,468L241,552L191,562L211,495.99999999999994L129,405L69,194L204.00000000000003,246.99999999999997L219.99999999999997,395L310.00000000000006,312L355,392L373,493.99999999999994"></path><path id="#path_m" fill="none" stroke-width="5" stroke="#00ffff" stroke-opacity="0.3" d="M367,392L369,327L247,172L247,291L176,538L241,468L241,552L191,562L211,495.99999999999994L129,405L69,194L204.00000000000003,246.99999999999997L219.99999999999997,395L310.00000000000006,312L355,392L373,493.99999999999994"></path><path id="#path_m" fill="none" stroke-width="5" stroke="#00ffff" stroke-opacity="0.3" d="M367,392L369,327L247,172L247,291L176,538L241,468L241,552L191,562L211,495.99999999999994L129,405L69,194L204.00000000000003,246.99999999999997L219.99999999999997,395L310.00000000000006,312L355,392L373,493.99999999999994"></path><path id="#path_m" fill="none" stroke-width="5" stroke="#00ffff" stroke-opacity="0.3" d="M367,392L369,327L247,172L247,291L176,538L241,468L241,552L191,562L211,495.99999999999994L129,405L69,194L204.00000000000003,246.99999999999997L219.99999999999997,395L310.00000000000006,312L355,392L373,493.99999999999994"></path><path id="#path_m" fill="none" stroke-width="5" stroke="#00ffff" stroke-opacity="0.3" d="M367,392L369,327L247,172L247,291L176,538L241,468L241,552L191,562L211,495.99999999999994L129,405L69,194L204.00000000000003,246.99999999999997L219.99999999999997,395L310.00000000000006,312L355,392L373,493.99999999999994"></path><path id="#path_m" fill="none" stroke-width="5" stroke="#00ffff" stroke-opacity="0.3" d="M367,392L369,327L247,172L247,291L176,538L241,468L241,552L191,562L211,495.99999999999994L129,405L69,194L204.00000000000003,246.99999999999997L219.99999999999997,395L310.00000000000006,312L355,392L373,493.99999999999994"></path><path id="#path_m" fill="none" stroke-width="5" stroke="#00ffff" stroke-opacity="0.3" d="M367,392L369,327L247,172L247,291L176,538L241,468L241,552L191,562L211,495.99999999999994L129,405L69,194L204.00000000000003,246.99999999999997L219.99999999999997,395L310.00000000000006,312L355,392L373,493.99999999999994"></path><path id="#path_m" fill="none" stroke-width="5" stroke="#00ffff" stroke-opacity="0.3" d="M367,392L369,327L247,172L247,291L176,538L241,468L241,552L191,562L211,495.99999999999994L129,405L69,194L204.00000000000003,246.99999999999997L219.99999999999997,395L310.00000000000006,312L355,392L373,493.99999999999994"></path><path id="#path_m" fill="none" stroke-width="5" stroke="#00ffff" stroke-opacity="0.3" d="M367,392L369,327L247,172L247,291L176,538L241,468L241,552L191,562L211,495.99999999999994L129,405L69,194L204.00000000000003,246.99999999999997L219.99999999999997,395L310.00000000000006,312L355,392L373,493.99999999999994"></path><path id="#path_m" fill="none" stroke-width="5" stroke="#00ffff" stroke-opacity="0.3" d="M367,392L369,327L247,172L247,291L176,538L241,468L241,552L191,562L211,495.99999999999994L129,405L69,194L204.00000000000003,246.99999999999997L219.99999999999997,395L310.00000000000006,312L355,392L373,493.99999999999994"></path><path id="#path_m" fill="none" stroke-width="5" stroke="#00ffff" stroke-opacity="0.3" d="M367,392L369,327L247,172L247,291L176,538L241,468L241,552L191,562L211,495.99999999999994L129,405L69,194L204.00000000000003,246.99999999999997L219.99999999999997,395L310.00000000000006,312L355,392L373,493.99999999999994"></path><path id="#path_m" fill="none" stroke-width="5" stroke="#00ffff" stroke-opacity="0.3" d="M367,392L369,327L247,172L247,291L176,538L241,468L241,552L191,562L211,495.99999999999994L129,405L69,194L204.00000000000003,246.99999999999997L219.99999999999997,395L310.00000000000006,312L355,392L373,493.99999999999994"></path><path id="#path_m" fill="none" stroke-width="5" stroke="#00ffff" stroke-opacity="0.3" d="M367,392L369,327L247,172L247,291L176,538L241,468L241,552L191,562L211,495.99999999999994L129,405L69,194L204.00000000000003,246.99999999999997L219.99999999999997,395L310.00000000000006,312L355,392L373,493.99999999999994"></path><path id="#path_m" fill="none" stroke-width="5" stroke="#00ffff" stroke-opacity="0.3" d="M367,392L369,327L247,172L247,291L176,538L241,468L241,552L191,562L211,495.99999999999994L129,405L69,194L204.00000000000003,246.99999999999997L219.99999999999997,395L310.00000000000006,312L355,392L373,493.99999999999994"></path><path id="#path_m" fill="none" stroke-width="5" stroke="#00ffff" stroke-opacity="0.3" d="M367,392L369,327L247,172L247,291L176,538L241,468L241,552L191,562L211,495.99999999999994L129,405L69,194L204.00000000000003,246.99999999999997L219.99999999999997,395L310.00000000000006,312L355,392L373,493.99999999999994"></path><path id="#path_m" fill="none" stroke-width="5" stroke="#00ffff" stroke-opacity="0.3" d="M367,392L369,327L247,172L247,291L176,538L241,468L241,552L191,562L211,495.99999999999994L129,405L69,194L204.00000000000003,246.99999999999997L219.99999999999997,395L310.00000000000006,312L355,392L373,493.99999999999994"></path><path id="#path_m" fill="none" stroke-width="5" stroke="#00ffff" stroke-opacity="0.3" d="M367,392L369,327L247,172L247,291L176,538L241,468L241,552L191,562L211,495.99999999999994L129,405L69,194L204.00000000000003,246.99999999999997L219.99999999999997,395L310.00000000000006,312L355,392L373,493.99999999999994"></path><path id="#path_m" fill="none" stroke-width="5" stroke="#00ffff" stroke-opacity="0.3" d="M367,392L369,327L247,172L247,291L176,538L241,468L241,552L191,562L211,495.99999999999994L129,405L69,194L204.00000000000003,246.99999999999997L219.99999999999997,395L310.00000000000006,312L355,392L373,493.99999999999994"></path><path id="#path_m" fill="none" stroke-width="5" stroke="#00ffff" stroke-opacity="0.3" d="M367,392L369,327L247,172L247,291L176,538L241,468L241,552L191,562L211,495.99999999999994L129,405L69,194L204.00000000000003,246.99999999999997L219.99999999999997,395L310.00000000000006,312L355,392L373,493.99999999999994"></path><path id="#path_m" fill="none" stroke-width="5" stroke="#00ffff" stroke-opacity="0.3" d="M367,392L369,327L247,172L247,291L176,538L241,468L241,552L191,562L211,495.99999999999994L129,405L69,194L204.00000000000003,246.99999999999997L219.99999999999997,395L310.00000000000006,312L355,392L373,493.99999999999994"></path><path id="#path_m" fill="none" stroke-width="5" stroke="#00ffff" stroke-opacity="0.3" d="M367,392L369,327L247,172L247,291L176,538L241,468L241,552L191,562L211,495.99999999999994L129,405L69,194L204.00000000000003,246.99999999999997L219.99999999999997,395L310.00000000000006,312L355,392L373,493.99999999999994"></path><path id="#path_m" fill="none" stroke-width="5" stroke="#00ffff" stroke-opacity="0.3" d="M367,392L369,327L247,172L247,291L176,538L241,468L241,552L191,562L211,495.99999999999994L129,405L69,194L204.00000000000003,246.99999999999997L219.99999999999997,395L310.00000000000006,312L355,392L373,493.99999999999994"></path><path id="#path_m" fill="none" stroke-width="5" stroke="#00ffff" stroke-opacity="0.3" d="M367,392L369,327L247,172L247,291L176,538L241,468L241,552L191,562L211,495.99999999999994L129,405L69,194L204.00000000000003,246.99999999999997L219.99999999999997,395L310.00000000000006,312L355,392L373,493.99999999999994"></path><path id="#path_m" fill="none" stroke-width="5" stroke="#00ffff" stroke-opacity="0.3" d="M367,392L369,327L247,172L247,291L176,538L241,468L241,552L191,562L211,495.99999999999994L129,405L69,194L204.00000000000003,246.99999999999997L219.99999999999997,395L310.00000000000006,312L355,392L373,493.99999999999994"></path><path id="#path_m" fill="none" stroke-width="5" stroke="#00ffff" stroke-opacity="0.3" d="M367,392L369,327L247,172L247,291L176,538L241,468L241,552L191,562L211,495.99999999999994L129,405L69,194L204.00000000000003,246.99999999999997L219.99999999999997,395L310.00000000000006,312L355,392L373,493.99999999999994"></path><path id="#path_m" fill="none" stroke-width="5" stroke="#00ffff" stroke-opacity="0.3" d="M367,392L369,327L247,172L247,291L176,538L241,468L241,552L191,562L211,495.99999999999994L129,405L69,194L204.00000000000003,246.99999999999997L219.99999999999997,395L310.00000000000006,312L355,392L373,493.99999999999994"></path><path id="#path_m" fill="none" stroke-width="5" stroke="#00ffff" stroke-opacity="0.3" d="M367,392L369,327L247,172L247,291L176,538L241,468L241,552L191,562L211,495.99999999999994L129,405L69,194L204.00000000000003,246.99999999999997L219.99999999999997,395L310.00000000000006,312L355,392L373,493.99999999999994"></path><path id="#path_m" fill="none" stroke-width="5" stroke="#00ffff" stroke-opacity="0.3" d="M367,392L369,327L247,172L247,291L176,538L241,468L241,552L191,562L211,495.99999999999994L129,405L69,194L204.00000000000003,246.99999999999997L219.99999999999997,395L310.00000000000006,312L355,392L373,493.99999999999994"></path><path id="#path_m" fill="none" stroke-width="5" stroke="#00ffff" stroke-opacity="0.3" d="M367,392L369,327L247,172L247,291L176,538L241,468L241,552L191,562L211,495.99999999999994L129,405L69,194L204.00000000000003,246.99999999999997L219.99999999999997,395L310.00000000000006,312L355,392L373,493.99999999999994"></path><path id="#path_m" fill="none" stroke-width="5" stroke="#00ffff" stroke-opacity="0.3" d="M367,392L369,327L247,172L247,291L176,538L241,468L241,552L191,562L211,495.99999999999994L129,405L69,194L204.00000000000003,246.99999999999997L219.99999999999997,395L310.00000000000006,312L355,392L373,493.99999999999994"></path><path id="#path_m" fill="none" stroke-width="5" stroke="#00ffff" stroke-opacity="0.3" d="M367,392L369,327L247,172L247,291L176,538L241,468L241,552L191,562L211,495.99999999999994L129,405L69,194L204.00000000000003,246.99999999999997L219.99999999999997,395L310.00000000000006,312L355,392L373,493.99999999999994"></path><path id="#path_m" fill="none" stroke-width="5" stroke="#00ffff" stroke-opacity="0.3" d="M367,392L369,327L247,172L247,291L176,538L241,468L241,552L191,562L211,495.99999999999994L129,405L69,194L204.00000000000003,246.99999999999997L219.99999999999997,395L310.00000000000006,312L355,392L373,493.99999999999994"></path><path id="#path_m" fill="none" stroke-width="5" stroke="#00ffff" stroke-opacity="0.3" d="M367,392L369,327L247,172L247,291L176,538L241,468L241,552L191,562L211,495.99999999999994L129,405L69,194L204.00000000000003,246.99999999999997L219.99999999999997,395L310.00000000000006,312L355,392L373,493.99999999999994"></path><path id="#path_m" fill="none" stroke-width="5" stroke="#00ffff" stroke-opacity="0.3" d="M367,392L369,327L247,172L247,291L176,538L241,468L241,552L191,562L211,495.99999999999994L129,405L69,194L204.00000000000003,246.99999999999997L219.99999999999997,395L310.00000000000006,312L355,392L373,493.99999999999994"></path><path id="#path_m" fill="none" stroke-width="5" stroke="#00ffff" stroke-opacity="0.3" d="M367,392L369,327L247,172L247,291L176,538L241,468L241,552L191,562L211,495.99999999999994L129,405L69,194L204.00000000000003,246.99999999999997L219.99999999999997,395L310.00000000000006,312L355,392L373,493.99999999999994"></path><path id="#path_m" fill="none" stroke-width="5" stroke="#00ffff" stroke-opacity="0.3" d="M367,392L369,327L247,172L247,291L176,538L241,468L241,552L191,562L211,495.99999999999994L129,405L69,194L204.00000000000003,246.99999999999997L219.99999999999997,395L310.00000000000006,312L355,392L373,493.99999999999994"></path><path id="#path_m" fill="none" stroke-width="5" stroke="#00ffff" stroke-opacity="0.3" d="M367,392L369,327L247,172L247,291L176,538L241,468L241,552L191,562L211,495.99999999999994L129,405L69,194L204.00000000000003,246.99999999999997L219.99999999999997,395L310.00000000000006,312L355,392L373,493.99999999999994"></path><path id="#path_m" fill="none" stroke-width="5" stroke="#00ffff" stroke-opacity="0.3" d="M367,392L369,327L247,172L247,291L176,538L241,468L241,552L191,562L211,495.99999999999994L129,405L69,194L204.00000000000003,246.99999999999997L219.99999999999997,395L310.00000000000006,312L355,392L373,493.99999999999994"></path><path id="#path_m" fill="none" stroke-width="5" stroke="#00ffff" stroke-opacity="0.3" d="M367,392L369,327L247,172L247,291L176,538L241,468L241,552L191,562L211,495.99999999999994L129,405L69,194L204.00000000000003,246.99999999999997L219.99999999999997,395L310.00000000000006,312L355,392L373,493.99999999999994"></path><path id="#path_m" fill="none" stroke-width="5" stroke="#00ffff" stroke-opacity="0.3" d="M367,392L369,327L247,172L247,291L176,538L241,468L241,552L191,562L211,495.99999999999994L129,405L69,194L204.00000000000003,246.99999999999997L219.99999999999997,395L310.00000000000006,312L355,392L373,493.99999999999994"></path><path id="#path_m" fill="none" stroke-width="5" stroke="#00ffff" stroke-opacity="0.3" d="M367,392L369,327L247,172L247,291L176,538L241,468L241,552L191,562L211,495.99999999999994L129,405L69,194L204.00000000000003,246.99999999999997L219.99999999999997,395L310.00000000000006,312L355,392L373,493.99999999999994"></path><path id="#path_m" fill="none" stroke-width="5" stroke="#00ffff" stroke-opacity="0.3" d="M367,392L369,327L247,172L247,291L176,538L241,468L241,552L191,562L211,495.99999999999994L129,405L69,194L204.00000000000003,246.99999999999997L219.99999999999997,395L310.00000000000006,312L355,392L373,493.99999999999994"></path><path id="#path_m" fill="none" stroke-width="5" stroke="#00ffff" stroke-opacity="0.3" d="M367,392L369,327L247,172L247,291L176,538L241,468L241,552L191,562L211,495.99999999999994L129,405L69,194L204.00000000000003,246.99999999999997L219.99999999999997,395L310.00000000000006,312L355,392L373,493.99999999999994"></path><path id="#path_m" fill="none" stroke-width="5" stroke="#00ffff" stroke-opacity="0.3" d="M367,392L369,327L247,172L247,291L176,538L241,468L241,552L191,562L211,495.99999999999994L129,405L69,194L204.00000000000003,246.99999999999997L219.99999999999997,395L310.00000000000006,312L355,392L373,493.99999999999994"></path><path id="#path_m" fill="none" stroke-width="5" stroke="#00ffff" stroke-opacity="0.3" d="M367,392L369,327L247,172L247,291L176,538L241,468L241,552L191,562L211,495.99999999999994L129,405L69,194L204.00000000000003,246.99999999999997L219.99999999999997,395L310.00000000000006,312L355,392L373,493.99999999999994"></path><path id="#path_m" fill="none" stroke-width="5" stroke="#00ffff" stroke-opacity="0.3" d="M367,392L369,327L247,172L247,291L176,538L241,468L241,552L191,562L211,495.99999999999994L129,405L69,194L204.00000000000003,246.99999999999997L219.99999999999997,395L310.00000000000006,312L355,392L373,493.99999999999994"></path><path id="#path_m" fill="none" stroke-width="5" stroke="#00ffff" stroke-opacity="0.3" d="M367,392L369,327L247,172L247,291L176,538L241,468L241,552L191,562L211,495.99999999999994L129,405L69,194L204.00000000000003,246.99999999999997L219.99999999999997,395L310.00000000000006,312L355,392L373,493.99999999999994"></path><path id="#path_m" fill="none" stroke-width="5" stroke="#00ffff" stroke-opacity="0.3" d="M367,392L369,327L247,172L247,291L176,538L241,468L241,552L191,562L211,495.99999999999994L129,405L69,194L204.00000000000003,246.99999999999997L219.99999999999997,395L310.00000000000006,312L355,392L373,493.99999999999994"></path><path id="#path_m" fill="none" stroke-width="5" stroke="#00ffff" stroke-opacity="0.3" d="M367,392L369,327L247,172L247,291L176,538L241,468L241,552L191,562L211,495.99999999999994L129,405L69,194L204.00000000000003,246.99999999999997L219.99999999999997,395L310.00000000000006,312L355,392L373,493.99999999999994"></path><path id="#path_m" fill="none" stroke-width="5" stroke="#00ffff" stroke-opacity="0.3" d="M367,392L369,327L247,172L247,291L176,538L241,468L241,552L191,562L211,495.99999999999994L129,405L69,194L204.00000000000003,246.99999999999997L219.99999999999997,395L310.00000000000006,312L355,392L373,493.99999999999994"></path><path id="#path_m" fill="none" stroke-width="5" stroke="#00ffff" stroke-opacity="0.3" d="M367,392L369,327L247,172L247,291L176,538L241,468L241,552L191,562L211,495.99999999999994L129,405L69,194L204.00000000000003,246.99999999999997L219.99999999999997,395L310.00000000000006,312L355,392L373,493.99999999999994"></path><path id="#path_m" fill="none" stroke-width="5" stroke="#00ffff" stroke-opacity="0.3" d="M367,392L369,327L247,172L247,291L176,538L241,468L241,552L191,562L211,495.99999999999994L129,405L69,194L204.00000000000003,246.99999999999997L219.99999999999997,395L310.00000000000006,312L355,392L373,493.99999999999994"></path><path id="#path_m" fill="none" stroke-width="5" stroke="#00ffff" stroke-opacity="0.3" d="M367,392L369,327L247,172L247,291L176,538L241,468L241,552L191,562L211,495.99999999999994L129,405L69,194L204.00000000000003,246.99999999999997L219.99999999999997,395L310.00000000000006,312L355,392L373,493.99999999999994"></path><path id="#path_m" fill="none" stroke-width="5" stroke="#00ffff" stroke-opacity="0.3" d="M367,392L369,327L247,172L247,291L176,538L241,468L241,552L191,562L211,495.99999999999994L129,405L69,194L204.00000000000003,246.99999999999997L219.99999999999997,395L310.00000000000006,312L355,392L373,493.99999999999994"></path><path id="#path_m" fill="none" stroke-width="5" stroke="#00ffff" stroke-opacity="0.3" d="M367,392L369,327L247,172L247,291L176,538L241,468L241,552L191,562L211,495.99999999999994L129,405L69,194L204.00000000000003,246.99999999999997L219.99999999999997,395L310.00000000000006,312L355,392L373,493.99999999999994"></path><path id="#path_m" fill="none" stroke-width="5" stroke="#00ffff" stroke-opacity="0.3" d="M367,392L369,327L247,172L247,291L176,538L241,468L241,552L191,562L211,495.99999999999994L129,405L69,194L204.00000000000003,246.99999999999997L219.99999999999997,395L310.00000000000006,312L355,392L373,493.99999999999994"></path><path id="#path_m" fill="none" stroke-width="5" stroke="#00ffff" stroke-opacity="0.3" d="M367,392L369,327L247,172L247,291L176,538L241,468L241,552L191,562L211,495.99999999999994L129,405L69,194L204.00000000000003,246.99999999999997L219.99999999999997,395L310.00000000000006,312L355,392L373,493.99999999999994"></path><path id="#path_m" fill="none" stroke-width="5" stroke="#00ffff" stroke-opacity="0.3" d="M367,392L369,327L247,172L247,291L176,538L241,468L241,552L191,562L211,495.99999999999994L129,405L69,194L204.00000000000003,246.99999999999997L219.99999999999997,395L310.00000000000006,312L355,392L373,493.99999999999994"></path><path id="#path_m" fill="none" stroke-width="5" stroke="#00ffff" stroke-opacity="0.3" d="M367,392L369,327L247,172L247,291L176,538L241,468L241,552L191,562L211,495.99999999999994L129,405L69,194L204.00000000000003,246.99999999999997L219.99999999999997,395L310.00000000000006,312L355,392L373,493.99999999999994"></path><path id="#path_m" fill="none" stroke-width="5" stroke="#00ffff" stroke-opacity="0.3" d="M367,392L369,327L247,172L247,291L176,538L241,468L241,552L191,562L211,495.99999999999994L129,405L69,194L204.00000000000003,246.99999999999997L219.99999999999997,395L310.00000000000006,312L355,392L373,493.99999999999994"></path></svg>